<?xml version="1.0" encoding="UTF-8" standalone="no"?>
<!DOCTYPE svg PUBLIC "-//W3C//DTD SVG 1.1//EN"
 "http://www.w3.org/Graphics/SVG/1.1/DTD/svg11.dtd">
<!-- Generated by graphviz version 9.0.0 (20230911.1827)
 -->
<!-- Title: E:/GitHub/PRML_Code/src/hw4/lib/config_read.h Pages: 1 -->
<svg width="259pt" height="108pt"
 viewBox="0.00 0.00 258.75 108.00" xmlns="http://www.w3.org/2000/svg" xmlns:xlink="http://www.w3.org/1999/xlink">
<g id="graph0" class="graph" transform="scale(1 1) rotate(0) translate(4 104)">
<title>E:/GitHub/PRML_Code/src/hw4/lib/config_read.h</title>
<!-- Node1 -->
<g id="Node000001" class="node">
<title>Node1</title>
<g id="a_Node000001"><a xlink:title=" ">
<polygon fill="#999999" stroke="#666666" points="179.88,-100 63.38,-100 63.38,-56 179.88,-56 179.88,-100"/>
<text text-anchor="start" x="71.38" y="-86.5" font-family="Helvetica,sans-Serif" font-size="10.00">E:/GitHub/PRML_Code</text>
<text text-anchor="start" x="71.38" y="-74.5" font-family="Helvetica,sans-Serif" font-size="10.00">/src/hw4/lib/config</text>
<text text-anchor="middle" x="121.62" y="-62.5" font-family="Helvetica,sans-Serif" font-size="10.00">_read.h</text>
</a>
</g>
</g>
<!-- Node2 -->
<g id="Node000002" class="node">
<title>Node2</title>
<g id="a_Node000002"><a xlink:title=" ">
<polygon fill="#e0e0e0" stroke="#999999" points="45.25,-20 0,-20 0,0 45.25,0 45.25,-20"/>
<text text-anchor="middle" x="22.62" y="-6.5" font-family="Helvetica,sans-Serif" font-size="10.00">stdio.h</text>
</a>
</g>
</g>
<!-- Node1&#45;&gt;Node2 -->
<g id="edge1_Node000001_Node000002" class="edge">
<title>Node1&#45;&gt;Node2</title>
<g id="a_edge1_Node000001_Node000002"><a xlink:title=" ">
<path fill="none" stroke="#63b8ff" d="M89.48,-55.57C75.4,-46.19 59.18,-35.37 46.24,-26.75"/>
<polygon fill="#63b8ff" stroke="#63b8ff" points="48.19,-23.84 37.93,-21.2 44.31,-29.66 48.19,-23.84"/>
</a>
</g>
</g>
<!-- Node3 -->
<g id="Node000003" class="node">
<title>Node3</title>
<g id="a_Node000003"><a xlink:title=" ">
<polygon fill="#e0e0e0" stroke="#999999" points="110.38,-20 62.88,-20 62.88,0 110.38,0 110.38,-20"/>
<text text-anchor="middle" x="86.62" y="-6.5" font-family="Helvetica,sans-Serif" font-size="10.00">stdlib.h</text>
</a>
</g>
</g>
<!-- Node1&#45;&gt;Node3 -->
<g id="edge2_Node000001_Node000003" class="edge">
<title>Node1&#45;&gt;Node3</title>
<g id="a_edge2_Node000001_Node000003"><a xlink:title=" ">
<path fill="none" stroke="#63b8ff" d="M110.36,-55.75C106.07,-47.66 101.2,-38.48 96.99,-30.55"/>
<polygon fill="#63b8ff" stroke="#63b8ff" points="100.11,-28.95 92.33,-21.76 93.92,-32.23 100.11,-28.95"/>
</a>
</g>
</g>
<!-- Node4 -->
<g id="Node000004" class="node">
<title>Node4</title>
<g id="a_Node000004"><a xlink:title=" ">
<polygon fill="#e0e0e0" stroke="#999999" points="184.5,-20 128.75,-20 128.75,0 184.5,0 184.5,-20"/>
<text text-anchor="middle" x="156.62" y="-6.5" font-family="Helvetica,sans-Serif" font-size="10.00">stdbool.h</text>
</a>
</g>
</g>
<!-- Node1&#45;&gt;Node4 -->
<g id="edge3_Node000001_Node000004" class="edge">
<title>Node1&#45;&gt;Node4</title>
<g id="a_edge3_Node000001_Node000004"><a xlink:title=" ">
<path fill="none" stroke="#63b8ff" d="M132.89,-55.75C137.18,-47.66 142.05,-38.48 146.26,-30.55"/>
<polygon fill="#63b8ff" stroke="#63b8ff" points="149.33,-32.23 150.92,-21.76 143.14,-28.95 149.33,-32.23"/>
</a>
</g>
</g>
<!-- Node5 -->
<g id="Node000005" class="node">
<title>Node5</title>
<g id="a_Node000005"><a xlink:title=" ">
<polygon fill="#e0e0e0" stroke="#999999" points="250.75,-20 202.5,-20 202.5,0 250.75,0 250.75,-20"/>
<text text-anchor="middle" x="226.62" y="-6.5" font-family="Helvetica,sans-Serif" font-size="10.00">string.h</text>
</a>
</g>
</g>
<!-- Node1&#45;&gt;Node5 -->
<g id="edge4_Node000001_Node000005" class="edge">
<title>Node1&#45;&gt;Node5</title>
<g id="a_edge4_Node000001_Node000005"><a xlink:title=" ">
<path fill="none" stroke="#63b8ff" d="M155.72,-55.57C170.79,-46.09 188.19,-35.16 201.98,-26.49"/>
<polygon fill="#63b8ff" stroke="#63b8ff" points="203.84,-29.46 210.44,-21.17 200.12,-23.53 203.84,-29.46"/>
</a>
</g>
</g>
</g>
</svg>
