<?xml version="1.0" encoding="UTF-8" standalone="no"?>
<!DOCTYPE svg PUBLIC "-//W3C//DTD SVG 1.1//EN"
 "http://www.w3.org/Graphics/SVG/1.1/DTD/svg11.dtd">
<!-- Generated by graphviz version 9.0.0 (20230911.1827)
 -->
<!-- Title: E:/GitHub/PRML_Code/src/hw4/lib/config_read.h Pages: 1 -->
<svg width="373pt" height="200pt"
 viewBox="0.00 0.00 372.50 200.00" xmlns="http://www.w3.org/2000/svg" xmlns:xlink="http://www.w3.org/1999/xlink">
<g id="graph0" class="graph" transform="scale(1 1) rotate(0) translate(4 196)">
<title>E:/GitHub/PRML_Code/src/hw4/lib/config_read.h</title>
<!-- Node1 -->
<g id="Node000001" class="node">
<title>Node1</title>
<g id="a_Node000001"><a xlink:title=" ">
<polygon fill="#999999" stroke="#666666" points="245.5,-192 129,-192 129,-148 245.5,-148 245.5,-192"/>
<text text-anchor="start" x="137" y="-178.5" font-family="Helvetica,sans-Serif" font-size="10.00">E:/GitHub/PRML_Code</text>
<text text-anchor="start" x="137" y="-166.5" font-family="Helvetica,sans-Serif" font-size="10.00">/src/hw4/lib/config</text>
<text text-anchor="middle" x="187.25" y="-154.5" font-family="Helvetica,sans-Serif" font-size="10.00">_read.h</text>
</a>
</g>
</g>
<!-- Node2 -->
<g id="Node000002" class="node">
<title>Node2</title>
<g id="a_Node000002"><a xlink:href="config__read_8c.html" target="_top" xlink:title=" ">
<polygon fill="white" stroke="#666666" points="116.5,-112 0,-112 0,-68 116.5,-68 116.5,-112"/>
<text text-anchor="start" x="8" y="-98.5" font-family="Helvetica,sans-Serif" font-size="10.00">E:/GitHub/PRML_Code</text>
<text text-anchor="start" x="8" y="-86.5" font-family="Helvetica,sans-Serif" font-size="10.00">/src/hw4/lib/config</text>
<text text-anchor="middle" x="58.25" y="-74.5" font-family="Helvetica,sans-Serif" font-size="10.00">_read.c</text>
</a>
</g>
</g>
<!-- Node1&#45;&gt;Node2 -->
<g id="edge1_Node000001_Node000002" class="edge">
<title>Node1&#45;&gt;Node2</title>
<g id="a_edge1_Node000001_Node000002"><a xlink:title=" ">
<path fill="none" stroke="#63b8ff" d="M142.31,-141.82C126.3,-132.15 108.53,-121.4 93.46,-112.29"/>
<polygon fill="#63b8ff" stroke="#63b8ff" points="140.34,-144.72 150.7,-146.9 143.96,-138.73 140.34,-144.72"/>
</a>
</g>
</g>
<!-- Node3 -->
<g id="Node000003" class="node">
<title>Node3</title>
<g id="a_Node000003"><a xlink:href="plot__iter_8c.html" target="_top" xlink:title=" ">
<polygon fill="white" stroke="#666666" points="220.5,-32 104,-32 104,0 220.5,0 220.5,-32"/>
<text text-anchor="start" x="112" y="-18.5" font-family="Helvetica,sans-Serif" font-size="10.00">E:/GitHub/PRML_Code</text>
<text text-anchor="middle" x="162.25" y="-6.5" font-family="Helvetica,sans-Serif" font-size="10.00">/src/hw4/lib/plot_iter.c</text>
</a>
</g>
</g>
<!-- Node1&#45;&gt;Node3 -->
<g id="edge2_Node000001_Node000003" class="edge">
<title>Node1&#45;&gt;Node3</title>
<g id="a_edge2_Node000001_Node000003"><a xlink:title=" ">
<path fill="none" stroke="#63b8ff" d="M171.34,-137.28C168.03,-129.23 165,-120.46 163.25,-112 157.52,-84.38 159,-51.27 160.61,-32.33"/>
<polygon fill="#63b8ff" stroke="#63b8ff" points="168.1,-138.6 175.35,-146.33 174.5,-135.77 168.1,-138.6"/>
</a>
</g>
</g>
<!-- Node4 -->
<g id="Node000004" class="node">
<title>Node4</title>
<g id="a_Node000004"><a xlink:href="plot__iter_8h.html" target="_top" xlink:title="Create a gnuplot drawing API for iter.h.">
<polygon fill="white" stroke="#666666" points="288.5,-106 172,-106 172,-74 288.5,-74 288.5,-106"/>
<text text-anchor="start" x="180" y="-92.5" font-family="Helvetica,sans-Serif" font-size="10.00">E:/GitHub/PRML_Code</text>
<text text-anchor="middle" x="230.25" y="-80.5" font-family="Helvetica,sans-Serif" font-size="10.00">/src/hw4/lib/plot_iter.h</text>
</a>
</g>
</g>
<!-- Node1&#45;&gt;Node4 -->
<g id="edge3_Node000001_Node000004" class="edge">
<title>Node1&#45;&gt;Node4</title>
<g id="a_edge3_Node000001_Node000004"><a xlink:title=" ">
<path fill="none" stroke="#63b8ff" d="M204.54,-137.63C210.54,-126.76 216.98,-115.07 221.92,-106.11"/>
<polygon fill="#63b8ff" stroke="#63b8ff" points="201.49,-135.91 199.73,-146.36 207.62,-139.29 201.49,-135.91"/>
</a>
</g>
</g>
<!-- Node5 -->
<g id="Node000005" class="node">
<title>Node5</title>
<g id="a_Node000005"><a xlink:href="hw4_2main_8c.html" target="_top" xlink:title="Basic demonstration for Supervised Learning Algorithm.">
<polygon fill="white" stroke="#666666" points="364.5,-32 248,-32 248,0 364.5,0 364.5,-32"/>
<text text-anchor="start" x="256" y="-18.5" font-family="Helvetica,sans-Serif" font-size="10.00">E:/GitHub/PRML_Code</text>
<text text-anchor="middle" x="306.25" y="-6.5" font-family="Helvetica,sans-Serif" font-size="10.00">/src/hw4/main.c</text>
</a>
</g>
</g>
<!-- Node1&#45;&gt;Node5 -->
<g id="edge6_Node000001_Node000005" class="edge">
<title>Node1&#45;&gt;Node5</title>
<g id="a_edge6_Node000001_Node000005"><a xlink:title=" ">
<path fill="none" stroke="#63b8ff" d="M255.78,-146.68C271.81,-138.28 287.14,-126.99 297.25,-112 313.47,-87.97 311.72,-52.4 308.99,-32.3"/>
<polygon fill="#63b8ff" stroke="#63b8ff" points="254.57,-143.38 247.1,-150.89 257.63,-149.67 254.57,-143.38"/>
</a>
</g>
</g>
<!-- Node4&#45;&gt;Node3 -->
<g id="edge4_Node000004_Node000003" class="edge">
<title>Node4&#45;&gt;Node3</title>
<g id="a_edge4_Node000004_Node000003"><a xlink:title=" ">
<path fill="none" stroke="#63b8ff" d="M208,-65.44C197.7,-54.53 185.75,-41.88 176.65,-32.25"/>
<polygon fill="#63b8ff" stroke="#63b8ff" points="205.38,-67.76 214.79,-72.63 210.47,-62.96 205.38,-67.76"/>
</a>
</g>
</g>
<!-- Node4&#45;&gt;Node5 -->
<g id="edge5_Node000004_Node000005" class="edge">
<title>Node4&#45;&gt;Node5</title>
<g id="a_edge5_Node000004_Node000005"><a xlink:title=" ">
<path fill="none" stroke="#63b8ff" d="M254.71,-65.82C266.22,-54.92 279.64,-42.21 289.89,-32.5"/>
<polygon fill="#63b8ff" stroke="#63b8ff" points="252.32,-63.27 247.47,-72.69 257.13,-68.35 252.32,-63.27"/>
</a>
</g>
</g>
</g>
</svg>
