<?xml version="1.0" encoding="UTF-8" standalone="no"?>
<!DOCTYPE svg PUBLIC "-//W3C//DTD SVG 1.1//EN"
 "http://www.w3.org/Graphics/SVG/1.1/DTD/svg11.dtd">
<!-- Generated by graphviz version 9.0.0 (20230911.1827)
 -->
<!-- Title: E:/GitHub/PRML_Code/src/hw4/lib/config_read.h Pages: 1 -->
<svg width="520pt" height="268pt"
 viewBox="0.00 0.00 519.78 268.00" xmlns="http://www.w3.org/2000/svg" xmlns:xlink="http://www.w3.org/1999/xlink">
<g id="graph0" class="graph" transform="scale(1 1) rotate(0) translate(4 264)">
<title>E:/GitHub/PRML_Code/src/hw4/lib/config_read.h</title>
<!-- Node1 -->
<g id="Node000001" class="node">
<title>Node1</title>
<g id="a_Node000001"><a xlink:title=" ">
<polygon fill="#999999" stroke="#666666" points="331.5,-260 215,-260 215,-216 331.5,-216 331.5,-260"/>
<text text-anchor="start" x="223" y="-246.5" font-family="Helvetica,sans-Serif" font-size="10.00">E:/GitHub/PRML_Code</text>
<text text-anchor="start" x="223" y="-234.5" font-family="Helvetica,sans-Serif" font-size="10.00">/src/hw4/lib/config</text>
<text text-anchor="middle" x="273.25" y="-222.5" font-family="Helvetica,sans-Serif" font-size="10.00">_read.h</text>
</a>
</g>
</g>
<!-- Node2 -->
<g id="Node000002" class="node">
<title>Node2</title>
<g id="a_Node000002"><a xlink:href="config__read_8c.html" target="_top" xlink:title=" ">
<polygon fill="white" stroke="#666666" points="116.5,-180 0,-180 0,-136 116.5,-136 116.5,-180"/>
<text text-anchor="start" x="8" y="-166.5" font-family="Helvetica,sans-Serif" font-size="10.00">E:/GitHub/PRML_Code</text>
<text text-anchor="start" x="8" y="-154.5" font-family="Helvetica,sans-Serif" font-size="10.00">/src/hw4/lib/config</text>
<text text-anchor="middle" x="58.25" y="-142.5" font-family="Helvetica,sans-Serif" font-size="10.00">_read.c</text>
</a>
</g>
</g>
<!-- Node1&#45;&gt;Node2 -->
<g id="edge1_Node000001_Node000002" class="edge">
<title>Node1&#45;&gt;Node2</title>
<g id="a_edge1_Node000001_Node000002"><a xlink:title=" ">
<path fill="none" stroke="#63b8ff" d="M203.96,-211.86C175.89,-201.68 143.82,-190.04 116.93,-180.29"/>
<polygon fill="#63b8ff" stroke="#63b8ff" points="202.48,-215.05 213.08,-215.17 204.87,-208.47 202.48,-215.05"/>
</a>
</g>
</g>
<!-- Node3 -->
<g id="Node000003" class="node">
<title>Node3</title>
<g id="a_Node000003"><a xlink:href="iter_8c.html" target="_top" xlink:title=" ">
<polygon fill="white" stroke="#666666" points="288.5,-100 172,-100 172,-68 288.5,-68 288.5,-100"/>
<text text-anchor="start" x="180" y="-86.5" font-family="Helvetica,sans-Serif" font-size="10.00">E:/GitHub/PRML_Code</text>
<text text-anchor="middle" x="230.25" y="-74.5" font-family="Helvetica,sans-Serif" font-size="10.00">/src/hw4/lib/iter.c</text>
</a>
</g>
</g>
<!-- Node1&#45;&gt;Node3 -->
<g id="edge2_Node000001_Node000003" class="edge">
<title>Node1&#45;&gt;Node3</title>
<g id="a_edge2_Node000001_Node000003"><a xlink:title=" ">
<path fill="none" stroke="#63b8ff" d="M258.53,-205.2C255.15,-197.1 251.81,-188.33 249.25,-180 240.81,-152.51 235.17,-119.35 232.35,-100.37"/>
<polygon fill="#63b8ff" stroke="#63b8ff" points="255.3,-206.55 262.49,-214.34 261.73,-203.77 255.3,-206.55"/>
</a>
</g>
</g>
<!-- Node4 -->
<g id="Node000004" class="node">
<title>Node4</title>
<g id="a_Node000004"><a xlink:href="iter_8h.html" target="_top" xlink:title="Iterate through points and fine the point closest to the intersection of lines.">
<polygon fill="white" stroke="#666666" points="374.5,-174 258,-174 258,-142 374.5,-142 374.5,-174"/>
<text text-anchor="start" x="266" y="-160.5" font-family="Helvetica,sans-Serif" font-size="10.00">E:/GitHub/PRML_Code</text>
<text text-anchor="middle" x="316.25" y="-148.5" font-family="Helvetica,sans-Serif" font-size="10.00">/src/hw4/lib/iter.h</text>
</a>
</g>
</g>
<!-- Node1&#45;&gt;Node4 -->
<g id="edge3_Node000001_Node000004" class="edge">
<title>Node1&#45;&gt;Node4</title>
<g id="a_edge3_Node000001_Node000004"><a xlink:title=" ">
<path fill="none" stroke="#63b8ff" d="M290.54,-205.63C296.54,-194.76 302.98,-183.07 307.92,-174.11"/>
<polygon fill="#63b8ff" stroke="#63b8ff" points="287.49,-203.91 285.73,-214.36 293.62,-207.29 287.49,-203.91"/>
</a>
</g>
</g>
<!-- Node5 -->
<g id="Node000005" class="node">
<title>Node5</title>
<g id="a_Node000005"><a xlink:href="plot__iter_8c.html" target="_top" xlink:title=" ">
<polygon fill="white" stroke="#666666" points="368.5,-32 252,-32 252,0 368.5,0 368.5,-32"/>
<text text-anchor="start" x="260" y="-18.5" font-family="Helvetica,sans-Serif" font-size="10.00">E:/GitHub/PRML_Code</text>
<text text-anchor="middle" x="310.25" y="-6.5" font-family="Helvetica,sans-Serif" font-size="10.00">/src/hw4/lib/plot_iter.c</text>
</a>
</g>
</g>
<!-- Node1&#45;&gt;Node5 -->
<g id="edge10_Node000001_Node000005" class="edge">
<title>Node1&#45;&gt;Node5</title>
<g id="a_edge10_Node000001_Node000005"><a xlink:title=" ">
<path fill="none" stroke="#63b8ff" d="M232.24,-208.68C188.19,-174.72 128.86,-116.33 163.25,-68 183.3,-39.83 220.05,-27.08 251.78,-21.37"/>
<polygon fill="#63b8ff" stroke="#63b8ff" points="230.06,-211.42 240.16,-214.64 234.27,-205.83 230.06,-211.42"/>
</a>
</g>
</g>
<!-- Node6 -->
<g id="Node000006" class="node">
<title>Node6</title>
<g id="a_Node000006"><a xlink:href="plot__iter_8h.html" target="_top" xlink:title="Create a gnuplot drawing API for iter.h.">
<polygon fill="white" stroke="#666666" points="498.5,-100 382,-100 382,-68 498.5,-68 498.5,-100"/>
<text text-anchor="start" x="390" y="-86.5" font-family="Helvetica,sans-Serif" font-size="10.00">E:/GitHub/PRML_Code</text>
<text text-anchor="middle" x="440.25" y="-74.5" font-family="Helvetica,sans-Serif" font-size="10.00">/src/hw4/lib/plot_iter.h</text>
</a>
</g>
</g>
<!-- Node1&#45;&gt;Node6 -->
<g id="edge11_Node000001_Node000006" class="edge">
<title>Node1&#45;&gt;Node6</title>
<g id="a_edge11_Node000001_Node000006"><a xlink:title=" ">
<path fill="none" stroke="#63b8ff" d="M339.02,-210.42C354.64,-202.17 370.46,-192.02 383.25,-180 407.92,-156.82 425.61,-120.61 434.26,-100.24"/>
<polygon fill="#63b8ff" stroke="#63b8ff" points="337.53,-207.26 330.18,-214.89 340.68,-213.5 337.53,-207.26"/>
</a>
</g>
</g>
<!-- Node7 -->
<g id="Node000007" class="node">
<title>Node7</title>
<g id="a_Node000007"><a xlink:href="hw4_2main_8c.html" target="_top" xlink:title="Basic demonstration for Supervised Learning Algorithm.">
<polygon fill="white" stroke="#666666" points="503.5,-32 387,-32 387,0 503.5,0 503.5,-32"/>
<text text-anchor="start" x="395" y="-18.5" font-family="Helvetica,sans-Serif" font-size="10.00">E:/GitHub/PRML_Code</text>
<text text-anchor="middle" x="445.25" y="-6.5" font-family="Helvetica,sans-Serif" font-size="10.00">/src/hw4/main.c</text>
</a>
</g>
</g>
<!-- Node1&#45;&gt;Node7 -->
<g id="edge12_Node000001_Node000007" class="edge">
<title>Node1&#45;&gt;Node7</title>
<g id="a_edge12_Node000001_Node000007"><a xlink:title=" ">
<path fill="none" stroke="#63b8ff" d="M342.65,-219.77C400.18,-201.17 477.2,-165.04 507.25,-100 513.22,-87.09 513.32,-80.86 507.25,-68 500.17,-53 486.27,-40.93 473.43,-32.3"/>
<polygon fill="#63b8ff" stroke="#63b8ff" points="341.74,-216.39 333.24,-222.7 343.82,-223.07 341.74,-216.39"/>
</a>
</g>
</g>
<!-- Node4&#45;&gt;Node3 -->
<g id="edge4_Node000004_Node000003" class="edge">
<title>Node4&#45;&gt;Node3</title>
<g id="a_edge4_Node000004_Node000003"><a xlink:title=" ">
<path fill="none" stroke="#63b8ff" d="M289.33,-134.46C276.14,-123.42 260.59,-110.4 248.76,-100.5"/>
<polygon fill="#63b8ff" stroke="#63b8ff" points="286.94,-137.02 296.85,-140.76 291.43,-131.66 286.94,-137.02"/>
</a>
</g>
</g>
<!-- Node4&#45;&gt;Node5 -->
<g id="edge5_Node000004_Node000005" class="edge">
<title>Node4&#45;&gt;Node5</title>
<g id="a_edge5_Node000004_Node000005"><a xlink:title=" ">
<path fill="none" stroke="#63b8ff" d="M315.11,-130.42C313.87,-101.35 311.91,-55.78 310.9,-32.23"/>
<polygon fill="#63b8ff" stroke="#63b8ff" points="311.61,-130.4 315.53,-140.24 318.6,-130.1 311.61,-130.4"/>
</a>
</g>
</g>
<!-- Node4&#45;&gt;Node6 -->
<g id="edge6_Node000004_Node000006" class="edge">
<title>Node4&#45;&gt;Node6</title>
<g id="a_edge6_Node000004_Node000006"><a xlink:title=" ">
<path fill="none" stroke="#63b8ff" d="M352.65,-135.86C372.21,-124.51 395.89,-110.76 413.69,-100.42"/>
<polygon fill="#63b8ff" stroke="#63b8ff" points="351.05,-132.75 344.16,-140.79 354.57,-138.8 351.05,-132.75"/>
</a>
</g>
</g>
<!-- Node4&#45;&gt;Node7 -->
<g id="edge9_Node000004_Node000007" class="edge">
<title>Node4&#45;&gt;Node7</title>
<g id="a_edge9_Node000004_Node000007"><a xlink:title=" ">
<path fill="none" stroke="#63b8ff" d="M329.04,-131.62C339.34,-112.75 355.06,-87.06 373.25,-68 386.58,-54.04 404.23,-41.46 418.72,-32.3"/>
<polygon fill="#63b8ff" stroke="#63b8ff" points="326.06,-129.77 324.47,-140.25 332.25,-133.05 326.06,-129.77"/>
</a>
</g>
</g>
<!-- Node6&#45;&gt;Node5 -->
<g id="edge7_Node000006_Node000005" class="edge">
<title>Node6&#45;&gt;Node5</title>
<g id="a_edge7_Node000006_Node000005"><a xlink:title=" ">
<path fill="none" stroke="#63b8ff" d="M399.55,-62.34C380.46,-52.65 358.11,-41.3 340.54,-32.38"/>
<polygon fill="#63b8ff" stroke="#63b8ff" points="397.92,-65.43 408.42,-66.84 401.09,-59.19 397.92,-65.43"/>
</a>
</g>
</g>
<!-- Node6&#45;&gt;Node7 -->
<g id="edge8_Node000006_Node000007" class="edge">
<title>Node6&#45;&gt;Node7</title>
<g id="a_edge8_Node000006_Node000007"><a xlink:title=" ">
<path fill="none" stroke="#63b8ff" d="M442.27,-56.31C442.89,-48.12 443.55,-39.38 444.1,-32.22"/>
<polygon fill="#63b8ff" stroke="#63b8ff" points="438.79,-55.95 441.52,-66.18 445.77,-56.48 438.79,-55.95"/>
</a>
</g>
</g>
</g>
</svg>
