<?xml version="1.0" encoding="UTF-8" standalone="no"?>
<!DOCTYPE svg PUBLIC "-//W3C//DTD SVG 1.1//EN"
 "http://www.w3.org/Graphics/SVG/1.1/DTD/svg11.dtd">
<!-- Generated by graphviz version 9.0.0 (20230911.1827)
 -->
<!-- Title: E:/GitHub/PRML_Code/src/hw3 Pages: 1 -->
<svg width="96pt" height="200pt"
 viewBox="0.00 0.00 96.00 200.00" xmlns="http://www.w3.org/2000/svg" xmlns:xlink="http://www.w3.org/1999/xlink">
<g id="graph0" class="graph" transform="scale(1 1) rotate(0) translate(4 196)">
<title>E:/GitHub/PRML_Code/src/hw3</title>
<g id="clust1" class="cluster">
<title>clusterdir_68267d1309a1af8e8297ef4c3efbcdba</title>
<g id="a_clust1"><a xlink:href="dir_68267d1309a1af8e8297ef4c3efbcdba.html" target="_top" xlink:title="src">
<polygon fill="#daedff" stroke="#404040" stroke-dasharray="5,2" points="8,-8 8,-184 80,-184 80,-8 8,-8"/>
<text text-anchor="middle" x="44" y="-170.5" font-family="Helvetica,sans-Serif" font-size="10.00">src</text>
</a>
</g>
</g>
<g id="clust2" class="cluster">
<title>clusterdir_9be29e0c90fb0d94c2d500a55b1d46c8</title>
<g id="a_clust2"><a xlink:href="dir_9be29e0c90fb0d94c2d500a55b1d46c8.html" target="_top">
<polygon fill="#daedff" stroke="#404040" stroke-width="2" points="16,-64 16,-156 66,-156 66,-64 16,-64"/>
</a>
</g>
</g>
<!-- dir_ee3448fa1dc3d93b4fb7d6fba5be0d5c -->
<g id="node1" class="node">
<title>dir_ee3448fa1dc3d93b4fb7d6fba5be0d5c</title>
<g id="a_node1"><a xlink:href="dir_ee3448fa1dc3d93b4fb7d6fba5be0d5c.html" target="_top" xlink:title="libc">
<polygon fill="#4ea9ff" stroke="#404040" points="62.5,-36 31.5,-36 31.5,-16 62.5,-16 62.5,-36"/>
<text text-anchor="middle" x="47" y="-22.5" font-family="Helvetica,sans-Serif" font-size="10.00">libc</text>
</a>
</g>
</g>
<!-- dir_9be29e0c90fb0d94c2d500a55b1d46c8 -->
<g id="node2" class="node">
<title>dir_9be29e0c90fb0d94c2d500a55b1d46c8</title>
<text text-anchor="middle" x="41" y="-134.5" font-family="Helvetica,sans-Serif" font-size="10.00">hw3</text>
</g>
<!-- dir_9be29e0c90fb0d94c2d500a55b1d46c8&#45;&gt;dir_ee3448fa1dc3d93b4fb7d6fba5be0d5c -->
<g id="edge1" class="edge">
<title>dir_9be29e0c90fb0d94c2d500a55b1d46c8&#45;&gt;dir_ee3448fa1dc3d93b4fb7d6fba5be0d5c</title>
<path fill="none" stroke="#63b8ff" d="M46.32,-128.07C51.23,-119.26 58.2,-105.21 61,-92 63.58,-79.83 63.24,-76.24 61,-64 59.94,-58.22 58.03,-52.18 55.95,-46.69"/>
<polygon fill="#63b8ff" stroke="#63b8ff" points="59.35,-45.73 52.26,-37.86 52.89,-48.44 59.35,-45.73"/>
<g id="a_edge1&#45;headlabel"><a xlink:href="dir_000002_000007.html" target="_top" xlink:title="6">
<text text-anchor="middle" x="62.77" y="-43.06" font-family="Helvetica,sans-Serif" font-size="10.00" fill="#63b8ff">6</text>
</a>
</g>
</g>
<!-- dir_f9679826a85f35a0b30ed3f0b44907d9 -->
<g id="node3" class="node">
<title>dir_f9679826a85f35a0b30ed3f0b44907d9</title>
<g id="a_node3"><a xlink:href="dir_f9679826a85f35a0b30ed3f0b44907d9.html" target="_top" xlink:title="lib">
<polygon fill="#4ea9ff" stroke="#404040" points="52.4,-92 23.6,-92 23.6,-72 52.4,-72 52.4,-92"/>
<text text-anchor="middle" x="38" y="-78.5" font-family="Helvetica,sans-Serif" font-size="10.00">lib</text>
</a>
</g>
</g>
<!-- dir_9be29e0c90fb0d94c2d500a55b1d46c8&#45;&gt;dir_f9679826a85f35a0b30ed3f0b44907d9 -->
<g id="edge2" class="edge">
<title>dir_9be29e0c90fb0d94c2d500a55b1d46c8&#45;&gt;dir_f9679826a85f35a0b30ed3f0b44907d9</title>
<path fill="none" stroke="#63b8ff" d="M40.5,-128.08C40.14,-121.48 39.62,-112.21 39.16,-103.79"/>
<polygon fill="#63b8ff" stroke="#63b8ff" points="42.66,-103.78 38.61,-93.99 35.67,-104.17 42.66,-103.78"/>
<g id="a_edge2&#45;headlabel"><a xlink:href="dir_000002_000005.html" target="_top" xlink:title="3">
<text text-anchor="middle" x="45.61" y="-102.2" font-family="Helvetica,sans-Serif" font-size="10.00" fill="#63b8ff">3</text>
</a>
</g>
</g>
<!-- dir_f9679826a85f35a0b30ed3f0b44907d9&#45;&gt;dir_ee3448fa1dc3d93b4fb7d6fba5be0d5c -->
<g id="edge3" class="edge">
<title>dir_f9679826a85f35a0b30ed3f0b44907d9&#45;&gt;dir_ee3448fa1dc3d93b4fb7d6fba5be0d5c</title>
<path fill="none" stroke="#63b8ff" d="M39.57,-71.59C40.68,-64.93 42.21,-55.75 43.59,-47.44"/>
<polygon fill="#63b8ff" stroke="#63b8ff" points="47.01,-48.23 45.2,-37.79 40.11,-47.08 47.01,-48.23"/>
<g id="a_edge3&#45;headlabel"><a xlink:href="dir_000005_000007.html" target="_top" xlink:title="4">
<text text-anchor="middle" x="49.47" y="-47.25" font-family="Helvetica,sans-Serif" font-size="10.00" fill="#63b8ff">4</text>
</a>
</g>
</g>
</g>
</svg>
