<?xml version="1.0" encoding="UTF-8" standalone="no"?>
<!DOCTYPE svg PUBLIC "-//W3C//DTD SVG 1.1//EN"
 "http://www.w3.org/Graphics/SVG/1.1/DTD/svg11.dtd">
<!-- Generated by graphviz version 9.0.0 (20230911.1827)
 -->
<!-- Title: E:/GitHub/PRML_Code/src/libc/distance.c Pages: 1 -->
<svg width="171pt" height="152pt"
 viewBox="0.00 0.00 171.12 152.00" xmlns="http://www.w3.org/2000/svg" xmlns:xlink="http://www.w3.org/1999/xlink">
<g id="graph0" class="graph" transform="scale(1 1) rotate(0) translate(4 148)">
<title>E:/GitHub/PRML_Code/src/libc/distance.c</title>
<!-- Node1 -->
<g id="Node000001" class="node">
<title>Node1</title>
<g id="a_Node000001"><a xlink:title=" ">
<polygon fill="#999999" stroke="#666666" points="131.88,-144 15.38,-144 15.38,-112 131.88,-112 131.88,-144"/>
<text text-anchor="start" x="23.38" y="-130.5" font-family="Helvetica,sans-Serif" font-size="10.00">E:/GitHub/PRML_Code</text>
<text text-anchor="middle" x="73.62" y="-118.5" font-family="Helvetica,sans-Serif" font-size="10.00">/src/libc/distance.c</text>
</a>
</g>
</g>
<!-- Node2 -->
<g id="Node000002" class="node">
<title>Node2</title>
<g id="a_Node000002"><a xlink:title=" ">
<polygon fill="#e0e0e0" stroke="#999999" points="45.25,-76 0,-76 0,-56 45.25,-56 45.25,-76"/>
<text text-anchor="middle" x="22.62" y="-62.5" font-family="Helvetica,sans-Serif" font-size="10.00">stdio.h</text>
</a>
</g>
</g>
<!-- Node1&#45;&gt;Node2 -->
<g id="edge1_Node000001_Node000002" class="edge">
<title>Node1&#45;&gt;Node2</title>
<g id="a_edge1_Node000001_Node000002"><a xlink:title=" ">
<path fill="none" stroke="#63b8ff" d="M60.49,-111.55C53.63,-103.48 45.19,-93.55 38.02,-85.12"/>
<polygon fill="#63b8ff" stroke="#63b8ff" points="40.75,-82.91 31.6,-77.56 35.41,-87.45 40.75,-82.91"/>
</a>
</g>
</g>
<!-- Node3 -->
<g id="Node000003" class="node">
<title>Node3</title>
<g id="a_Node000003"><a xlink:title=" ">
<polygon fill="#e0e0e0" stroke="#999999" points="125.62,-20 79.62,-20 79.62,0 125.62,0 125.62,-20"/>
<text text-anchor="middle" x="102.62" y="-6.5" font-family="Helvetica,sans-Serif" font-size="10.00">math.h</text>
</a>
</g>
</g>
<!-- Node1&#45;&gt;Node3 -->
<g id="edge2_Node000001_Node000003" class="edge">
<title>Node1&#45;&gt;Node3</title>
<g id="a_edge2_Node000001_Node000003"><a xlink:title=" ">
<path fill="none" stroke="#63b8ff" d="M77.42,-111.84C82.57,-91.22 91.8,-54.29 97.55,-31.31"/>
<polygon fill="#63b8ff" stroke="#63b8ff" points="100.87,-32.46 99.9,-21.91 94.08,-30.76 100.87,-32.46"/>
</a>
</g>
</g>
<!-- Node4 -->
<g id="Node000004" class="node">
<title>Node4</title>
<g id="a_Node000004"><a xlink:href="distance_8h.html" target="_top" xlink:title="Distance calculation functions.">
<polygon fill="white" stroke="#666666" points="163.12,-76 102.12,-76 102.12,-56 163.12,-56 163.12,-76"/>
<text text-anchor="middle" x="132.62" y="-62.5" font-family="Helvetica,sans-Serif" font-size="10.00">distance.h</text>
</a>
</g>
</g>
<!-- Node1&#45;&gt;Node4 -->
<g id="edge3_Node000001_Node000004" class="edge">
<title>Node1&#45;&gt;Node4</title>
<g id="a_edge3_Node000001_Node000004"><a xlink:title=" ">
<path fill="none" stroke="#63b8ff" d="M88.82,-111.55C96.93,-103.3 106.94,-93.12 115.34,-84.57"/>
<polygon fill="#63b8ff" stroke="#63b8ff" points="117.8,-87.07 122.31,-77.49 112.81,-82.16 117.8,-87.07"/>
</a>
</g>
</g>
<!-- Node4&#45;&gt;Node3 -->
<g id="edge4_Node000004_Node000003" class="edge">
<title>Node4&#45;&gt;Node3</title>
<g id="a_edge4_Node000004_Node000003"><a xlink:title=" ">
<path fill="none" stroke="#63b8ff" d="M127.4,-55.59C123.53,-48.63 118.12,-38.89 113.34,-30.29"/>
<polygon fill="#63b8ff" stroke="#63b8ff" points="116.44,-28.66 108.53,-21.62 110.32,-32.06 116.44,-28.66"/>
</a>
</g>
</g>
</g>
</svg>
