<?xml version="1.0" encoding="UTF-8" standalone="no"?>
<!DOCTYPE svg PUBLIC "-//W3C//DTD SVG 1.1//EN"
 "http://www.w3.org/Graphics/SVG/1.1/DTD/svg11.dtd">
<!-- Generated by graphviz version 9.0.0 (20230911.1827)
 -->
<!-- Title: E:/GitHub/PRML_Code/src/hw2/lib/decision_boundary.c Pages: 1 -->
<svg width="418pt" height="220pt"
 viewBox="0.00 0.00 418.25 220.00" xmlns="http://www.w3.org/2000/svg" xmlns:xlink="http://www.w3.org/1999/xlink">

<svg id="main" version="1.1" xmlns="http://www.w3.org/2000/svg" xmlns:xlink="http://www.w3.org/1999/xlink" xml:space="preserve" onload="init(evt)">
<style type="text/css"><![CDATA[
.node, .edge {opacity: 0.7;}
.node.selected, .edge.selected {opacity: 1;}
.edge:hover path { stroke: red; }
.edge:hover polygon { stroke: red; fill: red; }
]]></style>
<script type="application/ecmascript" xlink:href="svg.min.js"/>
<svg id="graph" class="graph">
<g id="graph0" class="graph" transform="scale(1 1) rotate(0) translate(4 216)">
<title>E:/GitHub/PRML_Code/src/hw2/lib/decision_boundary.c</title>
<!-- Node1 -->
<g id="Node000001" class="node">
<title>Node1</title>
<g id="a_Node000001"><a xlink:title=" ">
<polygon fill="#999999" stroke="#666666" points="248.88,-212 132.38,-212 132.38,-168 248.88,-168 248.88,-212"/>
<text text-anchor="start" x="140.38" y="-198.5" font-family="Helvetica,sans-Serif" font-size="10.00">E:/GitHub/PRML_Code</text>
<text text-anchor="start" x="140.38" y="-186.5" font-family="Helvetica,sans-Serif" font-size="10.00">/src/hw2/lib/decision</text>
<text text-anchor="middle" x="190.62" y="-174.5" font-family="Helvetica,sans-Serif" font-size="10.00">_boundary.c</text>
</a>
</g>
</g>
<!-- Node2 -->
<g id="Node000002" class="node">
<title>Node2</title>
<g id="a_Node000002"><a xlink:title=" ">
<polygon fill="#e0e0e0" stroke="#999999" points="45.25,-132 0,-132 0,-112 45.25,-112 45.25,-132"/>
<text text-anchor="middle" x="22.62" y="-118.5" font-family="Helvetica,sans-Serif" font-size="10.00">stdio.h</text>
</a>
</g>
</g>
<!-- Node1&#45;&gt;Node2 -->
<g id="edge1_Node000001_Node000002" class="edge">
<title>Node1&#45;&gt;Node2</title>
<g id="a_edge1_Node000001_Node000002"><a xlink:title=" ">
<path fill="none" stroke="#63b8ff" d="M136.08,-167.57C109.73,-157.22 78.96,-145.13 56.11,-136.16"/>
<polygon fill="#63b8ff" stroke="#63b8ff" points="57.58,-132.97 47,-132.57 55.02,-139.49 57.58,-132.97"/>
</a>
</g>
</g>
<!-- Node3 -->
<g id="Node000003" class="node">
<title>Node3</title>
<g id="a_Node000003"><a xlink:title=" ">
<polygon fill="#e0e0e0" stroke="#999999" points="110.38,-132 62.88,-132 62.88,-112 110.38,-112 110.38,-132"/>
<text text-anchor="middle" x="86.62" y="-118.5" font-family="Helvetica,sans-Serif" font-size="10.00">stdlib.h</text>
</a>
</g>
</g>
<!-- Node1&#45;&gt;Node3 -->
<g id="edge2_Node000001_Node000003" class="edge">
<title>Node1&#45;&gt;Node3</title>
<g id="a_edge2_Node000001_Node000003"><a xlink:title=" ">
<path fill="none" stroke="#63b8ff" d="M156.86,-167.57C141.92,-158.09 124.69,-147.16 111.03,-138.49"/>
<polygon fill="#63b8ff" stroke="#63b8ff" points="112.98,-135.58 102.66,-133.18 109.23,-141.49 112.98,-135.58"/>
</a>
</g>
</g>
<!-- Node4 -->
<g id="Node000004" class="node">
<title>Node4</title>
<g id="a_Node000004"><a xlink:title=" ">
<polygon fill="#e0e0e0" stroke="#999999" points="184.5,-132 128.75,-132 128.75,-112 184.5,-112 184.5,-132"/>
<text text-anchor="middle" x="156.62" y="-118.5" font-family="Helvetica,sans-Serif" font-size="10.00">stdbool.h</text>
</a>
</g>
</g>
<!-- Node1&#45;&gt;Node4 -->
<g id="edge3_Node000001_Node000004" class="edge">
<title>Node1&#45;&gt;Node4</title>
<g id="a_edge3_Node000001_Node000004"><a xlink:title=" ">
<path fill="none" stroke="#63b8ff" d="M179.68,-167.75C175.51,-159.66 170.78,-150.48 166.7,-142.55"/>
<polygon fill="#63b8ff" stroke="#63b8ff" points="169.86,-141.05 162.17,-133.76 163.64,-144.26 169.86,-141.05"/>
</a>
</g>
</g>
<!-- Node5 -->
<g id="Node000005" class="node">
<title>Node5</title>
<g id="a_Node000005"><a xlink:title=" ">
<polygon fill="#e0e0e0" stroke="#999999" points="248.62,-132 202.62,-132 202.62,-112 248.62,-112 248.62,-132"/>
<text text-anchor="middle" x="225.62" y="-118.5" font-family="Helvetica,sans-Serif" font-size="10.00">math.h</text>
</a>
</g>
</g>
<!-- Node1&#45;&gt;Node5 -->
<g id="edge4_Node000001_Node000005" class="edge">
<title>Node1&#45;&gt;Node5</title>
<g id="a_edge4_Node000001_Node000005"><a xlink:title=" ">
<path fill="none" stroke="#63b8ff" d="M201.89,-167.75C206.18,-159.66 211.05,-150.48 215.26,-142.55"/>
<polygon fill="#63b8ff" stroke="#63b8ff" points="218.33,-144.23 219.92,-133.76 212.14,-140.95 218.33,-144.23"/>
</a>
</g>
</g>
<!-- Node6 -->
<g id="Node000006" class="node">
<title>Node6</title>
<g id="a_Node000006"><a xlink:href="hw2_2lib_2normal__distribution_8h.html" target="_top" xlink:title="Normal distribution functions.">
<polygon fill="white" stroke="#666666" points="369.62,-76 263.62,-76 263.62,-56 369.62,-56 369.62,-76"/>
<text text-anchor="middle" x="316.62" y="-62.5" font-family="Helvetica,sans-Serif" font-size="10.00">normal_distribution.h</text>
</a>
</g>
</g>
<!-- Node1&#45;&gt;Node6 -->
<g id="edge5_Node000001_Node000006" class="edge">
<title>Node1&#45;&gt;Node6</title>
<g id="a_edge5_Node000001_Node000006"><a xlink:title=" ">
<path fill="none" stroke="#63b8ff" d="M217.4,-167.56C229.95,-157.18 244.9,-144.32 257.62,-132 273.31,-116.81 289.91,-98.27 301.49,-84.89"/>
<polygon fill="#63b8ff" stroke="#63b8ff" points="304.13,-87.19 307.97,-77.32 298.81,-82.64 304.13,-87.19"/>
</a>
</g>
</g>
<!-- Node8 -->
<g id="Node000008" class="node">
<title>Node8</title>
<g id="a_Node000008"><a xlink:href="hw2_2lib_2decision__boundary_8h.html" target="_top" xlink:title="Decision boundary functions.">
<polygon fill="white" stroke="#666666" points="410.25,-132 305,-132 305,-112 410.25,-112 410.25,-132"/>
<text text-anchor="middle" x="357.62" y="-118.5" font-family="Helvetica,sans-Serif" font-size="10.00">decision_boundary.h</text>
</a>
</g>
</g>
<!-- Node1&#45;&gt;Node8 -->
<g id="edge7_Node000001_Node000008" class="edge">
<title>Node1&#45;&gt;Node8</title>
<g id="a_edge7_Node000001_Node000008"><a xlink:title=" ">
<path fill="none" stroke="#63b8ff" d="M244.85,-167.57C270.71,-157.35 300.86,-145.43 323.48,-136.49"/>
<polygon fill="#63b8ff" stroke="#63b8ff" points="324.51,-139.85 332.52,-132.92 321.93,-133.34 324.51,-139.85"/>
</a>
</g>
</g>
<!-- Node7 -->
<g id="Node000007" class="node">
<title>Node7</title>
<g id="a_Node000007"><a xlink:href="hw2_2lib_2output__format_8h.html" target="_top" xlink:title="Output format struct for color printing (charactors)">
<polygon fill="white" stroke="#666666" points="358.38,-20 274.88,-20 274.88,0 358.38,0 358.38,-20"/>
<text text-anchor="middle" x="316.62" y="-6.5" font-family="Helvetica,sans-Serif" font-size="10.00">output_format.h</text>
</a>
</g>
</g>
<!-- Node6&#45;&gt;Node7 -->
<g id="edge6_Node000006_Node000007" class="edge">
<title>Node6&#45;&gt;Node7</title>
<g id="a_edge6_Node000006_Node000007"><a xlink:title=" ">
<path fill="none" stroke="#63b8ff" d="M316.62,-55.59C316.62,-49.01 316.62,-39.96 316.62,-31.73"/>
<polygon fill="#63b8ff" stroke="#63b8ff" points="320.13,-31.81 316.63,-21.81 313.13,-31.81 320.13,-31.81"/>
</a>
</g>
</g>
<!-- Node8&#45;&gt;Node6 -->
<g id="edge8_Node000008_Node000006" class="edge">
<title>Node8&#45;&gt;Node6</title>
<g id="a_edge8_Node000008_Node000006"><a xlink:title=" ">
<path fill="none" stroke="#63b8ff" d="M350.48,-111.59C345.02,-104.39 337.3,-94.23 330.62,-85.43"/>
<polygon fill="#63b8ff" stroke="#63b8ff" points="333.43,-83.35 324.6,-77.5 327.86,-87.58 333.43,-83.35"/>
</a>
</g>
</g>
</g>
</svg>
</svg>

<style type='text/css'>
<![CDATA[
[data-mouse-over-selected='false'] { opacity: 0.7; }
[data-mouse-over-selected='true']  { opacity: 1.0; }
]]>
</style>
<script type="application/ecmascript"><![CDATA[
document.addEventListener('DOMContentLoaded', (event) => {
  highlightEdges();
  highlightAdjacentNodes();
});
]]></script>
</svg>
