<?xml version="1.0" encoding="UTF-8" standalone="no"?>
<!DOCTYPE svg PUBLIC "-//W3C//DTD SVG 1.1//EN"
 "http://www.w3.org/Graphics/SVG/1.1/DTD/svg11.dtd">
<!-- Generated by graphviz version 9.0.0 (20230911.1827)
 -->
<!-- Title: E:/GitHub/PRML_Code/src/hw2/lib/decision_boundary.h Pages: 1 -->
<svg width="710pt" height="200pt"
 viewBox="0.00 0.00 709.88 200.00" xmlns="http://www.w3.org/2000/svg" xmlns:xlink="http://www.w3.org/1999/xlink">
<g id="graph0" class="graph" transform="scale(1 1) rotate(0) translate(4 196)">
<title>E:/GitHub/PRML_Code/src/hw2/lib/decision_boundary.h</title>
<!-- Node1 -->
<g id="Node000001" class="node">
<title>Node1</title>
<g id="a_Node000001"><a xlink:title="Decision boundary functions.">
<polygon fill="#999999" stroke="#666666" points="384.5,-192 268,-192 268,-148 384.5,-148 384.5,-192"/>
<text text-anchor="start" x="276" y="-178.5" font-family="Helvetica,sans-Serif" font-size="10.00">E:/GitHub/PRML_Code</text>
<text text-anchor="start" x="276" y="-166.5" font-family="Helvetica,sans-Serif" font-size="10.00">/src/hw2/lib/decision</text>
<text text-anchor="middle" x="326.25" y="-154.5" font-family="Helvetica,sans-Serif" font-size="10.00">_boundary.h</text>
</a>
</g>
</g>
<!-- Node2 -->
<g id="Node000002" class="node">
<title>Node2</title>
<g id="a_Node000002"><a xlink:href="hw2_2lib_2data__plot_8c.html" target="_top" xlink:title=" ">
<polygon fill="white" stroke="#666666" points="116.5,-32 0,-32 0,0 116.5,0 116.5,-32"/>
<text text-anchor="start" x="8" y="-18.5" font-family="Helvetica,sans-Serif" font-size="10.00">E:/GitHub/PRML_Code</text>
<text text-anchor="middle" x="58.25" y="-6.5" font-family="Helvetica,sans-Serif" font-size="10.00">/src/hw2/lib/data_plot.c</text>
</a>
</g>
</g>
<!-- Node1&#45;&gt;Node2 -->
<g id="edge1_Node000001_Node000002" class="edge">
<title>Node1&#45;&gt;Node2</title>
<g id="a_edge1_Node000001_Node000002"><a xlink:title=" ">
<path fill="none" stroke="#63b8ff" d="M256.65,-164.71C210.93,-158.75 152.06,-144.72 110.25,-112 83.89,-91.37 69.05,-53.5 62.45,-32.34"/>
<polygon fill="#63b8ff" stroke="#63b8ff" points="256.12,-168.18 266.46,-165.88 256.95,-161.23 256.12,-168.18"/>
</a>
</g>
</g>
<!-- Node3 -->
<g id="Node000003" class="node">
<title>Node3</title>
<g id="a_Node000003"><a xlink:href="hw2_2lib_2data__plot_8h.html" target="_top" xlink:title="Plotting functions for data.">
<polygon fill="white" stroke="#666666" points="246.5,-106 130,-106 130,-74 246.5,-74 246.5,-106"/>
<text text-anchor="start" x="138" y="-92.5" font-family="Helvetica,sans-Serif" font-size="10.00">E:/GitHub/PRML_Code</text>
<text text-anchor="middle" x="188.25" y="-80.5" font-family="Helvetica,sans-Serif" font-size="10.00">/src/hw2/lib/data_plot.h</text>
</a>
</g>
</g>
<!-- Node1&#45;&gt;Node3 -->
<g id="edge2_Node000001_Node000003" class="edge">
<title>Node1&#45;&gt;Node3</title>
<g id="a_edge2_Node000001_Node000003"><a xlink:title=" ">
<path fill="none" stroke="#63b8ff" d="M278.75,-142.15C257.59,-130.19 233.44,-116.54 215.41,-106.35"/>
<polygon fill="#63b8ff" stroke="#63b8ff" points="276.8,-145.07 287.22,-146.94 280.24,-138.97 276.8,-145.07"/>
</a>
</g>
</g>
<!-- Node4 -->
<g id="Node000004" class="node">
<title>Node4</title>
<g id="a_Node000004"><a xlink:href="hw2_2main_8c.html" target="_top" xlink:title="Main function of hw2 &#45; Pinky knuckle dimension distribution.">
<polygon fill="white" stroke="#666666" points="251.5,-32 135,-32 135,0 251.5,0 251.5,-32"/>
<text text-anchor="start" x="143" y="-18.5" font-family="Helvetica,sans-Serif" font-size="10.00">E:/GitHub/PRML_Code</text>
<text text-anchor="middle" x="193.25" y="-6.5" font-family="Helvetica,sans-Serif" font-size="10.00">/src/hw2/main.c</text>
</a>
</g>
</g>
<!-- Node1&#45;&gt;Node4 -->
<g id="edge11_Node000001_Node000004" class="edge">
<title>Node1&#45;&gt;Node4</title>
<g id="a_edge11_Node000001_Node000004"><a xlink:title=" ">
<path fill="none" stroke="#63b8ff" d="M256.63,-158.79C203.91,-149.46 137.81,-133.8 121.25,-112 109.42,-96.43 112.27,-85.37 121.25,-68 129.27,-52.49 144.43,-40.68 158.77,-32.35"/>
<polygon fill="#63b8ff" stroke="#63b8ff" points="255.72,-162.18 266.16,-160.42 256.9,-155.28 255.72,-162.18"/>
</a>
</g>
</g>
<!-- Node5 -->
<g id="Node000005" class="node">
<title>Node5</title>
<g id="a_Node000005"><a xlink:href="test_8c.html" target="_top" xlink:title=" ">
<polygon fill="white" stroke="#666666" points="386.5,-32 270,-32 270,0 386.5,0 386.5,-32"/>
<text text-anchor="start" x="278" y="-18.5" font-family="Helvetica,sans-Serif" font-size="10.00">E:/GitHub/PRML_Code</text>
<text text-anchor="middle" x="328.25" y="-6.5" font-family="Helvetica,sans-Serif" font-size="10.00">/src/hw2/test.c</text>
</a>
</g>
</g>
<!-- Node1&#45;&gt;Node5 -->
<g id="edge12_Node000001_Node000005" class="edge">
<title>Node1&#45;&gt;Node5</title>
<g id="a_edge12_Node000001_Node000005"><a xlink:title=" ">
<path fill="none" stroke="#63b8ff" d="M373.73,-140.8C383.22,-132.77 391.91,-123.13 397.25,-112 405.71,-94.37 406.06,-85.46 397.25,-68 389.54,-52.7 374.83,-40.86 360.97,-32.45"/>
<polygon fill="#63b8ff" stroke="#63b8ff" points="371.78,-137.88 366.04,-146.79 376.08,-143.4 371.78,-137.88"/>
</a>
</g>
</g>
<!-- Node6 -->
<g id="Node000006" class="node">
<title>Node6</title>
<g id="a_Node000006"><a xlink:href="hw2_2lib_2decision__boundary_8c.html" target="_top" xlink:title=" ">
<polygon fill="white" stroke="#666666" points="560.5,-112 444,-112 444,-68 560.5,-68 560.5,-112"/>
<text text-anchor="start" x="452" y="-98.5" font-family="Helvetica,sans-Serif" font-size="10.00">E:/GitHub/PRML_Code</text>
<text text-anchor="start" x="452" y="-86.5" font-family="Helvetica,sans-Serif" font-size="10.00">/src/hw2/lib/decision</text>
<text text-anchor="middle" x="502.25" y="-74.5" font-family="Helvetica,sans-Serif" font-size="10.00">_boundary.c</text>
</a>
</g>
</g>
<!-- Node1&#45;&gt;Node6 -->
<g id="edge6_Node000001_Node000006" class="edge">
<title>Node1&#45;&gt;Node6</title>
<g id="a_edge6_Node000001_Node000006"><a xlink:title=" ">
<path fill="none" stroke="#63b8ff" d="M384.76,-143.07C407.2,-133.13 432.53,-121.9 453.91,-112.42"/>
<polygon fill="#63b8ff" stroke="#63b8ff" points="383.45,-139.82 375.73,-147.07 386.29,-146.22 383.45,-139.82"/>
</a>
</g>
</g>
<!-- Node7 -->
<g id="Node000007" class="node">
<title>Node7</title>
<g id="a_Node000007"><a xlink:href="output__csv_8c.html" target="_top" xlink:title=" ">
<polygon fill="white" stroke="#666666" points="701.88,-106 578.62,-106 578.62,-74 701.88,-74 701.88,-106"/>
<text text-anchor="start" x="586.62" y="-92.5" font-family="Helvetica,sans-Serif" font-size="10.00">E:/GitHub/PRML_Code</text>
<text text-anchor="middle" x="640.25" y="-80.5" font-family="Helvetica,sans-Serif" font-size="10.00">/src/hw2/lib/output_csv.c</text>
</a>
</g>
</g>
<!-- Node1&#45;&gt;Node7 -->
<g id="edge7_Node000001_Node000007" class="edge">
<title>Node1&#45;&gt;Node7</title>
<g id="a_edge7_Node000001_Node000007"><a xlink:title=" ">
<path fill="none" stroke="#63b8ff" d="M395.96,-153.76C444.68,-142.84 511.15,-127.39 569.25,-112 575.71,-110.29 582.48,-108.41 589.16,-106.49"/>
<polygon fill="#63b8ff" stroke="#63b8ff" points="395.39,-150.3 386.39,-155.9 396.91,-157.13 395.39,-150.3"/>
</a>
</g>
</g>
<!-- Node8 -->
<g id="Node000008" class="node">
<title>Node8</title>
<g id="a_Node000008"><a xlink:href="output__csv_8h.html" target="_top" xlink:title="Output csv functions.">
<polygon fill="white" stroke="#666666" points="387.88,-106 264.62,-106 264.62,-74 387.88,-74 387.88,-106"/>
<text text-anchor="start" x="272.62" y="-92.5" font-family="Helvetica,sans-Serif" font-size="10.00">E:/GitHub/PRML_Code</text>
<text text-anchor="middle" x="326.25" y="-80.5" font-family="Helvetica,sans-Serif" font-size="10.00">/src/hw2/lib/output_csv.h</text>
</a>
</g>
</g>
<!-- Node1&#45;&gt;Node8 -->
<g id="edge8_Node000001_Node000008" class="edge">
<title>Node1&#45;&gt;Node8</title>
<g id="a_edge8_Node000001_Node000008"><a xlink:title=" ">
<path fill="none" stroke="#63b8ff" d="M326.25,-136.28C326.25,-125.8 326.25,-114.7 326.25,-106.11"/>
<polygon fill="#63b8ff" stroke="#63b8ff" points="322.75,-136.17 326.25,-146.17 329.75,-136.17 322.75,-136.17"/>
</a>
</g>
</g>
<!-- Node3&#45;&gt;Node2 -->
<g id="edge3_Node000003_Node000002" class="edge">
<title>Node3&#45;&gt;Node2</title>
<g id="a_edge3_Node000003_Node000002"><a xlink:title=" ">
<path fill="none" stroke="#63b8ff" d="M150.37,-68.02C129.81,-56.64 104.85,-42.81 86.09,-32.42"/>
<polygon fill="#63b8ff" stroke="#63b8ff" points="148.59,-71.04 159.04,-72.82 151.99,-64.91 148.59,-71.04"/>
</a>
</g>
</g>
<!-- Node3&#45;&gt;Node4 -->
<g id="edge4_Node000003_Node000004" class="edge">
<title>Node3&#45;&gt;Node4</title>
<g id="a_edge4_Node000003_Node000004"><a xlink:title=" ">
<path fill="none" stroke="#63b8ff" d="M190.09,-62.49C190.8,-52.3 191.58,-41.03 192.19,-32.25"/>
<polygon fill="#63b8ff" stroke="#63b8ff" points="186.62,-62 189.42,-72.22 193.6,-62.49 186.62,-62"/>
</a>
</g>
</g>
<!-- Node3&#45;&gt;Node5 -->
<g id="edge5_Node000003_Node000005" class="edge">
<title>Node3&#45;&gt;Node5</title>
<g id="a_edge5_Node000003_Node000005"><a xlink:title=" ">
<path fill="none" stroke="#63b8ff" d="M228.44,-68.33C250.69,-56.89 277.89,-42.9 298.27,-32.42"/>
<polygon fill="#63b8ff" stroke="#63b8ff" points="226.92,-65.18 219.63,-72.86 230.12,-71.4 226.92,-65.18"/>
</a>
</g>
</g>
<!-- Node8&#45;&gt;Node4 -->
<g id="edge9_Node000008_Node000004" class="edge">
<title>Node8&#45;&gt;Node4</title>
<g id="a_edge9_Node000008_Node000004"><a xlink:title=" ">
<path fill="none" stroke="#63b8ff" d="M287.78,-68.18C266.7,-56.76 241.01,-42.85 221.73,-32.42"/>
<polygon fill="#63b8ff" stroke="#63b8ff" points="285.93,-71.15 296.39,-72.83 289.26,-64.99 285.93,-71.15"/>
</a>
</g>
</g>
<!-- Node8&#45;&gt;Node5 -->
<g id="edge10_Node000008_Node000005" class="edge">
<title>Node8&#45;&gt;Node5</title>
<g id="a_edge10_Node000008_Node000005"><a xlink:title=" ">
<path fill="none" stroke="#63b8ff" d="M326.99,-62.49C327.27,-52.3 327.58,-41.03 327.83,-32.25"/>
<polygon fill="#63b8ff" stroke="#63b8ff" points="323.5,-62.12 326.72,-72.22 330.49,-62.32 323.5,-62.12"/>
</a>
</g>
</g>
</g>
</svg>
