<?xml version="1.0" encoding="UTF-8" standalone="no"?>
<!DOCTYPE svg PUBLIC "-//W3C//DTD SVG 1.1//EN"
 "http://www.w3.org/Graphics/SVG/1.1/DTD/svg11.dtd">
<!-- Generated by graphviz version 9.0.0 (20230911.1827)
 -->
<!-- Title: E:/GitHub/PRML_Code/src/hw2/lib/normal_distribution.h Pages: 1 -->
<svg width="846pt" height="280pt"
 viewBox="0.00 0.00 845.76 280.00" xmlns="http://www.w3.org/2000/svg" xmlns:xlink="http://www.w3.org/1999/xlink">
<g id="graph0" class="graph" transform="scale(1 1) rotate(0) translate(4 276)">
<title>E:/GitHub/PRML_Code/src/hw2/lib/normal_distribution.h</title>
<!-- Node1 -->
<g id="Node000001" class="node">
<title>Node1</title>
<g id="a_Node000001"><a xlink:title="Normal distribution functions.">
<polygon fill="#999999" stroke="#666666" points="399.76,-272 283.26,-272 283.26,-228 399.76,-228 399.76,-272"/>
<text text-anchor="start" x="291.26" y="-258.5" font-family="Helvetica,sans-Serif" font-size="10.00">E:/GitHub/PRML_Code</text>
<text text-anchor="start" x="291.26" y="-246.5" font-family="Helvetica,sans-Serif" font-size="10.00">/src/hw2/lib/normal</text>
<text text-anchor="middle" x="341.51" y="-234.5" font-family="Helvetica,sans-Serif" font-size="10.00">_distribution.h</text>
</a>
</g>
</g>
<!-- Node2 -->
<g id="Node000002" class="node">
<title>Node2</title>
<g id="a_Node000002"><a xlink:href="hw2_2lib_2decision__boundary_8c.html" target="_top" xlink:title=" ">
<polygon fill="white" stroke="#666666" points="133.76,-112 17.26,-112 17.26,-68 133.76,-68 133.76,-112"/>
<text text-anchor="start" x="25.26" y="-98.5" font-family="Helvetica,sans-Serif" font-size="10.00">E:/GitHub/PRML_Code</text>
<text text-anchor="start" x="25.26" y="-86.5" font-family="Helvetica,sans-Serif" font-size="10.00">/src/hw2/lib/decision</text>
<text text-anchor="middle" x="75.51" y="-74.5" font-family="Helvetica,sans-Serif" font-size="10.00">_boundary.c</text>
</a>
</g>
</g>
<!-- Node1&#45;&gt;Node2 -->
<g id="edge1_Node000001_Node000002" class="edge">
<title>Node1&#45;&gt;Node2</title>
<g id="a_edge1_Node000001_Node000002"><a xlink:title=" ">
<path fill="none" stroke="#63b8ff" d="M293.39,-221.94C276.89,-212.56 258.33,-201.91 241.51,-192 195.73,-165.03 143.45,-133.02 109.99,-112.37"/>
<polygon fill="#63b8ff" stroke="#63b8ff" points="291.63,-224.97 302.06,-226.85 295.08,-218.88 291.63,-224.97"/>
</a>
</g>
</g>
<!-- Node3 -->
<g id="Node000003" class="node">
<title>Node3</title>
<g id="a_Node000003"><a xlink:href="hw2_2lib_2decision__boundary_8h.html" target="_top" xlink:title="Decision boundary functions.">
<polygon fill="white" stroke="#666666" points="399.76,-192 283.26,-192 283.26,-148 399.76,-148 399.76,-192"/>
<text text-anchor="start" x="291.26" y="-178.5" font-family="Helvetica,sans-Serif" font-size="10.00">E:/GitHub/PRML_Code</text>
<text text-anchor="start" x="291.26" y="-166.5" font-family="Helvetica,sans-Serif" font-size="10.00">/src/hw2/lib/decision</text>
<text text-anchor="middle" x="341.51" y="-154.5" font-family="Helvetica,sans-Serif" font-size="10.00">_boundary.h</text>
</a>
</g>
</g>
<!-- Node1&#45;&gt;Node3 -->
<g id="edge2_Node000001_Node000003" class="edge">
<title>Node1&#45;&gt;Node3</title>
<g id="a_edge2_Node000001_Node000003"><a xlink:title=" ">
<path fill="none" stroke="#63b8ff" d="M341.51,-216.25C341.51,-208.15 341.51,-199.68 341.51,-192.29"/>
<polygon fill="#63b8ff" stroke="#63b8ff" points="338.01,-216.17 341.51,-226.17 345.01,-216.17 338.01,-216.17"/>
</a>
</g>
</g>
<!-- Node6 -->
<g id="Node000006" class="node">
<title>Node6</title>
<g id="a_Node000006"><a xlink:href="hw2_2main_8c.html" target="_top" xlink:title="Main function of hw2 &#45; Pinky knuckle dimension distribution.">
<polygon fill="white" stroke="#666666" points="286.76,-32 170.26,-32 170.26,0 286.76,0 286.76,-32"/>
<text text-anchor="start" x="178.26" y="-18.5" font-family="Helvetica,sans-Serif" font-size="10.00">E:/GitHub/PRML_Code</text>
<text text-anchor="middle" x="228.51" y="-6.5" font-family="Helvetica,sans-Serif" font-size="10.00">/src/hw2/main.c</text>
</a>
</g>
</g>
<!-- Node1&#45;&gt;Node6 -->
<g id="edge18_Node000001_Node000006" class="edge">
<title>Node1&#45;&gt;Node6</title>
<g id="a_edge18_Node000001_Node000006"><a xlink:title=" ">
<path fill="none" stroke="#63b8ff" d="M271.77,-243.58C191.51,-233.09 63.69,-202.31 8.51,-112 -1.69,-95.31 -3.66,-83.31 8.51,-68 28.33,-43.06 111.63,-29.23 169.84,-22.46"/>
<polygon fill="#63b8ff" stroke="#63b8ff" points="270.91,-247 281.26,-244.74 271.76,-240.05 270.91,-247"/>
</a>
</g>
</g>
<!-- Node7 -->
<g id="Node000007" class="node">
<title>Node7</title>
<g id="a_Node000007"><a xlink:href="test_8c.html" target="_top" xlink:title=" ">
<polygon fill="white" stroke="#666666" points="567.76,-32 451.26,-32 451.26,0 567.76,0 567.76,-32"/>
<text text-anchor="start" x="459.26" y="-18.5" font-family="Helvetica,sans-Serif" font-size="10.00">E:/GitHub/PRML_Code</text>
<text text-anchor="middle" x="509.51" y="-6.5" font-family="Helvetica,sans-Serif" font-size="10.00">/src/hw2/test.c</text>
</a>
</g>
</g>
<!-- Node1&#45;&gt;Node7 -->
<g id="edge19_Node000001_Node000007" class="edge">
<title>Node1&#45;&gt;Node7</title>
<g id="a_edge19_Node000001_Node000007"><a xlink:title=" ">
<path fill="none" stroke="#63b8ff" d="M411.31,-242.71C490.58,-231.4 616.42,-199.85 674.51,-112 685.3,-95.69 686.12,-83.74 674.51,-68 650.22,-35.06 604.92,-22.75 567.92,-18.43"/>
<polygon fill="#63b8ff" stroke="#63b8ff" points="410.91,-239.24 401.47,-244.04 411.84,-246.17 410.91,-239.24"/>
</a>
</g>
</g>
<!-- Node8 -->
<g id="Node000008" class="node">
<title>Node8</title>
<g id="a_Node000008"><a xlink:href="output__csv_8c.html" target="_top" xlink:title=" ">
<polygon fill="white" stroke="#666666" points="665.13,-106 541.88,-106 541.88,-74 665.13,-74 665.13,-106"/>
<text text-anchor="start" x="549.88" y="-92.5" font-family="Helvetica,sans-Serif" font-size="10.00">E:/GitHub/PRML_Code</text>
<text text-anchor="middle" x="603.51" y="-80.5" font-family="Helvetica,sans-Serif" font-size="10.00">/src/hw2/lib/output_csv.c</text>
</a>
</g>
</g>
<!-- Node1&#45;&gt;Node8 -->
<g id="edge16_Node000001_Node000008" class="edge">
<title>Node1&#45;&gt;Node8</title>
<g id="a_edge16_Node000001_Node000008"><a xlink:title=" ">
<path fill="none" stroke="#63b8ff" d="M386.65,-221.78C441.87,-188.48 533.47,-133.24 577.84,-106.48"/>
<polygon fill="#63b8ff" stroke="#63b8ff" points="385.17,-218.58 378.41,-226.75 388.78,-224.58 385.17,-218.58"/>
</a>
</g>
</g>
<!-- Node9 -->
<g id="Node000009" class="node">
<title>Node9</title>
<g id="a_Node000009"><a xlink:href="output__csv_8h.html" target="_top" xlink:title="Output csv functions.">
<polygon fill="white" stroke="#666666" points="275.13,-106 151.88,-106 151.88,-74 275.13,-74 275.13,-106"/>
<text text-anchor="start" x="159.88" y="-92.5" font-family="Helvetica,sans-Serif" font-size="10.00">E:/GitHub/PRML_Code</text>
<text text-anchor="middle" x="213.51" y="-80.5" font-family="Helvetica,sans-Serif" font-size="10.00">/src/hw2/lib/output_csv.h</text>
</a>
</g>
</g>
<!-- Node1&#45;&gt;Node9 -->
<g id="edge17_Node000001_Node000009" class="edge">
<title>Node1&#45;&gt;Node9</title>
<g id="a_edge17_Node000001_Node000009"><a xlink:title=" ">
<path fill="none" stroke="#63b8ff" d="M303.58,-220.4C293.52,-211.86 283.08,-202.08 274.51,-192 251.16,-164.53 231.08,-127.09 220.82,-106.38"/>
<polygon fill="#63b8ff" stroke="#63b8ff" points="301.16,-222.94 311.11,-226.59 305.61,-217.53 301.16,-222.94"/>
</a>
</g>
</g>
<!-- Node10 -->
<g id="Node000010" class="node">
<title>Node10</title>
<g id="a_Node000010"><a xlink:href="hw2_2lib_2normal__distribution_8c.html" target="_top" xlink:title=" ">
<polygon fill="white" stroke="#666666" points="837.76,-192 721.26,-192 721.26,-148 837.76,-148 837.76,-192"/>
<text text-anchor="start" x="729.26" y="-178.5" font-family="Helvetica,sans-Serif" font-size="10.00">E:/GitHub/PRML_Code</text>
<text text-anchor="start" x="729.26" y="-166.5" font-family="Helvetica,sans-Serif" font-size="10.00">/src/hw2/lib/normal</text>
<text text-anchor="middle" x="779.51" y="-154.5" font-family="Helvetica,sans-Serif" font-size="10.00">_distribution.c</text>
</a>
</g>
</g>
<!-- Node1&#45;&gt;Node10 -->
<g id="edge15_Node000001_Node000010" class="edge">
<title>Node1&#45;&gt;Node10</title>
<g id="a_edge15_Node000001_Node000010"><a xlink:title=" ">
<path fill="none" stroke="#63b8ff" d="M410.97,-240.9C484.96,-231.64 605.26,-214.77 707.51,-192 711.96,-191.01 716.54,-189.9 721.12,-188.71"/>
<polygon fill="#63b8ff" stroke="#63b8ff" points="410.94,-237.38 401.45,-242.08 411.8,-244.32 410.94,-237.38"/>
</a>
</g>
</g>
<!-- Node3&#45;&gt;Node2 -->
<g id="edge8_Node000003_Node000002" class="edge">
<title>Node3&#45;&gt;Node2</title>
<g id="a_edge8_Node000003_Node000002"><a xlink:title=" ">
<path fill="none" stroke="#63b8ff" d="M272.03,-149.55C233.75,-138.73 185.43,-124.87 142.51,-112 139.71,-111.16 136.84,-110.29 133.95,-109.41"/>
<polygon fill="#63b8ff" stroke="#63b8ff" points="271.03,-152.91 281.6,-152.26 272.93,-146.17 271.03,-152.91"/>
</a>
</g>
</g>
<!-- Node4 -->
<g id="Node000004" class="node">
<title>Node4</title>
<g id="a_Node000004"><a xlink:href="hw2_2lib_2data__plot_8c.html" target="_top" xlink:title=" ">
<polygon fill="white" stroke="#666666" points="428.76,-32 312.26,-32 312.26,0 428.76,0 428.76,-32"/>
<text text-anchor="start" x="320.26" y="-18.5" font-family="Helvetica,sans-Serif" font-size="10.00">E:/GitHub/PRML_Code</text>
<text text-anchor="middle" x="370.51" y="-6.5" font-family="Helvetica,sans-Serif" font-size="10.00">/src/hw2/lib/data_plot.c</text>
</a>
</g>
</g>
<!-- Node3&#45;&gt;Node4 -->
<g id="edge3_Node000003_Node000004" class="edge">
<title>Node3&#45;&gt;Node4</title>
<g id="a_edge3_Node000003_Node000004"><a xlink:title=" ">
<path fill="none" stroke="#63b8ff" d="M347.55,-136.52C351.26,-116.72 356.11,-90.89 360.51,-68 362.82,-55.95 365.5,-42.31 367.5,-32.17"/>
<polygon fill="#63b8ff" stroke="#63b8ff" points="344.14,-135.75 345.74,-146.22 351.02,-137.03 344.14,-135.75"/>
</a>
</g>
</g>
<!-- Node5 -->
<g id="Node000005" class="node">
<title>Node5</title>
<g id="a_Node000005"><a xlink:href="hw2_2lib_2data__plot_8h.html" target="_top" xlink:title="Plotting functions for data.">
<polygon fill="white" stroke="#666666" points="485.76,-106 369.26,-106 369.26,-74 485.76,-74 485.76,-106"/>
<text text-anchor="start" x="377.26" y="-92.5" font-family="Helvetica,sans-Serif" font-size="10.00">E:/GitHub/PRML_Code</text>
<text text-anchor="middle" x="427.51" y="-80.5" font-family="Helvetica,sans-Serif" font-size="10.00">/src/hw2/lib/data_plot.h</text>
</a>
</g>
</g>
<!-- Node3&#45;&gt;Node5 -->
<g id="edge4_Node000003_Node000005" class="edge">
<title>Node3&#45;&gt;Node5</title>
<g id="a_edge4_Node000003_Node000005"><a xlink:title=" ">
<path fill="none" stroke="#63b8ff" d="M373.46,-140.03C386.05,-128.6 400.01,-115.94 410.58,-106.35"/>
<polygon fill="#63b8ff" stroke="#63b8ff" points="371.19,-137.36 366.13,-146.67 375.89,-142.54 371.19,-137.36"/>
</a>
</g>
</g>
<!-- Node3&#45;&gt;Node6 -->
<g id="edge13_Node000003_Node000006" class="edge">
<title>Node3&#45;&gt;Node6</title>
<g id="a_edge13_Node000003_Node000006"><a xlink:title=" ">
<path fill="none" stroke="#63b8ff" d="M326.99,-137.46C316.65,-116.68 301.61,-89.45 284.51,-68 273.94,-54.73 259.8,-41.89 248.37,-32.41"/>
<polygon fill="#63b8ff" stroke="#63b8ff" points="323.77,-138.84 331.28,-146.31 330.06,-135.78 323.77,-138.84"/>
</a>
</g>
</g>
<!-- Node3&#45;&gt;Node7 -->
<g id="edge14_Node000003_Node000007" class="edge">
<title>Node3&#45;&gt;Node7</title>
<g id="a_edge14_Node000003_Node000007"><a xlink:title=" ">
<path fill="none" stroke="#63b8ff" d="M410.93,-159.12C440.97,-151.28 473.9,-137.21 494.51,-112 513.11,-89.25 513.22,-52.88 511.48,-32.37"/>
<polygon fill="#63b8ff" stroke="#63b8ff" points="410.4,-155.65 401.5,-161.38 412.04,-162.45 410.4,-155.65"/>
</a>
</g>
</g>
<!-- Node3&#45;&gt;Node8 -->
<g id="edge9_Node000003_Node000008" class="edge">
<title>Node3&#45;&gt;Node8</title>
<g id="a_edge9_Node000003_Node000008"><a xlink:title=" ">
<path fill="none" stroke="#63b8ff" d="M410.95,-148.33C455.2,-135.15 511.57,-118.37 551.86,-106.38"/>
<polygon fill="#63b8ff" stroke="#63b8ff" points="410.02,-144.95 401.43,-151.16 412.01,-151.66 410.02,-144.95"/>
</a>
</g>
</g>
<!-- Node3&#45;&gt;Node9 -->
<g id="edge10_Node000003_Node000009" class="edge">
<title>Node3&#45;&gt;Node9</title>
<g id="a_edge10_Node000003_Node000009"><a xlink:title=" ">
<path fill="none" stroke="#63b8ff" d="M296.92,-141.83C277.42,-129.95 255.27,-116.45 238.7,-106.35"/>
<polygon fill="#63b8ff" stroke="#63b8ff" points="294.88,-144.68 305.24,-146.9 298.52,-138.71 294.88,-144.68"/>
</a>
</g>
</g>
<!-- Node5&#45;&gt;Node4 -->
<g id="edge5_Node000005_Node000004" class="edge">
<title>Node5&#45;&gt;Node4</title>
<g id="a_edge5_Node000005_Node000004"><a xlink:title=" ">
<path fill="none" stroke="#63b8ff" d="M408.35,-64.79C399.83,-54.03 390.06,-41.69 382.58,-32.25"/>
<polygon fill="#63b8ff" stroke="#63b8ff" points="405.53,-66.88 414.48,-72.54 411.02,-62.53 405.53,-66.88"/>
</a>
</g>
</g>
<!-- Node5&#45;&gt;Node6 -->
<g id="edge6_Node000005_Node000006" class="edge">
<title>Node5&#45;&gt;Node6</title>
<g id="a_edge6_Node000005_Node000006"><a xlink:title=" ">
<path fill="none" stroke="#63b8ff" d="M374.21,-69.72C341.92,-58.03 301.28,-43.33 271.13,-32.42"/>
<polygon fill="#63b8ff" stroke="#63b8ff" points="372.8,-72.93 383.4,-73.04 375.18,-66.35 372.8,-72.93"/>
</a>
</g>
</g>
<!-- Node5&#45;&gt;Node7 -->
<g id="edge7_Node000005_Node000007" class="edge">
<title>Node5&#45;&gt;Node7</title>
<g id="a_edge7_Node000005_Node000007"><a xlink:title=" ">
<path fill="none" stroke="#63b8ff" d="M453.54,-66.14C466.04,-55.17 480.69,-42.31 491.86,-32.5"/>
<polygon fill="#63b8ff" stroke="#63b8ff" points="451.24,-63.5 446.04,-72.73 455.86,-68.76 451.24,-63.5"/>
</a>
</g>
</g>
<!-- Node9&#45;&gt;Node6 -->
<g id="edge11_Node000009_Node000006" class="edge">
<title>Node9&#45;&gt;Node6</title>
<g id="a_edge11_Node000009_Node000006"><a xlink:title=" ">
<path fill="none" stroke="#63b8ff" d="M219.03,-62.49C221.15,-52.3 223.5,-41.03 225.33,-32.25"/>
<polygon fill="#63b8ff" stroke="#63b8ff" points="215.61,-61.75 217,-72.25 222.47,-63.17 215.61,-61.75"/>
</a>
</g>
</g>
<!-- Node9&#45;&gt;Node7 -->
<g id="edge12_Node000009_Node000007" class="edge">
<title>Node9&#45;&gt;Node7</title>
<g id="a_edge12_Node000009_Node000007"><a xlink:title=" ">
<path fill="none" stroke="#63b8ff" d="M286.45,-71.26C337.16,-58.92 403.85,-42.7 451.06,-31.22"/>
<polygon fill="#63b8ff" stroke="#63b8ff" points="285.92,-67.78 277.03,-73.55 287.58,-74.59 285.92,-67.78"/>
</a>
</g>
</g>
</g>
</svg>
