<?xml version="1.0" encoding="UTF-8" standalone="no"?>
<!DOCTYPE svg PUBLIC "-//W3C//DTD SVG 1.1//EN"
 "http://www.w3.org/Graphics/SVG/1.1/DTD/svg11.dtd">
<!-- Generated by graphviz version 9.0.0 (20230911.1827)
 -->
<!-- Title: E:/GitHub/PRML_Code/src/hw2/lib/normal_distribution.c Pages: 1 -->
<svg width="335pt" height="164pt"
 viewBox="0.00 0.00 335.38 164.00" xmlns="http://www.w3.org/2000/svg" xmlns:xlink="http://www.w3.org/1999/xlink">
<g id="graph0" class="graph" transform="scale(1 1) rotate(0) translate(4 160)">
<title>E:/GitHub/PRML_Code/src/hw2/lib/normal_distribution.c</title>
<!-- Node1 -->
<g id="Node000001" class="node">
<title>Node1</title>
<g id="a_Node000001"><a xlink:title=" ">
<polygon fill="#999999" stroke="#666666" points="209.88,-156 93.38,-156 93.38,-112 209.88,-112 209.88,-156"/>
<text text-anchor="start" x="101.38" y="-142.5" font-family="Helvetica,sans-Serif" font-size="10.00">E:/GitHub/PRML_Code</text>
<text text-anchor="start" x="101.38" y="-130.5" font-family="Helvetica,sans-Serif" font-size="10.00">/src/hw2/lib/normal</text>
<text text-anchor="middle" x="151.62" y="-118.5" font-family="Helvetica,sans-Serif" font-size="10.00">_distribution.c</text>
</a>
</g>
</g>
<!-- Node2 -->
<g id="Node000002" class="node">
<title>Node2</title>
<g id="a_Node000002"><a xlink:title=" ">
<polygon fill="#e0e0e0" stroke="#999999" points="45.25,-76 0,-76 0,-56 45.25,-56 45.25,-76"/>
<text text-anchor="middle" x="22.62" y="-62.5" font-family="Helvetica,sans-Serif" font-size="10.00">stdio.h</text>
</a>
</g>
</g>
<!-- Node1&#45;&gt;Node2 -->
<g id="edge1_Node000001_Node000002" class="edge">
<title>Node1&#45;&gt;Node2</title>
<g id="a_edge1_Node000001_Node000002"><a xlink:title=" ">
<path fill="none" stroke="#63b8ff" d="M109.74,-111.57C90.49,-101.72 68.16,-90.3 50.93,-81.48"/>
<polygon fill="#63b8ff" stroke="#63b8ff" points="52.77,-78.49 42.28,-77.05 49.59,-84.73 52.77,-78.49"/>
</a>
</g>
</g>
<!-- Node3 -->
<g id="Node000003" class="node">
<title>Node3</title>
<g id="a_Node000003"><a xlink:title=" ">
<polygon fill="#e0e0e0" stroke="#999999" points="110.38,-76 62.88,-76 62.88,-56 110.38,-56 110.38,-76"/>
<text text-anchor="middle" x="86.62" y="-62.5" font-family="Helvetica,sans-Serif" font-size="10.00">stdlib.h</text>
</a>
</g>
</g>
<!-- Node1&#45;&gt;Node3 -->
<g id="edge2_Node000001_Node000003" class="edge">
<title>Node1&#45;&gt;Node3</title>
<g id="a_edge2_Node000001_Node000003"><a xlink:title=" ">
<path fill="none" stroke="#63b8ff" d="M130.7,-111.75C122,-102.92 112.02,-92.78 103.76,-84.4"/>
<polygon fill="#63b8ff" stroke="#63b8ff" points="106.47,-82.17 96.96,-77.5 101.49,-87.08 106.47,-82.17"/>
</a>
</g>
</g>
<!-- Node4 -->
<g id="Node000004" class="node">
<title>Node4</title>
<g id="a_Node000004"><a xlink:title=" ">
<polygon fill="#e0e0e0" stroke="#999999" points="174.62,-76 128.62,-76 128.62,-56 174.62,-56 174.62,-76"/>
<text text-anchor="middle" x="151.62" y="-62.5" font-family="Helvetica,sans-Serif" font-size="10.00">math.h</text>
</a>
</g>
</g>
<!-- Node1&#45;&gt;Node4 -->
<g id="edge3_Node000001_Node000004" class="edge">
<title>Node1&#45;&gt;Node4</title>
<g id="a_edge3_Node000001_Node000004"><a xlink:title=" ">
<path fill="none" stroke="#63b8ff" d="M151.62,-111.75C151.62,-104.13 151.62,-95.53 151.62,-87.93"/>
<polygon fill="#63b8ff" stroke="#63b8ff" points="155.13,-87.93 151.63,-77.93 148.13,-87.93 155.13,-87.93"/>
</a>
</g>
</g>
<!-- Node5 -->
<g id="Node000005" class="node">
<title>Node5</title>
<g id="a_Node000005"><a xlink:href="hw2_2lib_2normal__distribution_8h.html" target="_top" xlink:title="Normal distribution functions.">
<polygon fill="white" stroke="#666666" points="298.62,-76 192.62,-76 192.62,-56 298.62,-56 298.62,-76"/>
<text text-anchor="middle" x="245.62" y="-62.5" font-family="Helvetica,sans-Serif" font-size="10.00">normal_distribution.h</text>
</a>
</g>
</g>
<!-- Node1&#45;&gt;Node5 -->
<g id="edge4_Node000001_Node000005" class="edge">
<title>Node1&#45;&gt;Node5</title>
<g id="a_edge4_Node000001_Node000005"><a xlink:title=" ">
<path fill="none" stroke="#63b8ff" d="M182.14,-111.57C195.51,-102.19 210.91,-91.37 223.2,-82.75"/>
<polygon fill="#63b8ff" stroke="#63b8ff" points="224.87,-85.85 231.05,-77.24 220.85,-80.12 224.87,-85.85"/>
</a>
</g>
</g>
<!-- Node6 -->
<g id="Node000006" class="node">
<title>Node6</title>
<g id="a_Node000006"><a xlink:href="hw2_2lib_2output__format_8h.html" target="_top" xlink:title="Output format struct for color printing (charactors)">
<polygon fill="white" stroke="#666666" points="327.38,-20 243.88,-20 243.88,0 327.38,0 327.38,-20"/>
<text text-anchor="middle" x="285.62" y="-6.5" font-family="Helvetica,sans-Serif" font-size="10.00">output_format.h</text>
</a>
</g>
</g>
<!-- Node1&#45;&gt;Node6 -->
<g id="edge6_Node000001_Node000006" class="edge">
<title>Node1&#45;&gt;Node6</title>
<g id="a_edge6_Node000001_Node000006"><a xlink:title=" ">
<path fill="none" stroke="#63b8ff" d="M210.23,-127.86C244.71,-121.48 285.73,-107.31 307.62,-76 317.51,-61.86 309.17,-42.91 300.06,-29.12"/>
<polygon fill="#63b8ff" stroke="#63b8ff" points="303.13,-27.4 294.43,-21.36 297.47,-31.51 303.13,-27.4"/>
</a>
</g>
</g>
<!-- Node5&#45;&gt;Node6 -->
<g id="edge5_Node000005_Node000006" class="edge">
<title>Node5&#45;&gt;Node6</title>
<g id="a_edge5_Node000005_Node000006"><a xlink:title=" ">
<path fill="none" stroke="#63b8ff" d="M252.59,-55.59C257.93,-48.39 265.45,-38.23 271.97,-29.43"/>
<polygon fill="#63b8ff" stroke="#63b8ff" points="274.7,-31.63 277.84,-21.51 269.07,-27.47 274.7,-31.63"/>
</a>
</g>
</g>
</g>
</svg>
