<?xml version="1.0" encoding="UTF-8" standalone="no"?>
<!DOCTYPE svg PUBLIC "-//W3C//DTD SVG 1.1//EN"
 "http://www.w3.org/Graphics/SVG/1.1/DTD/svg11.dtd">
<!-- Generated by graphviz version 9.0.0 (20230911.1827)
 -->
<!-- Title: E:/GitHub/PRML_Code/src/hw3/lib/data_proc.h Pages: 1 -->
<svg width="545pt" height="176pt"
 viewBox="0.00 0.00 544.50 176.00" xmlns="http://www.w3.org/2000/svg" xmlns:xlink="http://www.w3.org/1999/xlink">
<g id="graph0" class="graph" transform="scale(1 1) rotate(0) translate(4 172)">
<title>E:/GitHub/PRML_Code/src/hw3/lib/data_proc.h</title>
<!-- Node1 -->
<g id="Node000001" class="node">
<title>Node1</title>
<g id="a_Node000001"><a xlink:title="Data processing functions.">
<polygon fill="#999999" stroke="#666666" points="315,-168 195.5,-168 195.5,-136 315,-136 315,-168"/>
<text text-anchor="start" x="203.5" y="-154.5" font-family="Helvetica,sans-Serif" font-size="10.00">E:/GitHub/PRML_Code</text>
<text text-anchor="middle" x="255.25" y="-142.5" font-family="Helvetica,sans-Serif" font-size="10.00">/src/hw3/lib/data_proc.h</text>
</a>
</g>
</g>
<!-- Node2 -->
<g id="Node000002" class="node">
<title>Node2</title>
<g id="a_Node000002"><a xlink:href="hw3_2lib_2data__plot_8c.html" target="_top" xlink:title=" ">
<polygon fill="white" stroke="#666666" points="116.5,-32 0,-32 0,0 116.5,0 116.5,-32"/>
<text text-anchor="start" x="8" y="-18.5" font-family="Helvetica,sans-Serif" font-size="10.00">E:/GitHub/PRML_Code</text>
<text text-anchor="middle" x="58.25" y="-6.5" font-family="Helvetica,sans-Serif" font-size="10.00">/src/hw3/lib/data_plot.c</text>
</a>
</g>
</g>
<!-- Node1&#45;&gt;Node2 -->
<g id="edge1_Node000001_Node000002" class="edge">
<title>Node1&#45;&gt;Node2</title>
<g id="a_edge1_Node000001_Node000002"><a xlink:title=" ">
<path fill="none" stroke="#63b8ff" d="M184.17,-141.82C134.29,-133.76 73.83,-120.13 58.25,-100 43.26,-80.63 48.18,-50.38 53.17,-32.25"/>
<polygon fill="#63b8ff" stroke="#63b8ff" points="183.36,-145.24 193.78,-143.33 184.44,-138.32 183.36,-145.24"/>
</a>
</g>
</g>
<!-- Node3 -->
<g id="Node000003" class="node">
<title>Node3</title>
<g id="a_Node000003"><a xlink:href="hw3_2lib_2data__plot_8h.html" target="_top" xlink:title="Data plot functions.">
<polygon fill="white" stroke="#666666" points="183.5,-100 67,-100 67,-68 183.5,-68 183.5,-100"/>
<text text-anchor="start" x="75" y="-86.5" font-family="Helvetica,sans-Serif" font-size="10.00">E:/GitHub/PRML_Code</text>
<text text-anchor="middle" x="125.25" y="-74.5" font-family="Helvetica,sans-Serif" font-size="10.00">/src/hw3/lib/data_plot.h</text>
</a>
</g>
</g>
<!-- Node1&#45;&gt;Node3 -->
<g id="edge2_Node000001_Node000003" class="edge">
<title>Node1&#45;&gt;Node3</title>
<g id="a_edge2_Node000001_Node000003"><a xlink:title=" ">
<path fill="none" stroke="#63b8ff" d="M214.55,-130.34C195.46,-120.65 173.11,-109.3 155.54,-100.38"/>
<polygon fill="#63b8ff" stroke="#63b8ff" points="212.92,-133.43 223.42,-134.84 216.09,-127.19 212.92,-133.43"/>
</a>
</g>
</g>
<!-- Node4 -->
<g id="Node000004" class="node">
<title>Node4</title>
<g id="a_Node000004"><a xlink:href="hw3_2main_8c.html" target="_top" xlink:title="Main function of hw3 &#45; 2 dimensional shape classification.">
<polygon fill="white" stroke="#666666" points="269.5,-32 153,-32 153,0 269.5,0 269.5,-32"/>
<text text-anchor="start" x="161" y="-18.5" font-family="Helvetica,sans-Serif" font-size="10.00">E:/GitHub/PRML_Code</text>
<text text-anchor="middle" x="211.25" y="-6.5" font-family="Helvetica,sans-Serif" font-size="10.00">/src/hw3/main.c</text>
</a>
</g>
</g>
<!-- Node1&#45;&gt;Node4 -->
<g id="edge10_Node000001_Node000004" class="edge">
<title>Node1&#45;&gt;Node4</title>
<g id="a_edge10_Node000001_Node000004"><a xlink:title=" ">
<path fill="none" stroke="#63b8ff" d="M241.36,-125.59C237.37,-117.57 233.28,-108.56 230.25,-100 222.11,-77.01 216.57,-49.17 213.66,-32.29"/>
<polygon fill="#63b8ff" stroke="#63b8ff" points="238.23,-127.16 245.94,-134.43 244.45,-123.94 238.23,-127.16"/>
</a>
</g>
</g>
<!-- Node5 -->
<g id="Node000005" class="node">
<title>Node5</title>
<g id="a_Node000005"><a xlink:href="hw3_2lib_2data__proc_8c.html" target="_top" xlink:title=" ">
<polygon fill="white" stroke="#666666" points="359,-100 239.5,-100 239.5,-68 359,-68 359,-100"/>
<text text-anchor="start" x="247.5" y="-86.5" font-family="Helvetica,sans-Serif" font-size="10.00">E:/GitHub/PRML_Code</text>
<text text-anchor="middle" x="299.25" y="-74.5" font-family="Helvetica,sans-Serif" font-size="10.00">/src/hw3/lib/data_proc.c</text>
</a>
</g>
</g>
<!-- Node1&#45;&gt;Node5 -->
<g id="edge5_Node000001_Node000005" class="edge">
<title>Node1&#45;&gt;Node5</title>
<g id="a_edge5_Node000001_Node000005"><a xlink:title=" ">
<path fill="none" stroke="#63b8ff" d="M271.71,-126.3C277.55,-117.55 283.94,-107.96 289.1,-100.22"/>
<polygon fill="#63b8ff" stroke="#63b8ff" points="268.93,-124.17 266.29,-134.43 274.75,-128.05 268.93,-124.17"/>
</a>
</g>
</g>
<!-- Node6 -->
<g id="Node000006" class="node">
<title>Node6</title>
<g id="a_Node000006"><a xlink:href="read__csv_8c.html" target="_top" xlink:title=" ">
<polygon fill="white" stroke="#666666" points="536.5,-32 420,-32 420,0 536.5,0 536.5,-32"/>
<text text-anchor="start" x="428" y="-18.5" font-family="Helvetica,sans-Serif" font-size="10.00">E:/GitHub/PRML_Code</text>
<text text-anchor="middle" x="478.25" y="-6.5" font-family="Helvetica,sans-Serif" font-size="10.00">/src/hw3/lib/read_csv.c</text>
</a>
</g>
</g>
<!-- Node1&#45;&gt;Node6 -->
<g id="edge6_Node000001_Node000006" class="edge">
<title>Node1&#45;&gt;Node6</title>
<g id="a_edge6_Node000001_Node000006"><a xlink:title=" ">
<path fill="none" stroke="#63b8ff" d="M326.8,-146.07C391.69,-139.92 480.43,-126.78 502.25,-100 518.26,-80.35 502.67,-50.47 490.23,-32.43"/>
<polygon fill="#63b8ff" stroke="#63b8ff" points="326.54,-142.57 316.89,-146.96 327.17,-149.55 326.54,-142.57"/>
</a>
</g>
</g>
<!-- Node7 -->
<g id="Node000007" class="node">
<title>Node7</title>
<g id="a_Node000007"><a xlink:href="read__csv_8h.html" target="_top" xlink:title="Read csv file related utilities.">
<polygon fill="white" stroke="#666666" points="493.5,-100 377,-100 377,-68 493.5,-68 493.5,-100"/>
<text text-anchor="start" x="385" y="-86.5" font-family="Helvetica,sans-Serif" font-size="10.00">E:/GitHub/PRML_Code</text>
<text text-anchor="middle" x="435.25" y="-74.5" font-family="Helvetica,sans-Serif" font-size="10.00">/src/hw3/lib/read_csv.h</text>
</a>
</g>
</g>
<!-- Node1&#45;&gt;Node7 -->
<g id="edge7_Node000001_Node000007" class="edge">
<title>Node1&#45;&gt;Node7</title>
<g id="a_edge7_Node000001_Node000007"><a xlink:title=" ">
<path fill="none" stroke="#63b8ff" d="M307.92,-131.69C335.01,-121.76 367.58,-109.81 393,-100.49"/>
<polygon fill="#63b8ff" stroke="#63b8ff" points="307.06,-128.28 298.87,-135 309.47,-134.85 307.06,-128.28"/>
</a>
</g>
</g>
<!-- Node3&#45;&gt;Node2 -->
<g id="edge3_Node000003_Node000002" class="edge">
<title>Node3&#45;&gt;Node2</title>
<g id="a_edge3_Node000003_Node000002"><a xlink:title=" ">
<path fill="none" stroke="#63b8ff" d="M101.61,-59.71C92.34,-50.59 81.98,-40.37 73.71,-32.22"/>
<polygon fill="#63b8ff" stroke="#63b8ff" points="99.05,-62.11 108.63,-66.63 103.96,-57.12 99.05,-62.11"/>
</a>
</g>
</g>
<!-- Node3&#45;&gt;Node4 -->
<g id="edge4_Node000003_Node000004" class="edge">
<title>Node3&#45;&gt;Node4</title>
<g id="a_edge4_Node000003_Node000004"><a xlink:title=" ">
<path fill="none" stroke="#63b8ff" d="M154.08,-60.87C166.24,-51.55 180.09,-40.91 191.11,-32.45"/>
<polygon fill="#63b8ff" stroke="#63b8ff" points="152.2,-57.91 146.4,-66.77 156.46,-63.46 152.2,-57.91"/>
</a>
</g>
</g>
<!-- Node7&#45;&gt;Node4 -->
<g id="edge9_Node000007_Node000004" class="edge">
<title>Node7&#45;&gt;Node4</title>
<g id="a_edge9_Node000007_Node000004"><a xlink:title=" ">
<path fill="none" stroke="#63b8ff" d="M371.93,-64.34C337.79,-54.28 296.16,-42.02 263.83,-32.49"/>
<polygon fill="#63b8ff" stroke="#63b8ff" points="370.7,-67.63 381.28,-67.1 372.68,-60.91 370.7,-67.63"/>
</a>
</g>
</g>
<!-- Node7&#45;&gt;Node6 -->
<g id="edge8_Node000007_Node000006" class="edge">
<title>Node7&#45;&gt;Node6</title>
<g id="a_edge8_Node000007_Node000006"><a xlink:title=" ">
<path fill="none" stroke="#63b8ff" d="M451.34,-58.3C457.04,-49.55 463.29,-39.96 468.33,-32.22"/>
<polygon fill="#63b8ff" stroke="#63b8ff" points="448.58,-56.14 446.05,-66.42 454.44,-59.96 448.58,-56.14"/>
</a>
</g>
</g>
</g>
</svg>
