<?xml version="1.0" encoding="UTF-8" standalone="no"?>
<!DOCTYPE svg PUBLIC "-//W3C//DTD SVG 1.1//EN"
 "http://www.w3.org/Graphics/SVG/1.1/DTD/svg11.dtd">
<!-- Generated by graphviz version 9.0.0 (20230911.1827)
 -->
<!-- Title: E:/GitHub/PRML_Code/src/hw4/main.c Pages: 1 -->
<svg width="426pt" height="264pt"
 viewBox="0.00 0.00 425.88 264.00" xmlns="http://www.w3.org/2000/svg" xmlns:xlink="http://www.w3.org/1999/xlink">
<g id="graph0" class="graph" transform="scale(1 1) rotate(0) translate(4 260)">
<title>E:/GitHub/PRML_Code/src/hw4/main.c</title>
<!-- Node1 -->
<g id="Node000001" class="node">
<title>Node1</title>
<g id="a_Node000001"><a xlink:title="Basic demonstration for Supervised Learning Algorithm.">
<polygon fill="#999999" stroke="#666666" points="296.38,-256 179.88,-256 179.88,-224 296.38,-224 296.38,-256"/>
<text text-anchor="start" x="187.88" y="-242.5" font-family="Helvetica,sans-Serif" font-size="10.00">E:/GitHub/PRML_Code</text>
<text text-anchor="middle" x="238.12" y="-230.5" font-family="Helvetica,sans-Serif" font-size="10.00">/src/hw4/main.c</text>
</a>
</g>
</g>
<!-- Node2 -->
<g id="Node000002" class="node">
<title>Node2</title>
<g id="a_Node000002"><a xlink:title=" ">
<polygon fill="#e0e0e0" stroke="#999999" points="251.75,-20 206.5,-20 206.5,0 251.75,0 251.75,-20"/>
<text text-anchor="middle" x="229.12" y="-6.5" font-family="Helvetica,sans-Serif" font-size="10.00">stdio.h</text>
</a>
</g>
</g>
<!-- Node1&#45;&gt;Node2 -->
<g id="edge1_Node000001_Node000002" class="edge">
<title>Node1&#45;&gt;Node2</title>
<g id="a_edge1_Node000001_Node000002"><a xlink:title=" ">
<path fill="none" stroke="#63b8ff" d="M241.24,-223.85C243.28,-213.72 245.97,-200.08 248.12,-188 254.1,-154.51 261.28,-145.76 257.12,-112 253.99,-86.54 250.05,-80.7 243.12,-56 240.84,-47.83 238.1,-38.9 235.66,-31.16"/>
<polygon fill="#63b8ff" stroke="#63b8ff" points="239.02,-30.16 232.64,-21.7 232.35,-32.29 239.02,-30.16"/>
</a>
</g>
</g>
<!-- Node3 -->
<g id="Node000003" class="node">
<title>Node3</title>
<g id="a_Node000003"><a xlink:href="config__read_8h.html" target="_top" xlink:title=" ">
<polygon fill="white" stroke="#666666" points="154.38,-76 61.88,-76 61.88,-56 154.38,-56 154.38,-76"/>
<text text-anchor="middle" x="108.12" y="-62.5" font-family="Helvetica,sans-Serif" font-size="10.00">./lib/config_read.h</text>
</a>
</g>
</g>
<!-- Node1&#45;&gt;Node3 -->
<g id="edge2_Node000001_Node000003" class="edge">
<title>Node1&#45;&gt;Node3</title>
<g id="a_edge2_Node000001_Node000003"><a xlink:title=" ">
<path fill="none" stroke="#63b8ff" d="M179.56,-225.92C158.59,-218.31 136.79,-206.42 123.12,-188 101.23,-158.49 102.13,-113.36 104.98,-87.37"/>
<polygon fill="#63b8ff" stroke="#63b8ff" points="108.41,-88.17 106.25,-77.8 101.47,-87.25 108.41,-88.17"/>
</a>
</g>
</g>
<!-- Node7 -->
<g id="Node000007" class="node">
<title>Node7</title>
<g id="a_Node000007"><a xlink:href="plot__iter_8h.html" target="_top" xlink:title="Create a gnuplot drawing API for iter.h.">
<polygon fill="white" stroke="#666666" points="209.88,-188 132.38,-188 132.38,-168 209.88,-168 209.88,-188"/>
<text text-anchor="middle" x="171.12" y="-174.5" font-family="Helvetica,sans-Serif" font-size="10.00">./lib/plot_iter.h</text>
</a>
</g>
</g>
<!-- Node1&#45;&gt;Node7 -->
<g id="edge7_Node000001_Node000007" class="edge">
<title>Node1&#45;&gt;Node7</title>
<g id="a_edge7_Node000001_Node000007"><a xlink:title=" ">
<path fill="none" stroke="#63b8ff" d="M220.87,-223.55C211.47,-215.13 199.81,-204.69 190.15,-196.04"/>
<polygon fill="#63b8ff" stroke="#63b8ff" points="192.54,-193.48 182.76,-189.42 187.87,-198.7 192.54,-193.48"/>
</a>
</g>
</g>
<!-- Node8 -->
<g id="Node000008" class="node">
<title>Node8</title>
<g id="a_Node000008"><a xlink:href="iter_8h.html" target="_top" xlink:title="Iterate through points and fine the point closest to the intersection of lines.">
<polygon fill="white" stroke="#666666" points="248,-132 210.25,-132 210.25,-112 248,-112 248,-132"/>
<text text-anchor="middle" x="229.12" y="-118.5" font-family="Helvetica,sans-Serif" font-size="10.00">iter.h</text>
</a>
</g>
</g>
<!-- Node1&#45;&gt;Node8 -->
<g id="edge13_Node000001_Node000008" class="edge">
<title>Node1&#45;&gt;Node8</title>
<g id="a_edge13_Node000001_Node000008"><a xlink:title=" ">
<path fill="none" stroke="#63b8ff" d="M236.95,-223.84C235.36,-203.32 232.51,-166.63 230.73,-143.62"/>
<polygon fill="#63b8ff" stroke="#63b8ff" points="234.24,-143.65 229.97,-133.95 227.26,-144.19 234.24,-143.65"/>
</a>
</g>
</g>
<!-- Node9 -->
<g id="Node000009" class="node">
<title>Node9</title>
<g id="a_Node000009"><a xlink:href="signal__handler_8h.html" target="_top" xlink:title="Defines custom signal handler. Ref:">
<polygon fill="white" stroke="#666666" points="417.88,-188 304.38,-188 304.38,-168 417.88,-168 417.88,-188"/>
<text text-anchor="middle" x="361.12" y="-174.5" font-family="Helvetica,sans-Serif" font-size="10.00">../libc/signal_handler.h</text>
</a>
</g>
</g>
<!-- Node1&#45;&gt;Node9 -->
<g id="edge14_Node000001_Node000009" class="edge">
<title>Node1&#45;&gt;Node9</title>
<g id="a_edge14_Node000001_Node000009"><a xlink:title=" ">
<path fill="none" stroke="#63b8ff" d="M269.8,-223.55C288.84,-214.26 312.91,-202.52 331.56,-193.42"/>
<polygon fill="#63b8ff" stroke="#63b8ff" points="333.03,-196.6 340.48,-189.07 329.96,-190.31 333.03,-196.6"/>
</a>
</g>
</g>
<!-- Node3&#45;&gt;Node2 -->
<g id="edge3_Node000003_Node000002" class="edge">
<title>Node3&#45;&gt;Node2</title>
<g id="a_edge3_Node000003_Node000002"><a xlink:title=" ">
<path fill="none" stroke="#63b8ff" d="M129.2,-55.59C148.08,-47.17 176.04,-34.69 197.59,-25.07"/>
<polygon fill="#63b8ff" stroke="#63b8ff" points="198.8,-28.37 206.5,-21.1 195.94,-21.98 198.8,-28.37"/>
</a>
</g>
</g>
<!-- Node4 -->
<g id="Node000004" class="node">
<title>Node4</title>
<g id="a_Node000004"><a xlink:title=" ">
<polygon fill="#e0e0e0" stroke="#999999" points="113.88,-20 66.38,-20 66.38,0 113.88,0 113.88,-20"/>
<text text-anchor="middle" x="90.12" y="-6.5" font-family="Helvetica,sans-Serif" font-size="10.00">stdlib.h</text>
</a>
</g>
</g>
<!-- Node3&#45;&gt;Node4 -->
<g id="edge4_Node000003_Node000004" class="edge">
<title>Node3&#45;&gt;Node4</title>
<g id="a_edge4_Node000003_Node000004"><a xlink:title=" ">
<path fill="none" stroke="#63b8ff" d="M104.99,-55.59C102.74,-48.86 99.64,-39.53 96.84,-31.15"/>
<polygon fill="#63b8ff" stroke="#63b8ff" points="100.19,-30.11 93.7,-21.73 93.55,-32.33 100.19,-30.11"/>
</a>
</g>
</g>
<!-- Node5 -->
<g id="Node000005" class="node">
<title>Node5</title>
<g id="a_Node000005"><a xlink:title=" ">
<polygon fill="#e0e0e0" stroke="#999999" points="188,-20 132.25,-20 132.25,0 188,0 188,-20"/>
<text text-anchor="middle" x="160.12" y="-6.5" font-family="Helvetica,sans-Serif" font-size="10.00">stdbool.h</text>
</a>
</g>
</g>
<!-- Node3&#45;&gt;Node5 -->
<g id="edge5_Node000003_Node000005" class="edge">
<title>Node3&#45;&gt;Node5</title>
<g id="a_edge5_Node000003_Node000005"><a xlink:title=" ">
<path fill="none" stroke="#63b8ff" d="M117.18,-55.59C124.34,-48.16 134.53,-37.58 143.19,-28.58"/>
<polygon fill="#63b8ff" stroke="#63b8ff" points="145.71,-31.02 150.12,-21.39 140.66,-26.16 145.71,-31.02"/>
</a>
</g>
</g>
<!-- Node6 -->
<g id="Node000006" class="node">
<title>Node6</title>
<g id="a_Node000006"><a xlink:title=" ">
<polygon fill="#e0e0e0" stroke="#999999" points="48.25,-20 0,-20 0,0 48.25,0 48.25,-20"/>
<text text-anchor="middle" x="24.12" y="-6.5" font-family="Helvetica,sans-Serif" font-size="10.00">string.h</text>
</a>
</g>
</g>
<!-- Node3&#45;&gt;Node6 -->
<g id="edge6_Node000003_Node000006" class="edge">
<title>Node3&#45;&gt;Node6</title>
<g id="a_edge6_Node000003_Node000006"><a xlink:title=" ">
<path fill="none" stroke="#63b8ff" d="M93.49,-55.59C81.04,-47.59 62.91,-35.93 48.3,-26.54"/>
<polygon fill="#63b8ff" stroke="#63b8ff" points="50.45,-23.76 40.14,-21.3 46.66,-29.65 50.45,-23.76"/>
</a>
</g>
</g>
<!-- Node7&#45;&gt;Node2 -->
<g id="edge8_Node000007_Node000002" class="edge">
<title>Node7&#45;&gt;Node2</title>
<g id="a_edge8_Node000007_Node000002"><a xlink:title=" ">
<path fill="none" stroke="#63b8ff" d="M174.41,-167.6C183.58,-141.35 209.62,-66.84 222.18,-30.89"/>
<polygon fill="#63b8ff" stroke="#63b8ff" points="225.38,-32.32 225.38,-21.73 218.77,-30.01 225.38,-32.32"/>
</a>
</g>
</g>
<!-- Node7&#45;&gt;Node3 -->
<g id="edge9_Node000007_Node000003" class="edge">
<title>Node7&#45;&gt;Node3</title>
<g id="a_edge9_Node000007_Node000003"><a xlink:title=" ">
<path fill="none" stroke="#63b8ff" d="M165.75,-167.62C155.43,-149.6 132.64,-109.81 119.02,-86.02"/>
<polygon fill="#63b8ff" stroke="#63b8ff" points="122.24,-84.61 114.23,-77.67 116.17,-88.09 122.24,-84.61"/>
</a>
</g>
</g>
<!-- Node7&#45;&gt;Node8 -->
<g id="edge10_Node000007_Node000008" class="edge">
<title>Node7&#45;&gt;Node8</title>
<g id="a_edge10_Node000007_Node000008"><a xlink:title=" ">
<path fill="none" stroke="#63b8ff" d="M181.23,-167.59C189.38,-160.01 201.06,-149.13 210.84,-140.02"/>
<polygon fill="#63b8ff" stroke="#63b8ff" points="213.1,-142.71 218.03,-133.33 208.33,-137.58 213.1,-142.71"/>
</a>
</g>
</g>
<!-- Node8&#45;&gt;Node2 -->
<g id="edge11_Node000008_Node000002" class="edge">
<title>Node8&#45;&gt;Node2</title>
<g id="a_edge11_Node000008_Node000002"><a xlink:title=" ">
<path fill="none" stroke="#63b8ff" d="M229.12,-111.62C229.12,-94.01 229.12,-55.59 229.12,-31.65"/>
<polygon fill="#63b8ff" stroke="#63b8ff" points="232.63,-31.87 229.13,-21.87 225.63,-31.87 232.63,-31.87"/>
</a>
</g>
</g>
<!-- Node8&#45;&gt;Node3 -->
<g id="edge12_Node000008_Node000003" class="edge">
<title>Node8&#45;&gt;Node3</title>
<g id="a_edge12_Node000008_Node000003"><a xlink:title=" ">
<path fill="none" stroke="#63b8ff" d="M209.95,-112.44C191.05,-104.01 161.85,-90.98 139.56,-81.03"/>
<polygon fill="#63b8ff" stroke="#63b8ff" points="141.18,-77.92 130.62,-77.04 138.33,-84.31 141.18,-77.92"/>
</a>
</g>
</g>
<!-- Node10 -->
<g id="Node000010" class="node">
<title>Node10</title>
<g id="a_Node000010"><a xlink:title=" ">
<polygon fill="#e0e0e0" stroke="#999999" points="386,-132 336.25,-132 336.25,-112 386,-112 386,-132"/>
<text text-anchor="middle" x="361.12" y="-118.5" font-family="Helvetica,sans-Serif" font-size="10.00">signal.h</text>
</a>
</g>
</g>
<!-- Node9&#45;&gt;Node10 -->
<g id="edge15_Node000009_Node000010" class="edge">
<title>Node9&#45;&gt;Node10</title>
<g id="a_edge15_Node000009_Node000010"><a xlink:title=" ">
<path fill="none" stroke="#63b8ff" d="M361.12,-167.59C361.12,-161.01 361.12,-151.96 361.12,-143.73"/>
<polygon fill="#63b8ff" stroke="#63b8ff" points="364.63,-143.81 361.13,-133.81 357.63,-143.81 364.63,-143.81"/>
</a>
</g>
</g>
</g>
</svg>
