<?xml version="1.0" encoding="UTF-8" standalone="no"?>
<!DOCTYPE svg PUBLIC "-//W3C//DTD SVG 1.1//EN"
 "http://www.w3.org/Graphics/SVG/1.1/DTD/svg11.dtd">
<!-- Generated by graphviz version 9.0.0 (20230911.1827)
 -->
<!-- Title: E:/GitHub/PRML_Code/src/hw4/main.c Pages: 1 -->
<svg width="259pt" height="208pt"
 viewBox="0.00 0.00 258.75 208.00" xmlns="http://www.w3.org/2000/svg" xmlns:xlink="http://www.w3.org/1999/xlink">
<g id="graph0" class="graph" transform="scale(1 1) rotate(0) translate(4 204)">
<title>E:/GitHub/PRML_Code/src/hw4/main.c</title>
<!-- Node1 -->
<g id="Node000001" class="node">
<title>Node1</title>
<g id="a_Node000001"><a xlink:title="Basic demonstration for Supervised Learning Algorithm.">
<polygon fill="#999999" stroke="#666666" points="128.88,-200 12.38,-200 12.38,-168 128.88,-168 128.88,-200"/>
<text text-anchor="start" x="20.38" y="-186.5" font-family="Helvetica,sans-Serif" font-size="10.00">E:/GitHub/PRML_Code</text>
<text text-anchor="middle" x="70.62" y="-174.5" font-family="Helvetica,sans-Serif" font-size="10.00">/src/hw4/main.c</text>
</a>
</g>
</g>
<!-- Node2 -->
<g id="Node000002" class="node">
<title>Node2</title>
<g id="a_Node000002"><a xlink:title=" ">
<polygon fill="#e0e0e0" stroke="#999999" points="45.25,-20 0,-20 0,0 45.25,0 45.25,-20"/>
<text text-anchor="middle" x="22.62" y="-6.5" font-family="Helvetica,sans-Serif" font-size="10.00">stdio.h</text>
</a>
</g>
</g>
<!-- Node1&#45;&gt;Node2 -->
<g id="edge1_Node000001_Node000002" class="edge">
<title>Node1&#45;&gt;Node2</title>
<g id="a_edge1_Node000001_Node000002"><a xlink:title=" ">
<path fill="none" stroke="#63b8ff" d="M50.43,-167.92C39.99,-158.82 28.27,-146.24 22.62,-132 9.44,-98.74 13.8,-56.18 18.19,-31.42"/>
<polygon fill="#63b8ff" stroke="#63b8ff" points="21.6,-32.2 20.11,-21.72 14.74,-30.85 21.6,-32.2"/>
</a>
</g>
</g>
<!-- Node3 -->
<g id="Node000003" class="node">
<title>Node3</title>
<g id="a_Node000003"><a xlink:href="config__read_8h.html" target="_top" xlink:title=" ">
<polygon fill="white" stroke="#666666" points="177.88,-76 85.38,-76 85.38,-56 177.88,-56 177.88,-76"/>
<text text-anchor="middle" x="131.62" y="-62.5" font-family="Helvetica,sans-Serif" font-size="10.00">./lib/config_read.h</text>
</a>
</g>
</g>
<!-- Node1&#45;&gt;Node3 -->
<g id="edge2_Node000001_Node000003" class="edge">
<title>Node1&#45;&gt;Node3</title>
<g id="a_edge2_Node000001_Node000003"><a xlink:title=" ">
<path fill="none" stroke="#63b8ff" d="M89.27,-167.87C99.49,-158.58 111.49,-145.83 118.62,-132 125.74,-118.2 128.97,-100.9 130.43,-87.62"/>
<polygon fill="#63b8ff" stroke="#63b8ff" points="133.9,-88.12 131.23,-77.86 126.92,-87.54 133.9,-88.12"/>
</a>
</g>
</g>
<!-- Node7 -->
<g id="Node000007" class="node">
<title>Node7</title>
<g id="a_Node000007"><a xlink:href="plot__iter_8h.html" target="_top" xlink:title="Create a gnuplot drawing API for iter.h.">
<polygon fill="white" stroke="#666666" points="109.38,-132 31.88,-132 31.88,-112 109.38,-112 109.38,-132"/>
<text text-anchor="middle" x="70.62" y="-118.5" font-family="Helvetica,sans-Serif" font-size="10.00">./lib/plot_iter.h</text>
</a>
</g>
</g>
<!-- Node1&#45;&gt;Node7 -->
<g id="edge7_Node000001_Node000007" class="edge">
<title>Node1&#45;&gt;Node7</title>
<g id="a_edge7_Node000001_Node000007"><a xlink:title=" ">
<path fill="none" stroke="#63b8ff" d="M70.62,-167.55C70.62,-160.34 70.62,-151.66 70.62,-143.88"/>
<polygon fill="#63b8ff" stroke="#63b8ff" points="74.13,-143.92 70.63,-133.92 67.13,-143.92 74.13,-143.92"/>
</a>
</g>
</g>
<!-- Node3&#45;&gt;Node2 -->
<g id="edge3_Node000003_Node000002" class="edge">
<title>Node3&#45;&gt;Node2</title>
<g id="a_edge3_Node000003_Node000002"><a xlink:title=" ">
<path fill="none" stroke="#63b8ff" d="M112.64,-55.59C95.86,-47.28 71.13,-35.03 51.84,-25.47"/>
<polygon fill="#63b8ff" stroke="#63b8ff" points="53.63,-22.45 43.12,-21.15 50.52,-28.73 53.63,-22.45"/>
</a>
</g>
</g>
<!-- Node4 -->
<g id="Node000004" class="node">
<title>Node4</title>
<g id="a_Node000004"><a xlink:title=" ">
<polygon fill="#e0e0e0" stroke="#999999" points="110.38,-20 62.88,-20 62.88,0 110.38,0 110.38,-20"/>
<text text-anchor="middle" x="86.62" y="-6.5" font-family="Helvetica,sans-Serif" font-size="10.00">stdlib.h</text>
</a>
</g>
</g>
<!-- Node3&#45;&gt;Node4 -->
<g id="edge4_Node000003_Node000004" class="edge">
<title>Node3&#45;&gt;Node4</title>
<g id="a_edge4_Node000003_Node000004"><a xlink:title=" ">
<path fill="none" stroke="#63b8ff" d="M123.79,-55.59C117.66,-48.24 108.95,-37.8 101.51,-28.87"/>
<polygon fill="#63b8ff" stroke="#63b8ff" points="104.43,-26.9 95.34,-21.46 99.06,-31.38 104.43,-26.9"/>
</a>
</g>
</g>
<!-- Node5 -->
<g id="Node000005" class="node">
<title>Node5</title>
<g id="a_Node000005"><a xlink:title=" ">
<polygon fill="#e0e0e0" stroke="#999999" points="184.5,-20 128.75,-20 128.75,0 184.5,0 184.5,-20"/>
<text text-anchor="middle" x="156.62" y="-6.5" font-family="Helvetica,sans-Serif" font-size="10.00">stdbool.h</text>
</a>
</g>
</g>
<!-- Node3&#45;&gt;Node5 -->
<g id="edge5_Node000003_Node000005" class="edge">
<title>Node3&#45;&gt;Node5</title>
<g id="a_edge5_Node000003_Node000005"><a xlink:title=" ">
<path fill="none" stroke="#63b8ff" d="M135.98,-55.59C139.17,-48.7 143.61,-39.1 147.56,-30.57"/>
<polygon fill="#63b8ff" stroke="#63b8ff" points="150.66,-32.22 151.68,-21.67 144.31,-29.28 150.66,-32.22"/>
</a>
</g>
</g>
<!-- Node6 -->
<g id="Node000006" class="node">
<title>Node6</title>
<g id="a_Node000006"><a xlink:title=" ">
<polygon fill="#e0e0e0" stroke="#999999" points="250.75,-20 202.5,-20 202.5,0 250.75,0 250.75,-20"/>
<text text-anchor="middle" x="226.62" y="-6.5" font-family="Helvetica,sans-Serif" font-size="10.00">string.h</text>
</a>
</g>
</g>
<!-- Node3&#45;&gt;Node6 -->
<g id="edge6_Node000003_Node000006" class="edge">
<title>Node3&#45;&gt;Node6</title>
<g id="a_edge6_Node000003_Node000006"><a xlink:title=" ">
<path fill="none" stroke="#63b8ff" d="M148.17,-55.59C162.52,-47.44 183.55,-35.48 200.23,-26"/>
<polygon fill="#63b8ff" stroke="#63b8ff" points="201.67,-29.21 208.63,-21.23 198.21,-23.13 201.67,-29.21"/>
</a>
</g>
</g>
<!-- Node7&#45;&gt;Node2 -->
<g id="edge8_Node000007_Node000002" class="edge">
<title>Node7&#45;&gt;Node2</title>
<g id="a_edge8_Node000007_Node000002"><a xlink:title=" ">
<path fill="none" stroke="#63b8ff" d="M66.53,-111.62C58.74,-93.76 41.62,-54.53 31.21,-30.67"/>
<polygon fill="#63b8ff" stroke="#63b8ff" points="34.52,-29.51 27.31,-21.74 28.1,-32.31 34.52,-29.51"/>
</a>
</g>
</g>
<!-- Node7&#45;&gt;Node3 -->
<g id="edge9_Node000007_Node000003" class="edge">
<title>Node7&#45;&gt;Node3</title>
<g id="a_edge9_Node000007_Node000003"><a xlink:title=" ">
<path fill="none" stroke="#63b8ff" d="M81.25,-111.59C89.91,-103.93 102.36,-92.91 112.71,-83.75"/>
<polygon fill="#63b8ff" stroke="#63b8ff" points="114.82,-86.55 119.99,-77.3 110.18,-81.31 114.82,-86.55"/>
</a>
</g>
</g>
</g>
</svg>
