<?xml version="1.0" encoding="UTF-8" standalone="no"?>
<!DOCTYPE svg PUBLIC "-//W3C//DTD SVG 1.1//EN"
 "http://www.w3.org/Graphics/SVG/1.1/DTD/svg11.dtd">
<!-- Generated by graphviz version 9.0.0 (20230911.1827)
 -->
<!-- Title: E:/GitHub/PRML_Code/src/hw4/lib/iter.c Pages: 1 -->
<svg width="125pt" height="152pt"
 viewBox="0.00 0.00 124.50 152.00" xmlns="http://www.w3.org/2000/svg" xmlns:xlink="http://www.w3.org/1999/xlink">
<g id="graph0" class="graph" transform="scale(1 1) rotate(0) translate(4 148)">
<title>E:/GitHub/PRML_Code/src/hw4/lib/iter.c</title>
<!-- Node1 -->
<g id="Node000001" class="node">
<title>Node1</title>
<g id="a_Node000001"><a xlink:title=" ">
<polygon fill="#999999" stroke="#666666" points="116.5,-144 0,-144 0,-112 116.5,-112 116.5,-144"/>
<text text-anchor="start" x="8" y="-130.5" font-family="Helvetica,sans-Serif" font-size="10.00">E:/GitHub/PRML_Code</text>
<text text-anchor="middle" x="58.25" y="-118.5" font-family="Helvetica,sans-Serif" font-size="10.00">/src/hw4/lib/iter.c</text>
</a>
</g>
</g>
<!-- Node2 -->
<g id="Node000002" class="node">
<title>Node2</title>
<g id="a_Node000002"><a xlink:title=" ">
<polygon fill="#e0e0e0" stroke="#999999" points="80.88,-20 35.62,-20 35.62,0 80.88,0 80.88,-20"/>
<text text-anchor="middle" x="58.25" y="-6.5" font-family="Helvetica,sans-Serif" font-size="10.00">stdio.h</text>
</a>
</g>
</g>
<!-- Node1&#45;&gt;Node2 -->
<g id="edge1_Node000001_Node000002" class="edge">
<title>Node1&#45;&gt;Node2</title>
<g id="a_edge1_Node000001_Node000002"><a xlink:title=" ">
<path fill="none" stroke="#63b8ff" d="M56.51,-111.77C55.07,-97.4 53.4,-75.24 54.25,-56 54.61,-47.97 55.32,-39.16 56.04,-31.48"/>
<polygon fill="#63b8ff" stroke="#63b8ff" points="59.5,-32.1 57.03,-21.8 52.53,-31.39 59.5,-32.1"/>
</a>
</g>
</g>
<!-- Node3 -->
<g id="Node000003" class="node">
<title>Node3</title>
<g id="a_Node000003"><a xlink:href="iter_8h.html" target="_top" xlink:title=" ">
<polygon fill="white" stroke="#666666" points="101.12,-76 63.38,-76 63.38,-56 101.12,-56 101.12,-76"/>
<text text-anchor="middle" x="82.25" y="-62.5" font-family="Helvetica,sans-Serif" font-size="10.00">iter.h</text>
</a>
</g>
</g>
<!-- Node1&#45;&gt;Node3 -->
<g id="edge2_Node000001_Node000003" class="edge">
<title>Node1&#45;&gt;Node3</title>
<g id="a_edge2_Node000001_Node000003"><a xlink:title=" ">
<path fill="none" stroke="#63b8ff" d="M64.43,-111.55C67.42,-104.08 71.04,-95.03 74.23,-87.04"/>
<polygon fill="#63b8ff" stroke="#63b8ff" points="77.46,-88.4 77.92,-77.81 70.96,-85.8 77.46,-88.4"/>
</a>
</g>
</g>
<!-- Node3&#45;&gt;Node2 -->
<g id="edge3_Node000003_Node000002" class="edge">
<title>Node3&#45;&gt;Node2</title>
<g id="a_edge3_Node000003_Node000002"><a xlink:title=" ">
<path fill="none" stroke="#63b8ff" d="M78.07,-55.59C75.01,-48.7 70.74,-39.1 66.95,-30.57"/>
<polygon fill="#63b8ff" stroke="#63b8ff" points="70.26,-29.4 63,-21.68 63.86,-32.24 70.26,-29.4"/>
</a>
</g>
</g>
</g>
</svg>
