<?xml version="1.0" encoding="UTF-8" standalone="no"?>
<!DOCTYPE svg PUBLIC "-//W3C//DTD SVG 1.1//EN"
 "http://www.w3.org/Graphics/SVG/1.1/DTD/svg11.dtd">
<!-- Generated by graphviz version 9.0.0 (20230911.1827)
 -->
<!-- Title: E:/GitHub/PRML_Code/src/hw4/lib/iter.h Pages: 1 -->
<!--zoomable 176 -->

<svg id="main" version="1.1" xmlns="http://www.w3.org/2000/svg" xmlns:xlink="http://www.w3.org/1999/xlink" xml:space="preserve" onload="init(evt)">
<style type="text/css"><![CDATA[
.node, .edge {opacity: 0.7;}
.node.selected, .edge.selected {opacity: 1;}
.edge:hover path { stroke: red; }
.edge:hover polygon { stroke: red; fill: red; }
]]></style>

<defs>
  <circle id="rim" cx="0" cy="0" r="7"/>
  <circle id="rim2" cx="0" cy="0" r="3.5"/>
  <g id="zoomPlus">
    <use xlink:href="#rim" fill="#404040"><set attributeName="fill" to="#808080" begin="zoomplus.mouseover" end="zoomplus.mouseout"/></use>
    <path d="M-4,0h8M0,-4v8" fill="none" stroke="white" stroke-width="1.5" pointer-events="none"/>
  </g>
  <g id="zoomMin">
    <use xlink:href="#rim" fill="#404040"><set attributeName="fill" to="#808080" begin="zoomminus.mouseover" end="zoomminus.mouseout"/></use>
    <path d="M-4,0h8" fill="none" stroke="white" stroke-width="1.5" pointer-events="none"/>
  </g>
  <g id="arrowUp" transform="translate(30 24)">
    <use xlink:href="#rim"/>
    <path pointer-events="none" fill="none" stroke="white" stroke-width="1.5" d="M0,-3.0v7 M-2.5,-0.5L0,-3.0L2.5,-0.5"/>
  </g>
  <g id="arrowRight" transform="rotate(90) translate(36 -43)">
    <use xlink:href="#rim"/>
    <path pointer-events="none" fill="none" stroke="white" stroke-width="1.5" d="M0,-3.0v7 M-2.5,-0.5L0,-3.0L2.5,-0.5"/>
  </g>
  <g id="arrowDown" transform="rotate(180) translate(-30 -48)">
    <use xlink:href="#rim"/>
    <path pointer-events="none" fill="none" stroke="white" stroke-width="1.5" d="M0,-3.0v7 M-2.5,-0.5L0,-3.0L2.5,-0.5"/>
  </g>
  <g id="arrowLeft" transform="rotate(270) translate(-36 17)">
    <use xlink:href="#rim"/>
    <path pointer-events="none" fill="none" stroke="white" stroke-width="1.5" d="M0,-3.0v7 M-2.5,-0.5L0,-3.0L2.5,-0.5"/>
  </g>
  <g id="resetDef">
    <use xlink:href="#rim2" fill="#404040"><set attributeName="fill" to="#808080" begin="reset.mouseover" end="reset.mouseout"/></use>
  </g>
</defs>
<script type="application/ecmascript">
var viewWidth = 634;
var viewHeight = 176;
var sectionId = 'dynsection-1';
</script>
<script type="application/ecmascript" xlink:href="svg.min.js"/>
<svg id="graph" class="graph">
<g id="viewport">
<title>E:/GitHub/PRML_Code/src/hw4/lib/iter.h</title>
<!-- Node1 -->
<g id="Node000001" class="node">
<title>Node1</title>
<g id="a_Node000001"><a xlink:title="Iterate through points and fine the point closest to the intersection of lines.">
<polygon fill="#999999" stroke="#666666" points="429.5,-168 313,-168 313,-136 429.5,-136 429.5,-168"/>
<text text-anchor="start" x="321" y="-154.5" font-family="Helvetica,sans-Serif" font-size="10.00">E:/GitHub/PRML_Code</text>
<text text-anchor="middle" x="371.25" y="-142.5" font-family="Helvetica,sans-Serif" font-size="10.00">/src/hw4/lib/iter.h</text>
</a>
</g>
</g>
<!-- Node2 -->
<g id="Node000002" class="node">
<title>Node2</title>
<g id="a_Node000002"><a xlink:href="iter_8c.html" target="_top" xlink:title=" ">
<polygon fill="white" stroke="#666666" points="116.5,-100 0,-100 0,-68 116.5,-68 116.5,-100"/>
<text text-anchor="start" x="8" y="-86.5" font-family="Helvetica,sans-Serif" font-size="10.00">E:/GitHub/PRML_Code</text>
<text text-anchor="middle" x="58.25" y="-74.5" font-family="Helvetica,sans-Serif" font-size="10.00">/src/hw4/lib/iter.c</text>
</a>
</g>
</g>
<!-- Node1&#45;&gt;Node2 -->
<g id="edge1_Node000001_Node000002" class="edge">
<title>Node1&#45;&gt;Node2</title>
<g id="a_edge1_Node000001_Node000002"><a xlink:title=" ">
<path fill="none" stroke="#63b8ff" d="M301.67,-136.75C252.61,-126.64 185.37,-112.67 126.25,-100 123.18,-99.34 120.03,-98.66 116.85,-97.97"/>
<polygon fill="#63b8ff" stroke="#63b8ff" points="300.81,-140.14 311.31,-138.73 302.22,-133.29 300.81,-140.14"/>
</a>
</g>
</g>
<!-- Node3 -->
<g id="Node000003" class="node">
<title>Node3</title>
<g id="a_Node000003"><a xlink:href="plot__cost_8c.html" target="_top" xlink:title=" ">
<polygon fill="white" stroke="#666666" points="251.5,-100 135,-100 135,-68 251.5,-68 251.5,-100"/>
<text text-anchor="start" x="143" y="-86.5" font-family="Helvetica,sans-Serif" font-size="10.00">E:/GitHub/PRML_Code</text>
<text text-anchor="middle" x="193.25" y="-74.5" font-family="Helvetica,sans-Serif" font-size="10.00">/src/hw4/lib/plot_cost.c</text>
</a>
</g>
</g>
<!-- Node1&#45;&gt;Node3 -->
<g id="edge2_Node000001_Node000003" class="edge">
<title>Node1&#45;&gt;Node3</title>
<g id="a_edge2_Node000001_Node000003"><a xlink:title=" ">
<path fill="none" stroke="#63b8ff" d="M318.81,-131.56C292.09,-121.65 260.06,-109.77 235.03,-100.49"/>
<polygon fill="#63b8ff" stroke="#63b8ff" points="317.5,-134.8 328.1,-135 319.94,-128.24 317.5,-134.8"/>
</a>
</g>
</g>
<!-- Node4 -->
<g id="Node000004" class="node">
<title>Node4</title>
<g id="a_Node000004"><a xlink:href="plot__cost_8h.html" target="_top" xlink:title="Function prototypes for plotting cost function.">
<polygon fill="white" stroke="#666666" points="386.5,-100 270,-100 270,-68 386.5,-68 386.5,-100"/>
<text text-anchor="start" x="278" y="-86.5" font-family="Helvetica,sans-Serif" font-size="10.00">E:/GitHub/PRML_Code</text>
<text text-anchor="middle" x="328.25" y="-74.5" font-family="Helvetica,sans-Serif" font-size="10.00">/src/hw4/lib/plot_cost.h</text>
</a>
</g>
</g>
<!-- Node1&#45;&gt;Node4 -->
<g id="edge3_Node000001_Node000004" class="edge">
<title>Node1&#45;&gt;Node4</title>
<g id="a_edge3_Node000001_Node000004"><a xlink:title=" ">
<path fill="none" stroke="#63b8ff" d="M355.16,-126.3C349.46,-117.55 343.21,-107.96 338.17,-100.22"/>
<polygon fill="#63b8ff" stroke="#63b8ff" points="352.06,-127.96 360.45,-134.42 357.92,-124.14 352.06,-127.96"/>
</a>
</g>
</g>
<!-- Node5 -->
<g id="Node000005" class="node">
<title>Node5</title>
<g id="a_Node000005"><a xlink:href="hw4_2main_8c.html" target="_top" xlink:title="Basic demonstration for Supervised Learning Algorithm.">
<polygon fill="white" stroke="#666666" points="472.5,-32 356,-32 356,0 472.5,0 472.5,-32"/>
<text text-anchor="start" x="364" y="-18.5" font-family="Helvetica,sans-Serif" font-size="10.00">E:/GitHub/PRML_Code</text>
<text text-anchor="middle" x="414.25" y="-6.5" font-family="Helvetica,sans-Serif" font-size="10.00">/src/hw4/main.c</text>
</a>
</g>
</g>
<!-- Node1&#45;&gt;Node5 -->
<g id="edge9_Node000001_Node000005" class="edge">
<title>Node1&#45;&gt;Node5</title>
<g id="a_edge9_Node000001_Node000005"><a xlink:title=" ">
<path fill="none" stroke="#63b8ff" d="M384.55,-125.54C388.38,-117.51 392.31,-108.52 395.25,-100 403.21,-76.94 408.8,-49.13 411.77,-32.27"/>
<polygon fill="#63b8ff" stroke="#63b8ff" points="381.47,-123.87 380.16,-134.38 387.74,-126.97 381.47,-123.87"/>
</a>
</g>
</g>
<!-- Node6 -->
<g id="Node000006" class="node">
<title>Node6</title>
<g id="a_Node000006"><a xlink:href="plot__iter_8c.html" target="_top" xlink:title=" ">
<polygon fill="white" stroke="#666666" points="625.5,-32 509,-32 509,0 625.5,0 625.5,-32"/>
<text text-anchor="start" x="517" y="-18.5" font-family="Helvetica,sans-Serif" font-size="10.00">E:/GitHub/PRML_Code</text>
<text text-anchor="middle" x="567.25" y="-6.5" font-family="Helvetica,sans-Serif" font-size="10.00">/src/hw4/lib/plot_iter.c</text>
</a>
</g>
</g>
<!-- Node1&#45;&gt;Node6 -->
<g id="edge5_Node000001_Node000006" class="edge">
<title>Node1&#45;&gt;Node6</title>
<g id="a_edge5_Node000001_Node000006"><a xlink:title=" ">
<path fill="none" stroke="#63b8ff" d="M441.02,-141.93C490.82,-133.86 551.66,-120.17 567.25,-100 582.23,-80.62 577.32,-50.38 572.32,-32.25"/>
<polygon fill="#63b8ff" stroke="#63b8ff" points="440.76,-138.43 431.42,-143.43 441.84,-145.34 440.76,-138.43"/>
</a>
</g>
</g>
<!-- Node7 -->
<g id="Node000007" class="node">
<title>Node7</title>
<g id="a_Node000007"><a xlink:href="plot__iter_8h.html" target="_top" xlink:title="Create a gnuplot drawing API for iter.h.">
<polygon fill="white" stroke="#666666" points="558.5,-100 442,-100 442,-68 558.5,-68 558.5,-100"/>
<text text-anchor="start" x="450" y="-86.5" font-family="Helvetica,sans-Serif" font-size="10.00">E:/GitHub/PRML_Code</text>
<text text-anchor="middle" x="500.25" y="-74.5" font-family="Helvetica,sans-Serif" font-size="10.00">/src/hw4/lib/plot_iter.h</text>
</a>
</g>
</g>
<!-- Node1&#45;&gt;Node7 -->
<g id="edge6_Node000001_Node000007" class="edge">
<title>Node1&#45;&gt;Node7</title>
<g id="a_edge6_Node000001_Node000007"><a xlink:title=" ">
<path fill="none" stroke="#63b8ff" d="M411.63,-130.34C430.58,-120.65 452.76,-109.3 470.19,-100.38"/>
<polygon fill="#63b8ff" stroke="#63b8ff" points="410.15,-127.17 402.84,-134.84 413.34,-133.4 410.15,-127.17"/>
</a>
</g>
</g>
<!-- Node4&#45;&gt;Node5 -->
<g id="edge4_Node000004_Node000005" class="edge">
<title>Node4&#45;&gt;Node5</title>
<g id="a_edge4_Node000004_Node000005"><a xlink:title=" ">
<path fill="none" stroke="#63b8ff" d="M357.08,-60.87C369.24,-51.55 383.09,-40.91 394.11,-32.45"/>
<polygon fill="#63b8ff" stroke="#63b8ff" points="355.2,-57.91 349.4,-66.77 359.46,-63.46 355.2,-57.91"/>
</a>
</g>
</g>
<!-- Node7&#45;&gt;Node5 -->
<g id="edge8_Node000007_Node000005" class="edge">
<title>Node7&#45;&gt;Node5</title>
<g id="a_edge8_Node000007_Node000005"><a xlink:title=" ">
<path fill="none" stroke="#63b8ff" d="M471.42,-60.87C459.26,-51.55 445.41,-40.91 434.39,-32.45"/>
<polygon fill="#63b8ff" stroke="#63b8ff" points="469.04,-63.46 479.1,-66.77 473.3,-57.91 469.04,-63.46"/>
</a>
</g>
</g>
<!-- Node7&#45;&gt;Node6 -->
<g id="edge7_Node000007_Node000006" class="edge">
<title>Node7&#45;&gt;Node6</title>
<g id="a_edge7_Node000007_Node000006"><a xlink:title=" ">
<path fill="none" stroke="#63b8ff" d="M523.89,-59.71C533.16,-50.59 543.52,-40.37 551.79,-32.22"/>
<polygon fill="#63b8ff" stroke="#63b8ff" points="521.54,-57.12 516.87,-66.63 526.45,-62.11 521.54,-57.12"/>
</a>
</g>
</g>
</g>
</svg>

<g id="navigator" transform="translate(0 0)" fill="#404254">
  <rect fill="#f2f5e9" fill-opacity="0.5" stroke="#606060" stroke-width=".5" x="0" y="0" width="60" height="60"/>
  <use id="zoomplus" xlink:href="#zoomPlus" x="17" y="9" onmousedown="handleZoom(evt,'in')"/>
  <use id="zoomminus" xlink:href="#zoomMin" x="42" y="9" onmousedown="handleZoom(evt,'out')"/>
  <use id="reset" xlink:href="#resetDef" x="30" y="36" onmousedown="handleReset()"/>
   <use id="arrowup" xlink:href="#arrowUp" x="0" y="0" onmousedown="handlePan(0,-1)"/>
  <use id="arrowright" xlink:href="#arrowRight" x="0" y="0" onmousedown="handlePan(1,0)"/>
  <use id="arrowdown" xlink:href="#arrowDown" x="0" y="0" onmousedown="handlePan(0,1)"/>
  <use id="arrowleft" xlink:href="#arrowLeft" x="0" y="0" onmousedown="handlePan(-1,0)"/>
</g>
<svg viewBox="0 0 15 15" width="100%" height="30px" preserveAspectRatio="xMaxYMin meet">
 <g id="arrow_out" transform="scale(0.3 0.3)">
  <a xlink:href="iter_8h__dep__incl_org.svg" target="_base">
   <rect id="button" ry="5" rx="5" y="6" x="6" height="38" width="38"
        fill="#f2f5e9" fill-opacity="0.5" stroke="#606060" stroke-width="1.0"/>
   <path id="arrow"
     d="M 11.500037,31.436501 C 11.940474,20.09759 22.043105,11.32322 32.158766,21.979434 L 37.068811,17.246167 C 37.068811,17.246167 37.088388,32 37.088388,32 L 22.160133,31.978069 C 22.160133,31.978069 26.997745,27.140456 26.997745,27.140456 C 18.528582,18.264221 13.291696,25.230495 11.500037,31.436501 z"
     style="fill:#404040;"/>
  </a>
 </g>
</svg>

<style type='text/css'>
<![CDATA[
[data-mouse-over-selected='false'] { opacity: 0.7; }
[data-mouse-over-selected='true']  { opacity: 1.0; }
]]>
</style>
<script type="application/ecmascript"><![CDATA[
document.addEventListener('DOMContentLoaded', (event) => {
  highlightEdges();
  highlightAdjacentNodes();
});
]]></script>
</svg>
