<?xml version="1.0" encoding="UTF-8" standalone="no"?>
<!DOCTYPE svg PUBLIC "-//W3C//DTD SVG 1.1//EN"
 "http://www.w3.org/Graphics/SVG/1.1/DTD/svg11.dtd">
<!-- Generated by graphviz version 9.0.0 (20230911.1827)
 -->
<!-- Title: E:/GitHub/PRML_Code/src/hw4/lib/iter.h Pages: 1 -->
<svg width="634pt" height="176pt"
 viewBox="0.00 0.00 633.50 176.00" xmlns="http://www.w3.org/2000/svg" xmlns:xlink="http://www.w3.org/1999/xlink">
<g id="graph0" class="graph" transform="scale(1 1) rotate(0) translate(4 172)">
<title>E:/GitHub/PRML_Code/src/hw4/lib/iter.h</title>
<!-- Node1 -->
<g id="Node000001" class="node">
<title>Node1</title>
<g id="a_Node000001"><a xlink:title="Iterate through points and fine the point closest to the intersection of lines Ref:">
<polygon fill="#999999" stroke="#666666" points="429.5,-168 313,-168 313,-136 429.5,-136 429.5,-168"/>
<text text-anchor="start" x="321" y="-154.5" font-family="Helvetica,sans-Serif" font-size="10.00">E:/GitHub/PRML_Code</text>
<text text-anchor="middle" x="371.25" y="-142.5" font-family="Helvetica,sans-Serif" font-size="10.00">/src/hw4/lib/iter.h</text>
</a>
</g>
</g>
<!-- Node2 -->
<g id="Node000002" class="node">
<title>Node2</title>
<g id="a_Node000002"><a xlink:href="iter_8c.html" target="_top" xlink:title=" ">
<polygon fill="white" stroke="#666666" points="116.5,-100 0,-100 0,-68 116.5,-68 116.5,-100"/>
<text text-anchor="start" x="8" y="-86.5" font-family="Helvetica,sans-Serif" font-size="10.00">E:/GitHub/PRML_Code</text>
<text text-anchor="middle" x="58.25" y="-74.5" font-family="Helvetica,sans-Serif" font-size="10.00">/src/hw4/lib/iter.c</text>
</a>
</g>
</g>
<!-- Node1&#45;&gt;Node2 -->
<g id="edge1_Node000001_Node000002" class="edge">
<title>Node1&#45;&gt;Node2</title>
<g id="a_edge1_Node000001_Node000002"><a xlink:title=" ">
<path fill="none" stroke="#63b8ff" d="M301.67,-136.75C252.61,-126.64 185.37,-112.67 126.25,-100 123.18,-99.34 120.03,-98.66 116.85,-97.97"/>
<polygon fill="#63b8ff" stroke="#63b8ff" points="300.81,-140.14 311.31,-138.73 302.22,-133.29 300.81,-140.14"/>
</a>
</g>
</g>
<!-- Node3 -->
<g id="Node000003" class="node">
<title>Node3</title>
<g id="a_Node000003"><a xlink:href="plot__cost_8c.html" target="_top" xlink:title=" ">
<polygon fill="white" stroke="#666666" points="251.5,-100 135,-100 135,-68 251.5,-68 251.5,-100"/>
<text text-anchor="start" x="143" y="-86.5" font-family="Helvetica,sans-Serif" font-size="10.00">E:/GitHub/PRML_Code</text>
<text text-anchor="middle" x="193.25" y="-74.5" font-family="Helvetica,sans-Serif" font-size="10.00">/src/hw4/lib/plot_cost.c</text>
</a>
</g>
</g>
<!-- Node1&#45;&gt;Node3 -->
<g id="edge2_Node000001_Node000003" class="edge">
<title>Node1&#45;&gt;Node3</title>
<g id="a_edge2_Node000001_Node000003"><a xlink:title=" ">
<path fill="none" stroke="#63b8ff" d="M318.81,-131.56C292.09,-121.65 260.06,-109.77 235.03,-100.49"/>
<polygon fill="#63b8ff" stroke="#63b8ff" points="317.5,-134.8 328.1,-135 319.94,-128.24 317.5,-134.8"/>
</a>
</g>
</g>
<!-- Node4 -->
<g id="Node000004" class="node">
<title>Node4</title>
<g id="a_Node000004"><a xlink:href="plot__cost_8h.html" target="_top" xlink:title="Function prototypes for plotting cost function.">
<polygon fill="white" stroke="#666666" points="386.5,-100 270,-100 270,-68 386.5,-68 386.5,-100"/>
<text text-anchor="start" x="278" y="-86.5" font-family="Helvetica,sans-Serif" font-size="10.00">E:/GitHub/PRML_Code</text>
<text text-anchor="middle" x="328.25" y="-74.5" font-family="Helvetica,sans-Serif" font-size="10.00">/src/hw4/lib/plot_cost.h</text>
</a>
</g>
</g>
<!-- Node1&#45;&gt;Node4 -->
<g id="edge3_Node000001_Node000004" class="edge">
<title>Node1&#45;&gt;Node4</title>
<g id="a_edge3_Node000001_Node000004"><a xlink:title=" ">
<path fill="none" stroke="#63b8ff" d="M355.16,-126.3C349.46,-117.55 343.21,-107.96 338.17,-100.22"/>
<polygon fill="#63b8ff" stroke="#63b8ff" points="352.06,-127.96 360.45,-134.42 357.92,-124.14 352.06,-127.96"/>
</a>
</g>
</g>
<!-- Node5 -->
<g id="Node000005" class="node">
<title>Node5</title>
<g id="a_Node000005"><a xlink:href="hw4_2main_8c.html" target="_top" xlink:title="Basic demonstration for Supervised Learning Algorithm.">
<polygon fill="white" stroke="#666666" points="472.5,-32 356,-32 356,0 472.5,0 472.5,-32"/>
<text text-anchor="start" x="364" y="-18.5" font-family="Helvetica,sans-Serif" font-size="10.00">E:/GitHub/PRML_Code</text>
<text text-anchor="middle" x="414.25" y="-6.5" font-family="Helvetica,sans-Serif" font-size="10.00">/src/hw4/main.c</text>
</a>
</g>
</g>
<!-- Node1&#45;&gt;Node5 -->
<g id="edge9_Node000001_Node000005" class="edge">
<title>Node1&#45;&gt;Node5</title>
<g id="a_edge9_Node000001_Node000005"><a xlink:title=" ">
<path fill="none" stroke="#63b8ff" d="M384.55,-125.54C388.38,-117.51 392.31,-108.52 395.25,-100 403.21,-76.94 408.8,-49.13 411.77,-32.27"/>
<polygon fill="#63b8ff" stroke="#63b8ff" points="381.47,-123.87 380.16,-134.38 387.74,-126.97 381.47,-123.87"/>
</a>
</g>
</g>
<!-- Node6 -->
<g id="Node000006" class="node">
<title>Node6</title>
<g id="a_Node000006"><a xlink:href="plot__iter_8c.html" target="_top" xlink:title=" ">
<polygon fill="white" stroke="#666666" points="625.5,-32 509,-32 509,0 625.5,0 625.5,-32"/>
<text text-anchor="start" x="517" y="-18.5" font-family="Helvetica,sans-Serif" font-size="10.00">E:/GitHub/PRML_Code</text>
<text text-anchor="middle" x="567.25" y="-6.5" font-family="Helvetica,sans-Serif" font-size="10.00">/src/hw4/lib/plot_iter.c</text>
</a>
</g>
</g>
<!-- Node1&#45;&gt;Node6 -->
<g id="edge5_Node000001_Node000006" class="edge">
<title>Node1&#45;&gt;Node6</title>
<g id="a_edge5_Node000001_Node000006"><a xlink:title=" ">
<path fill="none" stroke="#63b8ff" d="M441.02,-141.93C490.82,-133.86 551.66,-120.17 567.25,-100 582.23,-80.62 577.32,-50.38 572.32,-32.25"/>
<polygon fill="#63b8ff" stroke="#63b8ff" points="440.76,-138.43 431.42,-143.43 441.84,-145.34 440.76,-138.43"/>
</a>
</g>
</g>
<!-- Node7 -->
<g id="Node000007" class="node">
<title>Node7</title>
<g id="a_Node000007"><a xlink:href="plot__iter_8h.html" target="_top" xlink:title="Create a gnuplot drawing API for iter.h.">
<polygon fill="white" stroke="#666666" points="558.5,-100 442,-100 442,-68 558.5,-68 558.5,-100"/>
<text text-anchor="start" x="450" y="-86.5" font-family="Helvetica,sans-Serif" font-size="10.00">E:/GitHub/PRML_Code</text>
<text text-anchor="middle" x="500.25" y="-74.5" font-family="Helvetica,sans-Serif" font-size="10.00">/src/hw4/lib/plot_iter.h</text>
</a>
</g>
</g>
<!-- Node1&#45;&gt;Node7 -->
<g id="edge6_Node000001_Node000007" class="edge">
<title>Node1&#45;&gt;Node7</title>
<g id="a_edge6_Node000001_Node000007"><a xlink:title=" ">
<path fill="none" stroke="#63b8ff" d="M411.63,-130.34C430.58,-120.65 452.76,-109.3 470.19,-100.38"/>
<polygon fill="#63b8ff" stroke="#63b8ff" points="410.15,-127.17 402.84,-134.84 413.34,-133.4 410.15,-127.17"/>
</a>
</g>
</g>
<!-- Node4&#45;&gt;Node5 -->
<g id="edge4_Node000004_Node000005" class="edge">
<title>Node4&#45;&gt;Node5</title>
<g id="a_edge4_Node000004_Node000005"><a xlink:title=" ">
<path fill="none" stroke="#63b8ff" d="M357.08,-60.87C369.24,-51.55 383.09,-40.91 394.11,-32.45"/>
<polygon fill="#63b8ff" stroke="#63b8ff" points="355.2,-57.91 349.4,-66.77 359.46,-63.46 355.2,-57.91"/>
</a>
</g>
</g>
<!-- Node7&#45;&gt;Node5 -->
<g id="edge8_Node000007_Node000005" class="edge">
<title>Node7&#45;&gt;Node5</title>
<g id="a_edge8_Node000007_Node000005"><a xlink:title=" ">
<path fill="none" stroke="#63b8ff" d="M471.42,-60.87C459.26,-51.55 445.41,-40.91 434.39,-32.45"/>
<polygon fill="#63b8ff" stroke="#63b8ff" points="469.04,-63.46 479.1,-66.77 473.3,-57.91 469.04,-63.46"/>
</a>
</g>
</g>
<!-- Node7&#45;&gt;Node6 -->
<g id="edge7_Node000007_Node000006" class="edge">
<title>Node7&#45;&gt;Node6</title>
<g id="a_edge7_Node000007_Node000006"><a xlink:title=" ">
<path fill="none" stroke="#63b8ff" d="M523.89,-59.71C533.16,-50.59 543.52,-40.37 551.79,-32.22"/>
<polygon fill="#63b8ff" stroke="#63b8ff" points="521.54,-57.12 516.87,-66.63 526.45,-62.11 521.54,-57.12"/>
</a>
</g>
</g>
</g>
</svg>
