<?xml version="1.0" encoding="UTF-8" standalone="no"?>
<!DOCTYPE svg PUBLIC "-//W3C//DTD SVG 1.1//EN"
 "http://www.w3.org/Graphics/SVG/1.1/DTD/svg11.dtd">
<!-- Generated by graphviz version 9.0.0 (20230911.1827)
 -->
<!-- Title: E:/GitHub/PRML_Code/src/libc/output_format.h Pages: 1 -->
<!--zoomable 244 -->

<svg id="main" version="1.1" xmlns="http://www.w3.org/2000/svg" xmlns:xlink="http://www.w3.org/1999/xlink" xml:space="preserve" onload="init(evt)">
<style type="text/css"><![CDATA[
.node, .edge {opacity: 0.7;}
.node.selected, .edge.selected {opacity: 1;}
.edge:hover path { stroke: red; }
.edge:hover polygon { stroke: red; fill: red; }
]]></style>

<defs>
  <circle id="rim" cx="0" cy="0" r="7"/>
  <circle id="rim2" cx="0" cy="0" r="3.5"/>
  <g id="zoomPlus">
    <use xlink:href="#rim" fill="#404040"><set attributeName="fill" to="#808080" begin="zoomplus.mouseover" end="zoomplus.mouseout"/></use>
    <path d="M-4,0h8M0,-4v8" fill="none" stroke="white" stroke-width="1.5" pointer-events="none"/>
  </g>
  <g id="zoomMin">
    <use xlink:href="#rim" fill="#404040"><set attributeName="fill" to="#808080" begin="zoomminus.mouseover" end="zoomminus.mouseout"/></use>
    <path d="M-4,0h8" fill="none" stroke="white" stroke-width="1.5" pointer-events="none"/>
  </g>
  <g id="arrowUp" transform="translate(30 24)">
    <use xlink:href="#rim"/>
    <path pointer-events="none" fill="none" stroke="white" stroke-width="1.5" d="M0,-3.0v7 M-2.5,-0.5L0,-3.0L2.5,-0.5"/>
  </g>
  <g id="arrowRight" transform="rotate(90) translate(36 -43)">
    <use xlink:href="#rim"/>
    <path pointer-events="none" fill="none" stroke="white" stroke-width="1.5" d="M0,-3.0v7 M-2.5,-0.5L0,-3.0L2.5,-0.5"/>
  </g>
  <g id="arrowDown" transform="rotate(180) translate(-30 -48)">
    <use xlink:href="#rim"/>
    <path pointer-events="none" fill="none" stroke="white" stroke-width="1.5" d="M0,-3.0v7 M-2.5,-0.5L0,-3.0L2.5,-0.5"/>
  </g>
  <g id="arrowLeft" transform="rotate(270) translate(-36 17)">
    <use xlink:href="#rim"/>
    <path pointer-events="none" fill="none" stroke="white" stroke-width="1.5" d="M0,-3.0v7 M-2.5,-0.5L0,-3.0L2.5,-0.5"/>
  </g>
  <g id="resetDef">
    <use xlink:href="#rim2" fill="#404040"><set attributeName="fill" to="#808080" begin="reset.mouseover" end="reset.mouseout"/></use>
  </g>
</defs>
<script type="application/ecmascript">
var viewWidth = 870;
var viewHeight = 244;
var sectionId = 'dynsection-0';
</script>
<script type="application/ecmascript" xlink:href="svg.min.js"/>
<svg id="graph" class="graph">
<g id="viewport">
<title>E:/GitHub/PRML_Code/src/libc/output_format.h</title>
<!-- Node1 -->
<g id="Node000001" class="node">
<title>Node1</title>
<g id="a_Node000001"><a xlink:title="Output format struct for color printing (charactors)">
<polygon fill="#999999" stroke="#666666" points="525.75,-236 404.75,-236 404.75,-204 525.75,-204 525.75,-236"/>
<text text-anchor="start" x="412.75" y="-222.5" font-family="Helvetica,sans-Serif" font-size="10.00">E:/GitHub/PRML_Code</text>
<text text-anchor="middle" x="465.25" y="-210.5" font-family="Helvetica,sans-Serif" font-size="10.00">/src/libc/output_format.h</text>
</a>
</g>
</g>
<!-- Node2 -->
<g id="Node000002" class="node">
<title>Node2</title>
<g id="a_Node000002"><a xlink:href="hw3_2lib_2data__plot_8c.html" target="_top" xlink:title=" ">
<polygon fill="white" stroke="#666666" points="116.5,-168 0,-168 0,-136 116.5,-136 116.5,-168"/>
<text text-anchor="start" x="8" y="-154.5" font-family="Helvetica,sans-Serif" font-size="10.00">E:/GitHub/PRML_Code</text>
<text text-anchor="middle" x="58.25" y="-142.5" font-family="Helvetica,sans-Serif" font-size="10.00">/src/hw3/lib/data_plot.c</text>
</a>
</g>
</g>
<!-- Node1&#45;&gt;Node2 -->
<g id="edge1_Node000001_Node000002" class="edge">
<title>Node1&#45;&gt;Node2</title>
<g id="a_edge1_Node000001_Node000002"><a xlink:title=" ">
<path fill="none" stroke="#63b8ff" d="M393.38,-209.74C324.39,-200.49 217.37,-185.2 125.25,-168 122.44,-167.47 119.56,-166.92 116.66,-166.34"/>
<polygon fill="#63b8ff" stroke="#63b8ff" points="392.66,-213.17 403.04,-211.02 393.59,-206.23 392.66,-213.17"/>
</a>
</g>
</g>
<!-- Node3 -->
<g id="Node000003" class="node">
<title>Node3</title>
<g id="a_Node000003"><a xlink:href="hw3_2lib_2data__proc_8c.html" target="_top" xlink:title=" ">
<polygon fill="white" stroke="#666666" points="254,-168 134.5,-168 134.5,-136 254,-136 254,-168"/>
<text text-anchor="start" x="142.5" y="-154.5" font-family="Helvetica,sans-Serif" font-size="10.00">E:/GitHub/PRML_Code</text>
<text text-anchor="middle" x="194.25" y="-142.5" font-family="Helvetica,sans-Serif" font-size="10.00">/src/hw3/lib/data_proc.c</text>
</a>
</g>
</g>
<!-- Node1&#45;&gt;Node3 -->
<g id="edge2_Node000001_Node000003" class="edge">
<title>Node1&#45;&gt;Node3</title>
<g id="a_edge2_Node000001_Node000003"><a xlink:title=" ">
<path fill="none" stroke="#63b8ff" d="M393.38,-201.5C350.04,-190.94 295.45,-177.65 254.4,-167.65"/>
<polygon fill="#63b8ff" stroke="#63b8ff" points="392.42,-204.86 402.96,-203.83 394.07,-198.06 392.42,-204.86"/>
</a>
</g>
</g>
<!-- Node4 -->
<g id="Node000004" class="node">
<title>Node4</title>
<g id="a_Node000004"><a xlink:href="read__csv_8c.html" target="_top" xlink:title=" ">
<polygon fill="white" stroke="#666666" points="388.5,-168 272,-168 272,-136 388.5,-136 388.5,-168"/>
<text text-anchor="start" x="280" y="-154.5" font-family="Helvetica,sans-Serif" font-size="10.00">E:/GitHub/PRML_Code</text>
<text text-anchor="middle" x="330.25" y="-142.5" font-family="Helvetica,sans-Serif" font-size="10.00">/src/hw3/lib/read_csv.c</text>
</a>
</g>
</g>
<!-- Node1&#45;&gt;Node4 -->
<g id="edge3_Node000001_Node000004" class="edge">
<title>Node1&#45;&gt;Node4</title>
<g id="a_edge3_Node000001_Node000004"><a xlink:title=" ">
<path fill="none" stroke="#63b8ff" d="M423.26,-198.47C403.38,-188.75 380.03,-177.34 361.7,-168.38"/>
<polygon fill="#63b8ff" stroke="#63b8ff" points="421.72,-201.61 432.24,-202.86 424.79,-195.32 421.72,-201.61"/>
</a>
</g>
</g>
<!-- Node5 -->
<g id="Node000005" class="node">
<title>Node5</title>
<g id="a_Node000005"><a xlink:href="hw3_2main_8c.html" target="_top" xlink:title="Main function of hw3 &#45; 2 dimensional shape classification.">
<polygon fill="white" stroke="#666666" points="523.5,-168 407,-168 407,-136 523.5,-136 523.5,-168"/>
<text text-anchor="start" x="415" y="-154.5" font-family="Helvetica,sans-Serif" font-size="10.00">E:/GitHub/PRML_Code</text>
<text text-anchor="middle" x="465.25" y="-142.5" font-family="Helvetica,sans-Serif" font-size="10.00">/src/hw3/main.c</text>
</a>
</g>
</g>
<!-- Node1&#45;&gt;Node5 -->
<g id="edge4_Node000001_Node000005" class="edge">
<title>Node1&#45;&gt;Node5</title>
<g id="a_edge4_Node000001_Node000005"><a xlink:title=" ">
<path fill="none" stroke="#63b8ff" d="M465.25,-192.31C465.25,-184.12 465.25,-175.38 465.25,-168.22"/>
<polygon fill="#63b8ff" stroke="#63b8ff" points="461.75,-192.18 465.25,-202.18 468.75,-192.18 461.75,-192.18"/>
</a>
</g>
</g>
<!-- Node6 -->
<g id="Node000006" class="node">
<title>Node6</title>
<g id="a_Node000006"><a xlink:href="libc_2normal__distribution_8c.html" target="_top" xlink:title=" ">
<polygon fill="white" stroke="#666666" points="623,-100 479.5,-100 479.5,-68 623,-68 623,-100"/>
<text text-anchor="start" x="487.5" y="-86.5" font-family="Helvetica,sans-Serif" font-size="10.00">E:/GitHub/PRML_Code</text>
<text text-anchor="middle" x="551.25" y="-74.5" font-family="Helvetica,sans-Serif" font-size="10.00">/src/libc/normal_distribution.c</text>
</a>
</g>
</g>
<!-- Node1&#45;&gt;Node6 -->
<g id="edge5_Node000001_Node000006" class="edge">
<title>Node1&#45;&gt;Node6</title>
<g id="a_edge5_Node000001_Node000006"><a xlink:title=" ">
<path fill="none" stroke="#63b8ff" d="M503.25,-197.15C514.07,-189.24 524.9,-179.4 532.25,-168 545.71,-147.13 549.68,-117.9 550.83,-100.28"/>
<polygon fill="#63b8ff" stroke="#63b8ff" points="501.36,-194.2 495.09,-202.74 505.32,-199.98 501.36,-194.2"/>
</a>
</g>
</g>
<!-- Node7 -->
<g id="Node000007" class="node">
<title>Node7</title>
<g id="a_Node000007"><a xlink:href="libc_2normal__distribution_8h.html" target="_top" xlink:title="Normal distribution functions.">
<polygon fill="white" stroke="#666666" points="723,-168 579.5,-168 579.5,-136 723,-136 723,-168"/>
<text text-anchor="start" x="587.5" y="-154.5" font-family="Helvetica,sans-Serif" font-size="10.00">E:/GitHub/PRML_Code</text>
<text text-anchor="middle" x="651.25" y="-142.5" font-family="Helvetica,sans-Serif" font-size="10.00">/src/libc/normal_distribution.h</text>
</a>
</g>
</g>
<!-- Node1&#45;&gt;Node7 -->
<g id="edge6_Node000001_Node000007" class="edge">
<title>Node1&#45;&gt;Node7</title>
<g id="a_edge6_Node000001_Node000007"><a xlink:title=" ">
<path fill="none" stroke="#63b8ff" d="M519.68,-199.69C547.67,-189.76 581.33,-177.81 607.59,-168.49"/>
<polygon fill="#63b8ff" stroke="#63b8ff" points="518.54,-196.38 510.29,-203.02 520.88,-202.97 518.54,-196.38"/>
</a>
</g>
</g>
<!-- Node10 -->
<g id="Node000010" class="node">
<title>Node10</title>
<g id="a_Node000010"><a xlink:href="libc_2output__format_8c.html" target="_top" xlink:title=" ">
<polygon fill="white" stroke="#666666" points="861.75,-168 740.75,-168 740.75,-136 861.75,-136 861.75,-168"/>
<text text-anchor="start" x="748.75" y="-154.5" font-family="Helvetica,sans-Serif" font-size="10.00">E:/GitHub/PRML_Code</text>
<text text-anchor="middle" x="801.25" y="-142.5" font-family="Helvetica,sans-Serif" font-size="10.00">/src/libc/output_format.c</text>
</a>
</g>
</g>
<!-- Node1&#45;&gt;Node10 -->
<g id="edge11_Node000001_Node000010" class="edge">
<title>Node1&#45;&gt;Node10</title>
<g id="a_edge11_Node000001_Node000010"><a xlink:title=" ">
<path fill="none" stroke="#63b8ff" d="M537.19,-205.77C590.98,-195.75 666.31,-181.46 732.25,-168 734.89,-167.46 737.59,-166.9 740.31,-166.33"/>
<polygon fill="#63b8ff" stroke="#63b8ff" points="536.73,-202.3 527.53,-207.56 538,-209.18 536.73,-202.3"/>
</a>
</g>
</g>
<!-- Node7&#45;&gt;Node6 -->
<g id="edge10_Node000007_Node000006" class="edge">
<title>Node7&#45;&gt;Node6</title>
<g id="a_edge10_Node000007_Node000006"><a xlink:title=" ">
<path fill="none" stroke="#63b8ff" d="M618.3,-129.25C603.99,-119.81 587.56,-108.97 574.55,-100.38"/>
<polygon fill="#63b8ff" stroke="#63b8ff" points="616.27,-132.1 626.54,-134.69 620.12,-126.26 616.27,-132.1"/>
</a>
</g>
</g>
<!-- Node8 -->
<g id="Node000008" class="node">
<title>Node8</title>
<g id="a_Node000008"><a xlink:href="libc_2decision__boundary_8c.html" target="_top" xlink:title=" ">
<polygon fill="white" stroke="#666666" points="771.62,-32 628.88,-32 628.88,0 771.62,0 771.62,-32"/>
<text text-anchor="start" x="636.88" y="-18.5" font-family="Helvetica,sans-Serif" font-size="10.00">E:/GitHub/PRML_Code</text>
<text text-anchor="middle" x="700.25" y="-6.5" font-family="Helvetica,sans-Serif" font-size="10.00">/src/libc/decision_boundary.c</text>
</a>
</g>
</g>
<!-- Node7&#45;&gt;Node8 -->
<g id="edge7_Node000007_Node000008" class="edge">
<title>Node7&#45;&gt;Node8</title>
<g id="a_edge7_Node000007_Node000008"><a xlink:title=" ">
<path fill="none" stroke="#63b8ff" d="M655.18,-124.5C658.16,-107.89 663,-86.24 670.25,-68 675.26,-55.4 683.08,-42.23 689.48,-32.44"/>
<polygon fill="#63b8ff" stroke="#63b8ff" points="651.77,-123.65 653.58,-134.09 658.68,-124.8 651.77,-123.65"/>
</a>
</g>
</g>
<!-- Node9 -->
<g id="Node000009" class="node">
<title>Node9</title>
<g id="a_Node000009"><a xlink:href="libc_2decision__boundary_8h.html" target="_top" xlink:title="The decision boundary header file to calculate the intersection of two normal distributions.">
<polygon fill="white" stroke="#666666" points="821.62,-100 678.88,-100 678.88,-68 821.62,-68 821.62,-100"/>
<text text-anchor="start" x="686.88" y="-86.5" font-family="Helvetica,sans-Serif" font-size="10.00">E:/GitHub/PRML_Code</text>
<text text-anchor="middle" x="750.25" y="-74.5" font-family="Helvetica,sans-Serif" font-size="10.00">/src/libc/decision_boundary.h</text>
</a>
</g>
</g>
<!-- Node7&#45;&gt;Node9 -->
<g id="edge8_Node000007_Node000009" class="edge">
<title>Node7&#45;&gt;Node9</title>
<g id="a_edge8_Node000007_Node000009"><a xlink:title=" ">
<path fill="none" stroke="#63b8ff" d="M683.87,-129.25C698.04,-119.81 714.3,-108.97 727.18,-100.38"/>
<polygon fill="#63b8ff" stroke="#63b8ff" points="682.1,-126.23 675.72,-134.69 685.98,-132.05 682.1,-126.23"/>
</a>
</g>
</g>
<!-- Node9&#45;&gt;Node8 -->
<g id="edge9_Node000009_Node000008" class="edge">
<title>Node9&#45;&gt;Node8</title>
<g id="a_edge9_Node000009_Node000008"><a xlink:title=" ">
<path fill="none" stroke="#63b8ff" d="M731.76,-58.59C725.06,-49.75 717.71,-40.04 711.78,-32.22"/>
<polygon fill="#63b8ff" stroke="#63b8ff" points="728.91,-60.63 737.74,-66.49 734.49,-56.4 728.91,-60.63"/>
</a>
</g>
</g>
</g>
</svg>

<g id="navigator" transform="translate(0 0)" fill="#404254">
  <rect fill="#f2f5e9" fill-opacity="0.5" stroke="#606060" stroke-width=".5" x="0" y="0" width="60" height="60"/>
  <use id="zoomplus" xlink:href="#zoomPlus" x="17" y="9" onmousedown="handleZoom(evt,'in')"/>
  <use id="zoomminus" xlink:href="#zoomMin" x="42" y="9" onmousedown="handleZoom(evt,'out')"/>
  <use id="reset" xlink:href="#resetDef" x="30" y="36" onmousedown="handleReset()"/>
   <use id="arrowup" xlink:href="#arrowUp" x="0" y="0" onmousedown="handlePan(0,-1)"/>
  <use id="arrowright" xlink:href="#arrowRight" x="0" y="0" onmousedown="handlePan(1,0)"/>
  <use id="arrowdown" xlink:href="#arrowDown" x="0" y="0" onmousedown="handlePan(0,1)"/>
  <use id="arrowleft" xlink:href="#arrowLeft" x="0" y="0" onmousedown="handlePan(-1,0)"/>
</g>
<svg viewBox="0 0 15 15" width="100%" height="30px" preserveAspectRatio="xMaxYMin meet">
 <g id="arrow_out" transform="scale(0.3 0.3)">
  <a xlink:href="libc_2output__format_8h__dep__incl_org.svg" target="_base">
   <rect id="button" ry="5" rx="5" y="6" x="6" height="38" width="38"
        fill="#f2f5e9" fill-opacity="0.5" stroke="#606060" stroke-width="1.0"/>
   <path id="arrow"
     d="M 11.500037,31.436501 C 11.940474,20.09759 22.043105,11.32322 32.158766,21.979434 L 37.068811,17.246167 C 37.068811,17.246167 37.088388,32 37.088388,32 L 22.160133,31.978069 C 22.160133,31.978069 26.997745,27.140456 26.997745,27.140456 C 18.528582,18.264221 13.291696,25.230495 11.500037,31.436501 z"
     style="fill:#404040;"/>
  </a>
 </g>
</svg>

<style type='text/css'>
<![CDATA[
[data-mouse-over-selected='false'] { opacity: 0.7; }
[data-mouse-over-selected='true']  { opacity: 1.0; }
]]>
</style>
<script type="application/ecmascript"><![CDATA[
document.addEventListener('DOMContentLoaded', (event) => {
  highlightEdges();
  highlightAdjacentNodes();
});
]]></script>
</svg>
