<?xml version="1.0" encoding="UTF-8" standalone="no"?>
<!DOCTYPE svg PUBLIC "-//W3C//DTD SVG 1.1//EN"
 "http://www.w3.org/Graphics/SVG/1.1/DTD/svg11.dtd">
<!-- Generated by graphviz version 9.0.0 (20230911.1827)
 -->
<!-- Title: E:/GitHub/PRML_Code/src/libc/decision_boundary.c Pages: 1 -->
<svg width="418pt" height="208pt"
 viewBox="0.00 0.00 418.25 208.00" xmlns="http://www.w3.org/2000/svg" xmlns:xlink="http://www.w3.org/1999/xlink">
<g id="graph0" class="graph" transform="scale(1 1) rotate(0) translate(4 204)">
<title>E:/GitHub/PRML_Code/src/libc/decision_boundary.c</title>
<!-- Node1 -->
<g id="Node000001" class="node">
<title>Node1</title>
<g id="a_Node000001"><a xlink:title=" ">
<polygon fill="#999999" stroke="#666666" points="262,-200 119.25,-200 119.25,-168 262,-168 262,-200"/>
<text text-anchor="start" x="127.25" y="-186.5" font-family="Helvetica,sans-Serif" font-size="10.00">E:/GitHub/PRML_Code</text>
<text text-anchor="middle" x="190.62" y="-174.5" font-family="Helvetica,sans-Serif" font-size="10.00">/src/libc/decision_boundary.c</text>
</a>
</g>
</g>
<!-- Node2 -->
<g id="Node000002" class="node">
<title>Node2</title>
<g id="a_Node000002"><a xlink:title=" ">
<polygon fill="#e0e0e0" stroke="#999999" points="45.25,-132 0,-132 0,-112 45.25,-112 45.25,-132"/>
<text text-anchor="middle" x="22.62" y="-118.5" font-family="Helvetica,sans-Serif" font-size="10.00">stdio.h</text>
</a>
</g>
</g>
<!-- Node1&#45;&gt;Node2 -->
<g id="edge1_Node000001_Node000002" class="edge">
<title>Node1&#45;&gt;Node2</title>
<g id="a_edge1_Node000001_Node000002"><a xlink:title=" ">
<path fill="none" stroke="#63b8ff" d="M147.36,-167.55C118.95,-157.4 82.33,-144.32 56.13,-134.97"/>
<polygon fill="#63b8ff" stroke="#63b8ff" points="57.62,-131.78 47.02,-131.71 55.26,-138.37 57.62,-131.78"/>
</a>
</g>
</g>
<!-- Node3 -->
<g id="Node000003" class="node">
<title>Node3</title>
<g id="a_Node000003"><a xlink:title=" ">
<polygon fill="#e0e0e0" stroke="#999999" points="110.38,-132 62.88,-132 62.88,-112 110.38,-112 110.38,-132"/>
<text text-anchor="middle" x="86.62" y="-118.5" font-family="Helvetica,sans-Serif" font-size="10.00">stdlib.h</text>
</a>
</g>
</g>
<!-- Node1&#45;&gt;Node3 -->
<g id="edge2_Node000001_Node000003" class="edge">
<title>Node1&#45;&gt;Node3</title>
<g id="a_edge2_Node000001_Node000003"><a xlink:title=" ">
<path fill="none" stroke="#63b8ff" d="M163.84,-167.55C148.04,-158.43 128.15,-146.96 112.51,-137.93"/>
<polygon fill="#63b8ff" stroke="#63b8ff" points="114.65,-135.13 104.24,-133.16 111.16,-141.19 114.65,-135.13"/>
</a>
</g>
</g>
<!-- Node4 -->
<g id="Node000004" class="node">
<title>Node4</title>
<g id="a_Node000004"><a xlink:title=" ">
<polygon fill="#e0e0e0" stroke="#999999" points="184.5,-132 128.75,-132 128.75,-112 184.5,-112 184.5,-132"/>
<text text-anchor="middle" x="156.62" y="-118.5" font-family="Helvetica,sans-Serif" font-size="10.00">stdbool.h</text>
</a>
</g>
</g>
<!-- Node1&#45;&gt;Node4 -->
<g id="edge3_Node000001_Node000004" class="edge">
<title>Node1&#45;&gt;Node4</title>
<g id="a_edge3_Node000001_Node000004"><a xlink:title=" ">
<path fill="none" stroke="#63b8ff" d="M181.87,-167.55C177.49,-159.82 172.15,-150.4 167.51,-142.21"/>
<polygon fill="#63b8ff" stroke="#63b8ff" points="170.68,-140.7 162.7,-133.72 164.59,-144.15 170.68,-140.7"/>
</a>
</g>
</g>
<!-- Node5 -->
<g id="Node000005" class="node">
<title>Node5</title>
<g id="a_Node000005"><a xlink:title=" ">
<polygon fill="#e0e0e0" stroke="#999999" points="248.62,-132 202.62,-132 202.62,-112 248.62,-112 248.62,-132"/>
<text text-anchor="middle" x="225.62" y="-118.5" font-family="Helvetica,sans-Serif" font-size="10.00">math.h</text>
</a>
</g>
</g>
<!-- Node1&#45;&gt;Node5 -->
<g id="edge4_Node000001_Node000005" class="edge">
<title>Node1&#45;&gt;Node5</title>
<g id="a_edge4_Node000001_Node000005"><a xlink:title=" ">
<path fill="none" stroke="#63b8ff" d="M199.64,-167.55C204.14,-159.82 209.64,-150.4 214.42,-142.21"/>
<polygon fill="#63b8ff" stroke="#63b8ff" points="217.36,-144.12 219.37,-133.72 211.31,-140.59 217.36,-144.12"/>
</a>
</g>
</g>
<!-- Node6 -->
<g id="Node000006" class="node">
<title>Node6</title>
<g id="a_Node000006"><a xlink:href="libc_2normal__distribution_8h.html" target="_top" xlink:title="Normal distribution functions.">
<polygon fill="white" stroke="#666666" points="369.62,-76 263.62,-76 263.62,-56 369.62,-56 369.62,-76"/>
<text text-anchor="middle" x="316.62" y="-62.5" font-family="Helvetica,sans-Serif" font-size="10.00">normal_distribution.h</text>
</a>
</g>
</g>
<!-- Node1&#45;&gt;Node6 -->
<g id="edge5_Node000001_Node000006" class="edge">
<title>Node1&#45;&gt;Node6</title>
<g id="a_edge5_Node000001_Node000006"><a xlink:title=" ">
<path fill="none" stroke="#63b8ff" d="M212.85,-167.65C226.3,-157.99 243.51,-144.94 257.62,-132 273.71,-117.25 290.27,-98.65 301.73,-85.14"/>
<polygon fill="#63b8ff" stroke="#63b8ff" points="304.4,-87.4 308.13,-77.48 299.03,-82.91 304.4,-87.4"/>
</a>
</g>
</g>
<!-- Node8 -->
<g id="Node000008" class="node">
<title>Node8</title>
<g id="a_Node000008"><a xlink:href="libc_2decision__boundary_8h.html" target="_top" xlink:title="The decision boundary header file to calculate the intersection of two normal distributions.">
<polygon fill="white" stroke="#666666" points="410.25,-132 305,-132 305,-112 410.25,-112 410.25,-132"/>
<text text-anchor="middle" x="357.62" y="-118.5" font-family="Helvetica,sans-Serif" font-size="10.00">decision_boundary.h</text>
</a>
</g>
</g>
<!-- Node1&#45;&gt;Node8 -->
<g id="edge7_Node000001_Node000008" class="edge">
<title>Node1&#45;&gt;Node8</title>
<g id="a_edge7_Node000001_Node000008"><a xlink:title=" ">
<path fill="none" stroke="#63b8ff" d="M233.63,-167.55C260.57,-157.87 294.93,-145.53 320.64,-136.29"/>
<polygon fill="#63b8ff" stroke="#63b8ff" points="321.79,-139.59 330.02,-132.92 319.42,-133.01 321.79,-139.59"/>
</a>
</g>
</g>
<!-- Node7 -->
<g id="Node000007" class="node">
<title>Node7</title>
<g id="a_Node000007"><a xlink:href="libc_2output__format_8h.html" target="_top" xlink:title="Output format struct for color printing (charactors)">
<polygon fill="white" stroke="#666666" points="358.38,-20 274.88,-20 274.88,0 358.38,0 358.38,-20"/>
<text text-anchor="middle" x="316.62" y="-6.5" font-family="Helvetica,sans-Serif" font-size="10.00">output_format.h</text>
</a>
</g>
</g>
<!-- Node6&#45;&gt;Node7 -->
<g id="edge6_Node000006_Node000007" class="edge">
<title>Node6&#45;&gt;Node7</title>
<g id="a_edge6_Node000006_Node000007"><a xlink:title=" ">
<path fill="none" stroke="#63b8ff" d="M316.62,-55.59C316.62,-49.01 316.62,-39.96 316.62,-31.73"/>
<polygon fill="#63b8ff" stroke="#63b8ff" points="320.13,-31.81 316.63,-21.81 313.13,-31.81 320.13,-31.81"/>
</a>
</g>
</g>
<!-- Node8&#45;&gt;Node6 -->
<g id="edge8_Node000008_Node000006" class="edge">
<title>Node8&#45;&gt;Node6</title>
<g id="a_edge8_Node000008_Node000006"><a xlink:title=" ">
<path fill="none" stroke="#63b8ff" d="M350.48,-111.59C345.02,-104.39 337.3,-94.23 330.62,-85.43"/>
<polygon fill="#63b8ff" stroke="#63b8ff" points="333.43,-83.35 324.6,-77.5 327.86,-87.58 333.43,-83.35"/>
</a>
</g>
</g>
</g>
</svg>
