<?xml version="1.0" encoding="UTF-8" standalone="no"?>
<!DOCTYPE svg PUBLIC "-//W3C//DTD SVG 1.1//EN"
 "http://www.w3.org/Graphics/SVG/1.1/DTD/svg11.dtd">
<!-- Generated by graphviz version 9.0.0 (20230911.1827)
 -->
<!-- Title: E:/GitHub/PRML_Code/src/libc/output_format.h Pages: 1 -->
<!--zoomable 256 -->

<svg id="main" version="1.1" xmlns="http://www.w3.org/2000/svg" xmlns:xlink="http://www.w3.org/1999/xlink" xml:space="preserve" onload="init(evt)">
<style type="text/css"><![CDATA[
.node, .edge {opacity: 0.7;}
.node.selected, .edge.selected {opacity: 1;}
.edge:hover path { stroke: red; }
.edge:hover polygon { stroke: red; fill: red; }
]]></style>

<defs>
  <circle id="rim" cx="0" cy="0" r="7"/>
  <circle id="rim2" cx="0" cy="0" r="3.5"/>
  <g id="zoomPlus">
    <use xlink:href="#rim" fill="#404040"><set attributeName="fill" to="#808080" begin="zoomplus.mouseover" end="zoomplus.mouseout"/></use>
    <path d="M-4,0h8M0,-4v8" fill="none" stroke="white" stroke-width="1.5" pointer-events="none"/>
  </g>
  <g id="zoomMin">
    <use xlink:href="#rim" fill="#404040"><set attributeName="fill" to="#808080" begin="zoomminus.mouseover" end="zoomminus.mouseout"/></use>
    <path d="M-4,0h8" fill="none" stroke="white" stroke-width="1.5" pointer-events="none"/>
  </g>
  <g id="arrowUp" transform="translate(30 24)">
    <use xlink:href="#rim"/>
    <path pointer-events="none" fill="none" stroke="white" stroke-width="1.5" d="M0,-3.0v7 M-2.5,-0.5L0,-3.0L2.5,-0.5"/>
  </g>
  <g id="arrowRight" transform="rotate(90) translate(36 -43)">
    <use xlink:href="#rim"/>
    <path pointer-events="none" fill="none" stroke="white" stroke-width="1.5" d="M0,-3.0v7 M-2.5,-0.5L0,-3.0L2.5,-0.5"/>
  </g>
  <g id="arrowDown" transform="rotate(180) translate(-30 -48)">
    <use xlink:href="#rim"/>
    <path pointer-events="none" fill="none" stroke="white" stroke-width="1.5" d="M0,-3.0v7 M-2.5,-0.5L0,-3.0L2.5,-0.5"/>
  </g>
  <g id="arrowLeft" transform="rotate(270) translate(-36 17)">
    <use xlink:href="#rim"/>
    <path pointer-events="none" fill="none" stroke="white" stroke-width="1.5" d="M0,-3.0v7 M-2.5,-0.5L0,-3.0L2.5,-0.5"/>
  </g>
  <g id="resetDef">
    <use xlink:href="#rim2" fill="#404040"><set attributeName="fill" to="#808080" begin="reset.mouseover" end="reset.mouseout"/></use>
  </g>
</defs>
<script type="application/ecmascript">
var viewWidth = 1282;
var viewHeight = 256;
var sectionId = 'dynsection-0';
</script>
<script type="application/ecmascript" xlink:href="svg.min.js"/>
<svg id="graph" class="graph">
<g id="viewport">
<title>E:/GitHub/PRML_Code/src/libc/output_format.h</title>
<!-- Node1 -->
<g id="Node000001" class="node">
<title>Node1</title>
<g id="a_Node000001"><a xlink:title="Output format struct for color printing (charactors)">
<polygon fill="#999999" stroke="#666666" points="727.75,-248 606.75,-248 606.75,-216 727.75,-216 727.75,-248"/>
<text text-anchor="start" x="614.75" y="-234.5" font-family="Helvetica,sans-Serif" font-size="10.00">E:/GitHub/PRML_Code</text>
<text text-anchor="middle" x="667.25" y="-222.5" font-family="Helvetica,sans-Serif" font-size="10.00">/src/libc/output_format.h</text>
</a>
</g>
</g>
<!-- Node2 -->
<g id="Node000002" class="node">
<title>Node2</title>
<g id="a_Node000002"><a xlink:href="hw3_2lib_2data__plot_8c.html" target="_top" xlink:title=" ">
<polygon fill="white" stroke="#666666" points="116.5,-174 0,-174 0,-142 116.5,-142 116.5,-174"/>
<text text-anchor="start" x="8" y="-160.5" font-family="Helvetica,sans-Serif" font-size="10.00">E:/GitHub/PRML_Code</text>
<text text-anchor="middle" x="58.25" y="-148.5" font-family="Helvetica,sans-Serif" font-size="10.00">/src/hw3/lib/data_plot.c</text>
</a>
</g>
</g>
<!-- Node1&#45;&gt;Node2 -->
<g id="edge1_Node000001_Node000002" class="edge">
<title>Node1&#45;&gt;Node2</title>
<g id="a_edge1_Node000001_Node000002"><a xlink:title=" ">
<path fill="none" stroke="#63b8ff" d="M595.15,-229.02C490.63,-225.07 291.36,-213.46 125.25,-180 117.96,-178.53 110.34,-176.57 102.96,-174.44"/>
<polygon fill="#63b8ff" stroke="#63b8ff" points="594.86,-232.51 604.98,-229.38 595.12,-225.52 594.86,-232.51"/>
</a>
</g>
</g>
<!-- Node3 -->
<g id="Node000003" class="node">
<title>Node3</title>
<g id="a_Node000003"><a xlink:href="hw3_2lib_2data__proc_8c.html" target="_top" xlink:title=" ">
<polygon fill="white" stroke="#666666" points="254,-174 134.5,-174 134.5,-142 254,-142 254,-174"/>
<text text-anchor="start" x="142.5" y="-160.5" font-family="Helvetica,sans-Serif" font-size="10.00">E:/GitHub/PRML_Code</text>
<text text-anchor="middle" x="194.25" y="-148.5" font-family="Helvetica,sans-Serif" font-size="10.00">/src/hw3/lib/data_proc.c</text>
</a>
</g>
</g>
<!-- Node1&#45;&gt;Node3 -->
<g id="edge2_Node000001_Node000003" class="edge">
<title>Node1&#45;&gt;Node3</title>
<g id="a_edge2_Node000001_Node000003"><a xlink:title=" ">
<path fill="none" stroke="#63b8ff" d="M595.38,-225.64C514.11,-218.72 378.14,-204.55 263.25,-180 256.03,-178.46 248.47,-176.51 241.11,-174.43"/>
<polygon fill="#63b8ff" stroke="#63b8ff" points="594.71,-229.09 604.97,-226.44 595.3,-222.12 594.71,-229.09"/>
</a>
</g>
</g>
<!-- Node4 -->
<g id="Node000004" class="node">
<title>Node4</title>
<g id="a_Node000004"><a xlink:href="read__csv_8c.html" target="_top" xlink:title=" ">
<polygon fill="white" stroke="#666666" points="388.5,-174 272,-174 272,-142 388.5,-142 388.5,-174"/>
<text text-anchor="start" x="280" y="-160.5" font-family="Helvetica,sans-Serif" font-size="10.00">E:/GitHub/PRML_Code</text>
<text text-anchor="middle" x="330.25" y="-148.5" font-family="Helvetica,sans-Serif" font-size="10.00">/src/hw3/lib/read_csv.c</text>
</a>
</g>
</g>
<!-- Node1&#45;&gt;Node4 -->
<g id="edge3_Node000001_Node000004" class="edge">
<title>Node1&#45;&gt;Node4</title>
<g id="a_edge3_Node000001_Node000004"><a xlink:title=" ">
<path fill="none" stroke="#63b8ff" d="M595.19,-219.6C540.75,-210.44 464.36,-196.42 398.25,-180 391.65,-178.36 384.75,-176.46 377.99,-174.48"/>
<polygon fill="#63b8ff" stroke="#63b8ff" points="594.53,-223.04 604.97,-221.23 595.69,-216.13 594.53,-223.04"/>
</a>
</g>
</g>
<!-- Node5 -->
<g id="Node000005" class="node">
<title>Node5</title>
<g id="a_Node000005"><a xlink:href="hw3_2main_8c.html" target="_top" xlink:title="Main function of hw3 &#45; 2 dimensional shape classification.">
<polygon fill="white" stroke="#666666" points="523.5,-174 407,-174 407,-142 523.5,-142 523.5,-174"/>
<text text-anchor="start" x="415" y="-160.5" font-family="Helvetica,sans-Serif" font-size="10.00">E:/GitHub/PRML_Code</text>
<text text-anchor="middle" x="465.25" y="-148.5" font-family="Helvetica,sans-Serif" font-size="10.00">/src/hw3/main.c</text>
</a>
</g>
</g>
<!-- Node1&#45;&gt;Node5 -->
<g id="edge4_Node000001_Node000005" class="edge">
<title>Node1&#45;&gt;Node5</title>
<g id="a_edge4_Node000001_Node000005"><a xlink:title=" ">
<path fill="none" stroke="#63b8ff" d="M613.15,-211.72C580.37,-200.03 539.12,-185.33 508.51,-174.42"/>
<polygon fill="#63b8ff" stroke="#63b8ff" points="611.9,-214.99 622.49,-215.05 614.25,-208.39 611.9,-214.99"/>
</a>
</g>
</g>
<!-- Node6 -->
<g id="Node000006" class="node">
<title>Node6</title>
<g id="a_Node000006"><a xlink:href="config__read_8c.html" target="_top" xlink:title=" ">
<polygon fill="white" stroke="#666666" points="658.5,-180 542,-180 542,-136 658.5,-136 658.5,-180"/>
<text text-anchor="start" x="550" y="-166.5" font-family="Helvetica,sans-Serif" font-size="10.00">E:/GitHub/PRML_Code</text>
<text text-anchor="start" x="550" y="-154.5" font-family="Helvetica,sans-Serif" font-size="10.00">/src/hw4/lib/config</text>
<text text-anchor="middle" x="600.25" y="-142.5" font-family="Helvetica,sans-Serif" font-size="10.00">_read.c</text>
</a>
</g>
</g>
<!-- Node1&#45;&gt;Node6 -->
<g id="edge5_Node000001_Node000006" class="edge">
<title>Node1&#45;&gt;Node6</title>
<g id="a_edge5_Node000001_Node000006"><a xlink:title=" ">
<path fill="none" stroke="#63b8ff" d="M645.32,-207.44C637.17,-198.68 627.98,-188.8 620.03,-180.26"/>
<polygon fill="#63b8ff" stroke="#63b8ff" points="642.64,-209.69 652.01,-214.62 647.76,-204.92 642.64,-209.69"/>
</a>
</g>
</g>
<!-- Node7 -->
<g id="Node000007" class="node">
<title>Node7</title>
<g id="a_Node000007"><a xlink:href="plot__iter_8c.html" target="_top" xlink:title=" ">
<polygon fill="white" stroke="#666666" points="793.5,-174 677,-174 677,-142 793.5,-142 793.5,-174"/>
<text text-anchor="start" x="685" y="-160.5" font-family="Helvetica,sans-Serif" font-size="10.00">E:/GitHub/PRML_Code</text>
<text text-anchor="middle" x="735.25" y="-148.5" font-family="Helvetica,sans-Serif" font-size="10.00">/src/hw4/lib/plot_iter.c</text>
</a>
</g>
</g>
<!-- Node1&#45;&gt;Node7 -->
<g id="edge6_Node000001_Node000007" class="edge">
<title>Node1&#45;&gt;Node7</title>
<g id="a_edge6_Node000001_Node000007"><a xlink:title=" ">
<path fill="none" stroke="#63b8ff" d="M689.5,-207.44C699.8,-196.53 711.75,-183.88 720.85,-174.25"/>
<polygon fill="#63b8ff" stroke="#63b8ff" points="687.03,-204.96 682.71,-214.63 692.12,-209.76 687.03,-204.96"/>
</a>
</g>
</g>
<!-- Node8 -->
<g id="Node000008" class="node">
<title>Node8</title>
<g id="a_Node000008"><a xlink:href="libc_2normal__distribution_8c.html" target="_top" xlink:title=" ">
<polygon fill="white" stroke="#666666" points="893,-100 749.5,-100 749.5,-68 893,-68 893,-100"/>
<text text-anchor="start" x="757.5" y="-86.5" font-family="Helvetica,sans-Serif" font-size="10.00">E:/GitHub/PRML_Code</text>
<text text-anchor="middle" x="821.25" y="-74.5" font-family="Helvetica,sans-Serif" font-size="10.00">/src/libc/normal_distribution.c</text>
</a>
</g>
</g>
<!-- Node1&#45;&gt;Node8 -->
<g id="edge7_Node000001_Node000008" class="edge">
<title>Node1&#45;&gt;Node8</title>
<g id="a_edge7_Node000001_Node000008"><a xlink:title=" ">
<path fill="none" stroke="#63b8ff" d="M739,-218.39C762.25,-210.89 786.16,-198.97 802.25,-180 821.4,-157.43 823.2,-120.99 822.45,-100.42"/>
<polygon fill="#63b8ff" stroke="#63b8ff" points="738.09,-215.01 729.49,-221.2 740.07,-221.72 738.09,-215.01"/>
</a>
</g>
</g>
<!-- Node9 -->
<g id="Node000009" class="node">
<title>Node9</title>
<g id="a_Node000009"><a xlink:href="libc_2normal__distribution_8h.html" target="_top" xlink:title="Normal distribution functions.">
<polygon fill="white" stroke="#666666" points="993,-174 849.5,-174 849.5,-142 993,-142 993,-174"/>
<text text-anchor="start" x="857.5" y="-160.5" font-family="Helvetica,sans-Serif" font-size="10.00">E:/GitHub/PRML_Code</text>
<text text-anchor="middle" x="921.25" y="-148.5" font-family="Helvetica,sans-Serif" font-size="10.00">/src/libc/normal_distribution.h</text>
</a>
</g>
</g>
<!-- Node1&#45;&gt;Node9 -->
<g id="edge8_Node000001_Node000009" class="edge">
<title>Node1&#45;&gt;Node9</title>
<g id="a_edge8_Node000001_Node000009"><a xlink:title=" ">
<path fill="none" stroke="#63b8ff" d="M732.6,-212.47C774.23,-200.67 827.53,-185.57 866.85,-174.42"/>
<polygon fill="#63b8ff" stroke="#63b8ff" points="731.86,-209.05 723.2,-215.14 733.77,-215.78 731.86,-209.05"/>
</a>
</g>
</g>
<!-- Node12 -->
<g id="Node000012" class="node">
<title>Node12</title>
<g id="a_Node000012"><a xlink:href="libc_2output__format_8c.html" target="_top" xlink:title=" ">
<polygon fill="white" stroke="#666666" points="1131.75,-174 1010.75,-174 1010.75,-142 1131.75,-142 1131.75,-174"/>
<text text-anchor="start" x="1018.75" y="-160.5" font-family="Helvetica,sans-Serif" font-size="10.00">E:/GitHub/PRML_Code</text>
<text text-anchor="middle" x="1071.25" y="-148.5" font-family="Helvetica,sans-Serif" font-size="10.00">/src/libc/output_format.c</text>
</a>
</g>
</g>
<!-- Node1&#45;&gt;Node12 -->
<g id="edge13_Node000001_Node000012" class="edge">
<title>Node1&#45;&gt;Node12</title>
<g id="a_edge13_Node000001_Node000012"><a xlink:title=" ">
<path fill="none" stroke="#63b8ff" d="M739,-223.12C807.21,-214.91 912.45,-200.39 1002.25,-180 1009.21,-178.42 1016.49,-176.5 1023.61,-174.48"/>
<polygon fill="#63b8ff" stroke="#63b8ff" points="738.98,-219.6 729.46,-224.25 739.8,-226.55 738.98,-219.6"/>
</a>
</g>
</g>
<!-- Node13 -->
<g id="Node000013" class="node">
<title>Node13</title>
<g id="a_Node000013"><a xlink:href="signal__handler_8c.html" target="_top" xlink:title=" ">
<polygon fill="white" stroke="#666666" points="1274.25,-174 1150.25,-174 1150.25,-142 1274.25,-142 1274.25,-174"/>
<text text-anchor="start" x="1158.25" y="-160.5" font-family="Helvetica,sans-Serif" font-size="10.00">E:/GitHub/PRML_Code</text>
<text text-anchor="middle" x="1212.25" y="-148.5" font-family="Helvetica,sans-Serif" font-size="10.00">/src/libc/signal_handler.c</text>
</a>
</g>
</g>
<!-- Node1&#45;&gt;Node13 -->
<g id="edge14_Node000001_Node000013" class="edge">
<title>Node1&#45;&gt;Node13</title>
<g id="a_edge14_Node000001_Node000013"><a xlink:title=" ">
<path fill="none" stroke="#63b8ff" d="M739.31,-227.3C832.75,-221.58 1000.43,-208.16 1141.25,-180 1148.81,-178.49 1156.73,-176.53 1164.42,-174.42"/>
<polygon fill="#63b8ff" stroke="#63b8ff" points="739.3,-223.79 729.52,-227.88 739.72,-230.78 739.3,-223.79"/>
</a>
</g>
</g>
<!-- Node9&#45;&gt;Node8 -->
<g id="edge12_Node000009_Node000008" class="edge">
<title>Node9&#45;&gt;Node8</title>
<g id="a_edge12_Node000009_Node000008"><a xlink:title=" ">
<path fill="none" stroke="#63b8ff" d="M890.83,-135.1C875.31,-123.92 856.8,-110.59 842.77,-100.5"/>
<polygon fill="#63b8ff" stroke="#63b8ff" points="888.65,-137.84 898.81,-140.85 892.74,-132.16 888.65,-137.84"/>
</a>
</g>
</g>
<!-- Node10 -->
<g id="Node000010" class="node">
<title>Node10</title>
<g id="a_Node000010"><a xlink:href="libc_2decision__boundary_8c.html" target="_top" xlink:title=" ">
<polygon fill="white" stroke="#666666" points="1041.62,-32 898.88,-32 898.88,0 1041.62,0 1041.62,-32"/>
<text text-anchor="start" x="906.88" y="-18.5" font-family="Helvetica,sans-Serif" font-size="10.00">E:/GitHub/PRML_Code</text>
<text text-anchor="middle" x="970.25" y="-6.5" font-family="Helvetica,sans-Serif" font-size="10.00">/src/libc/decision_boundary.c</text>
</a>
</g>
</g>
<!-- Node9&#45;&gt;Node10 -->
<g id="edge9_Node000009_Node000010" class="edge">
<title>Node9&#45;&gt;Node10</title>
<g id="a_edge9_Node000009_Node000010"><a xlink:title=" ">
<path fill="none" stroke="#63b8ff" d="M924.64,-130.39C927.49,-112.35 932.38,-88.22 940.25,-68 945.17,-55.36 952.99,-42.2 959.41,-32.41"/>
<polygon fill="#63b8ff" stroke="#63b8ff" points="921.18,-129.87 923.21,-140.27 928.11,-130.88 921.18,-129.87"/>
</a>
</g>
</g>
<!-- Node11 -->
<g id="Node000011" class="node">
<title>Node11</title>
<g id="a_Node000011"><a xlink:href="libc_2decision__boundary_8h.html" target="_top" xlink:title="The decision boundary header file to calculate the intersection of two normal distributions.">
<polygon fill="white" stroke="#666666" points="1091.62,-100 948.88,-100 948.88,-68 1091.62,-68 1091.62,-100"/>
<text text-anchor="start" x="956.88" y="-86.5" font-family="Helvetica,sans-Serif" font-size="10.00">E:/GitHub/PRML_Code</text>
<text text-anchor="middle" x="1020.25" y="-74.5" font-family="Helvetica,sans-Serif" font-size="10.00">/src/libc/decision_boundary.h</text>
</a>
</g>
</g>
<!-- Node9&#45;&gt;Node11 -->
<g id="edge10_Node000009_Node000011" class="edge">
<title>Node9&#45;&gt;Node11</title>
<g id="a_edge10_Node000009_Node000011"><a xlink:title=" ">
<path fill="none" stroke="#63b8ff" d="M951.36,-135.1C966.73,-123.92 985.06,-110.59 998.94,-100.5"/>
<polygon fill="#63b8ff" stroke="#63b8ff" points="949.5,-132.13 943.47,-140.84 953.62,-137.79 949.5,-132.13"/>
</a>
</g>
</g>
<!-- Node11&#45;&gt;Node10 -->
<g id="edge11_Node000011_Node000010" class="edge">
<title>Node11&#45;&gt;Node10</title>
<g id="a_edge11_Node000011_Node000010"><a xlink:title=" ">
<path fill="none" stroke="#63b8ff" d="M1001.76,-58.59C995.06,-49.75 987.71,-40.04 981.78,-32.22"/>
<polygon fill="#63b8ff" stroke="#63b8ff" points="998.91,-60.63 1007.74,-66.49 1004.49,-56.4 998.91,-60.63"/>
</a>
</g>
</g>
</g>
</svg>

<g id="navigator" transform="translate(0 0)" fill="#404254">
  <rect fill="#f2f5e9" fill-opacity="0.5" stroke="#606060" stroke-width=".5" x="0" y="0" width="60" height="60"/>
  <use id="zoomplus" xlink:href="#zoomPlus" x="17" y="9" onmousedown="handleZoom(evt,'in')"/>
  <use id="zoomminus" xlink:href="#zoomMin" x="42" y="9" onmousedown="handleZoom(evt,'out')"/>
  <use id="reset" xlink:href="#resetDef" x="30" y="36" onmousedown="handleReset()"/>
   <use id="arrowup" xlink:href="#arrowUp" x="0" y="0" onmousedown="handlePan(0,-1)"/>
  <use id="arrowright" xlink:href="#arrowRight" x="0" y="0" onmousedown="handlePan(1,0)"/>
  <use id="arrowdown" xlink:href="#arrowDown" x="0" y="0" onmousedown="handlePan(0,1)"/>
  <use id="arrowleft" xlink:href="#arrowLeft" x="0" y="0" onmousedown="handlePan(-1,0)"/>
</g>
<svg viewBox="0 0 15 15" width="100%" height="30px" preserveAspectRatio="xMaxYMin meet">
 <g id="arrow_out" transform="scale(0.3 0.3)">
  <a xlink:href="libc_2output__format_8h__dep__incl_org.svg" target="_base">
   <rect id="button" ry="5" rx="5" y="6" x="6" height="38" width="38"
        fill="#f2f5e9" fill-opacity="0.5" stroke="#606060" stroke-width="1.0"/>
   <path id="arrow"
     d="M 11.500037,31.436501 C 11.940474,20.09759 22.043105,11.32322 32.158766,21.979434 L 37.068811,17.246167 C 37.068811,17.246167 37.088388,32 37.088388,32 L 22.160133,31.978069 C 22.160133,31.978069 26.997745,27.140456 26.997745,27.140456 C 18.528582,18.264221 13.291696,25.230495 11.500037,31.436501 z"
     style="fill:#404040;"/>
  </a>
 </g>
</svg>

<style type='text/css'>
<![CDATA[
[data-mouse-over-selected='false'] { opacity: 0.7; }
[data-mouse-over-selected='true']  { opacity: 1.0; }
]]>
</style>
<script type="application/ecmascript"><![CDATA[
document.addEventListener('DOMContentLoaded', (event) => {
  highlightEdges();
  highlightAdjacentNodes();
});
]]></script>
</svg>
