<?xml version="1.0" encoding="UTF-8" standalone="no"?>
<!DOCTYPE svg PUBLIC "-//W3C//DTD SVG 1.1//EN"
 "http://www.w3.org/Graphics/SVG/1.1/DTD/svg11.dtd">
<!-- Generated by graphviz version 9.0.0 (20230911.1827)
 -->
<!-- Title: E:/GitHub/PRML_Code/src/libc/output_format.h Pages: 1 -->
<svg width="870pt" height="244pt"
 viewBox="0.00 0.00 869.75 244.00" xmlns="http://www.w3.org/2000/svg" xmlns:xlink="http://www.w3.org/1999/xlink">
<g id="graph0" class="graph" transform="scale(1 1) rotate(0) translate(4 240)">
<title>E:/GitHub/PRML_Code/src/libc/output_format.h</title>
<!-- Node1 -->
<g id="Node000001" class="node">
<title>Node1</title>
<g id="a_Node000001"><a xlink:title="Output format struct for color printing (charactors)">
<polygon fill="#999999" stroke="#666666" points="525.75,-236 404.75,-236 404.75,-204 525.75,-204 525.75,-236"/>
<text text-anchor="start" x="412.75" y="-222.5" font-family="Helvetica,sans-Serif" font-size="10.00">E:/GitHub/PRML_Code</text>
<text text-anchor="middle" x="465.25" y="-210.5" font-family="Helvetica,sans-Serif" font-size="10.00">/src/libc/output_format.h</text>
</a>
</g>
</g>
<!-- Node2 -->
<g id="Node000002" class="node">
<title>Node2</title>
<g id="a_Node000002"><a xlink:href="hw3_2lib_2data__plot_8c.html" target="_top" xlink:title=" ">
<polygon fill="white" stroke="#666666" points="116.5,-168 0,-168 0,-136 116.5,-136 116.5,-168"/>
<text text-anchor="start" x="8" y="-154.5" font-family="Helvetica,sans-Serif" font-size="10.00">E:/GitHub/PRML_Code</text>
<text text-anchor="middle" x="58.25" y="-142.5" font-family="Helvetica,sans-Serif" font-size="10.00">/src/hw3/lib/data_plot.c</text>
</a>
</g>
</g>
<!-- Node1&#45;&gt;Node2 -->
<g id="edge1_Node000001_Node000002" class="edge">
<title>Node1&#45;&gt;Node2</title>
<g id="a_edge1_Node000001_Node000002"><a xlink:title=" ">
<path fill="none" stroke="#63b8ff" d="M393.38,-209.74C324.39,-200.49 217.37,-185.2 125.25,-168 122.44,-167.47 119.56,-166.92 116.66,-166.34"/>
<polygon fill="#63b8ff" stroke="#63b8ff" points="392.66,-213.17 403.04,-211.02 393.59,-206.23 392.66,-213.17"/>
</a>
</g>
</g>
<!-- Node3 -->
<g id="Node000003" class="node">
<title>Node3</title>
<g id="a_Node000003"><a xlink:href="hw3_2lib_2data__proc_8c.html" target="_top" xlink:title=" ">
<polygon fill="white" stroke="#666666" points="254,-168 134.5,-168 134.5,-136 254,-136 254,-168"/>
<text text-anchor="start" x="142.5" y="-154.5" font-family="Helvetica,sans-Serif" font-size="10.00">E:/GitHub/PRML_Code</text>
<text text-anchor="middle" x="194.25" y="-142.5" font-family="Helvetica,sans-Serif" font-size="10.00">/src/hw3/lib/data_proc.c</text>
</a>
</g>
</g>
<!-- Node1&#45;&gt;Node3 -->
<g id="edge2_Node000001_Node000003" class="edge">
<title>Node1&#45;&gt;Node3</title>
<g id="a_edge2_Node000001_Node000003"><a xlink:title=" ">
<path fill="none" stroke="#63b8ff" d="M393.38,-201.5C350.04,-190.94 295.45,-177.65 254.4,-167.65"/>
<polygon fill="#63b8ff" stroke="#63b8ff" points="392.42,-204.86 402.96,-203.83 394.07,-198.06 392.42,-204.86"/>
</a>
</g>
</g>
<!-- Node4 -->
<g id="Node000004" class="node">
<title>Node4</title>
<g id="a_Node000004"><a xlink:href="read__csv_8c.html" target="_top" xlink:title=" ">
<polygon fill="white" stroke="#666666" points="388.5,-168 272,-168 272,-136 388.5,-136 388.5,-168"/>
<text text-anchor="start" x="280" y="-154.5" font-family="Helvetica,sans-Serif" font-size="10.00">E:/GitHub/PRML_Code</text>
<text text-anchor="middle" x="330.25" y="-142.5" font-family="Helvetica,sans-Serif" font-size="10.00">/src/hw3/lib/read_csv.c</text>
</a>
</g>
</g>
<!-- Node1&#45;&gt;Node4 -->
<g id="edge3_Node000001_Node000004" class="edge">
<title>Node1&#45;&gt;Node4</title>
<g id="a_edge3_Node000001_Node000004"><a xlink:title=" ">
<path fill="none" stroke="#63b8ff" d="M423.26,-198.47C403.38,-188.75 380.03,-177.34 361.7,-168.38"/>
<polygon fill="#63b8ff" stroke="#63b8ff" points="421.72,-201.61 432.24,-202.86 424.79,-195.32 421.72,-201.61"/>
</a>
</g>
</g>
<!-- Node5 -->
<g id="Node000005" class="node">
<title>Node5</title>
<g id="a_Node000005"><a xlink:href="hw3_2main_8c.html" target="_top" xlink:title="Main function of hw3 &#45; 2 dimensional shape classification.">
<polygon fill="white" stroke="#666666" points="523.5,-168 407,-168 407,-136 523.5,-136 523.5,-168"/>
<text text-anchor="start" x="415" y="-154.5" font-family="Helvetica,sans-Serif" font-size="10.00">E:/GitHub/PRML_Code</text>
<text text-anchor="middle" x="465.25" y="-142.5" font-family="Helvetica,sans-Serif" font-size="10.00">/src/hw3/main.c</text>
</a>
</g>
</g>
<!-- Node1&#45;&gt;Node5 -->
<g id="edge4_Node000001_Node000005" class="edge">
<title>Node1&#45;&gt;Node5</title>
<g id="a_edge4_Node000001_Node000005"><a xlink:title=" ">
<path fill="none" stroke="#63b8ff" d="M465.25,-192.31C465.25,-184.12 465.25,-175.38 465.25,-168.22"/>
<polygon fill="#63b8ff" stroke="#63b8ff" points="461.75,-192.18 465.25,-202.18 468.75,-192.18 461.75,-192.18"/>
</a>
</g>
</g>
<!-- Node6 -->
<g id="Node000006" class="node">
<title>Node6</title>
<g id="a_Node000006"><a xlink:href="libc_2normal__distribution_8c.html" target="_top" xlink:title=" ">
<polygon fill="white" stroke="#666666" points="623,-100 479.5,-100 479.5,-68 623,-68 623,-100"/>
<text text-anchor="start" x="487.5" y="-86.5" font-family="Helvetica,sans-Serif" font-size="10.00">E:/GitHub/PRML_Code</text>
<text text-anchor="middle" x="551.25" y="-74.5" font-family="Helvetica,sans-Serif" font-size="10.00">/src/libc/normal_distribution.c</text>
</a>
</g>
</g>
<!-- Node1&#45;&gt;Node6 -->
<g id="edge5_Node000001_Node000006" class="edge">
<title>Node1&#45;&gt;Node6</title>
<g id="a_edge5_Node000001_Node000006"><a xlink:title=" ">
<path fill="none" stroke="#63b8ff" d="M503.25,-197.15C514.07,-189.24 524.9,-179.4 532.25,-168 545.71,-147.13 549.68,-117.9 550.83,-100.28"/>
<polygon fill="#63b8ff" stroke="#63b8ff" points="501.36,-194.2 495.09,-202.74 505.32,-199.98 501.36,-194.2"/>
</a>
</g>
</g>
<!-- Node7 -->
<g id="Node000007" class="node">
<title>Node7</title>
<g id="a_Node000007"><a xlink:href="libc_2normal__distribution_8h.html" target="_top" xlink:title="Normal distribution functions.">
<polygon fill="white" stroke="#666666" points="723,-168 579.5,-168 579.5,-136 723,-136 723,-168"/>
<text text-anchor="start" x="587.5" y="-154.5" font-family="Helvetica,sans-Serif" font-size="10.00">E:/GitHub/PRML_Code</text>
<text text-anchor="middle" x="651.25" y="-142.5" font-family="Helvetica,sans-Serif" font-size="10.00">/src/libc/normal_distribution.h</text>
</a>
</g>
</g>
<!-- Node1&#45;&gt;Node7 -->
<g id="edge6_Node000001_Node000007" class="edge">
<title>Node1&#45;&gt;Node7</title>
<g id="a_edge6_Node000001_Node000007"><a xlink:title=" ">
<path fill="none" stroke="#63b8ff" d="M519.68,-199.69C547.67,-189.76 581.33,-177.81 607.59,-168.49"/>
<polygon fill="#63b8ff" stroke="#63b8ff" points="518.54,-196.38 510.29,-203.02 520.88,-202.97 518.54,-196.38"/>
</a>
</g>
</g>
<!-- Node10 -->
<g id="Node000010" class="node">
<title>Node10</title>
<g id="a_Node000010"><a xlink:href="libc_2output__format_8c.html" target="_top" xlink:title=" ">
<polygon fill="white" stroke="#666666" points="861.75,-168 740.75,-168 740.75,-136 861.75,-136 861.75,-168"/>
<text text-anchor="start" x="748.75" y="-154.5" font-family="Helvetica,sans-Serif" font-size="10.00">E:/GitHub/PRML_Code</text>
<text text-anchor="middle" x="801.25" y="-142.5" font-family="Helvetica,sans-Serif" font-size="10.00">/src/libc/output_format.c</text>
</a>
</g>
</g>
<!-- Node1&#45;&gt;Node10 -->
<g id="edge11_Node000001_Node000010" class="edge">
<title>Node1&#45;&gt;Node10</title>
<g id="a_edge11_Node000001_Node000010"><a xlink:title=" ">
<path fill="none" stroke="#63b8ff" d="M537.19,-205.77C590.98,-195.75 666.31,-181.46 732.25,-168 734.89,-167.46 737.59,-166.9 740.31,-166.33"/>
<polygon fill="#63b8ff" stroke="#63b8ff" points="536.73,-202.3 527.53,-207.56 538,-209.18 536.73,-202.3"/>
</a>
</g>
</g>
<!-- Node7&#45;&gt;Node6 -->
<g id="edge10_Node000007_Node000006" class="edge">
<title>Node7&#45;&gt;Node6</title>
<g id="a_edge10_Node000007_Node000006"><a xlink:title=" ">
<path fill="none" stroke="#63b8ff" d="M618.3,-129.25C603.99,-119.81 587.56,-108.97 574.55,-100.38"/>
<polygon fill="#63b8ff" stroke="#63b8ff" points="616.27,-132.1 626.54,-134.69 620.12,-126.26 616.27,-132.1"/>
</a>
</g>
</g>
<!-- Node8 -->
<g id="Node000008" class="node">
<title>Node8</title>
<g id="a_Node000008"><a xlink:href="libc_2decision__boundary_8c.html" target="_top" xlink:title=" ">
<polygon fill="white" stroke="#666666" points="771.62,-32 628.88,-32 628.88,0 771.62,0 771.62,-32"/>
<text text-anchor="start" x="636.88" y="-18.5" font-family="Helvetica,sans-Serif" font-size="10.00">E:/GitHub/PRML_Code</text>
<text text-anchor="middle" x="700.25" y="-6.5" font-family="Helvetica,sans-Serif" font-size="10.00">/src/libc/decision_boundary.c</text>
</a>
</g>
</g>
<!-- Node7&#45;&gt;Node8 -->
<g id="edge7_Node000007_Node000008" class="edge">
<title>Node7&#45;&gt;Node8</title>
<g id="a_edge7_Node000007_Node000008"><a xlink:title=" ">
<path fill="none" stroke="#63b8ff" d="M655.18,-124.5C658.16,-107.89 663,-86.24 670.25,-68 675.26,-55.4 683.08,-42.23 689.48,-32.44"/>
<polygon fill="#63b8ff" stroke="#63b8ff" points="651.77,-123.65 653.58,-134.09 658.68,-124.8 651.77,-123.65"/>
</a>
</g>
</g>
<!-- Node9 -->
<g id="Node000009" class="node">
<title>Node9</title>
<g id="a_Node000009"><a xlink:href="libc_2decision__boundary_8h.html" target="_top" xlink:title="The decision boundary header file to calculate the intersection of two normal distributions.">
<polygon fill="white" stroke="#666666" points="821.62,-100 678.88,-100 678.88,-68 821.62,-68 821.62,-100"/>
<text text-anchor="start" x="686.88" y="-86.5" font-family="Helvetica,sans-Serif" font-size="10.00">E:/GitHub/PRML_Code</text>
<text text-anchor="middle" x="750.25" y="-74.5" font-family="Helvetica,sans-Serif" font-size="10.00">/src/libc/decision_boundary.h</text>
</a>
</g>
</g>
<!-- Node7&#45;&gt;Node9 -->
<g id="edge8_Node000007_Node000009" class="edge">
<title>Node7&#45;&gt;Node9</title>
<g id="a_edge8_Node000007_Node000009"><a xlink:title=" ">
<path fill="none" stroke="#63b8ff" d="M683.87,-129.25C698.04,-119.81 714.3,-108.97 727.18,-100.38"/>
<polygon fill="#63b8ff" stroke="#63b8ff" points="682.1,-126.23 675.72,-134.69 685.98,-132.05 682.1,-126.23"/>
</a>
</g>
</g>
<!-- Node9&#45;&gt;Node8 -->
<g id="edge9_Node000009_Node000008" class="edge">
<title>Node9&#45;&gt;Node8</title>
<g id="a_edge9_Node000009_Node000008"><a xlink:title=" ">
<path fill="none" stroke="#63b8ff" d="M731.76,-58.59C725.06,-49.75 717.71,-40.04 711.78,-32.22"/>
<polygon fill="#63b8ff" stroke="#63b8ff" points="728.91,-60.63 737.74,-66.49 734.49,-56.4 728.91,-60.63"/>
</a>
</g>
</g>
</g>
</svg>
