<?xml version="1.0" encoding="UTF-8" standalone="no"?>
<!DOCTYPE svg PUBLIC "-//W3C//DTD SVG 1.1//EN"
 "http://www.w3.org/Graphics/SVG/1.1/DTD/svg11.dtd">
<!-- Generated by graphviz version 9.0.0 (20230911.1827)
 -->
<!-- Title: E:/GitHub/PRML_Code/src/libc/output_format.h Pages: 1 -->
<svg width="1140pt" height="256pt"
 viewBox="0.00 0.00 1139.75 256.00" xmlns="http://www.w3.org/2000/svg" xmlns:xlink="http://www.w3.org/1999/xlink">
<g id="graph0" class="graph" transform="scale(1 1) rotate(0) translate(4 252)">
<title>E:/GitHub/PRML_Code/src/libc/output_format.h</title>
<!-- Node1 -->
<g id="Node000001" class="node">
<title>Node1</title>
<g id="a_Node000001"><a xlink:title="Output format struct for color printing (charactors)">
<polygon fill="#999999" stroke="#666666" points="660.75,-248 539.75,-248 539.75,-216 660.75,-216 660.75,-248"/>
<text text-anchor="start" x="547.75" y="-234.5" font-family="Helvetica,sans-Serif" font-size="10.00">E:/GitHub/PRML_Code</text>
<text text-anchor="middle" x="600.25" y="-222.5" font-family="Helvetica,sans-Serif" font-size="10.00">/src/libc/output_format.h</text>
</a>
</g>
</g>
<!-- Node2 -->
<g id="Node000002" class="node">
<title>Node2</title>
<g id="a_Node000002"><a xlink:href="hw3_2lib_2data__plot_8c.html" target="_top" xlink:title=" ">
<polygon fill="white" stroke="#666666" points="116.5,-174 0,-174 0,-142 116.5,-142 116.5,-174"/>
<text text-anchor="start" x="8" y="-160.5" font-family="Helvetica,sans-Serif" font-size="10.00">E:/GitHub/PRML_Code</text>
<text text-anchor="middle" x="58.25" y="-148.5" font-family="Helvetica,sans-Serif" font-size="10.00">/src/hw3/lib/data_plot.c</text>
</a>
</g>
</g>
<!-- Node1&#45;&gt;Node2 -->
<g id="edge1_Node000001_Node000002" class="edge">
<title>Node1&#45;&gt;Node2</title>
<g id="a_edge1_Node000001_Node000002"><a xlink:title=" ">
<path fill="none" stroke="#63b8ff" d="M527.97,-227.67C434.25,-222.34 266.14,-209.34 125.25,-180 118.09,-178.51 110.61,-176.56 103.34,-174.46"/>
<polygon fill="#63b8ff" stroke="#63b8ff" points="527.61,-231.15 537.78,-228.21 527.99,-224.16 527.61,-231.15"/>
</a>
</g>
</g>
<!-- Node3 -->
<g id="Node000003" class="node">
<title>Node3</title>
<g id="a_Node000003"><a xlink:href="hw3_2lib_2data__proc_8c.html" target="_top" xlink:title=" ">
<polygon fill="white" stroke="#666666" points="254,-174 134.5,-174 134.5,-142 254,-142 254,-174"/>
<text text-anchor="start" x="142.5" y="-160.5" font-family="Helvetica,sans-Serif" font-size="10.00">E:/GitHub/PRML_Code</text>
<text text-anchor="middle" x="194.25" y="-148.5" font-family="Helvetica,sans-Serif" font-size="10.00">/src/hw3/lib/data_proc.c</text>
</a>
</g>
</g>
<!-- Node1&#45;&gt;Node3 -->
<g id="edge2_Node000001_Node000003" class="edge">
<title>Node1&#45;&gt;Node3</title>
<g id="a_edge2_Node000001_Node000003"><a xlink:title=" ">
<path fill="none" stroke="#63b8ff" d="M528.39,-223.19C459.77,-215.02 353.72,-200.5 263.25,-180 256.29,-178.42 249.01,-176.51 241.89,-174.48"/>
<polygon fill="#63b8ff" stroke="#63b8ff" points="527.64,-226.63 537.98,-224.32 528.46,-219.68 527.64,-226.63"/>
</a>
</g>
</g>
<!-- Node4 -->
<g id="Node000004" class="node">
<title>Node4</title>
<g id="a_Node000004"><a xlink:href="read__csv_8c.html" target="_top" xlink:title=" ">
<polygon fill="white" stroke="#666666" points="388.5,-174 272,-174 272,-142 388.5,-142 388.5,-174"/>
<text text-anchor="start" x="280" y="-160.5" font-family="Helvetica,sans-Serif" font-size="10.00">E:/GitHub/PRML_Code</text>
<text text-anchor="middle" x="330.25" y="-148.5" font-family="Helvetica,sans-Serif" font-size="10.00">/src/hw3/lib/read_csv.c</text>
</a>
</g>
</g>
<!-- Node1&#45;&gt;Node4 -->
<g id="edge3_Node000001_Node000004" class="edge">
<title>Node1&#45;&gt;Node4</title>
<g id="a_edge3_Node000001_Node000004"><a xlink:title=" ">
<path fill="none" stroke="#63b8ff" d="M528.33,-213.81C489.65,-204.32 441.2,-192.05 398.25,-180 392.06,-178.27 385.58,-176.37 379.19,-174.45"/>
<polygon fill="#63b8ff" stroke="#63b8ff" points="527.47,-217.2 538.01,-216.18 529.13,-210.4 527.47,-217.2"/>
</a>
</g>
</g>
<!-- Node5 -->
<g id="Node000005" class="node">
<title>Node5</title>
<g id="a_Node000005"><a xlink:href="hw3_2main_8c.html" target="_top" xlink:title="Main function of hw3 &#45; 2 dimensional shape classification.">
<polygon fill="white" stroke="#666666" points="523.5,-174 407,-174 407,-142 523.5,-142 523.5,-174"/>
<text text-anchor="start" x="415" y="-160.5" font-family="Helvetica,sans-Serif" font-size="10.00">E:/GitHub/PRML_Code</text>
<text text-anchor="middle" x="465.25" y="-148.5" font-family="Helvetica,sans-Serif" font-size="10.00">/src/hw3/main.c</text>
</a>
</g>
</g>
<!-- Node1&#45;&gt;Node5 -->
<g id="edge4_Node000001_Node000005" class="edge">
<title>Node1&#45;&gt;Node5</title>
<g id="a_edge4_Node000001_Node000005"><a xlink:title=" ">
<path fill="none" stroke="#63b8ff" d="M561.21,-210.18C539.8,-198.76 513.73,-184.85 494.16,-174.42"/>
<polygon fill="#63b8ff" stroke="#63b8ff" points="559.48,-213.22 569.95,-214.84 562.78,-207.05 559.48,-213.22"/>
</a>
</g>
</g>
<!-- Node6 -->
<g id="Node000006" class="node">
<title>Node6</title>
<g id="a_Node000006"><a xlink:href="config__read_8c.html" target="_top" xlink:title=" ">
<polygon fill="white" stroke="#666666" points="658.5,-180 542,-180 542,-136 658.5,-136 658.5,-180"/>
<text text-anchor="start" x="550" y="-166.5" font-family="Helvetica,sans-Serif" font-size="10.00">E:/GitHub/PRML_Code</text>
<text text-anchor="start" x="550" y="-154.5" font-family="Helvetica,sans-Serif" font-size="10.00">/src/hw4/lib/config</text>
<text text-anchor="middle" x="600.25" y="-142.5" font-family="Helvetica,sans-Serif" font-size="10.00">_read.c</text>
</a>
</g>
</g>
<!-- Node1&#45;&gt;Node6 -->
<g id="edge5_Node000001_Node000006" class="edge">
<title>Node1&#45;&gt;Node6</title>
<g id="a_edge5_Node000001_Node000006"><a xlink:title=" ">
<path fill="none" stroke="#63b8ff" d="M600.25,-204.38C600.25,-196.43 600.25,-187.82 600.25,-180.26"/>
<polygon fill="#63b8ff" stroke="#63b8ff" points="596.75,-204.22 600.25,-214.22 603.75,-204.22 596.75,-204.22"/>
</a>
</g>
</g>
<!-- Node7 -->
<g id="Node000007" class="node">
<title>Node7</title>
<g id="a_Node000007"><a xlink:href="plot__iter_8c.html" target="_top" xlink:title=" ">
<polygon fill="white" stroke="#666666" points="793.5,-174 677,-174 677,-142 793.5,-142 793.5,-174"/>
<text text-anchor="start" x="685" y="-160.5" font-family="Helvetica,sans-Serif" font-size="10.00">E:/GitHub/PRML_Code</text>
<text text-anchor="middle" x="735.25" y="-148.5" font-family="Helvetica,sans-Serif" font-size="10.00">/src/hw4/lib/plot_iter.c</text>
</a>
</g>
</g>
<!-- Node1&#45;&gt;Node7 -->
<g id="edge6_Node000001_Node000007" class="edge">
<title>Node1&#45;&gt;Node7</title>
<g id="a_edge6_Node000001_Node000007"><a xlink:title=" ">
<path fill="none" stroke="#63b8ff" d="M639.29,-210.18C660.7,-198.76 686.77,-184.85 706.34,-174.42"/>
<polygon fill="#63b8ff" stroke="#63b8ff" points="637.72,-207.05 630.55,-214.84 641.02,-213.22 637.72,-207.05"/>
</a>
</g>
</g>
<!-- Node8 -->
<g id="Node000008" class="node">
<title>Node8</title>
<g id="a_Node000008"><a xlink:href="libc_2normal__distribution_8c.html" target="_top" xlink:title=" ">
<polygon fill="white" stroke="#666666" points="893,-100 749.5,-100 749.5,-68 893,-68 893,-100"/>
<text text-anchor="start" x="757.5" y="-86.5" font-family="Helvetica,sans-Serif" font-size="10.00">E:/GitHub/PRML_Code</text>
<text text-anchor="middle" x="821.25" y="-74.5" font-family="Helvetica,sans-Serif" font-size="10.00">/src/libc/normal_distribution.c</text>
</a>
</g>
</g>
<!-- Node1&#45;&gt;Node8 -->
<g id="edge7_Node000001_Node000008" class="edge">
<title>Node1&#45;&gt;Node8</title>
<g id="a_edge7_Node000001_Node000008"><a xlink:title=" ">
<path fill="none" stroke="#63b8ff" d="M672.24,-221.07C722.74,-212.62 784.32,-198.85 802.25,-180 822.77,-158.43 824,-121.27 822.8,-100.39"/>
<polygon fill="#63b8ff" stroke="#63b8ff" points="671.8,-217.59 662.49,-222.65 672.92,-224.5 671.8,-217.59"/>
</a>
</g>
</g>
<!-- Node9 -->
<g id="Node000009" class="node">
<title>Node9</title>
<g id="a_Node000009"><a xlink:href="libc_2normal__distribution_8h.html" target="_top" xlink:title="Normal distribution functions.">
<polygon fill="white" stroke="#666666" points="993,-174 849.5,-174 849.5,-142 993,-142 993,-174"/>
<text text-anchor="start" x="857.5" y="-160.5" font-family="Helvetica,sans-Serif" font-size="10.00">E:/GitHub/PRML_Code</text>
<text text-anchor="middle" x="921.25" y="-148.5" font-family="Helvetica,sans-Serif" font-size="10.00">/src/libc/normal_distribution.h</text>
</a>
</g>
</g>
<!-- Node1&#45;&gt;Node9 -->
<g id="edge8_Node000001_Node000009" class="edge">
<title>Node1&#45;&gt;Node9</title>
<g id="a_edge8_Node000001_Node000009"><a xlink:title=" ">
<path fill="none" stroke="#63b8ff" d="M672.4,-215.85C718.95,-205.94 780.76,-192.56 835.25,-180 842.89,-178.24 850.9,-176.35 858.82,-174.44"/>
<polygon fill="#63b8ff" stroke="#63b8ff" points="671.75,-212.41 662.69,-217.91 673.2,-219.25 671.75,-212.41"/>
</a>
</g>
</g>
<!-- Node12 -->
<g id="Node000012" class="node">
<title>Node12</title>
<g id="a_Node000012"><a xlink:href="libc_2output__format_8c.html" target="_top" xlink:title=" ">
<polygon fill="white" stroke="#666666" points="1131.75,-174 1010.75,-174 1010.75,-142 1131.75,-142 1131.75,-174"/>
<text text-anchor="start" x="1018.75" y="-160.5" font-family="Helvetica,sans-Serif" font-size="10.00">E:/GitHub/PRML_Code</text>
<text text-anchor="middle" x="1071.25" y="-148.5" font-family="Helvetica,sans-Serif" font-size="10.00">/src/libc/output_format.c</text>
</a>
</g>
</g>
<!-- Node1&#45;&gt;Node12 -->
<g id="edge13_Node000001_Node000012" class="edge">
<title>Node1&#45;&gt;Node12</title>
<g id="a_edge13_Node000001_Node000012"><a xlink:title=" ">
<path fill="none" stroke="#63b8ff" d="M672.11,-225.58C753.02,-218.62 888.09,-204.43 1002.25,-180 1009.47,-178.45 1017.03,-176.51 1024.39,-174.42"/>
<polygon fill="#63b8ff" stroke="#63b8ff" points="672.24,-222.05 662.57,-226.38 672.83,-229.03 672.24,-222.05"/>
</a>
</g>
</g>
<!-- Node9&#45;&gt;Node8 -->
<g id="edge12_Node000009_Node000008" class="edge">
<title>Node9&#45;&gt;Node8</title>
<g id="a_edge12_Node000009_Node000008"><a xlink:title=" ">
<path fill="none" stroke="#63b8ff" d="M890.83,-135.1C875.31,-123.92 856.8,-110.59 842.77,-100.5"/>
<polygon fill="#63b8ff" stroke="#63b8ff" points="888.65,-137.84 898.81,-140.85 892.74,-132.16 888.65,-137.84"/>
</a>
</g>
</g>
<!-- Node10 -->
<g id="Node000010" class="node">
<title>Node10</title>
<g id="a_Node000010"><a xlink:href="libc_2decision__boundary_8c.html" target="_top" xlink:title=" ">
<polygon fill="white" stroke="#666666" points="1041.62,-32 898.88,-32 898.88,0 1041.62,0 1041.62,-32"/>
<text text-anchor="start" x="906.88" y="-18.5" font-family="Helvetica,sans-Serif" font-size="10.00">E:/GitHub/PRML_Code</text>
<text text-anchor="middle" x="970.25" y="-6.5" font-family="Helvetica,sans-Serif" font-size="10.00">/src/libc/decision_boundary.c</text>
</a>
</g>
</g>
<!-- Node9&#45;&gt;Node10 -->
<g id="edge9_Node000009_Node000010" class="edge">
<title>Node9&#45;&gt;Node10</title>
<g id="a_edge9_Node000009_Node000010"><a xlink:title=" ">
<path fill="none" stroke="#63b8ff" d="M924.64,-130.39C927.49,-112.35 932.38,-88.22 940.25,-68 945.17,-55.36 952.99,-42.2 959.41,-32.41"/>
<polygon fill="#63b8ff" stroke="#63b8ff" points="921.18,-129.87 923.21,-140.27 928.11,-130.88 921.18,-129.87"/>
</a>
</g>
</g>
<!-- Node11 -->
<g id="Node000011" class="node">
<title>Node11</title>
<g id="a_Node000011"><a xlink:href="libc_2decision__boundary_8h.html" target="_top" xlink:title="The decision boundary header file to calculate the intersection of two normal distributions.">
<polygon fill="white" stroke="#666666" points="1091.62,-100 948.88,-100 948.88,-68 1091.62,-68 1091.62,-100"/>
<text text-anchor="start" x="956.88" y="-86.5" font-family="Helvetica,sans-Serif" font-size="10.00">E:/GitHub/PRML_Code</text>
<text text-anchor="middle" x="1020.25" y="-74.5" font-family="Helvetica,sans-Serif" font-size="10.00">/src/libc/decision_boundary.h</text>
</a>
</g>
</g>
<!-- Node9&#45;&gt;Node11 -->
<g id="edge10_Node000009_Node000011" class="edge">
<title>Node9&#45;&gt;Node11</title>
<g id="a_edge10_Node000009_Node000011"><a xlink:title=" ">
<path fill="none" stroke="#63b8ff" d="M951.36,-135.1C966.73,-123.92 985.06,-110.59 998.94,-100.5"/>
<polygon fill="#63b8ff" stroke="#63b8ff" points="949.5,-132.13 943.47,-140.84 953.62,-137.79 949.5,-132.13"/>
</a>
</g>
</g>
<!-- Node11&#45;&gt;Node10 -->
<g id="edge11_Node000011_Node000010" class="edge">
<title>Node11&#45;&gt;Node10</title>
<g id="a_edge11_Node000011_Node000010"><a xlink:title=" ">
<path fill="none" stroke="#63b8ff" d="M1001.76,-58.59C995.06,-49.75 987.71,-40.04 981.78,-32.22"/>
<polygon fill="#63b8ff" stroke="#63b8ff" points="998.91,-60.63 1007.74,-66.49 1004.49,-56.4 998.91,-60.63"/>
</a>
</g>
</g>
</g>
</svg>
