<?xml version="1.0" encoding="UTF-8" standalone="no"?>
<!DOCTYPE svg PUBLIC "-//W3C//DTD SVG 1.1//EN"
 "http://www.w3.org/Graphics/SVG/1.1/DTD/svg11.dtd">
<!-- Generated by graphviz version 9.0.0 (20230911.1827)
 -->
<!-- Title: E:/GitHub/PRML_Code/src/libc/output_format.c Pages: 1 -->
<svg width="286pt" height="96pt"
 viewBox="0.00 0.00 286.38 96.00" xmlns="http://www.w3.org/2000/svg" xmlns:xlink="http://www.w3.org/1999/xlink">
<g id="graph0" class="graph" transform="scale(1 1) rotate(0) translate(4 92)">
<title>E:/GitHub/PRML_Code/src/libc/output_format.c</title>
<!-- Node1 -->
<g id="Node000001" class="node">
<title>Node1</title>
<g id="a_Node000001"><a xlink:title=" ">
<polygon fill="#999999" stroke="#666666" points="180.12,-88 59.12,-88 59.12,-56 180.12,-56 180.12,-88"/>
<text text-anchor="start" x="67.12" y="-74.5" font-family="Helvetica,sans-Serif" font-size="10.00">E:/GitHub/PRML_Code</text>
<text text-anchor="middle" x="119.62" y="-62.5" font-family="Helvetica,sans-Serif" font-size="10.00">/src/libc/output_format.c</text>
</a>
</g>
</g>
<!-- Node2 -->
<g id="Node000002" class="node">
<title>Node2</title>
<g id="a_Node000002"><a xlink:title=" ">
<polygon fill="#e0e0e0" stroke="#999999" points="45.25,-20 0,-20 0,0 45.25,0 45.25,-20"/>
<text text-anchor="middle" x="22.62" y="-6.5" font-family="Helvetica,sans-Serif" font-size="10.00">stdio.h</text>
</a>
</g>
</g>
<!-- Node1&#45;&gt;Node2 -->
<g id="edge1_Node000001_Node000002" class="edge">
<title>Node1&#45;&gt;Node2</title>
<g id="a_edge1_Node000001_Node000002"><a xlink:title=" ">
<path fill="none" stroke="#63b8ff" d="M94.65,-55.55C80.19,-46.61 62.06,-35.39 47.6,-26.45"/>
<polygon fill="#63b8ff" stroke="#63b8ff" points="49.47,-23.49 39.12,-21.2 45.79,-29.44 49.47,-23.49"/>
</a>
</g>
</g>
<!-- Node3 -->
<g id="Node000003" class="node">
<title>Node3</title>
<g id="a_Node000003"><a xlink:title=" ">
<polygon fill="#e0e0e0" stroke="#999999" points="110.38,-20 62.88,-20 62.88,0 110.38,0 110.38,-20"/>
<text text-anchor="middle" x="86.62" y="-6.5" font-family="Helvetica,sans-Serif" font-size="10.00">stdlib.h</text>
</a>
</g>
</g>
<!-- Node1&#45;&gt;Node3 -->
<g id="edge2_Node000001_Node000003" class="edge">
<title>Node1&#45;&gt;Node3</title>
<g id="a_edge2_Node000001_Node000003"><a xlink:title=" ">
<path fill="none" stroke="#63b8ff" d="M111.13,-55.55C106.93,-47.91 101.81,-38.61 97.34,-30.49"/>
<polygon fill="#63b8ff" stroke="#63b8ff" points="100.41,-28.81 92.53,-21.73 94.28,-32.18 100.41,-28.81"/>
</a>
</g>
</g>
<!-- Node4 -->
<g id="Node000004" class="node">
<title>Node4</title>
<g id="a_Node000004"><a xlink:title=" ">
<polygon fill="#e0e0e0" stroke="#999999" points="176.75,-20 128.5,-20 128.5,0 176.75,0 176.75,-20"/>
<text text-anchor="middle" x="152.62" y="-6.5" font-family="Helvetica,sans-Serif" font-size="10.00">string.h</text>
</a>
</g>
</g>
<!-- Node1&#45;&gt;Node4 -->
<g id="edge3_Node000001_Node000004" class="edge">
<title>Node1&#45;&gt;Node4</title>
<g id="a_edge3_Node000001_Node000004"><a xlink:title=" ">
<path fill="none" stroke="#63b8ff" d="M128.12,-55.55C132.32,-47.91 137.44,-38.61 141.91,-30.49"/>
<polygon fill="#63b8ff" stroke="#63b8ff" points="144.97,-32.18 146.72,-21.73 138.84,-28.81 144.97,-32.18"/>
</a>
</g>
</g>
<!-- Node5 -->
<g id="Node000005" class="node">
<title>Node5</title>
<g id="a_Node000005"><a xlink:href="libc_2output__format_8h.html" target="_top" xlink:title="Output format struct for color printing (charactors)">
<polygon fill="white" stroke="#666666" points="278.38,-20 194.88,-20 194.88,0 278.38,0 278.38,-20"/>
<text text-anchor="middle" x="236.62" y="-6.5" font-family="Helvetica,sans-Serif" font-size="10.00">output_format.h</text>
</a>
</g>
</g>
<!-- Node1&#45;&gt;Node5 -->
<g id="edge4_Node000001_Node000005" class="edge">
<title>Node1&#45;&gt;Node5</title>
<g id="a_edge4_Node000001_Node000005"><a xlink:title=" ">
<path fill="none" stroke="#63b8ff" d="M149.76,-55.55C167.87,-46.26 190.77,-34.52 208.51,-25.42"/>
<polygon fill="#63b8ff" stroke="#63b8ff" points="209.63,-28.78 216.93,-21.1 206.44,-22.55 209.63,-28.78"/>
</a>
</g>
</g>
</g>
</svg>
