<?xml version="1.0" encoding="UTF-8" standalone="no"?>
<!DOCTYPE svg PUBLIC "-//W3C//DTD SVG 1.1//EN"
 "http://www.w3.org/Graphics/SVG/1.1/DTD/svg11.dtd">
<!-- Generated by graphviz version 9.0.0 (20230911.1827)
 -->
<!-- Title: E:/GitHub/PRML_Code/src/libc/normal_distribution.h Pages: 1 -->
<svg width="362pt" height="176pt"
 viewBox="0.00 0.00 362.12 176.00" xmlns="http://www.w3.org/2000/svg" xmlns:xlink="http://www.w3.org/1999/xlink">

<svg id="main" version="1.1" xmlns="http://www.w3.org/2000/svg" xmlns:xlink="http://www.w3.org/1999/xlink" xml:space="preserve" onload="init(evt)">
<style type="text/css"><![CDATA[
.node, .edge {opacity: 0.7;}
.node.selected, .edge.selected {opacity: 1;}
.edge:hover path { stroke: red; }
.edge:hover polygon { stroke: red; fill: red; }
]]></style>
<script type="application/ecmascript" xlink:href="svg.min.js"/>
<svg id="graph" class="graph">
<g id="graph0" class="graph" transform="scale(1 1) rotate(0) translate(4 172)">
<title>E:/GitHub/PRML_Code/src/libc/normal_distribution.h</title>
<!-- Node1 -->
<g id="Node000001" class="node">
<title>Node1</title>
<g id="a_Node000001"><a xlink:title="Normal distribution functions.">
<polygon fill="#999999" stroke="#666666" points="193.12,-168 49.62,-168 49.62,-136 193.12,-136 193.12,-168"/>
<text text-anchor="start" x="57.62" y="-154.5" font-family="Helvetica,sans-Serif" font-size="10.00">E:/GitHub/PRML_Code</text>
<text text-anchor="middle" x="121.38" y="-142.5" font-family="Helvetica,sans-Serif" font-size="10.00">/src/libc/normal_distribution.h</text>
</a>
</g>
</g>
<!-- Node2 -->
<g id="Node000002" class="node">
<title>Node2</title>
<g id="a_Node000002"><a xlink:href="libc_2decision__boundary_8c.html" target="_top" xlink:title=" ">
<polygon fill="white" stroke="#666666" points="142.75,-32 0,-32 0,0 142.75,0 142.75,-32"/>
<text text-anchor="start" x="8" y="-18.5" font-family="Helvetica,sans-Serif" font-size="10.00">E:/GitHub/PRML_Code</text>
<text text-anchor="middle" x="71.38" y="-6.5" font-family="Helvetica,sans-Serif" font-size="10.00">/src/libc/decision_boundary.c</text>
</a>
</g>
</g>
<!-- Node1&#45;&gt;Node2 -->
<g id="edge1_Node000001_Node000002" class="edge">
<title>Node1&#45;&gt;Node2</title>
<g id="a_edge1_Node000001_Node000002"><a xlink:title=" ">
<path fill="none" stroke="#63b8ff" d="M71.74,-130.04C59.66,-122.43 48.25,-112.54 41.38,-100 29.14,-77.7 45.39,-49.42 58.32,-32.29"/>
<polygon fill="#63b8ff" stroke="#63b8ff" points="69.77,-132.95 80.18,-134.9 73.26,-126.88 69.77,-132.95"/>
</a>
</g>
</g>
<!-- Node3 -->
<g id="Node000003" class="node">
<title>Node3</title>
<g id="a_Node000003"><a xlink:href="libc_2decision__boundary_8h.html" target="_top" xlink:title="The decision boundary header file to calculate the intersection of two normal distributions.">
<polygon fill="white" stroke="#666666" points="192.75,-100 50,-100 50,-68 192.75,-68 192.75,-100"/>
<text text-anchor="start" x="58" y="-86.5" font-family="Helvetica,sans-Serif" font-size="10.00">E:/GitHub/PRML_Code</text>
<text text-anchor="middle" x="121.38" y="-74.5" font-family="Helvetica,sans-Serif" font-size="10.00">/src/libc/decision_boundary.h</text>
</a>
</g>
</g>
<!-- Node1&#45;&gt;Node3 -->
<g id="edge2_Node000001_Node000003" class="edge">
<title>Node1&#45;&gt;Node3</title>
<g id="a_edge2_Node000001_Node000003"><a xlink:title=" ">
<path fill="none" stroke="#63b8ff" d="M121.38,-124.31C121.38,-116.12 121.38,-107.38 121.38,-100.22"/>
<polygon fill="#63b8ff" stroke="#63b8ff" points="117.88,-124.18 121.38,-134.18 124.88,-124.18 117.88,-124.18"/>
</a>
</g>
</g>
<!-- Node4 -->
<g id="Node000004" class="node">
<title>Node4</title>
<g id="a_Node000004"><a xlink:href="libc_2normal__distribution_8c.html" target="_top" xlink:title=" ">
<polygon fill="white" stroke="#666666" points="354.12,-100 210.62,-100 210.62,-68 354.12,-68 354.12,-100"/>
<text text-anchor="start" x="218.62" y="-86.5" font-family="Helvetica,sans-Serif" font-size="10.00">E:/GitHub/PRML_Code</text>
<text text-anchor="middle" x="282.38" y="-74.5" font-family="Helvetica,sans-Serif" font-size="10.00">/src/libc/normal_distribution.c</text>
</a>
</g>
</g>
<!-- Node1&#45;&gt;Node4 -->
<g id="edge4_Node000001_Node000004" class="edge">
<title>Node1&#45;&gt;Node4</title>
<g id="a_edge4_Node000001_Node000004"><a xlink:title=" ">
<path fill="none" stroke="#63b8ff" d="M169.45,-131.29C193.49,-121.44 222.15,-109.69 244.59,-100.49"/>
<polygon fill="#63b8ff" stroke="#63b8ff" points="168.45,-127.92 160.52,-134.95 171.1,-134.4 168.45,-127.92"/>
</a>
</g>
</g>
<!-- Node3&#45;&gt;Node2 -->
<g id="edge3_Node000003_Node000002" class="edge">
<title>Node3&#45;&gt;Node2</title>
<g id="a_edge3_Node000003_Node000002"><a xlink:title=" ">
<path fill="none" stroke="#63b8ff" d="M102.88,-58.59C96.19,-49.75 88.83,-40.04 82.91,-32.22"/>
<polygon fill="#63b8ff" stroke="#63b8ff" points="100.04,-60.63 108.86,-66.49 105.62,-56.4 100.04,-60.63"/>
</a>
</g>
</g>
</g>
</svg>
</svg>

<style type='text/css'>
<![CDATA[
[data-mouse-over-selected='false'] { opacity: 0.7; }
[data-mouse-over-selected='true']  { opacity: 1.0; }
]]>
</style>
<script type="application/ecmascript"><![CDATA[
document.addEventListener('DOMContentLoaded', (event) => {
  highlightEdges();
  highlightAdjacentNodes();
});
]]></script>
</svg>
