<?xml version="1.0" encoding="UTF-8" standalone="no"?>
<!DOCTYPE svg PUBLIC "-//W3C//DTD SVG 1.1//EN"
 "http://www.w3.org/Graphics/SVG/1.1/DTD/svg11.dtd">
<!-- Generated by graphviz version 9.0.0 (20230911.1827)
 -->
<!-- Title: E:/GitHub/PRML_Code/src/libc/output_format.h Pages: 1 -->
<svg width="1005pt" height="256pt"
 viewBox="0.00 0.00 1004.75 256.00" xmlns="http://www.w3.org/2000/svg" xmlns:xlink="http://www.w3.org/1999/xlink">
<g id="graph0" class="graph" transform="scale(1 1) rotate(0) translate(4 252)">
<title>E:/GitHub/PRML_Code/src/libc/output_format.h</title>
<!-- Node1 -->
<g id="Node000001" class="node">
<title>Node1</title>
<g id="a_Node000001"><a xlink:title="Output format struct for color printing (charactors)">
<polygon fill="#999999" stroke="#666666" points="592.75,-248 471.75,-248 471.75,-216 592.75,-216 592.75,-248"/>
<text text-anchor="start" x="479.75" y="-234.5" font-family="Helvetica,sans-Serif" font-size="10.00">E:/GitHub/PRML_Code</text>
<text text-anchor="middle" x="532.25" y="-222.5" font-family="Helvetica,sans-Serif" font-size="10.00">/src/libc/output_format.h</text>
</a>
</g>
</g>
<!-- Node2 -->
<g id="Node000002" class="node">
<title>Node2</title>
<g id="a_Node000002"><a xlink:href="hw3_2lib_2data__plot_8c.html" target="_top" xlink:title=" ">
<polygon fill="white" stroke="#666666" points="116.5,-174 0,-174 0,-142 116.5,-142 116.5,-174"/>
<text text-anchor="start" x="8" y="-160.5" font-family="Helvetica,sans-Serif" font-size="10.00">E:/GitHub/PRML_Code</text>
<text text-anchor="middle" x="58.25" y="-148.5" font-family="Helvetica,sans-Serif" font-size="10.00">/src/hw3/lib/data_plot.c</text>
</a>
</g>
</g>
<!-- Node1&#45;&gt;Node2 -->
<g id="edge1_Node000001_Node000002" class="edge">
<title>Node1&#45;&gt;Node2</title>
<g id="a_edge1_Node000001_Node000002"><a xlink:title=" ">
<path fill="none" stroke="#63b8ff" d="M459.91,-225.87C378.02,-219.15 240.94,-205.17 125.25,-180 118.22,-178.47 110.88,-176.53 103.73,-174.45"/>
<polygon fill="#63b8ff" stroke="#63b8ff" points="459.58,-229.35 469.83,-226.67 460.14,-222.38 459.58,-229.35"/>
</a>
</g>
</g>
<!-- Node3 -->
<g id="Node000003" class="node">
<title>Node3</title>
<g id="a_Node000003"><a xlink:href="hw3_2lib_2data__proc_8c.html" target="_top" xlink:title=" ">
<polygon fill="white" stroke="#666666" points="254,-174 134.5,-174 134.5,-142 254,-142 254,-174"/>
<text text-anchor="start" x="142.5" y="-160.5" font-family="Helvetica,sans-Serif" font-size="10.00">E:/GitHub/PRML_Code</text>
<text text-anchor="middle" x="194.25" y="-148.5" font-family="Helvetica,sans-Serif" font-size="10.00">/src/hw3/lib/data_proc.c</text>
</a>
</g>
</g>
<!-- Node1&#45;&gt;Node3 -->
<g id="edge2_Node000001_Node000003" class="edge">
<title>Node1&#45;&gt;Node3</title>
<g id="a_edge2_Node000001_Node000003"><a xlink:title=" ">
<path fill="none" stroke="#63b8ff" d="M460.21,-219.52C405.78,-210.32 329.39,-196.28 263.25,-180 256.56,-178.35 249.56,-176.45 242.7,-174.46"/>
<polygon fill="#63b8ff" stroke="#63b8ff" points="459.55,-222.96 469.99,-221.16 460.71,-216.05 459.55,-222.96"/>
</a>
</g>
</g>
<!-- Node4 -->
<g id="Node000004" class="node">
<title>Node4</title>
<g id="a_Node000004"><a xlink:href="read__csv_8c.html" target="_top" xlink:title=" ">
<polygon fill="white" stroke="#666666" points="388.5,-174 272,-174 272,-142 388.5,-142 388.5,-174"/>
<text text-anchor="start" x="280" y="-160.5" font-family="Helvetica,sans-Serif" font-size="10.00">E:/GitHub/PRML_Code</text>
<text text-anchor="middle" x="330.25" y="-148.5" font-family="Helvetica,sans-Serif" font-size="10.00">/src/hw3/lib/read_csv.c</text>
</a>
</g>
</g>
<!-- Node1&#45;&gt;Node4 -->
<g id="edge3_Node000001_Node000004" class="edge">
<title>Node1&#45;&gt;Node4</title>
<g id="a_edge3_Node000001_Node000004"><a xlink:title=" ">
<path fill="none" stroke="#63b8ff" d="M478.15,-211.72C445.37,-200.03 404.12,-185.33 373.51,-174.42"/>
<polygon fill="#63b8ff" stroke="#63b8ff" points="476.9,-214.99 487.49,-215.05 479.25,-208.39 476.9,-214.99"/>
</a>
</g>
</g>
<!-- Node5 -->
<g id="Node000005" class="node">
<title>Node5</title>
<g id="a_Node000005"><a xlink:href="hw3_2main_8c.html" target="_top" xlink:title="Main function of hw3 &#45; 2 dimensional shape classification.">
<polygon fill="white" stroke="#666666" points="523.5,-174 407,-174 407,-142 523.5,-142 523.5,-174"/>
<text text-anchor="start" x="415" y="-160.5" font-family="Helvetica,sans-Serif" font-size="10.00">E:/GitHub/PRML_Code</text>
<text text-anchor="middle" x="465.25" y="-148.5" font-family="Helvetica,sans-Serif" font-size="10.00">/src/hw3/main.c</text>
</a>
</g>
</g>
<!-- Node1&#45;&gt;Node5 -->
<g id="edge4_Node000001_Node000005" class="edge">
<title>Node1&#45;&gt;Node5</title>
<g id="a_edge4_Node000001_Node000005"><a xlink:title=" ">
<path fill="none" stroke="#63b8ff" d="M510.33,-207.44C500.18,-196.53 488.41,-183.88 479.44,-174.25"/>
<polygon fill="#63b8ff" stroke="#63b8ff" points="507.64,-209.69 517.01,-214.62 512.76,-204.92 507.64,-209.69"/>
</a>
</g>
</g>
<!-- Node6 -->
<g id="Node000006" class="node">
<title>Node6</title>
<g id="a_Node000006"><a xlink:href="config__read_8c.html" target="_top" xlink:title=" ">
<polygon fill="white" stroke="#666666" points="658.5,-180 542,-180 542,-136 658.5,-136 658.5,-180"/>
<text text-anchor="start" x="550" y="-166.5" font-family="Helvetica,sans-Serif" font-size="10.00">E:/GitHub/PRML_Code</text>
<text text-anchor="start" x="550" y="-154.5" font-family="Helvetica,sans-Serif" font-size="10.00">/src/hw4/lib/config</text>
<text text-anchor="middle" x="600.25" y="-142.5" font-family="Helvetica,sans-Serif" font-size="10.00">_read.c</text>
</a>
</g>
</g>
<!-- Node1&#45;&gt;Node6 -->
<g id="edge5_Node000001_Node000006" class="edge">
<title>Node1&#45;&gt;Node6</title>
<g id="a_edge5_Node000001_Node000006"><a xlink:title=" ">
<path fill="none" stroke="#63b8ff" d="M554.51,-207.44C562.78,-198.68 572.11,-188.8 580.18,-180.26"/>
<polygon fill="#63b8ff" stroke="#63b8ff" points="552.03,-204.96 547.71,-214.63 557.12,-209.76 552.03,-204.96"/>
</a>
</g>
</g>
<!-- Node7 -->
<g id="Node000007" class="node">
<title>Node7</title>
<g id="a_Node000007"><a xlink:href="libc_2normal__distribution_8c.html" target="_top" xlink:title=" ">
<polygon fill="white" stroke="#666666" points="758,-100 614.5,-100 614.5,-68 758,-68 758,-100"/>
<text text-anchor="start" x="622.5" y="-86.5" font-family="Helvetica,sans-Serif" font-size="10.00">E:/GitHub/PRML_Code</text>
<text text-anchor="middle" x="686.25" y="-74.5" font-family="Helvetica,sans-Serif" font-size="10.00">/src/libc/normal_distribution.c</text>
</a>
</g>
</g>
<!-- Node1&#45;&gt;Node7 -->
<g id="edge6_Node000001_Node000007" class="edge">
<title>Node1&#45;&gt;Node7</title>
<g id="a_edge6_Node000001_Node000007"><a xlink:title=" ">
<path fill="none" stroke="#63b8ff" d="M604,-218.39C627.25,-210.89 651.16,-198.97 667.25,-180 686.4,-157.43 688.2,-120.99 687.45,-100.42"/>
<polygon fill="#63b8ff" stroke="#63b8ff" points="603.09,-215.01 594.49,-221.2 605.07,-221.72 603.09,-215.01"/>
</a>
</g>
</g>
<!-- Node8 -->
<g id="Node000008" class="node">
<title>Node8</title>
<g id="a_Node000008"><a xlink:href="libc_2normal__distribution_8h.html" target="_top" xlink:title="Normal distribution functions.">
<polygon fill="white" stroke="#666666" points="858,-174 714.5,-174 714.5,-142 858,-142 858,-174"/>
<text text-anchor="start" x="722.5" y="-160.5" font-family="Helvetica,sans-Serif" font-size="10.00">E:/GitHub/PRML_Code</text>
<text text-anchor="middle" x="786.25" y="-148.5" font-family="Helvetica,sans-Serif" font-size="10.00">/src/libc/normal_distribution.h</text>
</a>
</g>
</g>
<!-- Node1&#45;&gt;Node8 -->
<g id="edge7_Node000001_Node000008" class="edge">
<title>Node1&#45;&gt;Node8</title>
<g id="a_edge7_Node000001_Node000008"><a xlink:title=" ">
<path fill="none" stroke="#63b8ff" d="M597.6,-212.47C639.23,-200.67 692.53,-185.57 731.85,-174.42"/>
<polygon fill="#63b8ff" stroke="#63b8ff" points="596.86,-209.05 588.2,-215.14 598.77,-215.78 596.86,-209.05"/>
</a>
</g>
</g>
<!-- Node11 -->
<g id="Node000011" class="node">
<title>Node11</title>
<g id="a_Node000011"><a xlink:href="libc_2output__format_8c.html" target="_top" xlink:title=" ">
<polygon fill="white" stroke="#666666" points="996.75,-174 875.75,-174 875.75,-142 996.75,-142 996.75,-174"/>
<text text-anchor="start" x="883.75" y="-160.5" font-family="Helvetica,sans-Serif" font-size="10.00">E:/GitHub/PRML_Code</text>
<text text-anchor="middle" x="936.25" y="-148.5" font-family="Helvetica,sans-Serif" font-size="10.00">/src/libc/output_format.c</text>
</a>
</g>
</g>
<!-- Node1&#45;&gt;Node11 -->
<g id="edge12_Node000001_Node000011" class="edge">
<title>Node1&#45;&gt;Node11</title>
<g id="a_edge12_Node000001_Node000011"><a xlink:title=" ">
<path fill="none" stroke="#63b8ff" d="M604,-223.12C672.21,-214.91 777.45,-200.39 867.25,-180 874.21,-178.42 881.49,-176.5 888.61,-174.48"/>
<polygon fill="#63b8ff" stroke="#63b8ff" points="603.98,-219.6 594.46,-224.25 604.8,-226.55 603.98,-219.6"/>
</a>
</g>
</g>
<!-- Node8&#45;&gt;Node7 -->
<g id="edge11_Node000008_Node000007" class="edge">
<title>Node8&#45;&gt;Node7</title>
<g id="a_edge11_Node000008_Node000007"><a xlink:title=" ">
<path fill="none" stroke="#63b8ff" d="M755.83,-135.1C740.31,-123.92 721.8,-110.59 707.77,-100.5"/>
<polygon fill="#63b8ff" stroke="#63b8ff" points="753.65,-137.84 763.81,-140.85 757.74,-132.16 753.65,-137.84"/>
</a>
</g>
</g>
<!-- Node9 -->
<g id="Node000009" class="node">
<title>Node9</title>
<g id="a_Node000009"><a xlink:href="libc_2decision__boundary_8c.html" target="_top" xlink:title=" ">
<polygon fill="white" stroke="#666666" points="906.62,-32 763.88,-32 763.88,0 906.62,0 906.62,-32"/>
<text text-anchor="start" x="771.88" y="-18.5" font-family="Helvetica,sans-Serif" font-size="10.00">E:/GitHub/PRML_Code</text>
<text text-anchor="middle" x="835.25" y="-6.5" font-family="Helvetica,sans-Serif" font-size="10.00">/src/libc/decision_boundary.c</text>
</a>
</g>
</g>
<!-- Node8&#45;&gt;Node9 -->
<g id="edge8_Node000008_Node000009" class="edge">
<title>Node8&#45;&gt;Node9</title>
<g id="a_edge8_Node000008_Node000009"><a xlink:title=" ">
<path fill="none" stroke="#63b8ff" d="M789.64,-130.39C792.49,-112.35 797.38,-88.22 805.25,-68 810.17,-55.36 817.99,-42.2 824.41,-32.41"/>
<polygon fill="#63b8ff" stroke="#63b8ff" points="786.18,-129.87 788.21,-140.27 793.11,-130.88 786.18,-129.87"/>
</a>
</g>
</g>
<!-- Node10 -->
<g id="Node000010" class="node">
<title>Node10</title>
<g id="a_Node000010"><a xlink:href="libc_2decision__boundary_8h.html" target="_top" xlink:title="The decision boundary header file to calculate the intersection of two normal distributions.">
<polygon fill="white" stroke="#666666" points="956.62,-100 813.88,-100 813.88,-68 956.62,-68 956.62,-100"/>
<text text-anchor="start" x="821.88" y="-86.5" font-family="Helvetica,sans-Serif" font-size="10.00">E:/GitHub/PRML_Code</text>
<text text-anchor="middle" x="885.25" y="-74.5" font-family="Helvetica,sans-Serif" font-size="10.00">/src/libc/decision_boundary.h</text>
</a>
</g>
</g>
<!-- Node8&#45;&gt;Node10 -->
<g id="edge9_Node000008_Node000010" class="edge">
<title>Node8&#45;&gt;Node10</title>
<g id="a_edge9_Node000008_Node000010"><a xlink:title=" ">
<path fill="none" stroke="#63b8ff" d="M816.36,-135.1C831.73,-123.92 850.06,-110.59 863.94,-100.5"/>
<polygon fill="#63b8ff" stroke="#63b8ff" points="814.5,-132.13 808.47,-140.84 818.62,-137.79 814.5,-132.13"/>
</a>
</g>
</g>
<!-- Node10&#45;&gt;Node9 -->
<g id="edge10_Node000010_Node000009" class="edge">
<title>Node10&#45;&gt;Node9</title>
<g id="a_edge10_Node000010_Node000009"><a xlink:title=" ">
<path fill="none" stroke="#63b8ff" d="M866.76,-58.59C860.06,-49.75 852.71,-40.04 846.78,-32.22"/>
<polygon fill="#63b8ff" stroke="#63b8ff" points="863.91,-60.63 872.74,-66.49 869.49,-56.4 863.91,-60.63"/>
</a>
</g>
</g>
</g>
</svg>
