<?xml version="1.0" encoding="UTF-8" standalone="no"?>
<!DOCTYPE svg PUBLIC "-//W3C//DTD SVG 1.1//EN"
 "http://www.w3.org/Graphics/SVG/1.1/DTD/svg11.dtd">
<!-- Generated by graphviz version 9.0.0 (20230911.1827)
 -->
<!-- Title: E:/GitHub/PRML_Code/src/hw2/lib/output_csv.c Pages: 1 -->
<svg width="394pt" height="208pt"
 viewBox="0.00 0.00 394.38 208.00" xmlns="http://www.w3.org/2000/svg" xmlns:xlink="http://www.w3.org/1999/xlink">
<g id="graph0" class="graph" transform="scale(1 1) rotate(0) translate(4 204)">
<title>E:/GitHub/PRML_Code/src/hw2/lib/output_csv.c</title>
<!-- Node1 -->
<g id="Node000001" class="node">
<title>Node1</title>
<g id="a_Node000001"><a xlink:title=" ">
<polygon fill="#999999" stroke="#666666" points="254.25,-200 131,-200 131,-168 254.25,-168 254.25,-200"/>
<text text-anchor="start" x="139" y="-186.5" font-family="Helvetica,sans-Serif" font-size="10.00">E:/GitHub/PRML_Code</text>
<text text-anchor="middle" x="192.62" y="-174.5" font-family="Helvetica,sans-Serif" font-size="10.00">/src/hw2/lib/output_csv.c</text>
</a>
</g>
</g>
<!-- Node2 -->
<g id="Node000002" class="node">
<title>Node2</title>
<g id="a_Node000002"><a xlink:title=" ">
<polygon fill="#e0e0e0" stroke="#999999" points="45.25,-132 0,-132 0,-112 45.25,-112 45.25,-132"/>
<text text-anchor="middle" x="22.62" y="-118.5" font-family="Helvetica,sans-Serif" font-size="10.00">stdio.h</text>
</a>
</g>
</g>
<!-- Node1&#45;&gt;Node2 -->
<g id="edge1_Node000001_Node000002" class="edge">
<title>Node1&#45;&gt;Node2</title>
<g id="a_edge1_Node000001_Node000002"><a xlink:title=" ">
<path fill="none" stroke="#63b8ff" d="M148.85,-167.55C119.92,-157.34 82.6,-144.17 56.06,-134.8"/>
<polygon fill="#63b8ff" stroke="#63b8ff" points="57.42,-131.57 46.82,-131.54 55.09,-138.17 57.42,-131.57"/>
</a>
</g>
</g>
<!-- Node3 -->
<g id="Node000003" class="node">
<title>Node3</title>
<g id="a_Node000003"><a xlink:title=" ">
<polygon fill="#e0e0e0" stroke="#999999" points="110.38,-132 62.88,-132 62.88,-112 110.38,-112 110.38,-132"/>
<text text-anchor="middle" x="86.62" y="-118.5" font-family="Helvetica,sans-Serif" font-size="10.00">stdlib.h</text>
</a>
</g>
</g>
<!-- Node1&#45;&gt;Node3 -->
<g id="edge2_Node000001_Node000003" class="edge">
<title>Node1&#45;&gt;Node3</title>
<g id="a_edge2_Node000001_Node000003"><a xlink:title=" ">
<path fill="none" stroke="#63b8ff" d="M165.33,-167.55C149.23,-158.43 128.95,-146.96 113.01,-137.93"/>
<polygon fill="#63b8ff" stroke="#63b8ff" points="114.99,-135.03 104.56,-133.15 111.54,-141.13 114.99,-135.03"/>
</a>
</g>
</g>
<!-- Node4 -->
<g id="Node000004" class="node">
<title>Node4</title>
<g id="a_Node000004"><a xlink:href="hw2_2lib_2data__proc_8h.html" target="_top" xlink:title="Data processing functions for hw2.">
<polygon fill="white" stroke="#666666" points="195.12,-132 128.12,-132 128.12,-112 195.12,-112 195.12,-132"/>
<text text-anchor="middle" x="161.62" y="-118.5" font-family="Helvetica,sans-Serif" font-size="10.00">data_proc.h</text>
</a>
</g>
</g>
<!-- Node1&#45;&gt;Node4 -->
<g id="edge3_Node000001_Node000004" class="edge">
<title>Node1&#45;&gt;Node4</title>
<g id="a_edge3_Node000001_Node000004"><a xlink:title=" ">
<path fill="none" stroke="#63b8ff" d="M184.64,-167.55C180.7,-159.91 175.89,-150.61 171.69,-142.49"/>
<polygon fill="#63b8ff" stroke="#63b8ff" points="174.88,-141.03 167.18,-133.75 168.66,-144.24 174.88,-141.03"/>
</a>
</g>
</g>
<!-- Node5 -->
<g id="Node000005" class="node">
<title>Node5</title>
<g id="a_Node000005"><a xlink:href="hw2_2lib_2normal__distribution_8h.html" target="_top" xlink:title="Normal distribution functions.">
<polygon fill="white" stroke="#666666" points="357.62,-76 251.62,-76 251.62,-56 357.62,-56 357.62,-76"/>
<text text-anchor="middle" x="304.62" y="-62.5" font-family="Helvetica,sans-Serif" font-size="10.00">normal_distribution.h</text>
</a>
</g>
</g>
<!-- Node1&#45;&gt;Node5 -->
<g id="edge4_Node000001_Node000005" class="edge">
<title>Node1&#45;&gt;Node5</title>
<g id="a_edge4_Node000001_Node000005"><a xlink:title=" ">
<path fill="none" stroke="#63b8ff" d="M201.3,-167.78C210.39,-152.62 225.69,-129.18 242.62,-112 253.57,-100.9 267.48,-90.53 279.36,-82.55"/>
<polygon fill="#63b8ff" stroke="#63b8ff" points="281,-85.66 287.47,-77.27 277.18,-79.79 281,-85.66"/>
</a>
</g>
</g>
<!-- Node6 -->
<g id="Node000006" class="node">
<title>Node6</title>
<g id="a_Node000006"><a xlink:href="hw2_2lib_2output__format_8h.html" target="_top" xlink:title="Output format struct for color printing (charactors)">
<polygon fill="white" stroke="#666666" points="386.38,-20 302.88,-20 302.88,0 386.38,0 386.38,-20"/>
<text text-anchor="middle" x="344.62" y="-6.5" font-family="Helvetica,sans-Serif" font-size="10.00">output_format.h</text>
</a>
</g>
</g>
<!-- Node1&#45;&gt;Node6 -->
<g id="edge6_Node000001_Node000006" class="edge">
<title>Node1&#45;&gt;Node6</title>
<g id="a_edge6_Node000001_Node000006"><a xlink:title=" ">
<path fill="none" stroke="#63b8ff" d="M254.68,-172.85C298.94,-164.2 352.94,-150.27 366.62,-132 389.25,-101.79 370.14,-55.62 356.15,-29.92"/>
<polygon fill="#63b8ff" stroke="#63b8ff" points="359.37,-28.51 351.35,-21.58 353.3,-32 359.37,-28.51"/>
</a>
</g>
</g>
<!-- Node7 -->
<g id="Node000007" class="node">
<title>Node7</title>
<g id="a_Node000007"><a xlink:href="hw2_2lib_2decision__boundary_8h.html" target="_top" xlink:title="Decision boundary functions.">
<polygon fill="white" stroke="#666666" points="357.25,-132 252,-132 252,-112 357.25,-112 357.25,-132"/>
<text text-anchor="middle" x="304.62" y="-118.5" font-family="Helvetica,sans-Serif" font-size="10.00">decision_boundary.h</text>
</a>
</g>
</g>
<!-- Node1&#45;&gt;Node7 -->
<g id="edge7_Node000001_Node000007" class="edge">
<title>Node1&#45;&gt;Node7</title>
<g id="a_edge7_Node000001_Node000007"><a xlink:title=" ">
<path fill="none" stroke="#63b8ff" d="M221.47,-167.55C238.64,-158.35 260.32,-146.74 277.23,-137.68"/>
<polygon fill="#63b8ff" stroke="#63b8ff" points="278.57,-140.93 285.73,-133.12 275.26,-134.76 278.57,-140.93"/>
</a>
</g>
</g>
<!-- Node5&#45;&gt;Node6 -->
<g id="edge5_Node000005_Node000006" class="edge">
<title>Node5&#45;&gt;Node6</title>
<g id="a_edge5_Node000005_Node000006"><a xlink:title=" ">
<path fill="none" stroke="#63b8ff" d="M311.59,-55.59C316.93,-48.39 324.45,-38.23 330.97,-29.43"/>
<polygon fill="#63b8ff" stroke="#63b8ff" points="333.7,-31.63 336.84,-21.51 328.07,-27.47 333.7,-31.63"/>
</a>
</g>
</g>
<!-- Node7&#45;&gt;Node5 -->
<g id="edge8_Node000007_Node000005" class="edge">
<title>Node7&#45;&gt;Node5</title>
<g id="a_edge8_Node000007_Node000005"><a xlink:title=" ">
<path fill="none" stroke="#63b8ff" d="M304.62,-111.59C304.62,-105.01 304.62,-95.96 304.62,-87.73"/>
<polygon fill="#63b8ff" stroke="#63b8ff" points="308.13,-87.81 304.63,-77.81 301.13,-87.81 308.13,-87.81"/>
</a>
</g>
</g>
</g>
</svg>
