<?xml version="1.0" encoding="UTF-8" standalone="no"?>
<!DOCTYPE svg PUBLIC "-//W3C//DTD SVG 1.1//EN"
 "http://www.w3.org/Graphics/SVG/1.1/DTD/svg11.dtd">
<!-- Generated by graphviz version 9.0.0 (20230911.1827)
 -->
<!-- Title: E:/GitHub/PRML_Code/src/hw4/lib/plot_iter.c Pages: 1 -->
<svg width="371pt" height="264pt"
 viewBox="0.00 0.00 371.38 264.00" xmlns="http://www.w3.org/2000/svg" xmlns:xlink="http://www.w3.org/1999/xlink">
<g id="graph0" class="graph" transform="scale(1 1) rotate(0) translate(4 260)">
<title>E:/GitHub/PRML_Code/src/hw4/lib/plot_iter.c</title>
<!-- Node1 -->
<g id="Node000001" class="node">
<title>Node1</title>
<g id="a_Node000001"><a xlink:title=" ">
<polygon fill="#999999" stroke="#666666" points="192.88,-256 76.38,-256 76.38,-224 192.88,-224 192.88,-256"/>
<text text-anchor="start" x="84.38" y="-242.5" font-family="Helvetica,sans-Serif" font-size="10.00">E:/GitHub/PRML_Code</text>
<text text-anchor="middle" x="134.62" y="-230.5" font-family="Helvetica,sans-Serif" font-size="10.00">/src/hw4/lib/plot_iter.c</text>
</a>
</g>
</g>
<!-- Node2 -->
<g id="Node000002" class="node">
<title>Node2</title>
<g id="a_Node000002"><a xlink:title=" ">
<polygon fill="#e0e0e0" stroke="#999999" points="45.25,-20 0,-20 0,0 45.25,0 45.25,-20"/>
<text text-anchor="middle" x="22.62" y="-6.5" font-family="Helvetica,sans-Serif" font-size="10.00">stdio.h</text>
</a>
</g>
</g>
<!-- Node1&#45;&gt;Node2 -->
<g id="edge1_Node000001_Node000002" class="edge">
<title>Node1&#45;&gt;Node2</title>
<g id="a_edge1_Node000001_Node000002"><a xlink:title=" ">
<path fill="none" stroke="#63b8ff" d="M100.39,-223.57C83.28,-214.76 63,-202.57 47.62,-188 25.97,-167.48 19.21,-160.57 10.62,-132 0.28,-97.58 9,-55.43 16,-31.05"/>
<polygon fill="#63b8ff" stroke="#63b8ff" points="19.26,-32.37 18.86,-21.79 12.57,-30.31 19.26,-32.37"/>
</a>
</g>
</g>
<!-- Node3 -->
<g id="Node000003" class="node">
<title>Node3</title>
<g id="a_Node000003"><a xlink:title=" ">
<polygon fill="#e0e0e0" stroke="#999999" points="251.38,-20 203.88,-20 203.88,0 251.38,0 251.38,-20"/>
<text text-anchor="middle" x="227.62" y="-6.5" font-family="Helvetica,sans-Serif" font-size="10.00">stdlib.h</text>
</a>
</g>
</g>
<!-- Node1&#45;&gt;Node3 -->
<g id="edge2_Node000001_Node000003" class="edge">
<title>Node1&#45;&gt;Node3</title>
<g id="a_edge2_Node000001_Node000003"><a xlink:title=" ">
<path fill="none" stroke="#63b8ff" d="M140.87,-223.69C157.21,-183.63 201.21,-75.75 219.49,-30.94"/>
<polygon fill="#63b8ff" stroke="#63b8ff" points="222.72,-32.29 223.26,-21.71 216.24,-29.64 222.72,-32.29"/>
</a>
</g>
</g>
<!-- Node4 -->
<g id="Node000004" class="node">
<title>Node4</title>
<g id="a_Node000004"><a xlink:href="plot__iter_8h.html" target="_top" xlink:title="Create a gnuplot drawing API for iter.h.">
<polygon fill="white" stroke="#666666" points="131,-188 72.25,-188 72.25,-168 131,-168 131,-188"/>
<text text-anchor="middle" x="101.62" y="-174.5" font-family="Helvetica,sans-Serif" font-size="10.00">plot_iter.h</text>
</a>
</g>
</g>
<!-- Node1&#45;&gt;Node4 -->
<g id="edge3_Node000001_Node000004" class="edge">
<title>Node1&#45;&gt;Node4</title>
<g id="a_edge3_Node000001_Node000004"><a xlink:title=" ">
<path fill="none" stroke="#63b8ff" d="M126.13,-223.55C121.93,-215.91 116.81,-206.61 112.34,-198.49"/>
<polygon fill="#63b8ff" stroke="#63b8ff" points="115.41,-196.81 107.53,-189.73 109.28,-200.18 115.41,-196.81"/>
</a>
</g>
</g>
<!-- Node5 -->
<g id="Node000005" class="node">
<title>Node5</title>
<g id="a_Node000005"><a xlink:href="config__read_8h.html" target="_top" xlink:title=" ">
<polygon fill="white" stroke="#666666" points="187.5,-76 113.75,-76 113.75,-56 187.5,-56 187.5,-76"/>
<text text-anchor="middle" x="150.62" y="-62.5" font-family="Helvetica,sans-Serif" font-size="10.00">config_read.h</text>
</a>
</g>
</g>
<!-- Node1&#45;&gt;Node5 -->
<g id="edge13_Node000001_Node000005" class="edge">
<title>Node1&#45;&gt;Node5</title>
<g id="a_edge13_Node000001_Node000005"><a xlink:title=" ">
<path fill="none" stroke="#63b8ff" d="M136.14,-223.83C137.15,-213.69 138.49,-200.05 139.62,-188 142.95,-152.75 146.65,-111.71 148.79,-87.63"/>
<polygon fill="#63b8ff" stroke="#63b8ff" points="152.26,-88.19 149.66,-77.92 145.29,-87.57 152.26,-88.19"/>
</a>
</g>
</g>
<!-- Node8 -->
<g id="Node000008" class="node">
<title>Node8</title>
<g id="a_Node000008"><a xlink:href="iter_8h.html" target="_top" xlink:title="Iterate through points and fine the point closest to the intersection of lines.">
<polygon fill="white" stroke="#666666" points="57.5,-132 19.75,-132 19.75,-112 57.5,-112 57.5,-132"/>
<text text-anchor="middle" x="38.62" y="-118.5" font-family="Helvetica,sans-Serif" font-size="10.00">iter.h</text>
</a>
</g>
</g>
<!-- Node1&#45;&gt;Node8 -->
<g id="edge14_Node000001_Node000008" class="edge">
<title>Node1&#45;&gt;Node8</title>
<g id="a_edge14_Node000001_Node000008"><a xlink:title=" ">
<path fill="none" stroke="#63b8ff" d="M105.58,-223.54C91.32,-214.72 74.85,-202.54 63.62,-188 53.44,-174.81 46.98,-156.99 43.18,-143.34"/>
<polygon fill="#63b8ff" stroke="#63b8ff" points="46.59,-142.56 40.78,-133.7 39.8,-144.25 46.59,-142.56"/>
</a>
</g>
</g>
<!-- Node9 -->
<g id="Node000009" class="node">
<title>Node9</title>
<g id="a_Node000009"><a xlink:href="libc_2output__format_8h.html" target="_top" xlink:title="Output format struct for color printing (charactors)">
<polygon fill="white" stroke="#666666" points="363.38,-188 243.88,-188 243.88,-168 363.38,-168 363.38,-188"/>
<text text-anchor="middle" x="303.62" y="-174.5" font-family="Helvetica,sans-Serif" font-size="10.00">../../libc/output_format.h</text>
</a>
</g>
</g>
<!-- Node1&#45;&gt;Node9 -->
<g id="edge15_Node000001_Node000009" class="edge">
<title>Node1&#45;&gt;Node9</title>
<g id="a_edge15_Node000001_Node000009"><a xlink:title=" ">
<path fill="none" stroke="#63b8ff" d="M178.15,-223.55C205.45,-213.86 240.27,-201.49 266.31,-192.25"/>
<polygon fill="#63b8ff" stroke="#63b8ff" points="267.2,-195.65 275.45,-189 264.86,-189.05 267.2,-195.65"/>
</a>
</g>
</g>
<!-- Node4&#45;&gt;Node2 -->
<g id="edge4_Node000004_Node000002" class="edge">
<title>Node4&#45;&gt;Node2</title>
<g id="a_edge4_Node000004_Node000002"><a xlink:title=" ">
<path fill="none" stroke="#63b8ff" d="M97.24,-167.56C87.74,-147.17 64.52,-97.45 44.62,-56 40.58,-47.58 36.06,-38.31 32.17,-30.38"/>
<polygon fill="#63b8ff" stroke="#63b8ff" points="35.44,-29.08 27.88,-21.65 29.15,-32.17 35.44,-29.08"/>
</a>
</g>
</g>
<!-- Node4&#45;&gt;Node5 -->
<g id="edge5_Node000004_Node000005" class="edge">
<title>Node4&#45;&gt;Node5</title>
<g id="a_edge5_Node000004_Node000005"><a xlink:title=" ">
<path fill="none" stroke="#63b8ff" d="M105.8,-167.62C113.76,-149.76 131.24,-110.53 141.86,-86.67"/>
<polygon fill="#63b8ff" stroke="#63b8ff" points="144.97,-88.3 145.84,-77.74 138.58,-85.45 144.97,-88.3"/>
</a>
</g>
</g>
<!-- Node4&#45;&gt;Node8 -->
<g id="edge10_Node000004_Node000008" class="edge">
<title>Node4&#45;&gt;Node8</title>
<g id="a_edge10_Node000004_Node000008"><a xlink:title=" ">
<path fill="none" stroke="#63b8ff" d="M90.65,-167.59C81.71,-159.93 68.85,-148.91 58.16,-139.75"/>
<polygon fill="#63b8ff" stroke="#63b8ff" points="60.49,-137.13 50.62,-133.28 55.94,-142.45 60.49,-137.13"/>
</a>
</g>
</g>
<!-- Node5&#45;&gt;Node2 -->
<g id="edge6_Node000005_Node000002" class="edge">
<title>Node5&#45;&gt;Node2</title>
<g id="a_edge6_Node000005_Node000002"><a xlink:title=" ">
<path fill="none" stroke="#63b8ff" d="M128.33,-55.59C108.26,-47.13 78.51,-34.58 55.67,-24.94"/>
<polygon fill="#63b8ff" stroke="#63b8ff" points="57.06,-21.73 46.49,-21.07 54.34,-28.18 57.06,-21.73"/>
</a>
</g>
</g>
<!-- Node5&#45;&gt;Node3 -->
<g id="edge7_Node000005_Node000003" class="edge">
<title>Node5&#45;&gt;Node3</title>
<g id="a_edge7_Node000005_Node000003"><a xlink:title=" ">
<path fill="none" stroke="#63b8ff" d="M164.04,-55.59C175.23,-47.74 191.44,-36.38 204.68,-27.09"/>
<polygon fill="#63b8ff" stroke="#63b8ff" points="206.69,-29.96 212.87,-21.35 202.67,-24.22 206.69,-29.96"/>
</a>
</g>
</g>
<!-- Node6 -->
<g id="Node000006" class="node">
<title>Node6</title>
<g id="a_Node000006"><a xlink:title=" ">
<polygon fill="#e0e0e0" stroke="#999999" points="119.5,-20 63.75,-20 63.75,0 119.5,0 119.5,-20"/>
<text text-anchor="middle" x="91.62" y="-6.5" font-family="Helvetica,sans-Serif" font-size="10.00">stdbool.h</text>
</a>
</g>
</g>
<!-- Node5&#45;&gt;Node6 -->
<g id="edge8_Node000005_Node000006" class="edge">
<title>Node5&#45;&gt;Node6</title>
<g id="a_edge8_Node000005_Node000006"><a xlink:title=" ">
<path fill="none" stroke="#63b8ff" d="M140.35,-55.59C132.06,-48.01 120.18,-37.13 110.22,-28.02"/>
<polygon fill="#63b8ff" stroke="#63b8ff" points="112.64,-25.49 102.9,-21.32 107.91,-30.65 112.64,-25.49"/>
</a>
</g>
</g>
<!-- Node7 -->
<g id="Node000007" class="node">
<title>Node7</title>
<g id="a_Node000007"><a xlink:title=" ">
<polygon fill="#e0e0e0" stroke="#999999" points="185.75,-20 137.5,-20 137.5,0 185.75,0 185.75,-20"/>
<text text-anchor="middle" x="161.62" y="-6.5" font-family="Helvetica,sans-Serif" font-size="10.00">string.h</text>
</a>
</g>
</g>
<!-- Node5&#45;&gt;Node7 -->
<g id="edge9_Node000005_Node000007" class="edge">
<title>Node5&#45;&gt;Node7</title>
<g id="a_edge9_Node000005_Node000007"><a xlink:title=" ">
<path fill="none" stroke="#63b8ff" d="M152.54,-55.59C153.9,-48.93 155.77,-39.75 157.46,-31.44"/>
<polygon fill="#63b8ff" stroke="#63b8ff" points="160.86,-32.28 159.43,-21.78 154,-30.88 160.86,-32.28"/>
</a>
</g>
</g>
<!-- Node8&#45;&gt;Node2 -->
<g id="edge11_Node000008_Node000002" class="edge">
<title>Node8&#45;&gt;Node2</title>
<g id="a_edge11_Node000008_Node000002"><a xlink:title=" ">
<path fill="none" stroke="#63b8ff" d="M37.26,-111.62C34.7,-94.01 29.11,-55.59 25.63,-31.65"/>
<polygon fill="#63b8ff" stroke="#63b8ff" points="29.11,-31.24 24.2,-21.85 22.18,-32.25 29.11,-31.24"/>
</a>
</g>
</g>
<!-- Node8&#45;&gt;Node5 -->
<g id="edge12_Node000008_Node000005" class="edge">
<title>Node8&#45;&gt;Node5</title>
<g id="a_edge12_Node000008_Node000005"><a xlink:title=" ">
<path fill="none" stroke="#63b8ff" d="M57.88,-111.72C75.27,-103.33 101.12,-90.87 121.12,-81.23"/>
<polygon fill="#63b8ff" stroke="#63b8ff" points="122.4,-84.5 129.88,-77 119.36,-78.19 122.4,-84.5"/>
</a>
</g>
</g>
</g>
</svg>
