<?xml version="1.0" encoding="UTF-8" standalone="no"?>
<!DOCTYPE svg PUBLIC "-//W3C//DTD SVG 1.1//EN"
 "http://www.w3.org/Graphics/SVG/1.1/DTD/svg11.dtd">
<!-- Generated by graphviz version 9.0.0 (20230911.1827)
 -->
<!-- Title: E:/GitHub/PRML_Code/src/hw4/lib/plot_iter.c Pages: 1 -->
<svg width="390pt" height="264pt"
 viewBox="0.00 0.00 389.70 264.00" xmlns="http://www.w3.org/2000/svg" xmlns:xlink="http://www.w3.org/1999/xlink">

<svg id="main" version="1.1" xmlns="http://www.w3.org/2000/svg" xmlns:xlink="http://www.w3.org/1999/xlink" xml:space="preserve" onload="init(evt)">
<style type="text/css"><![CDATA[
.node, .edge {opacity: 0.7;}
.node.selected, .edge.selected {opacity: 1;}
.edge:hover path { stroke: red; }
.edge:hover polygon { stroke: red; fill: red; }
]]></style>
<script type="application/ecmascript" xlink:href="svg.min.js"/>
<svg id="graph" class="graph">
<g id="graph0" class="graph" transform="scale(1 1) rotate(0) translate(4 260)">
<title>E:/GitHub/PRML_Code/src/hw4/lib/plot_iter.c</title>
<!-- Node1 -->
<g id="Node000001" class="node">
<title>Node1</title>
<g id="a_Node000001"><a xlink:title=" ">
<polygon fill="#999999" stroke="#666666" points="184.2,-256 67.7,-256 67.7,-224 184.2,-224 184.2,-256"/>
<text text-anchor="start" x="75.7" y="-242.5" font-family="Helvetica,sans-Serif" font-size="10.00">E:/GitHub/PRML_Code</text>
<text text-anchor="middle" x="125.95" y="-230.5" font-family="Helvetica,sans-Serif" font-size="10.00">/src/hw4/lib/plot_iter.c</text>
</a>
</g>
</g>
<!-- Node2 -->
<g id="Node000002" class="node">
<title>Node2</title>
<g id="a_Node000002"><a xlink:title=" ">
<polygon fill="#e0e0e0" stroke="#999999" points="50.57,-20 5.32,-20 5.32,0 50.57,0 50.57,-20"/>
<text text-anchor="middle" x="27.95" y="-6.5" font-family="Helvetica,sans-Serif" font-size="10.00">stdio.h</text>
</a>
</g>
</g>
<!-- Node1&#45;&gt;Node2 -->
<g id="edge1_Node000001_Node000002" class="edge">
<title>Node1&#45;&gt;Node2</title>
<g id="a_edge1_Node000001_Node000002"><a xlink:title=" ">
<path fill="none" stroke="#63b8ff" d="M93.63,-223.61C62.28,-206.44 17.53,-175.28 3.95,-132 -7.02,-97.06 7.38,-54.8 18.14,-30.6"/>
<polygon fill="#63b8ff" stroke="#63b8ff" points="21.26,-32.18 22.36,-21.65 14.93,-29.2 21.26,-32.18"/>
</a>
</g>
</g>
<!-- Node3 -->
<g id="Node000003" class="node">
<title>Node3</title>
<g id="a_Node000003"><a xlink:title=" ">
<polygon fill="#e0e0e0" stroke="#999999" points="256.7,-20 209.2,-20 209.2,0 256.7,0 256.7,-20"/>
<text text-anchor="middle" x="232.95" y="-6.5" font-family="Helvetica,sans-Serif" font-size="10.00">stdlib.h</text>
</a>
</g>
</g>
<!-- Node1&#45;&gt;Node3 -->
<g id="edge2_Node000001_Node000003" class="edge">
<title>Node1&#45;&gt;Node3</title>
<g id="a_edge2_Node000001_Node000003"><a xlink:title=" ">
<path fill="none" stroke="#63b8ff" d="M133.21,-223.74C146.92,-194.91 177.52,-130.45 202.95,-76 210.03,-60.83 217.97,-43.62 223.9,-30.72"/>
<polygon fill="#63b8ff" stroke="#63b8ff" points="227.08,-32.19 228.07,-21.64 220.72,-29.27 227.08,-32.19"/>
</a>
</g>
</g>
<!-- Node4 -->
<g id="Node000004" class="node">
<title>Node4</title>
<g id="a_Node000004"><a xlink:href="plot__iter_8h.html" target="_top" xlink:title="Create a gnuplot drawing API for iter.h.">
<polygon fill="white" stroke="#666666" points="127.32,-188 68.57,-188 68.57,-168 127.32,-168 127.32,-188"/>
<text text-anchor="middle" x="97.95" y="-174.5" font-family="Helvetica,sans-Serif" font-size="10.00">plot_iter.h</text>
</a>
</g>
</g>
<!-- Node1&#45;&gt;Node4 -->
<g id="edge3_Node000001_Node000004" class="edge">
<title>Node1&#45;&gt;Node4</title>
<g id="a_edge3_Node000001_Node000004"><a xlink:title=" ">
<path fill="none" stroke="#63b8ff" d="M118.74,-223.55C115.21,-216 110.93,-206.82 107.17,-198.77"/>
<polygon fill="#63b8ff" stroke="#63b8ff" points="110.38,-197.36 102.98,-189.78 104.04,-200.32 110.38,-197.36"/>
</a>
</g>
</g>
<!-- Node5 -->
<g id="Node000005" class="node">
<title>Node5</title>
<g id="a_Node000005"><a xlink:href="config__read_8h.html" target="_top" xlink:title=" ">
<polygon fill="white" stroke="#666666" points="167.82,-76 94.07,-76 94.07,-56 167.82,-56 167.82,-76"/>
<text text-anchor="middle" x="130.95" y="-62.5" font-family="Helvetica,sans-Serif" font-size="10.00">config_read.h</text>
</a>
</g>
</g>
<!-- Node1&#45;&gt;Node5 -->
<g id="edge14_Node000001_Node000005" class="edge">
<title>Node1&#45;&gt;Node5</title>
<g id="a_edge14_Node000001_Node000005"><a xlink:title=" ">
<path fill="none" stroke="#63b8ff" d="M129.7,-223.94C132.01,-213.84 134.76,-200.21 135.95,-188 139.36,-152.88 136.15,-111.8 133.53,-87.67"/>
<polygon fill="#63b8ff" stroke="#63b8ff" points="137.03,-87.47 132.4,-77.94 130.08,-88.28 137.03,-87.47"/>
</a>
</g>
</g>
<!-- Node8 -->
<g id="Node000008" class="node">
<title>Node8</title>
<g id="a_Node000008"><a xlink:href="iter_8h.html" target="_top" xlink:title="Iterate through points and fine the point closest to the intersection of lines.">
<polygon fill="white" stroke="#666666" points="50.82,-132 13.07,-132 13.07,-112 50.82,-112 50.82,-132"/>
<text text-anchor="middle" x="31.95" y="-118.5" font-family="Helvetica,sans-Serif" font-size="10.00">iter.h</text>
</a>
</g>
</g>
<!-- Node1&#45;&gt;Node8 -->
<g id="edge15_Node000001_Node000008" class="edge">
<title>Node1&#45;&gt;Node8</title>
<g id="a_edge15_Node000001_Node000008"><a xlink:title=" ">
<path fill="none" stroke="#63b8ff" d="M100.18,-223.62C86.78,-214.6 70.96,-202.19 59.95,-188 49.46,-174.48 42.1,-156.45 37.57,-142.8"/>
<polygon fill="#63b8ff" stroke="#63b8ff" points="41.03,-142.14 34.75,-133.61 34.33,-144.2 41.03,-142.14"/>
</a>
</g>
</g>
<!-- Node9 -->
<g id="Node000009" class="node">
<title>Node9</title>
<g id="a_Node000009"><a xlink:href="libc_2output__format_8h.html" target="_top" xlink:title="Output format struct for color printing (charactors)">
<polygon fill="white" stroke="#666666" points="381.7,-188 262.2,-188 262.2,-168 381.7,-168 381.7,-188"/>
<text text-anchor="middle" x="321.95" y="-174.5" font-family="Helvetica,sans-Serif" font-size="10.00">../../libc/output_format.h</text>
</a>
</g>
</g>
<!-- Node1&#45;&gt;Node9 -->
<g id="edge16_Node000001_Node000009" class="edge">
<title>Node1&#45;&gt;Node9</title>
<g id="a_edge16_Node000001_Node000009"><a xlink:title=" ">
<path fill="none" stroke="#63b8ff" d="M176.42,-223.55C208.65,-213.68 249.92,-201.05 280.27,-191.76"/>
<polygon fill="#63b8ff" stroke="#63b8ff" points="280.94,-195.21 289.48,-188.94 278.89,-188.52 280.94,-195.21"/>
</a>
</g>
</g>
<!-- Node4&#45;&gt;Node2 -->
<g id="edge4_Node000004_Node000002" class="edge">
<title>Node4&#45;&gt;Node2</title>
<g id="a_edge4_Node000004_Node000002"><a xlink:title=" ">
<path fill="none" stroke="#63b8ff" d="M93.98,-167.6C82.91,-141.35 51.49,-66.84 36.33,-30.89"/>
<polygon fill="#63b8ff" stroke="#63b8ff" points="39.57,-29.55 32.46,-21.69 33.12,-32.27 39.57,-29.55"/>
</a>
</g>
</g>
<!-- Node4&#45;&gt;Node3 -->
<g id="edge5_Node000004_Node000003" class="edge">
<title>Node4&#45;&gt;Node3</title>
<g id="a_edge5_Node000004_Node000003"><a xlink:title=" ">
<path fill="none" stroke="#63b8ff" d="M105.59,-167.6C127.31,-140.89 189.66,-64.23 218.27,-29.05"/>
<polygon fill="#63b8ff" stroke="#63b8ff" points="220.84,-31.44 224.43,-21.47 215.41,-27.02 220.84,-31.44"/>
</a>
</g>
</g>
<!-- Node4&#45;&gt;Node5 -->
<g id="edge6_Node000004_Node000005" class="edge">
<title>Node4&#45;&gt;Node5</title>
<g id="a_edge6_Node000004_Node000005"><a xlink:title=" ">
<path fill="none" stroke="#63b8ff" d="M100.76,-167.62C106.07,-149.92 117.68,-111.24 124.85,-87.32"/>
<polygon fill="#63b8ff" stroke="#63b8ff" points="128.19,-88.39 127.71,-77.8 121.48,-86.38 128.19,-88.39"/>
</a>
</g>
</g>
<!-- Node4&#45;&gt;Node8 -->
<g id="edge11_Node000004_Node000008" class="edge">
<title>Node4&#45;&gt;Node8</title>
<g id="a_edge11_Node000004_Node000008"><a xlink:title=" ">
<path fill="none" stroke="#63b8ff" d="M86.45,-167.59C76.99,-159.85 63.34,-148.69 52.08,-139.47"/>
<polygon fill="#63b8ff" stroke="#63b8ff" points="54.44,-136.88 44.48,-133.26 50.01,-142.3 54.44,-136.88"/>
</a>
</g>
</g>
<!-- Node5&#45;&gt;Node2 -->
<g id="edge7_Node000005_Node000002" class="edge">
<title>Node5&#45;&gt;Node2</title>
<g id="a_edge7_Node000005_Node000002"><a xlink:title=" ">
<path fill="none" stroke="#63b8ff" d="M113.01,-55.59C97.3,-47.36 74.22,-35.26 56.06,-25.74"/>
<polygon fill="#63b8ff" stroke="#63b8ff" points="57.85,-22.73 47.37,-21.18 54.6,-28.93 57.85,-22.73"/>
</a>
</g>
</g>
<!-- Node5&#45;&gt;Node3 -->
<g id="edge8_Node000005_Node000003" class="edge">
<title>Node5&#45;&gt;Node3</title>
<g id="a_edge8_Node000005_Node000003"><a xlink:title=" ">
<path fill="none" stroke="#63b8ff" d="M148.72,-55.59C164.27,-47.36 187.13,-35.26 205.11,-25.74"/>
<polygon fill="#63b8ff" stroke="#63b8ff" points="206.5,-28.96 213.71,-21.19 203.23,-22.77 206.5,-28.96"/>
</a>
</g>
</g>
<!-- Node6 -->
<g id="Node000006" class="node">
<title>Node6</title>
<g id="a_Node000006"><a xlink:title=" ">
<polygon fill="#e0e0e0" stroke="#999999" points="190.82,-20 135.07,-20 135.07,0 190.82,0 190.82,-20"/>
<text text-anchor="middle" x="162.95" y="-6.5" font-family="Helvetica,sans-Serif" font-size="10.00">stdbool.h</text>
</a>
</g>
</g>
<!-- Node5&#45;&gt;Node6 -->
<g id="edge9_Node000005_Node000006" class="edge">
<title>Node5&#45;&gt;Node6</title>
<g id="a_edge9_Node000005_Node000006"><a xlink:title=" ">
<path fill="none" stroke="#63b8ff" d="M136.52,-55.59C140.7,-48.55 146.55,-38.67 151.69,-30"/>
<polygon fill="#63b8ff" stroke="#63b8ff" points="154.58,-31.99 156.67,-21.6 148.56,-28.42 154.58,-31.99"/>
</a>
</g>
</g>
<!-- Node7 -->
<g id="Node000007" class="node">
<title>Node7</title>
<g id="a_Node000007"><a xlink:title=" ">
<polygon fill="#e0e0e0" stroke="#999999" points="117.07,-20 68.82,-20 68.82,0 117.07,0 117.07,-20"/>
<text text-anchor="middle" x="92.95" y="-6.5" font-family="Helvetica,sans-Serif" font-size="10.00">string.h</text>
</a>
</g>
</g>
<!-- Node5&#45;&gt;Node7 -->
<g id="edge10_Node000005_Node000007" class="edge">
<title>Node5&#45;&gt;Node7</title>
<g id="a_edge10_Node000005_Node000007"><a xlink:title=" ">
<path fill="none" stroke="#63b8ff" d="M124.33,-55.59C119.26,-48.39 112.11,-38.23 105.92,-29.43"/>
<polygon fill="#63b8ff" stroke="#63b8ff" points="108.98,-27.7 100.36,-21.54 103.26,-31.73 108.98,-27.7"/>
</a>
</g>
</g>
<!-- Node8&#45;&gt;Node2 -->
<g id="edge12_Node000008_Node000002" class="edge">
<title>Node8&#45;&gt;Node2</title>
<g id="a_edge12_Node000008_Node000002"><a xlink:title=" ">
<path fill="none" stroke="#63b8ff" d="M31.61,-111.62C30.97,-94.01 29.57,-55.59 28.7,-31.65"/>
<polygon fill="#63b8ff" stroke="#63b8ff" points="32.2,-31.73 28.34,-21.87 25.21,-31.99 32.2,-31.73"/>
</a>
</g>
</g>
<!-- Node8&#45;&gt;Node5 -->
<g id="edge13_Node000008_Node000005" class="edge">
<title>Node8&#45;&gt;Node5</title>
<g id="a_edge13_Node000008_Node000005"><a xlink:title=" ">
<path fill="none" stroke="#63b8ff" d="M49.19,-111.59C64.29,-103.36 86.48,-91.26 103.93,-81.74"/>
<polygon fill="#63b8ff" stroke="#63b8ff" points="105.14,-85.07 112.24,-77.2 101.79,-78.92 105.14,-85.07"/>
</a>
</g>
</g>
</g>
</svg>
</svg>

<style type='text/css'>
<![CDATA[
[data-mouse-over-selected='false'] { opacity: 0.7; }
[data-mouse-over-selected='true']  { opacity: 1.0; }
]]>
</style>
<script type="application/ecmascript"><![CDATA[
document.addEventListener('DOMContentLoaded', (event) => {
  highlightEdges();
  highlightAdjacentNodes();
});
]]></script>
</svg>
