<?xml version="1.0" encoding="UTF-8" standalone="no"?>
<!DOCTYPE svg PUBLIC "-//W3C//DTD SVG 1.1//EN"
 "http://www.w3.org/Graphics/SVG/1.1/DTD/svg11.dtd">
<!-- Generated by graphviz version 9.0.0 (20230911.1827)
 -->
<!-- Title: E:/GitHub/PRML_Code/src/hw4/lib/plot_iter.h Pages: 1 -->
<svg width="262pt" height="208pt"
 viewBox="0.00 0.00 262.38 208.00" xmlns="http://www.w3.org/2000/svg" xmlns:xlink="http://www.w3.org/1999/xlink">
<g id="graph0" class="graph" transform="scale(1 1) rotate(0) translate(4 204)">
<title>E:/GitHub/PRML_Code/src/hw4/lib/plot_iter.h</title>
<!-- Node1 -->
<g id="Node000001" class="node">
<title>Node1</title>
<g id="a_Node000001"><a xlink:title="Create a gnuplot drawing API for iter.h.">
<polygon fill="#999999" stroke="#666666" points="116.5,-200 0,-200 0,-168 116.5,-168 116.5,-200"/>
<text text-anchor="start" x="8" y="-186.5" font-family="Helvetica,sans-Serif" font-size="10.00">E:/GitHub/PRML_Code</text>
<text text-anchor="middle" x="58.25" y="-174.5" font-family="Helvetica,sans-Serif" font-size="10.00">/src/hw4/lib/plot_iter.h</text>
</a>
</g>
</g>
<!-- Node2 -->
<g id="Node000002" class="node">
<title>Node2</title>
<g id="a_Node000002"><a xlink:title=" ">
<polygon fill="#e0e0e0" stroke="#999999" points="48.88,-20 3.62,-20 3.62,0 48.88,0 48.88,-20"/>
<text text-anchor="middle" x="26.25" y="-6.5" font-family="Helvetica,sans-Serif" font-size="10.00">stdio.h</text>
</a>
</g>
</g>
<!-- Node1&#45;&gt;Node2 -->
<g id="edge1_Node000001_Node000002" class="edge">
<title>Node1&#45;&gt;Node2</title>
<g id="a_edge1_Node000001_Node000002"><a xlink:title=" ">
<path fill="none" stroke="#63b8ff" d="M47.39,-167.75C41.11,-158.02 33.78,-144.86 30.25,-132 20.88,-97.81 22.12,-56.14 24.06,-31.69"/>
<polygon fill="#63b8ff" stroke="#63b8ff" points="27.53,-32.11 24.97,-21.83 20.56,-31.47 27.53,-32.11"/>
</a>
</g>
</g>
<!-- Node3 -->
<g id="Node000003" class="node">
<title>Node3</title>
<g id="a_Node000003"><a xlink:href="config__read_8h.html" target="_top" xlink:title=" ">
<polygon fill="white" stroke="#666666" points="147.12,-76 73.38,-76 73.38,-56 147.12,-56 147.12,-76"/>
<text text-anchor="middle" x="110.25" y="-62.5" font-family="Helvetica,sans-Serif" font-size="10.00">config_read.h</text>
</a>
</g>
</g>
<!-- Node1&#45;&gt;Node3 -->
<g id="edge2_Node000001_Node000003" class="edge">
<title>Node1&#45;&gt;Node3</title>
<g id="a_edge2_Node000001_Node000003"><a xlink:title=" ">
<path fill="none" stroke="#63b8ff" d="M67.44,-167.68C73.23,-157.71 80.63,-144.31 86.25,-132 92.98,-117.25 99.27,-100.02 103.73,-87.01"/>
<polygon fill="#63b8ff" stroke="#63b8ff" points="106.93,-88.46 106.78,-77.87 100.29,-86.24 106.93,-88.46"/>
</a>
</g>
</g>
<!-- Node7 -->
<g id="Node000007" class="node">
<title>Node7</title>
<g id="a_Node000007"><a xlink:href="iter_8h.html" target="_top" xlink:title="Iterate through points and fine the point closest to the intersection of lines.">
<polygon fill="white" stroke="#666666" points="77.12,-132 39.38,-132 39.38,-112 77.12,-112 77.12,-132"/>
<text text-anchor="middle" x="58.25" y="-118.5" font-family="Helvetica,sans-Serif" font-size="10.00">iter.h</text>
</a>
</g>
</g>
<!-- Node1&#45;&gt;Node7 -->
<g id="edge7_Node000001_Node000007" class="edge">
<title>Node1&#45;&gt;Node7</title>
<g id="a_edge7_Node000001_Node000007"><a xlink:title=" ">
<path fill="none" stroke="#63b8ff" d="M58.25,-167.55C58.25,-160.34 58.25,-151.66 58.25,-143.88"/>
<polygon fill="#63b8ff" stroke="#63b8ff" points="61.75,-143.92 58.25,-133.92 54.75,-143.92 61.75,-143.92"/>
</a>
</g>
</g>
<!-- Node3&#45;&gt;Node2 -->
<g id="edge3_Node000003_Node000002" class="edge">
<title>Node3&#45;&gt;Node2</title>
<g id="a_edge3_Node000003_Node000002"><a xlink:title=" ">
<path fill="none" stroke="#63b8ff" d="M95.62,-55.59C83.17,-47.59 65.03,-35.93 50.43,-26.54"/>
<polygon fill="#63b8ff" stroke="#63b8ff" points="52.57,-23.76 42.27,-21.3 48.79,-29.65 52.57,-23.76"/>
</a>
</g>
</g>
<!-- Node4 -->
<g id="Node000004" class="node">
<title>Node4</title>
<g id="a_Node000004"><a xlink:title=" ">
<polygon fill="#e0e0e0" stroke="#999999" points="114,-20 66.5,-20 66.5,0 114,0 114,-20"/>
<text text-anchor="middle" x="90.25" y="-6.5" font-family="Helvetica,sans-Serif" font-size="10.00">stdlib.h</text>
</a>
</g>
</g>
<!-- Node3&#45;&gt;Node4 -->
<g id="edge4_Node000003_Node000004" class="edge">
<title>Node3&#45;&gt;Node4</title>
<g id="a_edge4_Node000003_Node000004"><a xlink:title=" ">
<path fill="none" stroke="#63b8ff" d="M106.77,-55.59C104.24,-48.78 100.74,-39.32 97.61,-30.86"/>
<polygon fill="#63b8ff" stroke="#63b8ff" points="100.97,-29.88 94.22,-21.72 94.41,-32.31 100.97,-29.88"/>
</a>
</g>
</g>
<!-- Node5 -->
<g id="Node000005" class="node">
<title>Node5</title>
<g id="a_Node000005"><a xlink:title=" ">
<polygon fill="#e0e0e0" stroke="#999999" points="188.12,-20 132.38,-20 132.38,0 188.12,0 188.12,-20"/>
<text text-anchor="middle" x="160.25" y="-6.5" font-family="Helvetica,sans-Serif" font-size="10.00">stdbool.h</text>
</a>
</g>
</g>
<!-- Node3&#45;&gt;Node5 -->
<g id="edge5_Node000003_Node000005" class="edge">
<title>Node3&#45;&gt;Node5</title>
<g id="a_edge5_Node000003_Node000005"><a xlink:title=" ">
<path fill="none" stroke="#63b8ff" d="M118.96,-55.59C125.84,-48.16 135.64,-37.58 143.97,-28.58"/>
<polygon fill="#63b8ff" stroke="#63b8ff" points="146.39,-31.12 150.61,-21.41 141.25,-26.37 146.39,-31.12"/>
</a>
</g>
</g>
<!-- Node6 -->
<g id="Node000006" class="node">
<title>Node6</title>
<g id="a_Node000006"><a xlink:title=" ">
<polygon fill="#e0e0e0" stroke="#999999" points="254.38,-20 206.12,-20 206.12,0 254.38,0 254.38,-20"/>
<text text-anchor="middle" x="230.25" y="-6.5" font-family="Helvetica,sans-Serif" font-size="10.00">string.h</text>
</a>
</g>
</g>
<!-- Node3&#45;&gt;Node6 -->
<g id="edge6_Node000003_Node000006" class="edge">
<title>Node3&#45;&gt;Node6</title>
<g id="a_edge6_Node000003_Node000006"><a xlink:title=" ">
<path fill="none" stroke="#63b8ff" d="M131.15,-55.59C149.88,-47.17 177.61,-34.69 198.97,-25.07"/>
<polygon fill="#63b8ff" stroke="#63b8ff" points="200.12,-28.4 207.8,-21.1 197.25,-22.01 200.12,-28.4"/>
</a>
</g>
</g>
<!-- Node7&#45;&gt;Node2 -->
<g id="edge8_Node000007_Node000002" class="edge">
<title>Node7&#45;&gt;Node2</title>
<g id="a_edge8_Node000007_Node000002"><a xlink:title=" ">
<path fill="none" stroke="#63b8ff" d="M55.52,-111.62C50.37,-93.92 39.12,-55.24 32.16,-31.32"/>
<polygon fill="#63b8ff" stroke="#63b8ff" points="35.55,-30.43 29.39,-21.81 28.83,-32.39 35.55,-30.43"/>
</a>
</g>
</g>
<!-- Node7&#45;&gt;Node3 -->
<g id="edge9_Node000007_Node000003" class="edge">
<title>Node7&#45;&gt;Node3</title>
<g id="a_edge9_Node000007_Node000003"><a xlink:title=" ">
<path fill="none" stroke="#63b8ff" d="M67.31,-111.59C74.47,-104.16 84.66,-93.58 93.32,-84.58"/>
<polygon fill="#63b8ff" stroke="#63b8ff" points="95.83,-87.02 100.25,-77.39 90.79,-82.16 95.83,-87.02"/>
</a>
</g>
</g>
</g>
</svg>
