<?xml version="1.0" encoding="UTF-8" standalone="no"?>
<!DOCTYPE svg PUBLIC "-//W3C//DTD SVG 1.1//EN"
 "http://www.w3.org/Graphics/SVG/1.1/DTD/svg11.dtd">
<!-- Generated by graphviz version 9.0.0 (20230911.1827)
 -->
<!-- Title: E:/GitHub/PRML_Code/src/libc/signal_handler.c Pages: 1 -->
<svg width="297pt" height="152pt"
 viewBox="0.00 0.00 297.38 152.00" xmlns="http://www.w3.org/2000/svg" xmlns:xlink="http://www.w3.org/1999/xlink">
<g id="graph0" class="graph" transform="scale(1 1) rotate(0) translate(4 148)">
<title>E:/GitHub/PRML_Code/src/libc/signal_handler.c</title>
<!-- Node1 -->
<g id="Node000001" class="node">
<title>Node1</title>
<g id="a_Node000001"><a xlink:title=" ">
<polygon fill="#999999" stroke="#666666" points="170.62,-144 46.62,-144 46.62,-112 170.62,-112 170.62,-144"/>
<text text-anchor="start" x="54.62" y="-130.5" font-family="Helvetica,sans-Serif" font-size="10.00">E:/GitHub/PRML_Code</text>
<text text-anchor="middle" x="108.62" y="-118.5" font-family="Helvetica,sans-Serif" font-size="10.00">/src/libc/signal_handler.c</text>
</a>
</g>
</g>
<!-- Node2 -->
<g id="Node000002" class="node">
<title>Node2</title>
<g id="a_Node000002"><a xlink:title=" ">
<polygon fill="#e0e0e0" stroke="#999999" points="45.25,-76 0,-76 0,-56 45.25,-56 45.25,-76"/>
<text text-anchor="middle" x="22.62" y="-62.5" font-family="Helvetica,sans-Serif" font-size="10.00">stdio.h</text>
</a>
</g>
</g>
<!-- Node1&#45;&gt;Node2 -->
<g id="edge1_Node000001_Node000002" class="edge">
<title>Node1&#45;&gt;Node2</title>
<g id="a_edge1_Node000001_Node000002"><a xlink:title=" ">
<path fill="none" stroke="#63b8ff" d="M86.48,-111.55C73.91,-102.78 58.21,-91.83 45.52,-82.97"/>
<polygon fill="#63b8ff" stroke="#63b8ff" points="47.56,-80.13 37.35,-77.27 43.55,-85.87 47.56,-80.13"/>
</a>
</g>
</g>
<!-- Node3 -->
<g id="Node000003" class="node">
<title>Node3</title>
<g id="a_Node000003"><a xlink:title=" ">
<polygon fill="#e0e0e0" stroke="#999999" points="133.5,-20 83.75,-20 83.75,0 133.5,0 133.5,-20"/>
<text text-anchor="middle" x="108.62" y="-6.5" font-family="Helvetica,sans-Serif" font-size="10.00">signal.h</text>
</a>
</g>
</g>
<!-- Node1&#45;&gt;Node3 -->
<g id="edge2_Node000001_Node000003" class="edge">
<title>Node1&#45;&gt;Node3</title>
<g id="a_edge2_Node000001_Node000003"><a xlink:title=" ">
<path fill="none" stroke="#63b8ff" d="M101.56,-111.58C95.86,-97.26 89.3,-75.3 92.62,-56 94.09,-47.54 96.98,-38.55 99.92,-30.86"/>
<polygon fill="#63b8ff" stroke="#63b8ff" points="103.08,-32.38 103.64,-21.8 96.6,-29.72 103.08,-32.38"/>
</a>
</g>
</g>
<!-- Node4 -->
<g id="Node000004" class="node">
<title>Node4</title>
<g id="a_Node000004"><a xlink:href="signal__handler_8h.html" target="_top" xlink:title="Defines custom signal handler. Ref:">
<polygon fill="white" stroke="#666666" points="187.88,-76 101.38,-76 101.38,-56 187.88,-56 187.88,-76"/>
<text text-anchor="middle" x="144.62" y="-62.5" font-family="Helvetica,sans-Serif" font-size="10.00">signal_handler.h</text>
</a>
</g>
</g>
<!-- Node1&#45;&gt;Node4 -->
<g id="edge3_Node000001_Node000004" class="edge">
<title>Node1&#45;&gt;Node4</title>
<g id="a_edge3_Node000001_Node000004"><a xlink:title=" ">
<path fill="none" stroke="#63b8ff" d="M117.9,-111.55C122.53,-103.82 128.19,-94.4 133.1,-86.21"/>
<polygon fill="#63b8ff" stroke="#63b8ff" points="136.06,-88.08 138.2,-77.71 130.06,-84.48 136.06,-88.08"/>
</a>
</g>
</g>
<!-- Node5 -->
<g id="Node000005" class="node">
<title>Node5</title>
<g id="a_Node000005"><a xlink:href="libc_2output__format_8h.html" target="_top" xlink:title="Output format struct for color printing (charactors)">
<polygon fill="white" stroke="#666666" points="289.38,-76 205.88,-76 205.88,-56 289.38,-56 289.38,-76"/>
<text text-anchor="middle" x="247.62" y="-62.5" font-family="Helvetica,sans-Serif" font-size="10.00">output_format.h</text>
</a>
</g>
</g>
<!-- Node1&#45;&gt;Node5 -->
<g id="edge5_Node000001_Node000005" class="edge">
<title>Node1&#45;&gt;Node5</title>
<g id="a_edge5_Node000001_Node000005"><a xlink:title=" ">
<path fill="none" stroke="#63b8ff" d="M144.42,-111.55C166.34,-102.09 194.16,-90.08 215.39,-80.91"/>
<polygon fill="#63b8ff" stroke="#63b8ff" points="216.65,-84.18 224.44,-77.01 213.87,-77.76 216.65,-84.18"/>
</a>
</g>
</g>
<!-- Node4&#45;&gt;Node3 -->
<g id="edge4_Node000004_Node000003" class="edge">
<title>Node4&#45;&gt;Node3</title>
<g id="a_edge4_Node000004_Node000003"><a xlink:title=" ">
<path fill="none" stroke="#63b8ff" d="M138.35,-55.59C133.61,-48.47 126.93,-38.45 121.1,-29.72"/>
<polygon fill="#63b8ff" stroke="#63b8ff" points="124.12,-27.94 115.66,-21.56 118.3,-31.82 124.12,-27.94"/>
</a>
</g>
</g>
</g>
</svg>
