<?xml version="1.0" encoding="UTF-8" standalone="no"?>
<!DOCTYPE svg PUBLIC "-//W3C//DTD SVG 1.1//EN"
 "http://www.w3.org/Graphics/SVG/1.1/DTD/svg11.dtd">
<!-- Generated by graphviz version 9.0.0 (20230911.1827)
 -->
<!-- Title: E:/GitHub/PRML_Code/src/libc/signal_handler.c Pages: 1 -->
<svg width="362pt" height="152pt"
 viewBox="0.00 0.00 362.38 152.00" xmlns="http://www.w3.org/2000/svg" xmlns:xlink="http://www.w3.org/1999/xlink">
<g id="graph0" class="graph" transform="scale(1 1) rotate(0) translate(4 148)">
<title>E:/GitHub/PRML_Code/src/libc/signal_handler.c</title>
<!-- Node1 -->
<g id="Node000001" class="node">
<title>Node1</title>
<g id="a_Node000001"><a xlink:title=" ">
<polygon fill="#999999" stroke="#666666" points="200.62,-144 76.62,-144 76.62,-112 200.62,-112 200.62,-144"/>
<text text-anchor="start" x="84.62" y="-130.5" font-family="Helvetica,sans-Serif" font-size="10.00">E:/GitHub/PRML_Code</text>
<text text-anchor="middle" x="138.62" y="-118.5" font-family="Helvetica,sans-Serif" font-size="10.00">/src/libc/signal_handler.c</text>
</a>
</g>
</g>
<!-- Node2 -->
<g id="Node000002" class="node">
<title>Node2</title>
<g id="a_Node000002"><a xlink:title=" ">
<polygon fill="#e0e0e0" stroke="#999999" points="45.25,-76 0,-76 0,-56 45.25,-56 45.25,-76"/>
<text text-anchor="middle" x="22.62" y="-62.5" font-family="Helvetica,sans-Serif" font-size="10.00">stdio.h</text>
</a>
</g>
</g>
<!-- Node1&#45;&gt;Node2 -->
<g id="edge1_Node000001_Node000002" class="edge">
<title>Node1&#45;&gt;Node2</title>
<g id="a_edge1_Node000001_Node000002"><a xlink:title=" ">
<path fill="none" stroke="#63b8ff" d="M108.75,-111.55C90.96,-102.35 68.52,-90.74 51,-81.68"/>
<polygon fill="#63b8ff" stroke="#63b8ff" points="52.65,-78.59 42.16,-77.1 49.43,-84.81 52.65,-78.59"/>
</a>
</g>
</g>
<!-- Node3 -->
<g id="Node000003" class="node">
<title>Node3</title>
<g id="a_Node000003"><a xlink:title=" ">
<polygon fill="#e0e0e0" stroke="#999999" points="110.38,-76 62.88,-76 62.88,-56 110.38,-56 110.38,-76"/>
<text text-anchor="middle" x="86.62" y="-62.5" font-family="Helvetica,sans-Serif" font-size="10.00">stdlib.h</text>
</a>
</g>
</g>
<!-- Node1&#45;&gt;Node3 -->
<g id="edge2_Node000001_Node000003" class="edge">
<title>Node1&#45;&gt;Node3</title>
<g id="a_edge2_Node000001_Node000003"><a xlink:title=" ">
<path fill="none" stroke="#63b8ff" d="M125.23,-111.55C118.16,-103.39 109.45,-93.33 102.09,-84.84"/>
<polygon fill="#63b8ff" stroke="#63b8ff" points="104.96,-82.82 95.77,-77.55 99.67,-87.4 104.96,-82.82"/>
</a>
</g>
</g>
<!-- Node4 -->
<g id="Node000004" class="node">
<title>Node4</title>
<g id="a_Node000004"><a xlink:title=" ">
<polygon fill="#e0e0e0" stroke="#999999" points="198.5,-20 148.75,-20 148.75,0 198.5,0 198.5,-20"/>
<text text-anchor="middle" x="173.62" y="-6.5" font-family="Helvetica,sans-Serif" font-size="10.00">signal.h</text>
</a>
</g>
</g>
<!-- Node1&#45;&gt;Node4 -->
<g id="edge3_Node000001_Node000004" class="edge">
<title>Node1&#45;&gt;Node4</title>
<g id="a_edge3_Node000001_Node000004"><a xlink:title=" ">
<path fill="none" stroke="#63b8ff" d="M142.35,-111.66C145.95,-97.21 151.71,-75.01 157.62,-56 160.21,-47.69 163.36,-38.64 166.18,-30.84"/>
<polygon fill="#63b8ff" stroke="#63b8ff" points="169.4,-32.25 169.57,-21.65 162.83,-29.83 169.4,-32.25"/>
</a>
</g>
</g>
<!-- Node5 -->
<g id="Node000005" class="node">
<title>Node5</title>
<g id="a_Node000005"><a xlink:href="signal__handler_8h.html" target="_top" xlink:title="Defines custom signal handler. Ref:">
<polygon fill="white" stroke="#666666" points="252.88,-76 166.38,-76 166.38,-56 252.88,-56 252.88,-76"/>
<text text-anchor="middle" x="209.62" y="-62.5" font-family="Helvetica,sans-Serif" font-size="10.00">signal_handler.h</text>
</a>
</g>
</g>
<!-- Node1&#45;&gt;Node5 -->
<g id="edge4_Node000001_Node000005" class="edge">
<title>Node1&#45;&gt;Node5</title>
<g id="a_edge4_Node000001_Node000005"><a xlink:title=" ">
<path fill="none" stroke="#63b8ff" d="M156.91,-111.55C166.98,-103.04 179.48,-92.48 189.78,-83.77"/>
<polygon fill="#63b8ff" stroke="#63b8ff" points="191.96,-86.51 197.34,-77.38 187.44,-81.17 191.96,-86.51"/>
</a>
</g>
</g>
<!-- Node6 -->
<g id="Node000006" class="node">
<title>Node6</title>
<g id="a_Node000006"><a xlink:href="libc_2output__format_8h.html" target="_top" xlink:title="Output format struct for color printing (charactors)">
<polygon fill="white" stroke="#666666" points="354.38,-76 270.88,-76 270.88,-56 354.38,-56 354.38,-76"/>
<text text-anchor="middle" x="312.62" y="-62.5" font-family="Helvetica,sans-Serif" font-size="10.00">output_format.h</text>
</a>
</g>
</g>
<!-- Node1&#45;&gt;Node6 -->
<g id="edge6_Node000001_Node000006" class="edge">
<title>Node1&#45;&gt;Node6</title>
<g id="a_edge6_Node000001_Node000006"><a xlink:title=" ">
<path fill="none" stroke="#63b8ff" d="M183.43,-111.55C211.54,-101.86 247.4,-89.49 274.2,-80.25"/>
<polygon fill="#63b8ff" stroke="#63b8ff" points="275.34,-83.56 283.65,-76.99 273.06,-76.94 275.34,-83.56"/>
</a>
</g>
</g>
<!-- Node5&#45;&gt;Node4 -->
<g id="edge5_Node000005_Node000004" class="edge">
<title>Node5&#45;&gt;Node4</title>
<g id="a_edge5_Node000005_Node000004"><a xlink:title=" ">
<path fill="none" stroke="#63b8ff" d="M203.35,-55.59C198.61,-48.47 191.93,-38.45 186.1,-29.72"/>
<polygon fill="#63b8ff" stroke="#63b8ff" points="189.12,-27.94 180.66,-21.56 183.3,-31.82 189.12,-27.94"/>
</a>
</g>
</g>
</g>
</svg>
