<?xml version="1.0" encoding="UTF-8" standalone="no"?>
<!DOCTYPE svg PUBLIC "-//W3C//DTD SVG 1.1//EN"
 "http://www.w3.org/Graphics/SVG/1.1/DTD/svg11.dtd">
<!-- Generated by graphviz version 9.0.0 (20230911.1827)
 -->
<!-- Title: E:/GitHub/PRML_Code/src/hw2/lib/data_proc.h Pages: 1 -->
<!--zoomable 176 -->

<svg id="main" version="1.1" xmlns="http://www.w3.org/2000/svg" xmlns:xlink="http://www.w3.org/1999/xlink" xml:space="preserve" onload="init(evt)">
<style type="text/css"><![CDATA[
.node, .edge {opacity: 0.7;}
.node.selected, .edge.selected {opacity: 1;}
.edge:hover path { stroke: red; }
.edge:hover polygon { stroke: red; fill: red; }
]]></style>

<defs>
  <circle id="rim" cx="0" cy="0" r="7"/>
  <circle id="rim2" cx="0" cy="0" r="3.5"/>
  <g id="zoomPlus">
    <use xlink:href="#rim" fill="#404040"><set attributeName="fill" to="#808080" begin="zoomplus.mouseover" end="zoomplus.mouseout"/></use>
    <path d="M-4,0h8M0,-4v8" fill="none" stroke="white" stroke-width="1.5" pointer-events="none"/>
  </g>
  <g id="zoomMin">
    <use xlink:href="#rim" fill="#404040"><set attributeName="fill" to="#808080" begin="zoomminus.mouseover" end="zoomminus.mouseout"/></use>
    <path d="M-4,0h8" fill="none" stroke="white" stroke-width="1.5" pointer-events="none"/>
  </g>
  <g id="arrowUp" transform="translate(30 24)">
    <use xlink:href="#rim"/>
    <path pointer-events="none" fill="none" stroke="white" stroke-width="1.5" d="M0,-3.0v7 M-2.5,-0.5L0,-3.0L2.5,-0.5"/>
  </g>
  <g id="arrowRight" transform="rotate(90) translate(36 -43)">
    <use xlink:href="#rim"/>
    <path pointer-events="none" fill="none" stroke="white" stroke-width="1.5" d="M0,-3.0v7 M-2.5,-0.5L0,-3.0L2.5,-0.5"/>
  </g>
  <g id="arrowDown" transform="rotate(180) translate(-30 -48)">
    <use xlink:href="#rim"/>
    <path pointer-events="none" fill="none" stroke="white" stroke-width="1.5" d="M0,-3.0v7 M-2.5,-0.5L0,-3.0L2.5,-0.5"/>
  </g>
  <g id="arrowLeft" transform="rotate(270) translate(-36 17)">
    <use xlink:href="#rim"/>
    <path pointer-events="none" fill="none" stroke="white" stroke-width="1.5" d="M0,-3.0v7 M-2.5,-0.5L0,-3.0L2.5,-0.5"/>
  </g>
  <g id="resetDef">
    <use xlink:href="#rim2" fill="#404040"><set attributeName="fill" to="#808080" begin="reset.mouseover" end="reset.mouseout"/></use>
  </g>
</defs>
<script type="application/ecmascript">
var viewWidth = 713;
var viewHeight = 176;
var sectionId = 'dynsection-0';
</script>
<script type="application/ecmascript" xlink:href="svg.min.js"/>
<svg id="graph" class="graph">
<g id="viewport">
<title>E:/GitHub/PRML_Code/src/hw2/lib/data_proc.h</title>
<!-- Node1 -->
<g id="Node000001" class="node">
<title>Node1</title>
<g id="a_Node000001"><a xlink:title="Data processing functions for hw2.">
<polygon fill="#999999" stroke="#666666" points="386,-168 266.5,-168 266.5,-136 386,-136 386,-168"/>
<text text-anchor="start" x="274.5" y="-154.5" font-family="Helvetica,sans-Serif" font-size="10.00">E:/GitHub/PRML_Code</text>
<text text-anchor="middle" x="326.25" y="-142.5" font-family="Helvetica,sans-Serif" font-size="10.00">/src/hw2/lib/data_proc.h</text>
</a>
</g>
</g>
<!-- Node2 -->
<g id="Node000002" class="node">
<title>Node2</title>
<g id="a_Node000002"><a xlink:href="hw2_2lib_2data__plot_8c.html" target="_top" xlink:title=" ">
<polygon fill="white" stroke="#666666" points="116.5,-32 0,-32 0,0 116.5,0 116.5,-32"/>
<text text-anchor="start" x="8" y="-18.5" font-family="Helvetica,sans-Serif" font-size="10.00">E:/GitHub/PRML_Code</text>
<text text-anchor="middle" x="58.25" y="-6.5" font-family="Helvetica,sans-Serif" font-size="10.00">/src/hw2/lib/data_plot.c</text>
</a>
</g>
</g>
<!-- Node1&#45;&gt;Node2 -->
<g id="edge1_Node000001_Node000002" class="edge">
<title>Node1&#45;&gt;Node2</title>
<g id="a_edge1_Node000001_Node000002"><a xlink:title=" ">
<path fill="none" stroke="#63b8ff" d="M255.12,-147.36C210.63,-142.05 154.03,-129.45 112.25,-100 88.08,-82.96 72.01,-51.35 64.07,-32.44"/>
<polygon fill="#63b8ff" stroke="#63b8ff" points="254.62,-150.83 264.94,-148.43 255.38,-143.87 254.62,-150.83"/>
</a>
</g>
</g>
<!-- Node3 -->
<g id="Node000003" class="node">
<title>Node3</title>
<g id="a_Node000003"><a xlink:href="hw2_2lib_2data__plot_8h.html" target="_top" xlink:title="Plotting functions for data.">
<polygon fill="white" stroke="#666666" points="246.5,-100 130,-100 130,-68 246.5,-68 246.5,-100"/>
<text text-anchor="start" x="138" y="-86.5" font-family="Helvetica,sans-Serif" font-size="10.00">E:/GitHub/PRML_Code</text>
<text text-anchor="middle" x="188.25" y="-74.5" font-family="Helvetica,sans-Serif" font-size="10.00">/src/hw2/lib/data_plot.h</text>
</a>
</g>
</g>
<!-- Node1&#45;&gt;Node3 -->
<g id="edge2_Node000001_Node000003" class="edge">
<title>Node1&#45;&gt;Node3</title>
<g id="a_edge2_Node000001_Node000003"><a xlink:title=" ">
<path fill="none" stroke="#63b8ff" d="M283.61,-130.61C263.22,-120.86 239.22,-109.38 220.4,-100.38"/>
<polygon fill="#63b8ff" stroke="#63b8ff" points="282,-133.72 292.53,-134.87 285.02,-127.4 282,-133.72"/>
</a>
</g>
</g>
<!-- Node4 -->
<g id="Node000004" class="node">
<title>Node4</title>
<g id="a_Node000004"><a xlink:href="hw2_2main_8c.html" target="_top" xlink:title="Main function of hw2 &#45; Pinky knuckle dimension distribution.">
<polygon fill="white" stroke="#666666" points="251.5,-32 135,-32 135,0 251.5,0 251.5,-32"/>
<text text-anchor="start" x="143" y="-18.5" font-family="Helvetica,sans-Serif" font-size="10.00">E:/GitHub/PRML_Code</text>
<text text-anchor="middle" x="193.25" y="-6.5" font-family="Helvetica,sans-Serif" font-size="10.00">/src/hw2/main.c</text>
</a>
</g>
</g>
<!-- Node1&#45;&gt;Node4 -->
<g id="edge11_Node000001_Node000004" class="edge">
<title>Node1&#45;&gt;Node4</title>
<g id="a_edge11_Node000001_Node000004"><a xlink:title=" ">
<path fill="none" stroke="#63b8ff" d="M254.9,-142.61C202.54,-134.81 137.79,-121.17 121.25,-100 112.49,-88.79 114.72,-80.63 121.25,-68 129.27,-52.49 144.43,-40.68 158.77,-32.35"/>
<polygon fill="#63b8ff" stroke="#63b8ff" points="254.31,-146.06 264.7,-144.01 255.3,-139.13 254.31,-146.06"/>
</a>
</g>
</g>
<!-- Node5 -->
<g id="Node000005" class="node">
<title>Node5</title>
<g id="a_Node000005"><a xlink:href="test_8c.html" target="_top" xlink:title=" ">
<polygon fill="white" stroke="#666666" points="386.5,-32 270,-32 270,0 386.5,0 386.5,-32"/>
<text text-anchor="start" x="278" y="-18.5" font-family="Helvetica,sans-Serif" font-size="10.00">E:/GitHub/PRML_Code</text>
<text text-anchor="middle" x="328.25" y="-6.5" font-family="Helvetica,sans-Serif" font-size="10.00">/src/hw2/test.c</text>
</a>
</g>
</g>
<!-- Node1&#45;&gt;Node5 -->
<g id="edge12_Node000001_Node000005" class="edge">
<title>Node1&#45;&gt;Node5</title>
<g id="a_edge12_Node000001_Node000005"><a xlink:title=" ">
<path fill="none" stroke="#63b8ff" d="M369.91,-129.33C380.82,-121.66 391.14,-111.91 397.25,-100 403.74,-87.35 403.65,-80.7 397.25,-68 389.54,-52.7 374.83,-40.86 360.97,-32.45"/>
<polygon fill="#63b8ff" stroke="#63b8ff" points="368.05,-126.37 361.54,-134.72 371.84,-132.26 368.05,-126.37"/>
</a>
</g>
</g>
<!-- Node6 -->
<g id="Node000006" class="node">
<title>Node6</title>
<g id="a_Node000006"><a xlink:href="hw2_2lib_2data__proc_8c.html" target="_top" xlink:title=" ">
<polygon fill="white" stroke="#666666" points="564,-100 444.5,-100 444.5,-68 564,-68 564,-100"/>
<text text-anchor="start" x="452.5" y="-86.5" font-family="Helvetica,sans-Serif" font-size="10.00">E:/GitHub/PRML_Code</text>
<text text-anchor="middle" x="504.25" y="-74.5" font-family="Helvetica,sans-Serif" font-size="10.00">/src/hw2/lib/data_proc.c</text>
</a>
</g>
</g>
<!-- Node1&#45;&gt;Node6 -->
<g id="edge6_Node000001_Node000006" class="edge">
<title>Node1&#45;&gt;Node6</title>
<g id="a_edge6_Node000001_Node000006"><a xlink:title=" ">
<path fill="none" stroke="#63b8ff" d="M378.69,-131.56C405.41,-121.65 437.44,-109.77 462.47,-100.49"/>
<polygon fill="#63b8ff" stroke="#63b8ff" points="377.56,-128.24 369.4,-135 380,-134.8 377.56,-128.24"/>
</a>
</g>
</g>
<!-- Node7 -->
<g id="Node000007" class="node">
<title>Node7</title>
<g id="a_Node000007"><a xlink:href="output__csv_8c.html" target="_top" xlink:title=" ">
<polygon fill="white" stroke="#666666" points="704.88,-100 581.62,-100 581.62,-68 704.88,-68 704.88,-100"/>
<text text-anchor="start" x="589.62" y="-86.5" font-family="Helvetica,sans-Serif" font-size="10.00">E:/GitHub/PRML_Code</text>
<text text-anchor="middle" x="643.25" y="-74.5" font-family="Helvetica,sans-Serif" font-size="10.00">/src/hw2/lib/output_csv.c</text>
</a>
</g>
</g>
<!-- Node1&#45;&gt;Node7 -->
<g id="edge7_Node000001_Node000007" class="edge">
<title>Node1&#45;&gt;Node7</title>
<g id="a_edge7_Node000001_Node000007"><a xlink:title=" ">
<path fill="none" stroke="#63b8ff" d="M397.62,-136.41C446.96,-126.29 514.12,-112.44 573.25,-100 575.93,-99.44 578.66,-98.86 581.42,-98.28"/>
<polygon fill="#63b8ff" stroke="#63b8ff" points="397,-132.97 387.9,-138.4 398.4,-139.82 397,-132.97"/>
</a>
</g>
</g>
<!-- Node8 -->
<g id="Node000008" class="node">
<title>Node8</title>
<g id="a_Node000008"><a xlink:href="output__csv_8h.html" target="_top" xlink:title="Output csv functions.">
<polygon fill="white" stroke="#666666" points="387.88,-100 264.62,-100 264.62,-68 387.88,-68 387.88,-100"/>
<text text-anchor="start" x="272.62" y="-86.5" font-family="Helvetica,sans-Serif" font-size="10.00">E:/GitHub/PRML_Code</text>
<text text-anchor="middle" x="326.25" y="-74.5" font-family="Helvetica,sans-Serif" font-size="10.00">/src/hw2/lib/output_csv.h</text>
</a>
</g>
</g>
<!-- Node1&#45;&gt;Node8 -->
<g id="edge8_Node000001_Node000008" class="edge">
<title>Node1&#45;&gt;Node8</title>
<g id="a_edge8_Node000001_Node000008"><a xlink:title=" ">
<path fill="none" stroke="#63b8ff" d="M326.25,-124.31C326.25,-116.12 326.25,-107.38 326.25,-100.22"/>
<polygon fill="#63b8ff" stroke="#63b8ff" points="322.75,-124.18 326.25,-134.18 329.75,-124.18 322.75,-124.18"/>
</a>
</g>
</g>
<!-- Node3&#45;&gt;Node2 -->
<g id="edge3_Node000003_Node000002" class="edge">
<title>Node3&#45;&gt;Node2</title>
<g id="a_edge3_Node000003_Node000002"><a xlink:title=" ">
<path fill="none" stroke="#63b8ff" d="M147.55,-62.34C128.46,-52.65 106.11,-41.3 88.54,-32.38"/>
<polygon fill="#63b8ff" stroke="#63b8ff" points="145.92,-65.43 156.42,-66.84 149.09,-59.19 145.92,-65.43"/>
</a>
</g>
</g>
<!-- Node3&#45;&gt;Node4 -->
<g id="edge4_Node000003_Node000004" class="edge">
<title>Node3&#45;&gt;Node4</title>
<g id="a_edge4_Node000003_Node000004"><a xlink:title=" ">
<path fill="none" stroke="#63b8ff" d="M190.27,-56.31C190.89,-48.12 191.55,-39.38 192.1,-32.22"/>
<polygon fill="#63b8ff" stroke="#63b8ff" points="186.79,-55.95 189.52,-66.18 193.77,-56.48 186.79,-55.95"/>
</a>
</g>
</g>
<!-- Node3&#45;&gt;Node5 -->
<g id="edge5_Node000003_Node000005" class="edge">
<title>Node3&#45;&gt;Node5</title>
<g id="a_edge5_Node000003_Node000005"><a xlink:title=" ">
<path fill="none" stroke="#63b8ff" d="M231.22,-62.74C251.97,-52.96 276.45,-41.42 295.63,-32.38"/>
<polygon fill="#63b8ff" stroke="#63b8ff" points="230,-59.45 222.44,-66.88 232.98,-65.78 230,-59.45"/>
</a>
</g>
</g>
<!-- Node8&#45;&gt;Node4 -->
<g id="edge9_Node000008_Node000004" class="edge">
<title>Node8&#45;&gt;Node4</title>
<g id="a_edge9_Node000008_Node000004"><a xlink:title=" ">
<path fill="none" stroke="#63b8ff" d="M284.88,-62.47C265.3,-52.75 242.29,-41.34 224.24,-32.38"/>
<polygon fill="#63b8ff" stroke="#63b8ff" points="283.2,-65.54 293.71,-66.85 286.31,-59.27 283.2,-65.54"/>
</a>
</g>
</g>
<!-- Node8&#45;&gt;Node5 -->
<g id="edge10_Node000008_Node000005" class="edge">
<title>Node8&#45;&gt;Node5</title>
<g id="a_edge10_Node000008_Node000005"><a xlink:title=" ">
<path fill="none" stroke="#63b8ff" d="M327.06,-56.31C327.31,-48.12 327.57,-39.38 327.79,-32.22"/>
<polygon fill="#63b8ff" stroke="#63b8ff" points="323.56,-56.08 326.76,-66.18 330.56,-56.29 323.56,-56.08"/>
</a>
</g>
</g>
</g>
</svg>

<g id="navigator" transform="translate(0 0)" fill="#404254">
  <rect fill="#f2f5e9" fill-opacity="0.5" stroke="#606060" stroke-width=".5" x="0" y="0" width="60" height="60"/>
  <use id="zoomplus" xlink:href="#zoomPlus" x="17" y="9" onmousedown="handleZoom(evt,'in')"/>
  <use id="zoomminus" xlink:href="#zoomMin" x="42" y="9" onmousedown="handleZoom(evt,'out')"/>
  <use id="reset" xlink:href="#resetDef" x="30" y="36" onmousedown="handleReset()"/>
   <use id="arrowup" xlink:href="#arrowUp" x="0" y="0" onmousedown="handlePan(0,-1)"/>
  <use id="arrowright" xlink:href="#arrowRight" x="0" y="0" onmousedown="handlePan(1,0)"/>
  <use id="arrowdown" xlink:href="#arrowDown" x="0" y="0" onmousedown="handlePan(0,1)"/>
  <use id="arrowleft" xlink:href="#arrowLeft" x="0" y="0" onmousedown="handlePan(-1,0)"/>
</g>
<svg viewBox="0 0 15 15" width="100%" height="30px" preserveAspectRatio="xMaxYMin meet">
 <g id="arrow_out" transform="scale(0.3 0.3)">
  <a xlink:href="hw2_2lib_2data__proc_8h__dep__incl_org.svg" target="_base">
   <rect id="button" ry="5" rx="5" y="6" x="6" height="38" width="38"
        fill="#f2f5e9" fill-opacity="0.5" stroke="#606060" stroke-width="1.0"/>
   <path id="arrow"
     d="M 11.500037,31.436501 C 11.940474,20.09759 22.043105,11.32322 32.158766,21.979434 L 37.068811,17.246167 C 37.068811,17.246167 37.088388,32 37.088388,32 L 22.160133,31.978069 C 22.160133,31.978069 26.997745,27.140456 26.997745,27.140456 C 18.528582,18.264221 13.291696,25.230495 11.500037,31.436501 z"
     style="fill:#404040;"/>
  </a>
 </g>
</svg>

<style type='text/css'>
<![CDATA[
[data-mouse-over-selected='false'] { opacity: 0.7; }
[data-mouse-over-selected='true']  { opacity: 1.0; }
]]>
</style>
<script type="application/ecmascript"><![CDATA[
document.addEventListener('DOMContentLoaded', (event) => {
  highlightEdges();
  highlightAdjacentNodes();
});
]]></script>
</svg>
