<?xml version="1.0" encoding="UTF-8" standalone="no"?>
<!DOCTYPE svg PUBLIC "-//W3C//DTD SVG 1.1//EN"
 "http://www.w3.org/Graphics/SVG/1.1/DTD/svg11.dtd">
<!-- Generated by graphviz version 9.0.0 (20230911.1827)
 -->
<!-- Title: E:/GitHub/PRML_Code/src/hw2/lib/data_plot.c Pages: 1 -->
<svg width="429pt" height="264pt"
 viewBox="0.00 0.00 428.62 264.00" xmlns="http://www.w3.org/2000/svg" xmlns:xlink="http://www.w3.org/1999/xlink">
<g id="graph0" class="graph" transform="scale(1 1) rotate(0) translate(4 260)">
<title>E:/GitHub/PRML_Code/src/hw2/lib/data_plot.c</title>
<!-- Node1 -->
<g id="Node000001" class="node">
<title>Node1</title>
<g id="a_Node000001"><a xlink:title=" ">
<polygon fill="#999999" stroke="#666666" points="272.88,-256 156.38,-256 156.38,-224 272.88,-224 272.88,-256"/>
<text text-anchor="start" x="164.38" y="-242.5" font-family="Helvetica,sans-Serif" font-size="10.00">E:/GitHub/PRML_Code</text>
<text text-anchor="middle" x="214.62" y="-230.5" font-family="Helvetica,sans-Serif" font-size="10.00">/src/hw2/lib/data_plot.c</text>
</a>
</g>
</g>
<!-- Node2 -->
<g id="Node000002" class="node">
<title>Node2</title>
<g id="a_Node000002"><a xlink:title=" ">
<polygon fill="#e0e0e0" stroke="#999999" points="45.25,-132 0,-132 0,-112 45.25,-112 45.25,-132"/>
<text text-anchor="middle" x="22.62" y="-118.5" font-family="Helvetica,sans-Serif" font-size="10.00">stdio.h</text>
</a>
</g>
</g>
<!-- Node1&#45;&gt;Node2 -->
<g id="edge1_Node000001_Node000002" class="edge">
<title>Node1&#45;&gt;Node2</title>
<g id="a_edge1_Node000001_Node000002"><a xlink:title=" ">
<path fill="none" stroke="#63b8ff" d="M170.81,-223.56C148.14,-214.68 120.49,-202.42 97.62,-188 75.9,-174.3 54.05,-154.52 39.58,-140.38"/>
<polygon fill="#63b8ff" stroke="#63b8ff" points="42.22,-138.07 32.67,-133.48 37.27,-143.02 42.22,-138.07"/>
</a>
</g>
</g>
<!-- Node3 -->
<g id="Node000003" class="node">
<title>Node3</title>
<g id="a_Node000003"><a xlink:title=" ">
<polygon fill="#e0e0e0" stroke="#999999" points="110.38,-132 62.88,-132 62.88,-112 110.38,-112 110.38,-132"/>
<text text-anchor="middle" x="86.62" y="-118.5" font-family="Helvetica,sans-Serif" font-size="10.00">stdlib.h</text>
</a>
</g>
</g>
<!-- Node1&#45;&gt;Node3 -->
<g id="edge2_Node000001_Node000003" class="edge">
<title>Node1&#45;&gt;Node3</title>
<g id="a_edge2_Node000001_Node000003"><a xlink:title=" ">
<path fill="none" stroke="#63b8ff" d="M167.89,-223.61C149.04,-215.48 128.33,-203.83 113.62,-188 101.92,-175.4 94.92,-157 91,-142.99"/>
<polygon fill="#63b8ff" stroke="#63b8ff" points="94.46,-142.41 88.66,-133.54 87.66,-144.09 94.46,-142.41"/>
</a>
</g>
</g>
<!-- Node4 -->
<g id="Node000004" class="node">
<title>Node4</title>
<g id="a_Node000004"><a xlink:title=" ">
<polygon fill="#e0e0e0" stroke="#999999" points="420.62,-188 374.62,-188 374.62,-168 420.62,-168 420.62,-188"/>
<text text-anchor="middle" x="397.62" y="-174.5" font-family="Helvetica,sans-Serif" font-size="10.00">math.h</text>
</a>
</g>
</g>
<!-- Node1&#45;&gt;Node4 -->
<g id="edge3_Node000001_Node000004" class="edge">
<title>Node1&#45;&gt;Node4</title>
<g id="a_edge3_Node000001_Node000004"><a xlink:title=" ">
<path fill="none" stroke="#63b8ff" d="M261.75,-223.55C293.73,-213.07 335.24,-199.45 363.92,-190.05"/>
<polygon fill="#63b8ff" stroke="#63b8ff" points="364.76,-193.46 373.17,-187.02 362.58,-186.81 364.76,-193.46"/>
</a>
</g>
</g>
<!-- Node5 -->
<g id="Node000005" class="node">
<title>Node5</title>
<g id="a_Node000005"><a xlink:href="hw2_2lib_2data__plot_8h.html" target="_top" xlink:title="Plotting functions for data.">
<polygon fill="white" stroke="#666666" points="186.62,-188 122.62,-188 122.62,-168 186.62,-168 186.62,-188"/>
<text text-anchor="middle" x="154.62" y="-174.5" font-family="Helvetica,sans-Serif" font-size="10.00">data_plot.h</text>
</a>
</g>
</g>
<!-- Node1&#45;&gt;Node5 -->
<g id="edge4_Node000001_Node000005" class="edge">
<title>Node1&#45;&gt;Node5</title>
<g id="a_edge4_Node000001_Node000005"><a xlink:title=" ">
<path fill="none" stroke="#63b8ff" d="M199.17,-223.55C190.84,-215.22 180.53,-204.91 171.93,-196.3"/>
<polygon fill="#63b8ff" stroke="#63b8ff" points="174.65,-194.07 165.1,-189.48 169.7,-199.02 174.65,-194.07"/>
</a>
</g>
</g>
<!-- Node6 -->
<g id="Node000006" class="node">
<title>Node6</title>
<g id="a_Node000006"><a xlink:href="hw2_2lib_2data__proc_8h.html" target="_top" xlink:title="Data processing functions for hw2.">
<polygon fill="white" stroke="#666666" points="195.12,-132 128.12,-132 128.12,-112 195.12,-112 195.12,-132"/>
<text text-anchor="middle" x="161.62" y="-118.5" font-family="Helvetica,sans-Serif" font-size="10.00">data_proc.h</text>
</a>
</g>
</g>
<!-- Node1&#45;&gt;Node6 -->
<g id="edge11_Node000001_Node000006" class="edge">
<title>Node1&#45;&gt;Node6</title>
<g id="a_edge11_Node000001_Node000006"><a xlink:title=" ">
<path fill="none" stroke="#63b8ff" d="M212.29,-223.72C209.64,-208.92 204.47,-186.12 195.62,-168 190.92,-158.37 184.02,-148.74 177.67,-140.88"/>
<polygon fill="#63b8ff" stroke="#63b8ff" points="180.49,-138.8 171.34,-133.44 175.15,-143.33 180.49,-138.8"/>
</a>
</g>
</g>
<!-- Node7 -->
<g id="Node000007" class="node">
<title>Node7</title>
<g id="a_Node000007"><a xlink:href="hw2_2lib_2decision__boundary_8h.html" target="_top" xlink:title="Decision boundary functions.">
<polygon fill="white" stroke="#666666" points="318.25,-132 213,-132 213,-112 318.25,-112 318.25,-132"/>
<text text-anchor="middle" x="265.62" y="-118.5" font-family="Helvetica,sans-Serif" font-size="10.00">decision_boundary.h</text>
</a>
</g>
</g>
<!-- Node1&#45;&gt;Node7 -->
<g id="edge13_Node000001_Node000007" class="edge">
<title>Node1&#45;&gt;Node7</title>
<g id="a_edge13_Node000001_Node000007"><a xlink:title=" ">
<path fill="none" stroke="#63b8ff" d="M221.29,-223.84C230.44,-203.03 246.89,-165.61 256.98,-142.67"/>
<polygon fill="#63b8ff" stroke="#63b8ff" points="260.05,-144.39 260.87,-133.82 253.64,-141.57 260.05,-144.39"/>
</a>
</g>
</g>
<!-- Node9 -->
<g id="Node000009" class="node">
<title>Node9</title>
<g id="a_Node000009"><a xlink:href="hw2_2lib_2output__format_8h.html" target="_top" xlink:title="Output format struct for color printing (charactors)">
<polygon fill="white" stroke="#666666" points="347.38,-20 263.88,-20 263.88,0 347.38,0 347.38,-20"/>
<text text-anchor="middle" x="305.62" y="-6.5" font-family="Helvetica,sans-Serif" font-size="10.00">output_format.h</text>
</a>
</g>
</g>
<!-- Node1&#45;&gt;Node9 -->
<g id="edge12_Node000001_Node000009" class="edge">
<title>Node1&#45;&gt;Node9</title>
<g id="a_edge12_Node000001_Node000009"><a xlink:title=" ">
<path fill="none" stroke="#63b8ff" d="M240.63,-223.57C268.16,-205.56 310.01,-172.95 327.62,-132 340.98,-100.97 335.24,-88.91 327.62,-56 325.55,-47.02 321.42,-37.76 317.29,-29.99"/>
<polygon fill="#63b8ff" stroke="#63b8ff" points="320.43,-28.43 312.43,-21.5 314.36,-31.91 320.43,-28.43"/>
</a>
</g>
</g>
<!-- Node5&#45;&gt;Node2 -->
<g id="edge5_Node000005_Node000002" class="edge">
<title>Node5&#45;&gt;Node2</title>
<g id="a_edge5_Node000005_Node000002"><a xlink:title=" ">
<path fill="none" stroke="#63b8ff" d="M131.63,-167.59C110.72,-159.04 79.6,-146.31 55.95,-136.63"/>
<polygon fill="#63b8ff" stroke="#63b8ff" points="57.34,-133.42 46.76,-132.87 54.69,-139.9 57.34,-133.42"/>
</a>
</g>
</g>
<!-- Node5&#45;&gt;Node3 -->
<g id="edge6_Node000005_Node000003" class="edge">
<title>Node5&#45;&gt;Node3</title>
<g id="a_edge6_Node000005_Node000003"><a xlink:title=" ">
<path fill="none" stroke="#63b8ff" d="M142.78,-167.59C132.93,-159.77 118.69,-148.46 107.02,-139.19"/>
<polygon fill="#63b8ff" stroke="#63b8ff" points="109.53,-136.72 99.52,-133.24 105.17,-142.2 109.53,-136.72"/>
</a>
</g>
</g>
<!-- Node5&#45;&gt;Node6 -->
<g id="edge7_Node000005_Node000006" class="edge">
<title>Node5&#45;&gt;Node6</title>
<g id="a_edge7_Node000005_Node000006"><a xlink:title=" ">
<path fill="none" stroke="#63b8ff" d="M155.84,-167.59C156.71,-160.93 157.9,-151.75 158.98,-143.44"/>
<polygon fill="#63b8ff" stroke="#63b8ff" points="162.41,-144.17 160.23,-133.8 155.47,-143.27 162.41,-144.17"/>
</a>
</g>
</g>
<!-- Node5&#45;&gt;Node7 -->
<g id="edge8_Node000005_Node000007" class="edge">
<title>Node5&#45;&gt;Node7</title>
<g id="a_edge8_Node000005_Node000007"><a xlink:title=" ">
<path fill="none" stroke="#63b8ff" d="M173.96,-167.59C191.04,-159.28 216.23,-147.03 235.88,-137.47"/>
<polygon fill="#63b8ff" stroke="#63b8ff" points="237.32,-140.66 244.78,-133.14 234.25,-134.37 237.32,-140.66"/>
</a>
</g>
</g>
<!-- Node8 -->
<g id="Node000008" class="node">
<title>Node8</title>
<g id="a_Node000008"><a xlink:href="hw2_2lib_2normal__distribution_8h.html" target="_top" xlink:title="Normal distribution functions.">
<polygon fill="white" stroke="#666666" points="318.62,-76 212.62,-76 212.62,-56 318.62,-56 318.62,-76"/>
<text text-anchor="middle" x="265.62" y="-62.5" font-family="Helvetica,sans-Serif" font-size="10.00">normal_distribution.h</text>
</a>
</g>
</g>
<!-- Node7&#45;&gt;Node8 -->
<g id="edge9_Node000007_Node000008" class="edge">
<title>Node7&#45;&gt;Node8</title>
<g id="a_edge9_Node000007_Node000008"><a xlink:title=" ">
<path fill="none" stroke="#63b8ff" d="M265.62,-111.59C265.62,-105.01 265.62,-95.96 265.62,-87.73"/>
<polygon fill="#63b8ff" stroke="#63b8ff" points="269.13,-87.81 265.63,-77.81 262.13,-87.81 269.13,-87.81"/>
</a>
</g>
</g>
<!-- Node8&#45;&gt;Node9 -->
<g id="edge10_Node000008_Node000009" class="edge">
<title>Node8&#45;&gt;Node9</title>
<g id="a_edge10_Node000008_Node000009"><a xlink:title=" ">
<path fill="none" stroke="#63b8ff" d="M272.59,-55.59C277.93,-48.39 285.45,-38.23 291.97,-29.43"/>
<polygon fill="#63b8ff" stroke="#63b8ff" points="294.7,-31.63 297.84,-21.51 289.07,-27.47 294.7,-31.63"/>
</a>
</g>
</g>
</g>
</svg>
