<?xml version="1.0" encoding="UTF-8" standalone="no"?>
<!DOCTYPE svg PUBLIC "-//W3C//DTD SVG 1.1//EN"
 "http://www.w3.org/Graphics/SVG/1.1/DTD/svg11.dtd">
<!-- Generated by graphviz version 9.0.0 (20230911.1827)
 -->
<!-- Title: E:/GitHub/PRML_Code/src/hw2/lib/output_format.h Pages: 1 -->
<!--zoomable 360 -->

<svg id="main" version="1.1" xmlns="http://www.w3.org/2000/svg" xmlns:xlink="http://www.w3.org/1999/xlink" xml:space="preserve" onload="init(evt)">
<style type="text/css"><![CDATA[
.node, .edge {opacity: 0.7;}
.node.selected, .edge.selected {opacity: 1;}
.edge:hover path { stroke: red; }
.edge:hover polygon { stroke: red; fill: red; }
]]></style>

<defs>
  <circle id="rim" cx="0" cy="0" r="7"/>
  <circle id="rim2" cx="0" cy="0" r="3.5"/>
  <g id="zoomPlus">
    <use xlink:href="#rim" fill="#404040"><set attributeName="fill" to="#808080" begin="zoomplus.mouseover" end="zoomplus.mouseout"/></use>
    <path d="M-4,0h8M0,-4v8" fill="none" stroke="white" stroke-width="1.5" pointer-events="none"/>
  </g>
  <g id="zoomMin">
    <use xlink:href="#rim" fill="#404040"><set attributeName="fill" to="#808080" begin="zoomminus.mouseover" end="zoomminus.mouseout"/></use>
    <path d="M-4,0h8" fill="none" stroke="white" stroke-width="1.5" pointer-events="none"/>
  </g>
  <g id="arrowUp" transform="translate(30 24)">
    <use xlink:href="#rim"/>
    <path pointer-events="none" fill="none" stroke="white" stroke-width="1.5" d="M0,-3.0v7 M-2.5,-0.5L0,-3.0L2.5,-0.5"/>
  </g>
  <g id="arrowRight" transform="rotate(90) translate(36 -43)">
    <use xlink:href="#rim"/>
    <path pointer-events="none" fill="none" stroke="white" stroke-width="1.5" d="M0,-3.0v7 M-2.5,-0.5L0,-3.0L2.5,-0.5"/>
  </g>
  <g id="arrowDown" transform="rotate(180) translate(-30 -48)">
    <use xlink:href="#rim"/>
    <path pointer-events="none" fill="none" stroke="white" stroke-width="1.5" d="M0,-3.0v7 M-2.5,-0.5L0,-3.0L2.5,-0.5"/>
  </g>
  <g id="arrowLeft" transform="rotate(270) translate(-36 17)">
    <use xlink:href="#rim"/>
    <path pointer-events="none" fill="none" stroke="white" stroke-width="1.5" d="M0,-3.0v7 M-2.5,-0.5L0,-3.0L2.5,-0.5"/>
  </g>
  <g id="resetDef">
    <use xlink:href="#rim2" fill="#404040"><set attributeName="fill" to="#808080" begin="reset.mouseover" end="reset.mouseout"/></use>
  </g>
</defs>
<script type="application/ecmascript">
var viewWidth = 788;
var viewHeight = 360;
var sectionId = 'dynsection-0';
</script>
<script type="application/ecmascript" xlink:href="svg.min.js"/>
<svg id="graph" class="graph">
<g id="viewport">
<title>E:/GitHub/PRML_Code/src/hw2/lib/output_format.h</title>
<!-- Node1 -->
<g id="Node000001" class="node">
<title>Node1</title>
<g id="a_Node000001"><a xlink:title="Output format struct for color printing (charactors)">
<polygon fill="#999999" stroke="#666666" points="513.45,-352 396.95,-352 396.95,-308 513.45,-308 513.45,-352"/>
<text text-anchor="start" x="404.95" y="-338.5" font-family="Helvetica,sans-Serif" font-size="10.00">E:/GitHub/PRML_Code</text>
<text text-anchor="start" x="404.95" y="-326.5" font-family="Helvetica,sans-Serif" font-size="10.00">/src/hw2/lib/output</text>
<text text-anchor="middle" x="455.2" y="-314.5" font-family="Helvetica,sans-Serif" font-size="10.00">_format.h</text>
</a>
</g>
</g>
<!-- Node2 -->
<g id="Node000002" class="node">
<title>Node2</title>
<g id="a_Node000002"><a xlink:href="hw2_2lib_2data__plot_8c.html" target="_top" xlink:title=" ">
<polygon fill="white" stroke="#666666" points="265.45,-32 148.95,-32 148.95,0 265.45,0 265.45,-32"/>
<text text-anchor="start" x="156.95" y="-18.5" font-family="Helvetica,sans-Serif" font-size="10.00">E:/GitHub/PRML_Code</text>
<text text-anchor="middle" x="207.2" y="-6.5" font-family="Helvetica,sans-Serif" font-size="10.00">/src/hw2/lib/data_plot.c</text>
</a>
</g>
</g>
<!-- Node1&#45;&gt;Node2 -->
<g id="edge1_Node000001_Node000002" class="edge">
<title>Node1&#45;&gt;Node2</title>
<g id="a_edge1_Node000001_Node000002"><a xlink:title=" ">
<path fill="none" stroke="#63b8ff" d="M385.4,-318.02C272.29,-298.57 57.4,-254.17 16.2,-192 -14.9,-145.06 2.09,-107.53 42.2,-68 70.49,-40.11 113.7,-27.43 148.8,-21.68"/>
<polygon fill="#63b8ff" stroke="#63b8ff" points="384.74,-321.46 395.19,-319.68 385.92,-314.56 384.74,-321.46"/>
</a>
</g>
</g>
<!-- Node3 -->
<g id="Node000003" class="node">
<title>Node3</title>
<g id="a_Node000003"><a xlink:href="hw2_2lib_2data__proc_8c.html" target="_top" xlink:title=" ">
<polygon fill="white" stroke="#666666" points="645.95,-266 526.45,-266 526.45,-234 645.95,-234 645.95,-266"/>
<text text-anchor="start" x="534.45" y="-252.5" font-family="Helvetica,sans-Serif" font-size="10.00">E:/GitHub/PRML_Code</text>
<text text-anchor="middle" x="586.2" y="-240.5" font-family="Helvetica,sans-Serif" font-size="10.00">/src/hw2/lib/data_proc.c</text>
</a>
</g>
</g>
<!-- Node1&#45;&gt;Node3 -->
<g id="edge2_Node000001_Node000003" class="edge">
<title>Node1&#45;&gt;Node3</title>
<g id="a_edge2_Node000001_Node000003"><a xlink:title=" ">
<path fill="none" stroke="#63b8ff" d="M500.83,-301.83C520.79,-289.95 543.45,-276.45 560.41,-266.35"/>
<polygon fill="#63b8ff" stroke="#63b8ff" points="499.1,-298.79 492.3,-306.91 502.68,-304.8 499.1,-298.79"/>
</a>
</g>
</g>
<!-- Node4 -->
<g id="Node000004" class="node">
<title>Node4</title>
<g id="a_Node000004"><a xlink:href="hw2_2lib_2normal__distribution_8c.html" target="_top" xlink:title=" ">
<polygon fill="white" stroke="#666666" points="141.45,-192 24.95,-192 24.95,-148 141.45,-148 141.45,-192"/>
<text text-anchor="start" x="32.95" y="-178.5" font-family="Helvetica,sans-Serif" font-size="10.00">E:/GitHub/PRML_Code</text>
<text text-anchor="start" x="32.95" y="-166.5" font-family="Helvetica,sans-Serif" font-size="10.00">/src/hw2/lib/normal</text>
<text text-anchor="middle" x="83.2" y="-154.5" font-family="Helvetica,sans-Serif" font-size="10.00">_distribution.c</text>
</a>
</g>
</g>
<!-- Node1&#45;&gt;Node4 -->
<g id="edge3_Node000001_Node000004" class="edge">
<title>Node1&#45;&gt;Node4</title>
<g id="a_edge3_Node000001_Node000004"><a xlink:title=" ">
<path fill="none" stroke="#63b8ff" d="M386.73,-303.54C361.59,-293.96 332.99,-282.77 307.2,-272 244.81,-245.94 173.81,-213.44 128.77,-192.45"/>
<polygon fill="#63b8ff" stroke="#63b8ff" points="385.26,-306.73 395.85,-307.01 387.75,-300.19 385.26,-306.73"/>
</a>
</g>
</g>
<!-- Node5 -->
<g id="Node000005" class="node">
<title>Node5</title>
<g id="a_Node000005"><a xlink:href="hw2_2lib_2normal__distribution_8h.html" target="_top" xlink:title="Normal distribution functions.">
<polygon fill="white" stroke="#666666" points="432.45,-272 315.95,-272 315.95,-228 432.45,-228 432.45,-272"/>
<text text-anchor="start" x="323.95" y="-258.5" font-family="Helvetica,sans-Serif" font-size="10.00">E:/GitHub/PRML_Code</text>
<text text-anchor="start" x="323.95" y="-246.5" font-family="Helvetica,sans-Serif" font-size="10.00">/src/hw2/lib/normal</text>
<text text-anchor="middle" x="374.2" y="-234.5" font-family="Helvetica,sans-Serif" font-size="10.00">_distribution.h</text>
</a>
</g>
</g>
<!-- Node1&#45;&gt;Node5 -->
<g id="edge4_Node000001_Node000005" class="edge">
<title>Node1&#45;&gt;Node5</title>
<g id="a_edge4_Node000001_Node000005"><a xlink:title=" ">
<path fill="none" stroke="#63b8ff" d="M424.97,-299.89C415.46,-290.74 405.14,-280.8 396.31,-272.29"/>
<polygon fill="#63b8ff" stroke="#63b8ff" points="422.34,-302.22 431.97,-306.64 427.2,-297.18 422.34,-302.22"/>
</a>
</g>
</g>
<!-- Node11 -->
<g id="Node000011" class="node">
<title>Node11</title>
<g id="a_Node000011"><a xlink:href="output__csv_8c.html" target="_top" xlink:title=" ">
<polygon fill="white" stroke="#666666" points="709.82,-106 586.57,-106 586.57,-74 709.82,-74 709.82,-106"/>
<text text-anchor="start" x="594.57" y="-92.5" font-family="Helvetica,sans-Serif" font-size="10.00">E:/GitHub/PRML_Code</text>
<text text-anchor="middle" x="648.2" y="-80.5" font-family="Helvetica,sans-Serif" font-size="10.00">/src/hw2/lib/output_csv.c</text>
</a>
</g>
</g>
<!-- Node1&#45;&gt;Node11 -->
<g id="edge24_Node000001_Node000011" class="edge">
<title>Node1&#45;&gt;Node11</title>
<g id="a_edge24_Node000001_Node000011"><a xlink:title=" ">
<path fill="none" stroke="#63b8ff" d="M472.03,-297.84C483.68,-277.29 500.11,-250.16 517.2,-228 553.97,-180.31 605.11,-130.79 631.29,-106.43"/>
<polygon fill="#63b8ff" stroke="#63b8ff" points="469.11,-295.89 467.29,-306.32 475.22,-299.3 469.11,-295.89"/>
</a>
</g>
</g>
<!-- Node13 -->
<g id="Node000013" class="node">
<title>Node13</title>
<g id="a_Node000013"><a xlink:href="hw2_2lib_2output__format_8c.html" target="_top" xlink:title=" ">
<polygon fill="white" stroke="#666666" points="780.45,-272 663.95,-272 663.95,-228 780.45,-228 780.45,-272"/>
<text text-anchor="start" x="671.95" y="-258.5" font-family="Helvetica,sans-Serif" font-size="10.00">E:/GitHub/PRML_Code</text>
<text text-anchor="start" x="671.95" y="-246.5" font-family="Helvetica,sans-Serif" font-size="10.00">/src/hw2/lib/output</text>
<text text-anchor="middle" x="722.2" y="-234.5" font-family="Helvetica,sans-Serif" font-size="10.00">_format.c</text>
</a>
</g>
</g>
<!-- Node1&#45;&gt;Node13 -->
<g id="edge25_Node000001_Node000013" class="edge">
<title>Node1&#45;&gt;Node13</title>
<g id="a_edge25_Node000001_Node000013"><a xlink:title=" ">
<path fill="none" stroke="#63b8ff" d="M524.12,-309.84C562.73,-298.98 611.72,-285.01 655.2,-272 658,-271.16 660.87,-270.3 663.76,-269.41"/>
<polygon fill="#63b8ff" stroke="#63b8ff" points="523.65,-306.33 514.97,-312.4 525.54,-313.07 523.65,-306.33"/>
</a>
</g>
</g>
<!-- Node5&#45;&gt;Node4 -->
<g id="edge19_Node000005_Node000004" class="edge">
<title>Node5&#45;&gt;Node4</title>
<g id="a_edge19_Node000005_Node000004"><a xlink:title=" ">
<path fill="none" stroke="#63b8ff" d="M304.57,-231.43C261.47,-220.42 205.02,-205.75 155.2,-192 150.81,-190.79 146.27,-189.51 141.71,-188.22"/>
<polygon fill="#63b8ff" stroke="#63b8ff" points="303.49,-234.77 314.05,-233.85 305.22,-227.98 303.49,-234.77"/>
</a>
</g>
</g>
<!-- Node6 -->
<g id="Node000006" class="node">
<title>Node6</title>
<g id="a_Node000006"><a xlink:href="hw2_2lib_2decision__boundary_8c.html" target="_top" xlink:title=" ">
<polygon fill="white" stroke="#666666" points="179.45,-112 62.95,-112 62.95,-68 179.45,-68 179.45,-112"/>
<text text-anchor="start" x="70.95" y="-98.5" font-family="Helvetica,sans-Serif" font-size="10.00">E:/GitHub/PRML_Code</text>
<text text-anchor="start" x="70.95" y="-86.5" font-family="Helvetica,sans-Serif" font-size="10.00">/src/hw2/lib/decision</text>
<text text-anchor="middle" x="121.2" y="-74.5" font-family="Helvetica,sans-Serif" font-size="10.00">_boundary.c</text>
</a>
</g>
</g>
<!-- Node5&#45;&gt;Node6 -->
<g id="edge5_Node000005_Node000006" class="edge">
<title>Node5&#45;&gt;Node6</title>
<g id="a_edge5_Node000005_Node000006"><a xlink:title=" ">
<path fill="none" stroke="#63b8ff" d="M322.63,-222.35C305.43,-213.11 286.29,-202.44 269.2,-192 226.98,-166.23 180.11,-133.51 150.66,-112.41"/>
<polygon fill="#63b8ff" stroke="#63b8ff" points="320.7,-225.29 331.17,-226.91 324,-219.11 320.7,-225.29"/>
</a>
</g>
</g>
<!-- Node7 -->
<g id="Node000007" class="node">
<title>Node7</title>
<g id="a_Node000007"><a xlink:href="hw2_2lib_2decision__boundary_8h.html" target="_top" xlink:title="Decision boundary functions.">
<polygon fill="white" stroke="#666666" points="394.45,-192 277.95,-192 277.95,-148 394.45,-148 394.45,-192"/>
<text text-anchor="start" x="285.95" y="-178.5" font-family="Helvetica,sans-Serif" font-size="10.00">E:/GitHub/PRML_Code</text>
<text text-anchor="start" x="285.95" y="-166.5" font-family="Helvetica,sans-Serif" font-size="10.00">/src/hw2/lib/decision</text>
<text text-anchor="middle" x="336.2" y="-154.5" font-family="Helvetica,sans-Serif" font-size="10.00">_boundary.h</text>
</a>
</g>
</g>
<!-- Node5&#45;&gt;Node7 -->
<g id="edge6_Node000005_Node000007" class="edge">
<title>Node5&#45;&gt;Node7</title>
<g id="a_edge6_Node000005_Node000007"><a xlink:title=" ">
<path fill="none" stroke="#63b8ff" d="M358.79,-217.38C354.68,-208.94 350.34,-200.02 346.57,-192.29"/>
<polygon fill="#63b8ff" stroke="#63b8ff" points="355.63,-218.87 363.15,-226.33 361.92,-215.8 355.63,-218.87"/>
</a>
</g>
</g>
<!-- Node9 -->
<g id="Node000009" class="node">
<title>Node9</title>
<g id="a_Node000009"><a xlink:href="hw2_2main_8c.html" target="_top" xlink:title="Main function of hw2 &#45; Pinky knuckle dimension distribution.">
<polygon fill="white" stroke="#666666" points="415.45,-32 298.95,-32 298.95,0 415.45,0 415.45,-32"/>
<text text-anchor="start" x="306.95" y="-18.5" font-family="Helvetica,sans-Serif" font-size="10.00">E:/GitHub/PRML_Code</text>
<text text-anchor="middle" x="357.2" y="-6.5" font-family="Helvetica,sans-Serif" font-size="10.00">/src/hw2/main.c</text>
</a>
</g>
</g>
<!-- Node5&#45;&gt;Node9 -->
<g id="edge22_Node000005_Node000009" class="edge">
<title>Node5&#45;&gt;Node9</title>
<g id="a_edge22_Node000005_Node000009"><a xlink:title=" ">
<path fill="none" stroke="#63b8ff" d="M304.78,-233.21C271.77,-224 232.56,-210.49 200.2,-192 174.5,-177.31 175.58,-163.22 150.2,-148 111.12,-124.56 80.15,-149.45 54.2,-112 43.06,-95.93 41.54,-82.9 54.2,-68 86.27,-30.25 225.38,-40.41 274.2,-32 282.14,-30.63 290.49,-29.16 298.72,-27.69"/>
<polygon fill="#63b8ff" stroke="#63b8ff" points="303.69,-236.54 314.25,-235.78 305.52,-229.79 303.69,-236.54"/>
</a>
</g>
</g>
<!-- Node10 -->
<g id="Node000010" class="node">
<title>Node10</title>
<g id="a_Node000010"><a xlink:href="test_8c.html" target="_top" xlink:title=" ">
<polygon fill="white" stroke="#666666" points="557.45,-32 440.95,-32 440.95,0 557.45,0 557.45,-32"/>
<text text-anchor="start" x="448.95" y="-18.5" font-family="Helvetica,sans-Serif" font-size="10.00">E:/GitHub/PRML_Code</text>
<text text-anchor="middle" x="499.2" y="-6.5" font-family="Helvetica,sans-Serif" font-size="10.00">/src/hw2/test.c</text>
</a>
</g>
</g>
<!-- Node5&#45;&gt;Node10 -->
<g id="edge23_Node000005_Node000010" class="edge">
<title>Node5&#45;&gt;Node10</title>
<g id="a_edge23_Node000005_Node000010"><a xlink:title=" ">
<path fill="none" stroke="#63b8ff" d="M443.9,-231.24C535.14,-206.42 687.23,-159.09 719.2,-112 730.18,-95.82 731.37,-83.31 719.2,-68 699.38,-43.06 616.08,-29.23 557.87,-22.46"/>
<polygon fill="#63b8ff" stroke="#63b8ff" points="443.02,-227.85 434.28,-233.83 444.84,-234.61 443.02,-227.85"/>
</a>
</g>
</g>
<!-- Node5&#45;&gt;Node11 -->
<g id="edge20_Node000005_Node000011" class="edge">
<title>Node5&#45;&gt;Node11</title>
<g id="a_edge20_Node000005_Node000011"><a xlink:title=" ">
<path fill="none" stroke="#63b8ff" d="M411.18,-220.6C422.1,-211.76 433.89,-201.77 444.2,-192 463.39,-173.83 462.15,-162.57 484.2,-148 494.23,-141.38 555.42,-120.88 600.13,-106.37"/>
<polygon fill="#63b8ff" stroke="#63b8ff" points="409.08,-217.8 403.45,-226.78 413.44,-223.27 409.08,-217.8"/>
</a>
</g>
</g>
<!-- Node12 -->
<g id="Node000012" class="node">
<title>Node12</title>
<g id="a_Node000012"><a xlink:href="output__csv_8h.html" target="_top" xlink:title="Output csv functions.">
<polygon fill="white" stroke="#666666" points="568.82,-106 445.57,-106 445.57,-74 568.82,-74 568.82,-106"/>
<text text-anchor="start" x="453.57" y="-92.5" font-family="Helvetica,sans-Serif" font-size="10.00">E:/GitHub/PRML_Code</text>
<text text-anchor="middle" x="507.2" y="-80.5" font-family="Helvetica,sans-Serif" font-size="10.00">/src/hw2/lib/output_csv.h</text>
</a>
</g>
</g>
<!-- Node5&#45;&gt;Node12 -->
<g id="edge21_Node000005_Node000012" class="edge">
<title>Node5&#45;&gt;Node12</title>
<g id="a_edge21_Node000005_Node000012"><a xlink:title=" ">
<path fill="none" stroke="#63b8ff" d="M393.92,-218.04C407.61,-197.41 426.81,-170.13 446.2,-148 459.47,-132.84 476.32,-117.34 488.94,-106.34"/>
<polygon fill="#63b8ff" stroke="#63b8ff" points="391.05,-216.03 388.49,-226.32 396.9,-219.87 391.05,-216.03"/>
</a>
</g>
</g>
<!-- Node7&#45;&gt;Node2 -->
<g id="edge7_Node000007_Node000002" class="edge">
<title>Node7&#45;&gt;Node2</title>
<g id="a_edge7_Node000007_Node000002"><a xlink:title=" ">
<path fill="none" stroke="#63b8ff" d="M267.31,-145.21C251.76,-136.91 236.75,-126.03 226.2,-112 208.5,-88.48 206.12,-52.72 206.39,-32.45"/>
<polygon fill="#63b8ff" stroke="#63b8ff" points="265.69,-148.32 276.2,-149.64 268.81,-142.05 265.69,-148.32"/>
</a>
</g>
</g>
<!-- Node7&#45;&gt;Node6 -->
<g id="edge12_Node000007_Node000006" class="edge">
<title>Node7&#45;&gt;Node6</title>
<g id="a_edge12_Node000007_Node000006"><a xlink:title=" ">
<path fill="none" stroke="#63b8ff" d="M266.9,-143.86C238.83,-133.68 206.77,-122.04 179.88,-112.29"/>
<polygon fill="#63b8ff" stroke="#63b8ff" points="265.43,-147.05 276.03,-147.17 267.82,-140.47 265.43,-147.05"/>
</a>
</g>
</g>
<!-- Node8 -->
<g id="Node000008" class="node">
<title>Node8</title>
<g id="a_Node000008"><a xlink:href="hw2_2lib_2data__plot_8h.html" target="_top" xlink:title="Plotting functions for data.">
<polygon fill="white" stroke="#666666" points="351.45,-106 234.95,-106 234.95,-74 351.45,-74 351.45,-106"/>
<text text-anchor="start" x="242.95" y="-92.5" font-family="Helvetica,sans-Serif" font-size="10.00">E:/GitHub/PRML_Code</text>
<text text-anchor="middle" x="293.2" y="-80.5" font-family="Helvetica,sans-Serif" font-size="10.00">/src/hw2/lib/data_plot.h</text>
</a>
</g>
</g>
<!-- Node7&#45;&gt;Node8 -->
<g id="edge8_Node000007_Node000008" class="edge">
<title>Node7&#45;&gt;Node8</title>
<g id="a_edge8_Node000007_Node000008"><a xlink:title=" ">
<path fill="none" stroke="#63b8ff" d="M318.91,-137.63C312.91,-126.76 306.47,-115.07 301.53,-106.11"/>
<polygon fill="#63b8ff" stroke="#63b8ff" points="315.82,-139.29 323.72,-146.36 321.95,-135.91 315.82,-139.29"/>
</a>
</g>
</g>
<!-- Node7&#45;&gt;Node9 -->
<g id="edge17_Node000007_Node000009" class="edge">
<title>Node7&#45;&gt;Node9</title>
<g id="a_edge17_Node000007_Node000009"><a xlink:title=" ">
<path fill="none" stroke="#63b8ff" d="M352.17,-137.29C355.48,-129.24 358.49,-120.47 360.2,-112 365.78,-84.34 362.57,-51.25 359.82,-32.32"/>
<polygon fill="#63b8ff" stroke="#63b8ff" points="349.01,-135.78 348.16,-146.34 355.41,-138.62 349.01,-135.78"/>
</a>
</g>
</g>
<!-- Node7&#45;&gt;Node10 -->
<g id="edge18_Node000007_Node000010" class="edge">
<title>Node7&#45;&gt;Node10</title>
<g id="a_edge18_Node000007_Node000010"><a xlink:title=" ">
<path fill="none" stroke="#63b8ff" d="M363.78,-139.47C383.42,-118.86 410.74,-91.03 436.2,-68 450.08,-55.44 466.54,-42.17 479.15,-32.31"/>
<polygon fill="#63b8ff" stroke="#63b8ff" points="361.24,-137.06 356.9,-146.73 366.32,-141.88 361.24,-137.06"/>
</a>
</g>
</g>
<!-- Node7&#45;&gt;Node11 -->
<g id="edge13_Node000007_Node000011" class="edge">
<title>Node7&#45;&gt;Node11</title>
<g id="a_edge13_Node000007_Node000011"><a xlink:title=" ">
<path fill="none" stroke="#63b8ff" d="M405.64,-153.81C454.16,-142.91 520.37,-127.47 578.2,-112 584.69,-110.26 591.5,-108.34 598.21,-106.39"/>
<polygon fill="#63b8ff" stroke="#63b8ff" points="405.1,-150.34 396.11,-155.94 406.63,-157.17 405.1,-150.34"/>
</a>
</g>
</g>
<!-- Node7&#45;&gt;Node12 -->
<g id="edge14_Node000007_Node000012" class="edge">
<title>Node7&#45;&gt;Node12</title>
<g id="a_edge14_Node000007_Node000012"><a xlink:title=" ">
<path fill="none" stroke="#63b8ff" d="M393.25,-142.98C419.78,-130.87 450.44,-116.89 473.27,-106.47"/>
<polygon fill="#63b8ff" stroke="#63b8ff" points="391.95,-139.72 384.3,-147.06 394.85,-146.09 391.95,-139.72"/>
</a>
</g>
</g>
<!-- Node8&#45;&gt;Node2 -->
<g id="edge9_Node000008_Node000002" class="edge">
<title>Node8&#45;&gt;Node2</title>
<g id="a_edge9_Node000008_Node000002"><a xlink:title=" ">
<path fill="none" stroke="#63b8ff" d="M266.28,-66.46C253.09,-55.42 237.54,-42.4 225.71,-32.5"/>
<polygon fill="#63b8ff" stroke="#63b8ff" points="263.88,-69.02 273.8,-72.76 268.38,-63.66 263.88,-69.02"/>
</a>
</g>
</g>
<!-- Node8&#45;&gt;Node9 -->
<g id="edge10_Node000008_Node000009" class="edge">
<title>Node8&#45;&gt;Node9</title>
<g id="a_edge10_Node000008_Node000009"><a xlink:title=" ">
<path fill="none" stroke="#63b8ff" d="M314.14,-65.44C323.84,-54.53 335.08,-41.88 343.65,-32.25"/>
<polygon fill="#63b8ff" stroke="#63b8ff" points="311.8,-62.8 307.78,-72.6 317.04,-67.45 311.8,-62.8"/>
</a>
</g>
</g>
<!-- Node8&#45;&gt;Node10 -->
<g id="edge11_Node000008_Node000010" class="edge">
<title>Node8&#45;&gt;Node10</title>
<g id="a_edge11_Node000008_Node000010"><a xlink:title=" ">
<path fill="none" stroke="#63b8ff" d="M347.93,-69.87C381.43,-58.16 423.73,-43.38 455.08,-32.42"/>
<polygon fill="#63b8ff" stroke="#63b8ff" points="347.1,-66.45 338.82,-73.05 349.41,-73.06 347.1,-66.45"/>
</a>
</g>
</g>
<!-- Node12&#45;&gt;Node9 -->
<g id="edge15_Node000012_Node000009" class="edge">
<title>Node12&#45;&gt;Node9</title>
<g id="a_edge15_Node000012_Node000009"><a xlink:title=" ">
<path fill="none" stroke="#63b8ff" d="M464.79,-68.64C440.83,-57.14 411.36,-43 389.32,-32.42"/>
<polygon fill="#63b8ff" stroke="#63b8ff" points="463.13,-71.73 473.66,-72.9 466.15,-65.42 463.13,-71.73"/>
</a>
</g>
</g>
<!-- Node12&#45;&gt;Node10 -->
<g id="edge16_Node000012_Node000010" class="edge">
<title>Node12&#45;&gt;Node10</title>
<g id="a_edge16_Node000012_Node000010"><a xlink:title=" ">
<path fill="none" stroke="#63b8ff" d="M504.25,-62.49C503.12,-52.3 501.87,-41.03 500.89,-32.25"/>
<polygon fill="#63b8ff" stroke="#63b8ff" points="500.75,-62.67 505.33,-72.23 507.71,-61.9 500.75,-62.67"/>
</a>
</g>
</g>
</g>
</svg>

<g id="navigator" transform="translate(0 0)" fill="#404254">
  <rect fill="#f2f5e9" fill-opacity="0.5" stroke="#606060" stroke-width=".5" x="0" y="0" width="60" height="60"/>
  <use id="zoomplus" xlink:href="#zoomPlus" x="17" y="9" onmousedown="handleZoom(evt,'in')"/>
  <use id="zoomminus" xlink:href="#zoomMin" x="42" y="9" onmousedown="handleZoom(evt,'out')"/>
  <use id="reset" xlink:href="#resetDef" x="30" y="36" onmousedown="handleReset()"/>
   <use id="arrowup" xlink:href="#arrowUp" x="0" y="0" onmousedown="handlePan(0,-1)"/>
  <use id="arrowright" xlink:href="#arrowRight" x="0" y="0" onmousedown="handlePan(1,0)"/>
  <use id="arrowdown" xlink:href="#arrowDown" x="0" y="0" onmousedown="handlePan(0,1)"/>
  <use id="arrowleft" xlink:href="#arrowLeft" x="0" y="0" onmousedown="handlePan(-1,0)"/>
</g>
<svg viewBox="0 0 15 15" width="100%" height="30px" preserveAspectRatio="xMaxYMin meet">
 <g id="arrow_out" transform="scale(0.3 0.3)">
  <a xlink:href="hw2_2lib_2output__format_8h__dep__incl_org.svg" target="_base">
   <rect id="button" ry="5" rx="5" y="6" x="6" height="38" width="38"
        fill="#f2f5e9" fill-opacity="0.5" stroke="#606060" stroke-width="1.0"/>
   <path id="arrow"
     d="M 11.500037,31.436501 C 11.940474,20.09759 22.043105,11.32322 32.158766,21.979434 L 37.068811,17.246167 C 37.068811,17.246167 37.088388,32 37.088388,32 L 22.160133,31.978069 C 22.160133,31.978069 26.997745,27.140456 26.997745,27.140456 C 18.528582,18.264221 13.291696,25.230495 11.500037,31.436501 z"
     style="fill:#404040;"/>
  </a>
 </g>
</svg>

<style type='text/css'>
<![CDATA[
[data-mouse-over-selected='false'] { opacity: 0.7; }
[data-mouse-over-selected='true']  { opacity: 1.0; }
]]>
</style>
<script type="application/ecmascript"><![CDATA[
document.addEventListener('DOMContentLoaded', (event) => {
  highlightEdges();
  highlightAdjacentNodes();
});
]]></script>
</svg>
