<?xml version="1.0" encoding="UTF-8" standalone="no"?>
<!DOCTYPE svg PUBLIC "-//W3C//DTD SVG 1.1//EN"
 "http://www.w3.org/Graphics/SVG/1.1/DTD/svg11.dtd">
<!-- Generated by graphviz version 9.0.0 (20230911.1827)
 -->
<!-- Title: E:/GitHub/PRML_Code/src/hw3/main.c Pages: 1 -->
<svg width="721pt" height="152pt"
 viewBox="0.00 0.00 721.00 152.00" xmlns="http://www.w3.org/2000/svg" xmlns:xlink="http://www.w3.org/1999/xlink">
<g id="graph0" class="graph" transform="scale(1 1) rotate(0) translate(4 148)">
<title>E:/GitHub/PRML_Code/src/hw3/main.c</title>
<!-- Node1 -->
<g id="Node000001" class="node">
<title>Node1</title>
<g id="a_Node000001"><a xlink:title="Main function of hw3 &#45; 2 dimensional shape classification.">
<polygon fill="#999999" stroke="#666666" points="385,-144 268.5,-144 268.5,-112 385,-112 385,-144"/>
<text text-anchor="start" x="276.5" y="-130.5" font-family="Helvetica,sans-Serif" font-size="10.00">E:/GitHub/PRML_Code</text>
<text text-anchor="middle" x="326.75" y="-118.5" font-family="Helvetica,sans-Serif" font-size="10.00">/src/hw3/main.c</text>
</a>
</g>
</g>
<!-- Node2 -->
<g id="Node000002" class="node">
<title>Node2</title>
<g id="a_Node000002"><a xlink:title=" ">
<polygon fill="#e0e0e0" stroke="#999999" points="185.38,-20 140.12,-20 140.12,0 185.38,0 185.38,-20"/>
<text text-anchor="middle" x="162.75" y="-6.5" font-family="Helvetica,sans-Serif" font-size="10.00">stdio.h</text>
</a>
</g>
</g>
<!-- Node1&#45;&gt;Node2 -->
<g id="edge1_Node000001_Node000002" class="edge">
<title>Node1&#45;&gt;Node2</title>
<g id="a_edge1_Node000001_Node000002"><a xlink:title=" ">
<path fill="none" stroke="#63b8ff" d="M268.29,-119.3C238.68,-112.53 204.33,-99.83 181.75,-76 170.37,-63.99 165.76,-45.53 163.91,-31.35"/>
<polygon fill="#63b8ff" stroke="#63b8ff" points="167.43,-31.41 163.04,-21.77 160.46,-32.04 167.43,-31.41"/>
</a>
</g>
</g>
<!-- Node3 -->
<g id="Node000003" class="node">
<title>Node3</title>
<g id="a_Node000003"><a xlink:title=" ">
<polygon fill="#e0e0e0" stroke="#999999" points="376.88,-76 328.62,-76 328.62,-56 376.88,-56 376.88,-76"/>
<text text-anchor="middle" x="352.75" y="-62.5" font-family="Helvetica,sans-Serif" font-size="10.00">string.h</text>
</a>
</g>
</g>
<!-- Node1&#45;&gt;Node3 -->
<g id="edge2_Node000001_Node000003" class="edge">
<title>Node1&#45;&gt;Node3</title>
<g id="a_edge2_Node000001_Node000003"><a xlink:title=" ">
<path fill="none" stroke="#63b8ff" d="M333.45,-111.55C336.72,-104 340.69,-94.82 344.18,-86.77"/>
<polygon fill="#63b8ff" stroke="#63b8ff" points="347.31,-88.36 348.07,-77.8 340.88,-85.58 347.31,-88.36"/>
</a>
</g>
</g>
<!-- Node4 -->
<g id="Node000004" class="node">
<title>Node4</title>
<g id="a_Node000004"><a xlink:title=" ">
<polygon fill="#e0e0e0" stroke="#999999" points="445,-76 394.5,-76 394.5,-56 445,-56 445,-76"/>
<text text-anchor="middle" x="419.75" y="-62.5" font-family="Helvetica,sans-Serif" font-size="10.00">unistd.h</text>
</a>
</g>
</g>
<!-- Node1&#45;&gt;Node4 -->
<g id="edge3_Node000001_Node000004" class="edge">
<title>Node1&#45;&gt;Node4</title>
<g id="a_edge3_Node000001_Node000004"><a xlink:title=" ">
<path fill="none" stroke="#63b8ff" d="M350.7,-111.55C364.56,-102.61 381.94,-91.39 395.8,-82.45"/>
<polygon fill="#63b8ff" stroke="#63b8ff" points="397.39,-85.59 403.9,-77.23 393.6,-79.71 397.39,-85.59"/>
</a>
</g>
</g>
<!-- Node5 -->
<g id="Node000005" class="node">
<title>Node5</title>
<g id="a_Node000005"><a xlink:href="common__macro_8h.html" target="_top" xlink:title="Common macros used in the project.">
<polygon fill="white" stroke="#666666" points="584.25,-76 463.25,-76 463.25,-56 584.25,-56 584.25,-76"/>
<text text-anchor="middle" x="523.75" y="-62.5" font-family="Helvetica,sans-Serif" font-size="10.00">../libc/common_macro.h</text>
</a>
</g>
</g>
<!-- Node1&#45;&gt;Node5 -->
<g id="edge4_Node000001_Node000005" class="edge">
<title>Node1&#45;&gt;Node5</title>
<g id="a_edge4_Node000001_Node000005"><a xlink:title=" ">
<path fill="none" stroke="#63b8ff" d="M377.48,-111.55C409.87,-101.68 451.35,-89.05 481.86,-79.76"/>
<polygon fill="#63b8ff" stroke="#63b8ff" points="482.58,-83.2 491.12,-76.94 480.54,-76.5 482.58,-83.2"/>
</a>
</g>
</g>
<!-- Node6 -->
<g id="Node000006" class="node">
<title>Node6</title>
<g id="a_Node000006"><a xlink:href="libc_2output__format_8h.html" target="_top" xlink:title="Output format struct for color printing (charactors)">
<polygon fill="white" stroke="#666666" points="713,-76 602.5,-76 602.5,-56 713,-56 713,-76"/>
<text text-anchor="middle" x="657.75" y="-62.5" font-family="Helvetica,sans-Serif" font-size="10.00">../libc/output_format.h</text>
</a>
</g>
</g>
<!-- Node1&#45;&gt;Node6 -->
<g id="edge5_Node000001_Node000006" class="edge">
<title>Node1&#45;&gt;Node6</title>
<g id="a_edge5_Node000001_Node000006"><a xlink:title=" ">
<path fill="none" stroke="#63b8ff" d="M385.16,-116.41C443.75,-105.79 533.7,-89.49 594.08,-78.54"/>
<polygon fill="#63b8ff" stroke="#63b8ff" points="594.67,-81.99 603.88,-76.76 593.42,-75.1 594.67,-81.99"/>
</a>
</g>
</g>
<!-- Node7 -->
<g id="Node000007" class="node">
<title>Node7</title>
<g id="a_Node000007"><a xlink:href="read__csv_8h.html" target="_top" xlink:title="Read csv file related utilities.">
<polygon fill="white" stroke="#666666" points="134.38,-76 53.12,-76 53.12,-56 134.38,-56 134.38,-76"/>
<text text-anchor="middle" x="93.75" y="-62.5" font-family="Helvetica,sans-Serif" font-size="10.00">./lib/read_csv.h</text>
</a>
</g>
</g>
<!-- Node1&#45;&gt;Node7 -->
<g id="edge6_Node000001_Node000007" class="edge">
<title>Node1&#45;&gt;Node7</title>
<g id="a_edge6_Node000001_Node000007"><a xlink:title=" ">
<path fill="none" stroke="#63b8ff" d="M268.26,-111.94C229.04,-101.84 178.05,-88.71 141.33,-79.25"/>
<polygon fill="#63b8ff" stroke="#63b8ff" points="142.44,-75.92 131.89,-76.82 140.7,-82.7 142.44,-75.92"/>
</a>
</g>
</g>
<!-- Node10 -->
<g id="Node000010" class="node">
<title>Node10</title>
<g id="a_Node000010"><a xlink:href="hw3_2lib_2data__proc_8h.html" target="_top" xlink:title="Data processing functions.">
<polygon fill="white" stroke="#666666" points="270.25,-20 203.25,-20 203.25,0 270.25,0 270.25,-20"/>
<text text-anchor="middle" x="236.75" y="-6.5" font-family="Helvetica,sans-Serif" font-size="10.00">data_proc.h</text>
</a>
</g>
</g>
<!-- Node1&#45;&gt;Node10 -->
<g id="edge11_Node000001_Node000010" class="edge">
<title>Node1&#45;&gt;Node10</title>
<g id="a_edge11_Node000001_Node000010"><a xlink:title=" ">
<path fill="none" stroke="#63b8ff" d="M318.35,-111.67C309.93,-96.83 296.16,-74 281.75,-56 273.86,-46.14 264.04,-36.12 255.59,-28.04"/>
<polygon fill="#63b8ff" stroke="#63b8ff" points="258.23,-25.71 248.53,-21.45 253.45,-30.83 258.23,-25.71"/>
</a>
</g>
</g>
<!-- Node11 -->
<g id="Node000011" class="node">
<title>Node11</title>
<g id="a_Node000011"><a xlink:href="hw3_2lib_2data__plot_8h.html" target="_top" xlink:title="Data plot functions.">
<polygon fill="white" stroke="#666666" points="273.12,-76 190.38,-76 190.38,-56 273.12,-56 273.12,-76"/>
<text text-anchor="middle" x="231.75" y="-62.5" font-family="Helvetica,sans-Serif" font-size="10.00">./lib/data_plot.h</text>
</a>
</g>
</g>
<!-- Node1&#45;&gt;Node11 -->
<g id="edge12_Node000001_Node000011" class="edge">
<title>Node1&#45;&gt;Node11</title>
<g id="a_edge12_Node000001_Node000011"><a xlink:title=" ">
<path fill="none" stroke="#63b8ff" d="M302.29,-111.55C288.13,-102.61 270.37,-91.39 256.21,-82.45"/>
<polygon fill="#63b8ff" stroke="#63b8ff" points="258.25,-79.6 247.93,-77.22 254.51,-85.52 258.25,-79.6"/>
</a>
</g>
</g>
<!-- Node7&#45;&gt;Node2 -->
<g id="edge7_Node000007_Node000002" class="edge">
<title>Node7&#45;&gt;Node2</title>
<g id="a_edge7_Node000007_Node000002"><a xlink:title=" ">
<path fill="none" stroke="#63b8ff" d="M105.77,-55.59C115.76,-47.77 130.21,-36.46 142.06,-27.19"/>
<polygon fill="#63b8ff" stroke="#63b8ff" points="143.96,-30.15 149.68,-21.23 139.64,-24.64 143.96,-30.15"/>
</a>
</g>
</g>
<!-- Node8 -->
<g id="Node000008" class="node">
<title>Node8</title>
<g id="a_Node000008"><a xlink:title=" ">
<polygon fill="#e0e0e0" stroke="#999999" points="47.5,-20 0,-20 0,0 47.5,0 47.5,-20"/>
<text text-anchor="middle" x="23.75" y="-6.5" font-family="Helvetica,sans-Serif" font-size="10.00">stdlib.h</text>
</a>
</g>
</g>
<!-- Node7&#45;&gt;Node8 -->
<g id="edge8_Node000007_Node000008" class="edge">
<title>Node7&#45;&gt;Node8</title>
<g id="a_edge8_Node000007_Node000008"><a xlink:title=" ">
<path fill="none" stroke="#63b8ff" d="M81.56,-55.59C71.42,-47.77 56.76,-36.46 44.74,-27.19"/>
<polygon fill="#63b8ff" stroke="#63b8ff" points="47.06,-24.56 37,-21.22 42.78,-30.1 47.06,-24.56"/>
</a>
</g>
</g>
<!-- Node9 -->
<g id="Node000009" class="node">
<title>Node9</title>
<g id="a_Node000009"><a xlink:title=" ">
<polygon fill="#e0e0e0" stroke="#999999" points="121.62,-20 65.88,-20 65.88,0 121.62,0 121.62,-20"/>
<text text-anchor="middle" x="93.75" y="-6.5" font-family="Helvetica,sans-Serif" font-size="10.00">stdbool.h</text>
</a>
</g>
</g>
<!-- Node7&#45;&gt;Node9 -->
<g id="edge9_Node000007_Node000009" class="edge">
<title>Node7&#45;&gt;Node9</title>
<g id="a_edge9_Node000007_Node000009"><a xlink:title=" ">
<path fill="none" stroke="#63b8ff" d="M93.75,-55.59C93.75,-49.01 93.75,-39.96 93.75,-31.73"/>
<polygon fill="#63b8ff" stroke="#63b8ff" points="97.25,-31.81 93.75,-21.81 90.25,-31.81 97.25,-31.81"/>
</a>
</g>
</g>
<!-- Node7&#45;&gt;Node10 -->
<g id="edge10_Node000007_Node000010" class="edge">
<title>Node7&#45;&gt;Node10</title>
<g id="a_edge10_Node000007_Node000010"><a xlink:title=" ">
<path fill="none" stroke="#63b8ff" d="M118.66,-55.59C141.48,-46.97 175.53,-34.12 201.21,-24.42"/>
<polygon fill="#63b8ff" stroke="#63b8ff" points="202.11,-27.82 210.23,-21.01 199.64,-21.27 202.11,-27.82"/>
</a>
</g>
</g>
<!-- Node11&#45;&gt;Node2 -->
<g id="edge13_Node000011_Node000002" class="edge">
<title>Node11&#45;&gt;Node2</title>
<g id="a_edge13_Node000011_Node000002"><a xlink:title=" ">
<path fill="none" stroke="#63b8ff" d="M219.73,-55.59C209.74,-47.77 195.29,-36.46 183.44,-27.19"/>
<polygon fill="#63b8ff" stroke="#63b8ff" points="185.86,-24.64 175.82,-21.23 181.54,-30.15 185.86,-24.64"/>
</a>
</g>
</g>
<!-- Node11&#45;&gt;Node10 -->
<g id="edge14_Node000011_Node000010" class="edge">
<title>Node11&#45;&gt;Node10</title>
<g id="a_edge14_Node000011_Node000010"><a xlink:title=" ">
<path fill="none" stroke="#63b8ff" d="M232.62,-55.59C233.23,-49.01 234.07,-39.96 234.83,-31.73"/>
<polygon fill="#63b8ff" stroke="#63b8ff" points="238.31,-32.09 235.75,-21.81 231.34,-31.44 238.31,-32.09"/>
</a>
</g>
</g>
</g>
</svg>
