<?xml version="1.0" encoding="UTF-8" standalone="no"?>
<!DOCTYPE svg PUBLIC "-//W3C//DTD SVG 1.1//EN"
 "http://www.w3.org/Graphics/SVG/1.1/DTD/svg11.dtd">
<!-- Generated by graphviz version 9.0.0 (20230911.1827)
 -->
<!-- Title: E:/GitHub/PRML_Code/src/hw3/lib/data_plot.c Pages: 1 -->
<svg width="321pt" height="152pt"
 viewBox="0.00 0.00 321.46 152.00" xmlns="http://www.w3.org/2000/svg" xmlns:xlink="http://www.w3.org/1999/xlink">

<svg id="main" version="1.1" xmlns="http://www.w3.org/2000/svg" xmlns:xlink="http://www.w3.org/1999/xlink" xml:space="preserve" onload="init(evt)">
<style type="text/css"><![CDATA[
.node, .edge {opacity: 0.7;}
.node.selected, .edge.selected {opacity: 1;}
.edge:hover path { stroke: red; }
.edge:hover polygon { stroke: red; fill: red; }
]]></style>
<script type="application/ecmascript" xlink:href="svg.min.js"/>
<svg id="graph" class="graph">
<g id="graph0" class="graph" transform="scale(1 1) rotate(0) translate(4 148)">
<title>E:/GitHub/PRML_Code/src/hw3/lib/data_plot.c</title>
<!-- Node1 -->
<g id="Node000001" class="node">
<title>Node1</title>
<g id="a_Node000001"><a xlink:title=" ">
<polygon fill="#999999" stroke="#666666" points="198.21,-144 81.71,-144 81.71,-112 198.21,-112 198.21,-144"/>
<text text-anchor="start" x="89.71" y="-130.5" font-family="Helvetica,sans-Serif" font-size="10.00">E:/GitHub/PRML_Code</text>
<text text-anchor="middle" x="139.96" y="-118.5" font-family="Helvetica,sans-Serif" font-size="10.00">/src/hw3/lib/data_plot.c</text>
</a>
</g>
</g>
<!-- Node2 -->
<g id="Node000002" class="node">
<title>Node2</title>
<g id="a_Node000002"><a xlink:title=" ">
<polygon fill="#e0e0e0" stroke="#999999" points="133.59,-20 88.34,-20 88.34,0 133.59,0 133.59,-20"/>
<text text-anchor="middle" x="110.96" y="-6.5" font-family="Helvetica,sans-Serif" font-size="10.00">stdio.h</text>
</a>
</g>
</g>
<!-- Node1&#45;&gt;Node2 -->
<g id="edge1_Node000001_Node000002" class="edge">
<title>Node1&#45;&gt;Node2</title>
<g id="a_edge1_Node000001_Node000002"><a xlink:title=" ">
<path fill="none" stroke="#63b8ff" d="M81.31,-120.22C53.3,-113.7 22.2,-100.94 4.96,-76 -16.09,-45.53 38.68,-26.71 77.11,-17.61"/>
<polygon fill="#63b8ff" stroke="#63b8ff" points="77.44,-21.12 86.44,-15.52 75.92,-14.28 77.44,-21.12"/>
</a>
</g>
</g>
<!-- Node3 -->
<g id="Node000003" class="node">
<title>Node3</title>
<g id="a_Node000003"><a xlink:title=" ">
<polygon fill="#e0e0e0" stroke="#999999" points="61.71,-76 14.21,-76 14.21,-56 61.71,-56 61.71,-76"/>
<text text-anchor="middle" x="37.96" y="-62.5" font-family="Helvetica,sans-Serif" font-size="10.00">stdlib.h</text>
</a>
</g>
</g>
<!-- Node1&#45;&gt;Node3 -->
<g id="edge2_Node000001_Node000003" class="edge">
<title>Node1&#45;&gt;Node3</title>
<g id="a_edge2_Node000001_Node000003"><a xlink:title=" ">
<path fill="none" stroke="#63b8ff" d="M113.7,-111.55C98.35,-102.52 79.06,-91.17 63.79,-82.19"/>
<polygon fill="#63b8ff" stroke="#63b8ff" points="65.66,-79.23 55.26,-77.18 62.11,-85.26 65.66,-79.23"/>
</a>
</g>
</g>
<!-- Node4 -->
<g id="Node000004" class="node">
<title>Node4</title>
<g id="a_Node000004"><a xlink:href="libc_2output__format_8h.html" target="_top" xlink:title="Output format struct for color printing (charactors)">
<polygon fill="white" stroke="#666666" points="199.71,-76 80.21,-76 80.21,-56 199.71,-56 199.71,-76"/>
<text text-anchor="middle" x="139.96" y="-62.5" font-family="Helvetica,sans-Serif" font-size="10.00">../../libc/output_format.h</text>
</a>
</g>
</g>
<!-- Node1&#45;&gt;Node4 -->
<g id="edge3_Node000001_Node000004" class="edge">
<title>Node1&#45;&gt;Node4</title>
<g id="a_edge3_Node000001_Node000004"><a xlink:title=" ">
<path fill="none" stroke="#63b8ff" d="M139.96,-111.55C139.96,-104.34 139.96,-95.66 139.96,-87.88"/>
<polygon fill="#63b8ff" stroke="#63b8ff" points="143.46,-87.92 139.96,-77.92 136.46,-87.92 143.46,-87.92"/>
</a>
</g>
</g>
<!-- Node5 -->
<g id="Node000005" class="node">
<title>Node5</title>
<g id="a_Node000005"><a xlink:href="hw3_2lib_2data__plot_8h.html" target="_top" xlink:title="Data plot functions.">
<polygon fill="white" stroke="#666666" points="281.96,-76 217.96,-76 217.96,-56 281.96,-56 281.96,-76"/>
<text text-anchor="middle" x="249.96" y="-62.5" font-family="Helvetica,sans-Serif" font-size="10.00">data_plot.h</text>
</a>
</g>
</g>
<!-- Node1&#45;&gt;Node5 -->
<g id="edge4_Node000001_Node000005" class="edge">
<title>Node1&#45;&gt;Node5</title>
<g id="a_edge4_Node000001_Node000005"><a xlink:title=" ">
<path fill="none" stroke="#63b8ff" d="M168.29,-111.55C185.16,-102.35 206.45,-90.74 223.06,-81.68"/>
<polygon fill="#63b8ff" stroke="#63b8ff" points="224.29,-84.99 231.39,-77.13 220.93,-78.85 224.29,-84.99"/>
</a>
</g>
</g>
<!-- Node6 -->
<g id="Node000006" class="node">
<title>Node6</title>
<g id="a_Node000006"><a xlink:href="hw3_2lib_2data__proc_8h.html" target="_top" xlink:title="Data processing functions.">
<polygon fill="white" stroke="#666666" points="313.46,-20 246.46,-20 246.46,0 313.46,0 313.46,-20"/>
<text text-anchor="middle" x="279.96" y="-6.5" font-family="Helvetica,sans-Serif" font-size="10.00">data_proc.h</text>
</a>
</g>
</g>
<!-- Node1&#45;&gt;Node6 -->
<g id="edge7_Node000001_Node000006" class="edge">
<title>Node1&#45;&gt;Node6</title>
<g id="a_edge7_Node000001_Node000006"><a xlink:title=" ">
<path fill="none" stroke="#63b8ff" d="M198.45,-123.34C231.38,-117.92 269.99,-105.22 290.96,-76 300.35,-62.92 296.1,-44.6 290.37,-30.74"/>
<polygon fill="#63b8ff" stroke="#63b8ff" points="293.55,-29.28 286.12,-21.73 287.22,-32.27 293.55,-29.28"/>
</a>
</g>
</g>
<!-- Node5&#45;&gt;Node2 -->
<g id="edge5_Node000005_Node000002" class="edge">
<title>Node5&#45;&gt;Node2</title>
<g id="a_edge5_Node000005_Node000002"><a xlink:title=" ">
<path fill="none" stroke="#63b8ff" d="M225.75,-55.59C203.26,-46.85 169.55,-33.76 144.48,-24.02"/>
<polygon fill="#63b8ff" stroke="#63b8ff" points="145.98,-20.85 135.39,-20.49 143.44,-27.37 145.98,-20.85"/>
</a>
</g>
</g>
<!-- Node5&#45;&gt;Node6 -->
<g id="edge6_Node000005_Node000006" class="edge">
<title>Node5&#45;&gt;Node6</title>
<g id="a_edge6_Node000005_Node000006"><a xlink:title=" ">
<path fill="none" stroke="#63b8ff" d="M255.19,-55.59C259.06,-48.63 264.47,-38.89 269.25,-30.29"/>
<polygon fill="#63b8ff" stroke="#63b8ff" points="272.27,-32.06 274.06,-21.62 266.15,-28.66 272.27,-32.06"/>
</a>
</g>
</g>
</g>
</svg>
</svg>

<style type='text/css'>
<![CDATA[
[data-mouse-over-selected='false'] { opacity: 0.7; }
[data-mouse-over-selected='true']  { opacity: 1.0; }
]]>
</style>
<script type="application/ecmascript"><![CDATA[
document.addEventListener('DOMContentLoaded', (event) => {
  highlightEdges();
  highlightAdjacentNodes();
});
]]></script>
</svg>
