<?xml version="1.0" encoding="UTF-8" standalone="no"?>
<!DOCTYPE svg PUBLIC "-//W3C//DTD SVG 1.1//EN"
 "http://www.w3.org/Graphics/SVG/1.1/DTD/svg11.dtd">
<!-- Generated by graphviz version 9.0.0 (20230911.1827)
 -->
<!-- Title: E:/GitHub/PRML_Code/src/hw3/lib/data_proc.c Pages: 1 -->
<svg width="495pt" height="152pt"
 viewBox="0.00 0.00 495.12 152.00" xmlns="http://www.w3.org/2000/svg" xmlns:xlink="http://www.w3.org/1999/xlink">

<svg id="main" version="1.1" xmlns="http://www.w3.org/2000/svg" xmlns:xlink="http://www.w3.org/1999/xlink" xml:space="preserve" onload="init(evt)">
<style type="text/css"><![CDATA[
.node, .edge {opacity: 0.7;}
.node.selected, .edge.selected {opacity: 1;}
.edge:hover path { stroke: red; }
.edge:hover polygon { stroke: red; fill: red; }
]]></style>
<script type="application/ecmascript" xlink:href="svg.min.js"/>
<svg id="graph" class="graph">
<g id="graph0" class="graph" transform="scale(1 1) rotate(0) translate(4 148)">
<title>E:/GitHub/PRML_Code/src/hw3/lib/data_proc.c</title>
<!-- Node1 -->
<g id="Node000001" class="node">
<title>Node1</title>
<g id="a_Node000001"><a xlink:title=" ">
<polygon fill="#999999" stroke="#666666" points="223.38,-144 103.88,-144 103.88,-112 223.38,-112 223.38,-144"/>
<text text-anchor="start" x="111.88" y="-130.5" font-family="Helvetica,sans-Serif" font-size="10.00">E:/GitHub/PRML_Code</text>
<text text-anchor="middle" x="163.62" y="-118.5" font-family="Helvetica,sans-Serif" font-size="10.00">/src/hw3/lib/data_proc.c</text>
</a>
</g>
</g>
<!-- Node2 -->
<g id="Node000002" class="node">
<title>Node2</title>
<g id="a_Node000002"><a xlink:title=" ">
<polygon fill="#e0e0e0" stroke="#999999" points="45.25,-76 0,-76 0,-56 45.25,-56 45.25,-76"/>
<text text-anchor="middle" x="22.62" y="-62.5" font-family="Helvetica,sans-Serif" font-size="10.00">stdio.h</text>
</a>
</g>
</g>
<!-- Node1&#45;&gt;Node2 -->
<g id="edge1_Node000001_Node000002" class="edge">
<title>Node1&#45;&gt;Node2</title>
<g id="a_edge1_Node000001_Node000002"><a xlink:title=" ">
<path fill="none" stroke="#63b8ff" d="M127.31,-111.55C105.08,-102.09 76.86,-90.08 55.32,-80.91"/>
<polygon fill="#63b8ff" stroke="#63b8ff" points="56.7,-77.7 46.13,-77 53.96,-84.14 56.7,-77.7"/>
</a>
</g>
</g>
<!-- Node3 -->
<g id="Node000003" class="node">
<title>Node3</title>
<g id="a_Node000003"><a xlink:title=" ">
<polygon fill="#e0e0e0" stroke="#999999" points="278.62,-20 232.62,-20 232.62,0 278.62,0 278.62,-20"/>
<text text-anchor="middle" x="255.62" y="-6.5" font-family="Helvetica,sans-Serif" font-size="10.00">math.h</text>
</a>
</g>
</g>
<!-- Node1&#45;&gt;Node3 -->
<g id="edge2_Node000001_Node000003" class="edge">
<title>Node1&#45;&gt;Node3</title>
<g id="a_edge2_Node000001_Node000003"><a xlink:title=" ">
<path fill="none" stroke="#63b8ff" d="M129.54,-111.54C104.25,-97.88 76.68,-76.94 92.62,-56 108.11,-35.66 177.94,-22.17 221.03,-15.62"/>
<polygon fill="#63b8ff" stroke="#63b8ff" points="221.51,-19.09 230.9,-14.18 220.5,-12.16 221.51,-19.09"/>
</a>
</g>
</g>
<!-- Node4 -->
<g id="Node000004" class="node">
<title>Node4</title>
<g id="a_Node000004"><a xlink:title=" ">
<polygon fill="#e0e0e0" stroke="#999999" points="149.75,-76 101.5,-76 101.5,-56 149.75,-56 149.75,-76"/>
<text text-anchor="middle" x="125.62" y="-62.5" font-family="Helvetica,sans-Serif" font-size="10.00">string.h</text>
</a>
</g>
</g>
<!-- Node1&#45;&gt;Node4 -->
<g id="edge3_Node000001_Node000004" class="edge">
<title>Node1&#45;&gt;Node4</title>
<g id="a_edge3_Node000001_Node000004"><a xlink:title=" ">
<path fill="none" stroke="#63b8ff" d="M153.84,-111.55C148.89,-103.74 142.84,-94.19 137.62,-85.94"/>
<polygon fill="#63b8ff" stroke="#63b8ff" points="140.7,-84.26 132.39,-77.69 134.79,-88.01 140.7,-84.26"/>
</a>
</g>
</g>
<!-- Node5 -->
<g id="Node000005" class="node">
<title>Node5</title>
<g id="a_Node000005"><a xlink:href="hw3_2lib_2data__proc_8h.html" target="_top" xlink:title="Data processing functions.">
<polygon fill="white" stroke="#666666" points="235.12,-76 168.12,-76 168.12,-56 235.12,-56 235.12,-76"/>
<text text-anchor="middle" x="201.62" y="-62.5" font-family="Helvetica,sans-Serif" font-size="10.00">data_proc.h</text>
</a>
</g>
</g>
<!-- Node1&#45;&gt;Node5 -->
<g id="edge4_Node000001_Node000005" class="edge">
<title>Node1&#45;&gt;Node5</title>
<g id="a_edge4_Node000001_Node000005"><a xlink:title=" ">
<path fill="none" stroke="#63b8ff" d="M173.41,-111.55C178.36,-103.74 184.41,-94.19 189.63,-85.94"/>
<polygon fill="#63b8ff" stroke="#63b8ff" points="192.46,-88.01 194.86,-77.69 186.55,-84.26 192.46,-88.01"/>
</a>
</g>
</g>
<!-- Node6 -->
<g id="Node000006" class="node">
<title>Node6</title>
<g id="a_Node000006"><a xlink:href="libc_2output__format_8h.html" target="_top" xlink:title="Output format struct for color printing (charactors)">
<polygon fill="white" stroke="#666666" points="372.38,-76 252.88,-76 252.88,-56 372.38,-56 372.38,-76"/>
<text text-anchor="middle" x="312.62" y="-62.5" font-family="Helvetica,sans-Serif" font-size="10.00">../../libc/output_format.h</text>
</a>
</g>
</g>
<!-- Node1&#45;&gt;Node6 -->
<g id="edge5_Node000001_Node000006" class="edge">
<title>Node1&#45;&gt;Node6</title>
<g id="a_edge5_Node000001_Node000006"><a xlink:title=" ">
<path fill="none" stroke="#63b8ff" d="M202,-111.55C225.71,-102 255.86,-89.86 278.7,-80.66"/>
<polygon fill="#63b8ff" stroke="#63b8ff" points="279.89,-83.96 287.86,-76.97 277.27,-77.46 279.89,-83.96"/>
</a>
</g>
</g>
<!-- Node7 -->
<g id="Node000007" class="node">
<title>Node7</title>
<g id="a_Node000007"><a xlink:href="distance_8h.html" target="_top" xlink:title="Distance calculation functions Ref:">
<polygon fill="white" stroke="#666666" points="487.12,-76 390.12,-76 390.12,-56 487.12,-56 487.12,-76"/>
<text text-anchor="middle" x="438.62" y="-62.5" font-family="Helvetica,sans-Serif" font-size="10.00">../../libc/distance.h</text>
</a>
</g>
</g>
<!-- Node1&#45;&gt;Node7 -->
<g id="edge6_Node000001_Node000007" class="edge">
<title>Node1&#45;&gt;Node7</title>
<g id="a_edge6_Node000001_Node000007"><a xlink:title=" ">
<path fill="none" stroke="#63b8ff" d="M223.64,-113.91C271.52,-103.46 338.03,-88.95 384.35,-78.84"/>
<polygon fill="#63b8ff" stroke="#63b8ff" points="384.87,-82.31 393.89,-76.76 383.37,-75.47 384.87,-82.31"/>
</a>
</g>
</g>
<!-- Node7&#45;&gt;Node3 -->
<g id="edge7_Node000007_Node000003" class="edge">
<title>Node7&#45;&gt;Node3</title>
<g id="a_edge7_Node000007_Node000003"><a xlink:title=" ">
<path fill="none" stroke="#63b8ff" d="M406.75,-55.59C374,-45.93 323.19,-30.94 289.67,-21.04"/>
<polygon fill="#63b8ff" stroke="#63b8ff" points="291.04,-17.8 280.46,-18.33 289.06,-24.52 291.04,-17.8"/>
</a>
</g>
</g>
</g>
</svg>
</svg>

<style type='text/css'>
<![CDATA[
[data-mouse-over-selected='false'] { opacity: 0.7; }
[data-mouse-over-selected='true']  { opacity: 1.0; }
]]>
</style>
<script type="application/ecmascript"><![CDATA[
document.addEventListener('DOMContentLoaded', (event) => {
  highlightEdges();
  highlightAdjacentNodes();
});
]]></script>
</svg>
