<?xml version="1.0" encoding="UTF-8" standalone="no"?>
<!DOCTYPE svg PUBLIC "-//W3C//DTD SVG 1.1//EN"
 "http://www.w3.org/Graphics/SVG/1.1/DTD/svg11.dtd">
<!-- Generated by graphviz version 9.0.0 (20230911.1827)
 -->
<!-- Title: E:/GitHub/PRML_Code/src/hw4/main.c Pages: 1 -->
<svg width="564pt" height="264pt"
 viewBox="0.00 0.00 563.62 264.00" xmlns="http://www.w3.org/2000/svg" xmlns:xlink="http://www.w3.org/1999/xlink">
<g id="graph0" class="graph" transform="scale(1 1) rotate(0) translate(4 260)">
<title>E:/GitHub/PRML_Code/src/hw4/main.c</title>
<!-- Node1 -->
<g id="Node000001" class="node">
<title>Node1</title>
<g id="a_Node000001"><a xlink:title="Basic demonstration for Supervised Learning Algorithm.">
<polygon fill="#999999" stroke="#666666" points="353.12,-256 236.62,-256 236.62,-224 353.12,-224 353.12,-256"/>
<text text-anchor="start" x="244.62" y="-242.5" font-family="Helvetica,sans-Serif" font-size="10.00">E:/GitHub/PRML_Code</text>
<text text-anchor="middle" x="294.88" y="-230.5" font-family="Helvetica,sans-Serif" font-size="10.00">/src/hw4/main.c</text>
</a>
</g>
</g>
<!-- Node2 -->
<g id="Node000002" class="node">
<title>Node2</title>
<g id="a_Node000002"><a xlink:title=" ">
<polygon fill="#e0e0e0" stroke="#999999" points="275.5,-20 230.25,-20 230.25,0 275.5,0 275.5,-20"/>
<text text-anchor="middle" x="252.88" y="-6.5" font-family="Helvetica,sans-Serif" font-size="10.00">stdio.h</text>
</a>
</g>
</g>
<!-- Node1&#45;&gt;Node2 -->
<g id="edge1_Node000001_Node000002" class="edge">
<title>Node1&#45;&gt;Node2</title>
<g id="a_edge1_Node000001_Node000002"><a xlink:title=" ">
<path fill="none" stroke="#63b8ff" d="M338.52,-223.57C354.46,-215.56 370.8,-204.02 379.88,-188 396.81,-158.09 448.62,-161.04 368.88,-56 349.53,-30.52 313.75,-19.46 287.02,-14.67"/>
<polygon fill="#63b8ff" stroke="#63b8ff" points="287.75,-11.24 277.33,-13.15 286.67,-18.15 287.75,-11.24"/>
</a>
</g>
</g>
<!-- Node3 -->
<g id="Node000003" class="node">
<title>Node3</title>
<g id="a_Node000003"><a xlink:href="config__read_8h.html" target="_top" xlink:title=" ">
<polygon fill="white" stroke="#666666" points="140.12,-76 47.62,-76 47.62,-56 140.12,-56 140.12,-76"/>
<text text-anchor="middle" x="93.88" y="-62.5" font-family="Helvetica,sans-Serif" font-size="10.00">./lib/config_read.h</text>
</a>
</g>
</g>
<!-- Node1&#45;&gt;Node3 -->
<g id="edge2_Node000001_Node000003" class="edge">
<title>Node1&#45;&gt;Node3</title>
<g id="a_edge2_Node000001_Node000003"><a xlink:title=" ">
<path fill="none" stroke="#63b8ff" d="M236.35,-230.6C206.19,-223.63 170.64,-210.95 145.88,-188 116.48,-160.77 102.96,-114.12 97.36,-87.39"/>
<polygon fill="#63b8ff" stroke="#63b8ff" points="100.85,-87.01 95.54,-77.84 93.97,-88.32 100.85,-87.01"/>
</a>
</g>
</g>
<!-- Node7 -->
<g id="Node000007" class="node">
<title>Node7</title>
<g id="a_Node000007"><a xlink:href="plot__iter_8h.html" target="_top" xlink:title="Create a gnuplot drawing API for iter.h.">
<polygon fill="white" stroke="#666666" points="232.62,-188 155.12,-188 155.12,-168 232.62,-168 232.62,-188"/>
<text text-anchor="middle" x="193.88" y="-174.5" font-family="Helvetica,sans-Serif" font-size="10.00">./lib/plot_iter.h</text>
</a>
</g>
</g>
<!-- Node1&#45;&gt;Node7 -->
<g id="edge7_Node000001_Node000007" class="edge">
<title>Node1&#45;&gt;Node7</title>
<g id="a_edge7_Node000001_Node000007"><a xlink:title=" ">
<path fill="none" stroke="#63b8ff" d="M268.86,-223.55C253.67,-214.52 234.57,-203.17 219.45,-194.19"/>
<polygon fill="#63b8ff" stroke="#63b8ff" points="221.4,-191.28 211.01,-189.18 217.82,-197.3 221.4,-191.28"/>
</a>
</g>
</g>
<!-- Node8 -->
<g id="Node000008" class="node">
<title>Node8</title>
<g id="a_Node000008"><a xlink:href="iter_8h.html" target="_top" xlink:title="Iterate through points and fine the point closest to the intersection of lines Ref:">
<polygon fill="white" stroke="#666666" points="271.75,-132 234,-132 234,-112 271.75,-112 271.75,-132"/>
<text text-anchor="middle" x="252.88" y="-118.5" font-family="Helvetica,sans-Serif" font-size="10.00">iter.h</text>
</a>
</g>
</g>
<!-- Node1&#45;&gt;Node8 -->
<g id="edge14_Node000001_Node000008" class="edge">
<title>Node1&#45;&gt;Node8</title>
<g id="a_edge14_Node000001_Node000008"><a xlink:title=" ">
<path fill="none" stroke="#63b8ff" d="M289.38,-223.84C281.89,-203.13 268.43,-165.95 260.11,-142.99"/>
<polygon fill="#63b8ff" stroke="#63b8ff" points="263.5,-142.07 256.81,-133.86 256.92,-144.45 263.5,-142.07"/>
</a>
</g>
</g>
<!-- Node9 -->
<g id="Node000009" class="node">
<title>Node9</title>
<g id="a_Node000009"><a xlink:href="plot__cost_8h.html" target="_top" xlink:title="Function prototypes for plotting cost function.">
<polygon fill="white" stroke="#666666" points="371.25,-188 288.5,-188 288.5,-168 371.25,-168 371.25,-188"/>
<text text-anchor="middle" x="329.88" y="-174.5" font-family="Helvetica,sans-Serif" font-size="10.00">./lib/plot_cost.h</text>
</a>
</g>
</g>
<!-- Node1&#45;&gt;Node9 -->
<g id="edge15_Node000001_Node000009" class="edge">
<title>Node1&#45;&gt;Node9</title>
<g id="a_edge15_Node000001_Node000009"><a xlink:title=" ">
<path fill="none" stroke="#63b8ff" d="M303.89,-223.55C308.39,-215.82 313.89,-206.4 318.67,-198.21"/>
<polygon fill="#63b8ff" stroke="#63b8ff" points="321.61,-200.12 323.62,-189.72 315.56,-196.59 321.61,-200.12"/>
</a>
</g>
</g>
<!-- Node10 -->
<g id="Node000010" class="node">
<title>Node10</title>
<g id="a_Node000010"><a xlink:href="signal__handler_8h.html" target="_top" xlink:title="Defines custom signal handler. Ref:">
<polygon fill="white" stroke="#666666" points="555.62,-188 442.12,-188 442.12,-168 555.62,-168 555.62,-188"/>
<text text-anchor="middle" x="498.88" y="-174.5" font-family="Helvetica,sans-Serif" font-size="10.00">../libc/signal_handler.h</text>
</a>
</g>
</g>
<!-- Node1&#45;&gt;Node10 -->
<g id="edge20_Node000001_Node000010" class="edge">
<title>Node1&#45;&gt;Node10</title>
<g id="a_edge20_Node000001_Node000010"><a xlink:title=" ">
<path fill="none" stroke="#63b8ff" d="M347.41,-223.55C381.1,-213.64 424.28,-200.94 455.92,-191.64"/>
<polygon fill="#63b8ff" stroke="#63b8ff" points="456.53,-195.1 465.14,-188.92 454.55,-188.39 456.53,-195.1"/>
</a>
</g>
</g>
<!-- Node3&#45;&gt;Node2 -->
<g id="edge3_Node000003_Node000002" class="edge">
<title>Node3&#45;&gt;Node2</title>
<g id="a_edge3_Node000003_Node000002"><a xlink:title=" ">
<path fill="none" stroke="#63b8ff" d="M121.57,-55.59C148.75,-46.36 190.23,-32.28 219.28,-22.41"/>
<polygon fill="#63b8ff" stroke="#63b8ff" points="220.35,-25.74 228.69,-19.21 218.1,-19.11 220.35,-25.74"/>
</a>
</g>
</g>
<!-- Node4 -->
<g id="Node000004" class="node">
<title>Node4</title>
<g id="a_Node000004"><a xlink:title=" ">
<polygon fill="#e0e0e0" stroke="#999999" points="191.62,-20 144.12,-20 144.12,0 191.62,0 191.62,-20"/>
<text text-anchor="middle" x="167.88" y="-6.5" font-family="Helvetica,sans-Serif" font-size="10.00">stdlib.h</text>
</a>
</g>
</g>
<!-- Node3&#45;&gt;Node4 -->
<g id="edge4_Node000003_Node000004" class="edge">
<title>Node3&#45;&gt;Node4</title>
<g id="a_edge4_Node000003_Node000004"><a xlink:title=" ">
<path fill="none" stroke="#63b8ff" d="M106.76,-55.59C117.59,-47.7 133.29,-36.24 146.06,-26.92"/>
<polygon fill="#63b8ff" stroke="#63b8ff" points="147.9,-29.91 153.91,-21.19 143.77,-24.26 147.9,-29.91"/>
</a>
</g>
</g>
<!-- Node5 -->
<g id="Node000005" class="node">
<title>Node5</title>
<g id="a_Node000005"><a xlink:title=" ">
<polygon fill="#e0e0e0" stroke="#999999" points="55.75,-20 0,-20 0,0 55.75,0 55.75,-20"/>
<text text-anchor="middle" x="27.88" y="-6.5" font-family="Helvetica,sans-Serif" font-size="10.00">stdbool.h</text>
</a>
</g>
</g>
<!-- Node3&#45;&gt;Node5 -->
<g id="edge5_Node000003_Node000005" class="edge">
<title>Node3&#45;&gt;Node5</title>
<g id="a_edge5_Node000003_Node000005"><a xlink:title=" ">
<path fill="none" stroke="#63b8ff" d="M82.38,-55.59C72.91,-47.85 59.27,-36.69 48,-27.47"/>
<polygon fill="#63b8ff" stroke="#63b8ff" points="50.37,-24.88 40.41,-21.26 45.93,-30.3 50.37,-24.88"/>
</a>
</g>
</g>
<!-- Node6 -->
<g id="Node000006" class="node">
<title>Node6</title>
<g id="a_Node000006"><a xlink:title=" ">
<polygon fill="#e0e0e0" stroke="#999999" points="122,-20 73.75,-20 73.75,0 122,0 122,-20"/>
<text text-anchor="middle" x="97.88" y="-6.5" font-family="Helvetica,sans-Serif" font-size="10.00">string.h</text>
</a>
</g>
</g>
<!-- Node3&#45;&gt;Node6 -->
<g id="edge6_Node000003_Node000006" class="edge">
<title>Node3&#45;&gt;Node6</title>
<g id="a_edge6_Node000003_Node000006"><a xlink:title=" ">
<path fill="none" stroke="#63b8ff" d="M94.57,-55.59C95.06,-49.01 95.73,-39.96 96.34,-31.73"/>
<polygon fill="#63b8ff" stroke="#63b8ff" points="99.83,-32.04 97.07,-21.81 92.85,-31.52 99.83,-32.04"/>
</a>
</g>
</g>
<!-- Node7&#45;&gt;Node2 -->
<g id="edge8_Node000007_Node000002" class="edge">
<title>Node7&#45;&gt;Node2</title>
<g id="a_edge8_Node000007_Node000002"><a xlink:title=" ">
<path fill="none" stroke="#63b8ff" d="M197.22,-167.6C206.55,-141.35 233.03,-66.84 245.81,-30.89"/>
<polygon fill="#63b8ff" stroke="#63b8ff" points="249.01,-32.32 249.06,-21.72 242.42,-29.97 249.01,-32.32"/>
</a>
</g>
</g>
<!-- Node7&#45;&gt;Node3 -->
<g id="edge10_Node000007_Node000003" class="edge">
<title>Node7&#45;&gt;Node3</title>
<g id="a_edge10_Node000007_Node000003"><a xlink:title=" ">
<path fill="none" stroke="#63b8ff" d="M185.35,-167.62C168.67,-149.27 131.49,-108.37 110.01,-84.75"/>
<polygon fill="#63b8ff" stroke="#63b8ff" points="112.71,-82.52 103.4,-77.47 107.53,-87.23 112.71,-82.52"/>
</a>
</g>
</g>
<!-- Node7&#45;&gt;Node4 -->
<g id="edge9_Node000007_Node000004" class="edge">
<title>Node7&#45;&gt;Node4</title>
<g id="a_edge9_Node000007_Node000004"><a xlink:title=" ">
<path fill="none" stroke="#63b8ff" d="M192.4,-167.6C188.31,-141.46 176.72,-67.48 171.06,-31.36"/>
<polygon fill="#63b8ff" stroke="#63b8ff" points="174.57,-31.13 169.57,-21.79 167.66,-32.21 174.57,-31.13"/>
</a>
</g>
</g>
<!-- Node7&#45;&gt;Node8 -->
<g id="edge11_Node000007_Node000008" class="edge">
<title>Node7&#45;&gt;Node8</title>
<g id="a_edge11_Node000007_Node000008"><a xlink:title=" ">
<path fill="none" stroke="#63b8ff" d="M204.15,-167.59C212.44,-160.01 224.32,-149.13 234.28,-140.02"/>
<polygon fill="#63b8ff" stroke="#63b8ff" points="236.59,-142.65 241.6,-133.32 231.86,-137.49 236.59,-142.65"/>
</a>
</g>
</g>
<!-- Node8&#45;&gt;Node2 -->
<g id="edge12_Node000008_Node000002" class="edge">
<title>Node8&#45;&gt;Node2</title>
<g id="a_edge12_Node000008_Node000002"><a xlink:title=" ">
<path fill="none" stroke="#63b8ff" d="M252.88,-111.62C252.88,-94.01 252.88,-55.59 252.88,-31.65"/>
<polygon fill="#63b8ff" stroke="#63b8ff" points="256.38,-31.87 252.88,-21.87 249.38,-31.87 256.38,-31.87"/>
</a>
</g>
</g>
<!-- Node8&#45;&gt;Node3 -->
<g id="edge13_Node000008_Node000003" class="edge">
<title>Node8&#45;&gt;Node3</title>
<g id="a_edge13_Node000008_Node000003"><a xlink:title=" ">
<path fill="none" stroke="#63b8ff" d="M233.7,-114.49C208.72,-106 164.49,-90.98 132.44,-80.1"/>
<polygon fill="#63b8ff" stroke="#63b8ff" points="133.7,-76.83 123.1,-76.93 131.45,-83.46 133.7,-76.83"/>
</a>
</g>
</g>
<!-- Node9&#45;&gt;Node2 -->
<g id="edge16_Node000009_Node000002" class="edge">
<title>Node9&#45;&gt;Node2</title>
<g id="a_edge16_Node000009_Node000002"><a xlink:title=" ">
<path fill="none" stroke="#63b8ff" d="M335.7,-167.64C348.3,-146.1 375.11,-92.08 351.88,-56 337.69,-33.97 309.78,-22.6 287.2,-16.8"/>
<polygon fill="#63b8ff" stroke="#63b8ff" points="287.98,-13.39 277.46,-14.59 286.43,-20.22 287.98,-13.39"/>
</a>
</g>
</g>
<!-- Node9&#45;&gt;Node3 -->
<g id="edge18_Node000009_Node000003" class="edge">
<title>Node9&#45;&gt;Node3</title>
<g id="a_edge18_Node000009_Node000003"><a xlink:title=" ">
<path fill="none" stroke="#63b8ff" d="M325.59,-167.85C318.42,-153.6 302.62,-126.26 280.88,-112 242.25,-86.66 190.76,-75.57 151.59,-70.72"/>
<polygon fill="#63b8ff" stroke="#63b8ff" points="152.21,-67.27 141.88,-69.63 151.42,-74.23 152.21,-67.27"/>
</a>
</g>
</g>
<!-- Node9&#45;&gt;Node4 -->
<g id="edge17_Node000009_Node000004" class="edge">
<title>Node9&#45;&gt;Node4</title>
<g id="a_edge17_Node000009_Node000004"><a xlink:title=" ">
<path fill="none" stroke="#63b8ff" d="M328.06,-167.79C325.07,-154.41 318.07,-129.31 304.88,-112 275.55,-73.53 227.71,-42.96 197.02,-25.92"/>
<polygon fill="#63b8ff" stroke="#63b8ff" points="198.74,-22.87 188.28,-21.18 195.4,-29.02 198.74,-22.87"/>
</a>
</g>
</g>
<!-- Node9&#45;&gt;Node8 -->
<g id="edge19_Node000009_Node000008" class="edge">
<title>Node9&#45;&gt;Node8</title>
<g id="a_edge19_Node000009_Node000008"><a xlink:title=" ">
<path fill="none" stroke="#63b8ff" d="M316.46,-167.59C305.27,-159.74 289.06,-148.38 275.82,-139.09"/>
<polygon fill="#63b8ff" stroke="#63b8ff" points="277.83,-136.22 267.63,-133.35 273.81,-141.96 277.83,-136.22"/>
</a>
</g>
</g>
<!-- Node11 -->
<g id="Node000011" class="node">
<title>Node11</title>
<g id="a_Node000011"><a xlink:title=" ">
<polygon fill="#e0e0e0" stroke="#999999" points="523.75,-132 474,-132 474,-112 523.75,-112 523.75,-132"/>
<text text-anchor="middle" x="498.88" y="-118.5" font-family="Helvetica,sans-Serif" font-size="10.00">signal.h</text>
</a>
</g>
</g>
<!-- Node10&#45;&gt;Node11 -->
<g id="edge21_Node000010_Node000011" class="edge">
<title>Node10&#45;&gt;Node11</title>
<g id="a_edge21_Node000010_Node000011"><a xlink:title=" ">
<path fill="none" stroke="#63b8ff" d="M498.88,-167.59C498.88,-161.01 498.88,-151.96 498.88,-143.73"/>
<polygon fill="#63b8ff" stroke="#63b8ff" points="502.38,-143.81 498.88,-133.81 495.38,-143.81 502.38,-143.81"/>
</a>
</g>
</g>
</g>
</svg>
