<?xml version="1.0" encoding="UTF-8" standalone="no"?>
<!DOCTYPE svg PUBLIC "-//W3C//DTD SVG 1.1//EN"
 "http://www.w3.org/Graphics/SVG/1.1/DTD/svg11.dtd">
<!-- Generated by graphviz version 9.0.0 (20230911.1827)
 -->
<!-- Title: E:/GitHub/PRML_Code/src/hw4/lib/iter.c Pages: 1 -->
<svg width="491pt" height="208pt"
 viewBox="0.00 0.00 490.88 208.00" xmlns="http://www.w3.org/2000/svg" xmlns:xlink="http://www.w3.org/1999/xlink">

<svg id="main" version="1.1" xmlns="http://www.w3.org/2000/svg" xmlns:xlink="http://www.w3.org/1999/xlink" xml:space="preserve" onload="init(evt)">
<style type="text/css"><![CDATA[
.node, .edge {opacity: 0.7;}
.node.selected, .edge.selected {opacity: 1;}
.edge:hover path { stroke: red; }
.edge:hover polygon { stroke: red; fill: red; }
]]></style>
<script type="application/ecmascript" xlink:href="svg.min.js"/>
<svg id="graph" class="graph">
<g id="graph0" class="graph" transform="scale(1 1) rotate(0) translate(4 204)">
<title>E:/GitHub/PRML_Code/src/hw4/lib/iter.c</title>
<!-- Node1 -->
<g id="Node000001" class="node">
<title>Node1</title>
<g id="a_Node000001"><a xlink:title=" ">
<polygon fill="#999999" stroke="#666666" points="248.88,-200 132.38,-200 132.38,-168 248.88,-168 248.88,-200"/>
<text text-anchor="start" x="140.38" y="-186.5" font-family="Helvetica,sans-Serif" font-size="10.00">E:/GitHub/PRML_Code</text>
<text text-anchor="middle" x="190.62" y="-174.5" font-family="Helvetica,sans-Serif" font-size="10.00">/src/hw4/lib/iter.c</text>
</a>
</g>
</g>
<!-- Node2 -->
<g id="Node000002" class="node">
<title>Node2</title>
<g id="a_Node000002"><a xlink:title=" ">
<polygon fill="#e0e0e0" stroke="#999999" points="45.25,-20 0,-20 0,0 45.25,0 45.25,-20"/>
<text text-anchor="middle" x="22.62" y="-6.5" font-family="Helvetica,sans-Serif" font-size="10.00">stdio.h</text>
</a>
</g>
</g>
<!-- Node1&#45;&gt;Node2 -->
<g id="edge1_Node000001_Node000002" class="edge">
<title>Node1&#45;&gt;Node2</title>
<g id="a_edge1_Node000001_Node000002"><a xlink:title=" ">
<path fill="none" stroke="#63b8ff" d="M136.34,-167.58C115.93,-159.62 93.78,-148.11 77.62,-132 49.13,-103.58 33.94,-57.74 27.14,-31.39"/>
<polygon fill="#63b8ff" stroke="#63b8ff" points="30.62,-30.87 24.88,-21.96 23.81,-32.5 30.62,-30.87"/>
</a>
</g>
</g>
<!-- Node3 -->
<g id="Node000003" class="node">
<title>Node3</title>
<g id="a_Node000003"><a xlink:title=" ">
<polygon fill="#e0e0e0" stroke="#999999" points="251.38,-20 203.88,-20 203.88,0 251.38,0 251.38,-20"/>
<text text-anchor="middle" x="227.62" y="-6.5" font-family="Helvetica,sans-Serif" font-size="10.00">stdlib.h</text>
</a>
</g>
</g>
<!-- Node1&#45;&gt;Node3 -->
<g id="edge2_Node000001_Node000003" class="edge">
<title>Node1&#45;&gt;Node3</title>
<g id="a_edge2_Node000001_Node000003"><a xlink:title=" ">
<path fill="none" stroke="#63b8ff" d="M193.91,-167.74C200.59,-136.69 215.76,-66.18 223.26,-31.31"/>
<polygon fill="#63b8ff" stroke="#63b8ff" points="226.64,-32.2 225.33,-21.69 219.8,-30.73 226.64,-32.2"/>
</a>
</g>
</g>
<!-- Node4 -->
<g id="Node000004" class="node">
<title>Node4</title>
<g id="a_Node000004"><a xlink:title=" ">
<polygon fill="#e0e0e0" stroke="#999999" points="296.62,-76 250.62,-76 250.62,-56 296.62,-56 296.62,-76"/>
<text text-anchor="middle" x="273.62" y="-62.5" font-family="Helvetica,sans-Serif" font-size="10.00">math.h</text>
</a>
</g>
</g>
<!-- Node1&#45;&gt;Node4 -->
<g id="edge3_Node000001_Node000004" class="edge">
<title>Node1&#45;&gt;Node4</title>
<g id="a_edge3_Node000001_Node000004"><a xlink:title=" ">
<path fill="none" stroke="#63b8ff" d="M201.48,-167.84C216.57,-146.75 243.87,-108.58 260.22,-85.74"/>
<polygon fill="#63b8ff" stroke="#63b8ff" points="263.02,-87.84 265.99,-77.67 257.33,-83.76 263.02,-87.84"/>
</a>
</g>
</g>
<!-- Node5 -->
<g id="Node000005" class="node">
<title>Node5</title>
<g id="a_Node000005"><a xlink:href="iter_8h.html" target="_top" xlink:title="Iterate through points and fine the point closest to the intersection of lines Ref:">
<polygon fill="white" stroke="#666666" points="124.5,-132 86.75,-132 86.75,-112 124.5,-112 124.5,-132"/>
<text text-anchor="middle" x="105.62" y="-118.5" font-family="Helvetica,sans-Serif" font-size="10.00">iter.h</text>
</a>
</g>
</g>
<!-- Node1&#45;&gt;Node5 -->
<g id="edge4_Node000001_Node000005" class="edge">
<title>Node1&#45;&gt;Node5</title>
<g id="a_edge4_Node000001_Node000005"><a xlink:title=" ">
<path fill="none" stroke="#63b8ff" d="M168.74,-167.55C156.32,-158.78 140.8,-147.83 128.26,-138.97"/>
<polygon fill="#63b8ff" stroke="#63b8ff" points="130.38,-136.19 120.19,-133.28 126.34,-141.91 130.38,-136.19"/>
</a>
</g>
</g>
<!-- Node6 -->
<g id="Node000006" class="node">
<title>Node6</title>
<g id="a_Node000006"><a xlink:href="config__read_8h.html" target="_top" xlink:title=" ">
<polygon fill="white" stroke="#666666" points="162.5,-76 88.75,-76 88.75,-56 162.5,-56 162.5,-76"/>
<text text-anchor="middle" x="125.62" y="-62.5" font-family="Helvetica,sans-Serif" font-size="10.00">config_read.h</text>
</a>
</g>
</g>
<!-- Node1&#45;&gt;Node6 -->
<g id="edge11_Node000001_Node000006" class="edge">
<title>Node1&#45;&gt;Node6</title>
<g id="a_edge11_Node000001_Node000006"><a xlink:title=" ">
<path fill="none" stroke="#63b8ff" d="M182.13,-167.84C170.42,-146.94 149.31,-109.27 136.47,-86.36"/>
<polygon fill="#63b8ff" stroke="#63b8ff" points="139.59,-84.77 131.65,-77.76 133.49,-88.19 139.59,-84.77"/>
</a>
</g>
</g>
<!-- Node9 -->
<g id="Node000009" class="node">
<title>Node9</title>
<g id="a_Node000009"><a xlink:href="distance_8h.html" target="_top" xlink:title="Distance calculation functions Ref:">
<polygon fill="white" stroke="#666666" points="354.12,-132 257.12,-132 257.12,-112 354.12,-112 354.12,-132"/>
<text text-anchor="middle" x="305.62" y="-118.5" font-family="Helvetica,sans-Serif" font-size="10.00">../../libc/distance.h</text>
</a>
</g>
</g>
<!-- Node1&#45;&gt;Node9 -->
<g id="edge12_Node000001_Node000009" class="edge">
<title>Node1&#45;&gt;Node9</title>
<g id="a_edge12_Node000001_Node000009"><a xlink:title=" ">
<path fill="none" stroke="#63b8ff" d="M220.24,-167.55C237.88,-158.35 260.13,-146.74 277.5,-137.68"/>
<polygon fill="#63b8ff" stroke="#63b8ff" points="279,-140.84 286.25,-133.11 275.77,-134.63 279,-140.84"/>
</a>
</g>
</g>
<!-- Node10 -->
<g id="Node000010" class="node">
<title>Node10</title>
<g id="a_Node000010"><a xlink:href="intersection_8h.html" target="_top" xlink:title="Intersection of two sets.">
<polygon fill="white" stroke="#666666" points="482.88,-132 372.38,-132 372.38,-112 482.88,-112 482.88,-132"/>
<text text-anchor="middle" x="427.62" y="-118.5" font-family="Helvetica,sans-Serif" font-size="10.00">../../libc/intersection.h</text>
</a>
</g>
</g>
<!-- Node1&#45;&gt;Node10 -->
<g id="edge14_Node000001_Node000010" class="edge">
<title>Node1&#45;&gt;Node10</title>
<g id="a_edge14_Node000001_Node000010"><a xlink:title=" ">
<path fill="none" stroke="#63b8ff" d="M249.21,-168.17C289.38,-158 342.02,-144.67 379.69,-135.13"/>
<polygon fill="#63b8ff" stroke="#63b8ff" points="380.08,-138.65 388.92,-132.8 378.37,-131.86 380.08,-138.65"/>
</a>
</g>
</g>
<!-- Node5&#45;&gt;Node2 -->
<g id="edge5_Node000005_Node000002" class="edge">
<title>Node5&#45;&gt;Node2</title>
<g id="a_edge5_Node000005_Node000002"><a xlink:title=" ">
<path fill="none" stroke="#63b8ff" d="M98.55,-111.62C84.83,-93.44 54.39,-53.09 36.5,-29.38"/>
<polygon fill="#63b8ff" stroke="#63b8ff" points="39.41,-27.44 30.6,-21.56 33.82,-31.65 39.41,-27.44"/>
</a>
</g>
</g>
<!-- Node5&#45;&gt;Node6 -->
<g id="edge6_Node000005_Node000006" class="edge">
<title>Node5&#45;&gt;Node6</title>
<g id="a_edge6_Node000005_Node000006"><a xlink:title=" ">
<path fill="none" stroke="#63b8ff" d="M109.11,-111.59C111.63,-104.78 115.14,-95.32 118.27,-86.86"/>
<polygon fill="#63b8ff" stroke="#63b8ff" points="121.46,-88.31 121.66,-77.72 114.9,-85.88 121.46,-88.31"/>
</a>
</g>
</g>
<!-- Node6&#45;&gt;Node2 -->
<g id="edge7_Node000006_Node000002" class="edge">
<title>Node6&#45;&gt;Node2</title>
<g id="a_edge7_Node000006_Node000002"><a xlink:title=" ">
<path fill="none" stroke="#63b8ff" d="M107.68,-55.59C91.98,-47.36 68.89,-35.26 50.74,-25.74"/>
<polygon fill="#63b8ff" stroke="#63b8ff" points="52.53,-22.73 42.05,-21.18 49.28,-28.93 52.53,-22.73"/>
</a>
</g>
</g>
<!-- Node6&#45;&gt;Node3 -->
<g id="edge8_Node000006_Node000003" class="edge">
<title>Node6&#45;&gt;Node3</title>
<g id="a_edge8_Node000006_Node000003"><a xlink:title=" ">
<path fill="none" stroke="#63b8ff" d="M143.39,-55.59C158.95,-47.36 181.81,-35.26 199.79,-25.74"/>
<polygon fill="#63b8ff" stroke="#63b8ff" points="201.18,-28.96 208.38,-21.19 197.91,-22.77 201.18,-28.96"/>
</a>
</g>
</g>
<!-- Node7 -->
<g id="Node000007" class="node">
<title>Node7</title>
<g id="a_Node000007"><a xlink:title=" ">
<polygon fill="#e0e0e0" stroke="#999999" points="119.5,-20 63.75,-20 63.75,0 119.5,0 119.5,-20"/>
<text text-anchor="middle" x="91.62" y="-6.5" font-family="Helvetica,sans-Serif" font-size="10.00">stdbool.h</text>
</a>
</g>
</g>
<!-- Node6&#45;&gt;Node7 -->
<g id="edge9_Node000006_Node000007" class="edge">
<title>Node6&#45;&gt;Node7</title>
<g id="a_edge9_Node000006_Node000007"><a xlink:title=" ">
<path fill="none" stroke="#63b8ff" d="M119.7,-55.59C115.27,-48.55 109.05,-38.67 103.59,-30"/>
<polygon fill="#63b8ff" stroke="#63b8ff" points="106.58,-28.18 98.29,-21.58 100.65,-31.91 106.58,-28.18"/>
</a>
</g>
</g>
<!-- Node8 -->
<g id="Node000008" class="node">
<title>Node8</title>
<g id="a_Node000008"><a xlink:title=" ">
<polygon fill="#e0e0e0" stroke="#999999" points="185.75,-20 137.5,-20 137.5,0 185.75,0 185.75,-20"/>
<text text-anchor="middle" x="161.62" y="-6.5" font-family="Helvetica,sans-Serif" font-size="10.00">string.h</text>
</a>
</g>
</g>
<!-- Node6&#45;&gt;Node8 -->
<g id="edge10_Node000006_Node000008" class="edge">
<title>Node6&#45;&gt;Node8</title>
<g id="a_edge10_Node000006_Node000008"><a xlink:title=" ">
<path fill="none" stroke="#63b8ff" d="M131.9,-55.59C136.64,-48.47 143.32,-38.45 149.15,-29.72"/>
<polygon fill="#63b8ff" stroke="#63b8ff" points="151.95,-31.82 154.59,-21.56 146.13,-27.94 151.95,-31.82"/>
</a>
</g>
</g>
<!-- Node9&#45;&gt;Node4 -->
<g id="edge13_Node000009_Node000004" class="edge">
<title>Node9&#45;&gt;Node4</title>
<g id="a_edge13_Node000009_Node000004"><a xlink:title=" ">
<path fill="none" stroke="#63b8ff" d="M300.05,-111.59C295.88,-104.55 290.02,-94.67 284.88,-86"/>
<polygon fill="#63b8ff" stroke="#63b8ff" points="288.02,-84.42 279.91,-77.6 281.99,-87.99 288.02,-84.42"/>
</a>
</g>
</g>
</g>
</svg>
</svg>

<style type='text/css'>
<![CDATA[
[data-mouse-over-selected='false'] { opacity: 0.7; }
[data-mouse-over-selected='true']  { opacity: 1.0; }
]]>
</style>
<script type="application/ecmascript"><![CDATA[
document.addEventListener('DOMContentLoaded', (event) => {
  highlightEdges();
  highlightAdjacentNodes();
});
]]></script>
</svg>
