<?xml version="1.0" encoding="UTF-8" standalone="no"?>
<!DOCTYPE svg PUBLIC "-//W3C//DTD SVG 1.1//EN"
 "http://www.w3.org/Graphics/SVG/1.1/DTD/svg11.dtd">
<!-- Generated by graphviz version 9.0.0 (20230911.1827)
 -->
<!-- Title: E:/GitHub/PRML_Code/src/libc/output_format.h Pages: 1 -->
<svg width="1417pt" height="256pt"
 viewBox="0.00 0.00 1417.25 256.00" xmlns="http://www.w3.org/2000/svg" xmlns:xlink="http://www.w3.org/1999/xlink">
<g id="graph0" class="graph" transform="scale(1 1) rotate(0) translate(4 252)">
<title>E:/GitHub/PRML_Code/src/libc/output_format.h</title>
<!-- Node1 -->
<g id="Node000001" class="node">
<title>Node1</title>
<g id="a_Node000001"><a xlink:title="Output format struct for color printing (charactors)">
<polygon fill="#999999" stroke="#666666" points="795.75,-248 674.75,-248 674.75,-216 795.75,-216 795.75,-248"/>
<text text-anchor="start" x="682.75" y="-234.5" font-family="Helvetica,sans-Serif" font-size="10.00">E:/GitHub/PRML_Code</text>
<text text-anchor="middle" x="735.25" y="-222.5" font-family="Helvetica,sans-Serif" font-size="10.00">/src/libc/output_format.h</text>
</a>
</g>
</g>
<!-- Node2 -->
<g id="Node000002" class="node">
<title>Node2</title>
<g id="a_Node000002"><a xlink:href="hw3_2lib_2data__plot_8c.html" target="_top" xlink:title=" ">
<polygon fill="white" stroke="#666666" points="116.5,-174 0,-174 0,-142 116.5,-142 116.5,-174"/>
<text text-anchor="start" x="8" y="-160.5" font-family="Helvetica,sans-Serif" font-size="10.00">E:/GitHub/PRML_Code</text>
<text text-anchor="middle" x="58.25" y="-148.5" font-family="Helvetica,sans-Serif" font-size="10.00">/src/hw3/lib/data_plot.c</text>
</a>
</g>
</g>
<!-- Node1&#45;&gt;Node2 -->
<g id="edge1_Node000001_Node000002" class="edge">
<title>Node1&#45;&gt;Node2</title>
<g id="a_edge1_Node000001_Node000002"><a xlink:title=" ">
<path fill="none" stroke="#63b8ff" d="M663.05,-230.09C548.15,-227.5 317.07,-217.6 125.25,-180 117.83,-178.55 110.08,-176.56 102.59,-174.4"/>
<polygon fill="#63b8ff" stroke="#63b8ff" points="662.88,-233.59 672.95,-230.3 663.03,-226.59 662.88,-233.59"/>
</a>
</g>
</g>
<!-- Node3 -->
<g id="Node000003" class="node">
<title>Node3</title>
<g id="a_Node000003"><a xlink:href="hw3_2lib_2data__proc_8c.html" target="_top" xlink:title=" ">
<polygon fill="white" stroke="#666666" points="254,-174 134.5,-174 134.5,-142 254,-142 254,-174"/>
<text text-anchor="start" x="142.5" y="-160.5" font-family="Helvetica,sans-Serif" font-size="10.00">E:/GitHub/PRML_Code</text>
<text text-anchor="middle" x="194.25" y="-148.5" font-family="Helvetica,sans-Serif" font-size="10.00">/src/hw3/lib/data_proc.c</text>
</a>
</g>
</g>
<!-- Node1&#45;&gt;Node3 -->
<g id="edge2_Node000001_Node000003" class="edge">
<title>Node1&#45;&gt;Node3</title>
<g id="a_edge2_Node000001_Node000003"><a xlink:title=" ">
<path fill="none" stroke="#63b8ff" d="M663.07,-227.42C569.92,-221.84 403.17,-208.59 263.25,-180 255.89,-178.5 248.19,-176.54 240.71,-174.44"/>
<polygon fill="#63b8ff" stroke="#63b8ff" points="662.64,-230.9 672.83,-227.99 663.05,-223.91 662.64,-230.9"/>
</a>
</g>
</g>
<!-- Node4 -->
<g id="Node000004" class="node">
<title>Node4</title>
<g id="a_Node000004"><a xlink:href="read__csv_8c.html" target="_top" xlink:title=" ">
<polygon fill="white" stroke="#666666" points="388.5,-174 272,-174 272,-142 388.5,-142 388.5,-174"/>
<text text-anchor="start" x="280" y="-160.5" font-family="Helvetica,sans-Serif" font-size="10.00">E:/GitHub/PRML_Code</text>
<text text-anchor="middle" x="330.25" y="-148.5" font-family="Helvetica,sans-Serif" font-size="10.00">/src/hw3/lib/read_csv.c</text>
</a>
</g>
</g>
<!-- Node1&#45;&gt;Node4 -->
<g id="edge3_Node000001_Node000004" class="edge">
<title>Node1&#45;&gt;Node4</title>
<g id="a_edge3_Node000001_Node000004"><a xlink:title=" ">
<path fill="none" stroke="#63b8ff" d="M663.37,-223.28C594.74,-215.16 488.68,-200.68 398.25,-180 391.38,-178.43 384.21,-176.52 377.19,-174.49"/>
<polygon fill="#63b8ff" stroke="#63b8ff" points="662.63,-226.71 672.97,-224.4 663.44,-219.76 662.63,-226.71"/>
</a>
</g>
</g>
<!-- Node5 -->
<g id="Node000005" class="node">
<title>Node5</title>
<g id="a_Node000005"><a xlink:href="hw3_2main_8c.html" target="_top" xlink:title="Main function of hw3 &#45; 2 dimensional shape classification.">
<polygon fill="white" stroke="#666666" points="523.5,-174 407,-174 407,-142 523.5,-142 523.5,-174"/>
<text text-anchor="start" x="415" y="-160.5" font-family="Helvetica,sans-Serif" font-size="10.00">E:/GitHub/PRML_Code</text>
<text text-anchor="middle" x="465.25" y="-148.5" font-family="Helvetica,sans-Serif" font-size="10.00">/src/hw3/main.c</text>
</a>
</g>
</g>
<!-- Node1&#45;&gt;Node5 -->
<g id="edge4_Node000001_Node000005" class="edge">
<title>Node1&#45;&gt;Node5</title>
<g id="a_edge4_Node000001_Node000005"><a xlink:title=" ">
<path fill="none" stroke="#63b8ff" d="M663.33,-213.81C624.65,-204.32 576.2,-192.05 533.25,-180 527.06,-178.27 520.58,-176.37 514.19,-174.45"/>
<polygon fill="#63b8ff" stroke="#63b8ff" points="662.47,-217.2 673.01,-216.18 664.13,-210.4 662.47,-217.2"/>
</a>
</g>
</g>
<!-- Node6 -->
<g id="Node000006" class="node">
<title>Node6</title>
<g id="a_Node000006"><a xlink:href="config__read_8c.html" target="_top" xlink:title=" ">
<polygon fill="white" stroke="#666666" points="658.5,-180 542,-180 542,-136 658.5,-136 658.5,-180"/>
<text text-anchor="start" x="550" y="-166.5" font-family="Helvetica,sans-Serif" font-size="10.00">E:/GitHub/PRML_Code</text>
<text text-anchor="start" x="550" y="-154.5" font-family="Helvetica,sans-Serif" font-size="10.00">/src/hw4/lib/config</text>
<text text-anchor="middle" x="600.25" y="-142.5" font-family="Helvetica,sans-Serif" font-size="10.00">_read.c</text>
</a>
</g>
</g>
<!-- Node1&#45;&gt;Node6 -->
<g id="edge5_Node000001_Node000006" class="edge">
<title>Node1&#45;&gt;Node6</title>
<g id="a_edge5_Node000001_Node000006"><a xlink:title=" ">
<path fill="none" stroke="#63b8ff" d="M696.37,-210.27C678.83,-200.91 658.12,-189.87 640.43,-180.43"/>
<polygon fill="#63b8ff" stroke="#63b8ff" points="694.48,-213.22 704.95,-214.84 697.78,-207.05 694.48,-213.22"/>
</a>
</g>
</g>
<!-- Node7 -->
<g id="Node000007" class="node">
<title>Node7</title>
<g id="a_Node000007"><a xlink:href="plot__cost_8c.html" target="_top" xlink:title=" ">
<polygon fill="white" stroke="#666666" points="793.5,-174 677,-174 677,-142 793.5,-142 793.5,-174"/>
<text text-anchor="start" x="685" y="-160.5" font-family="Helvetica,sans-Serif" font-size="10.00">E:/GitHub/PRML_Code</text>
<text text-anchor="middle" x="735.25" y="-148.5" font-family="Helvetica,sans-Serif" font-size="10.00">/src/hw4/lib/plot_cost.c</text>
</a>
</g>
</g>
<!-- Node1&#45;&gt;Node7 -->
<g id="edge6_Node000001_Node000007" class="edge">
<title>Node1&#45;&gt;Node7</title>
<g id="a_edge6_Node000001_Node000007"><a xlink:title=" ">
<path fill="none" stroke="#63b8ff" d="M735.25,-204.49C735.25,-194.3 735.25,-183.03 735.25,-174.25"/>
<polygon fill="#63b8ff" stroke="#63b8ff" points="731.75,-204.22 735.25,-214.22 738.75,-204.22 731.75,-204.22"/>
</a>
</g>
</g>
<!-- Node8 -->
<g id="Node000008" class="node">
<title>Node8</title>
<g id="a_Node000008"><a xlink:href="plot__iter_8c.html" target="_top" xlink:title=" ">
<polygon fill="white" stroke="#666666" points="928.5,-174 812,-174 812,-142 928.5,-142 928.5,-174"/>
<text text-anchor="start" x="820" y="-160.5" font-family="Helvetica,sans-Serif" font-size="10.00">E:/GitHub/PRML_Code</text>
<text text-anchor="middle" x="870.25" y="-148.5" font-family="Helvetica,sans-Serif" font-size="10.00">/src/hw4/lib/plot_iter.c</text>
</a>
</g>
</g>
<!-- Node1&#45;&gt;Node8 -->
<g id="edge7_Node000001_Node000008" class="edge">
<title>Node1&#45;&gt;Node8</title>
<g id="a_edge7_Node000001_Node000008"><a xlink:title=" ">
<path fill="none" stroke="#63b8ff" d="M774.29,-210.18C795.7,-198.76 821.77,-184.85 841.34,-174.42"/>
<polygon fill="#63b8ff" stroke="#63b8ff" points="772.72,-207.05 765.55,-214.84 776.02,-213.22 772.72,-207.05"/>
</a>
</g>
</g>
<!-- Node9 -->
<g id="Node000009" class="node">
<title>Node9</title>
<g id="a_Node000009"><a xlink:href="libc_2normal__distribution_8c.html" target="_top" xlink:title=" ">
<polygon fill="white" stroke="#666666" points="1028,-100 884.5,-100 884.5,-68 1028,-68 1028,-100"/>
<text text-anchor="start" x="892.5" y="-86.5" font-family="Helvetica,sans-Serif" font-size="10.00">E:/GitHub/PRML_Code</text>
<text text-anchor="middle" x="956.25" y="-74.5" font-family="Helvetica,sans-Serif" font-size="10.00">/src/libc/normal_distribution.c</text>
</a>
</g>
</g>
<!-- Node1&#45;&gt;Node9 -->
<g id="edge8_Node000001_Node000009" class="edge">
<title>Node1&#45;&gt;Node9</title>
<g id="a_edge8_Node000001_Node000009"><a xlink:title=" ">
<path fill="none" stroke="#63b8ff" d="M807.24,-221.07C857.74,-212.62 919.32,-198.85 937.25,-180 957.77,-158.43 959,-121.27 957.8,-100.39"/>
<polygon fill="#63b8ff" stroke="#63b8ff" points="806.8,-217.59 797.49,-222.65 807.92,-224.5 806.8,-217.59"/>
</a>
</g>
</g>
<!-- Node10 -->
<g id="Node000010" class="node">
<title>Node10</title>
<g id="a_Node000010"><a xlink:href="libc_2normal__distribution_8h.html" target="_top" xlink:title="Normal distribution functions.">
<polygon fill="white" stroke="#666666" points="1128,-174 984.5,-174 984.5,-142 1128,-142 1128,-174"/>
<text text-anchor="start" x="992.5" y="-160.5" font-family="Helvetica,sans-Serif" font-size="10.00">E:/GitHub/PRML_Code</text>
<text text-anchor="middle" x="1056.25" y="-148.5" font-family="Helvetica,sans-Serif" font-size="10.00">/src/libc/normal_distribution.h</text>
</a>
</g>
</g>
<!-- Node1&#45;&gt;Node10 -->
<g id="edge9_Node000001_Node000010" class="edge">
<title>Node1&#45;&gt;Node10</title>
<g id="a_edge9_Node000001_Node000010"><a xlink:title=" ">
<path fill="none" stroke="#63b8ff" d="M807.4,-215.85C853.95,-205.94 915.76,-192.56 970.25,-180 977.89,-178.24 985.9,-176.35 993.82,-174.44"/>
<polygon fill="#63b8ff" stroke="#63b8ff" points="806.75,-212.41 797.69,-217.91 808.2,-219.25 806.75,-212.41"/>
</a>
</g>
</g>
<!-- Node13 -->
<g id="Node000013" class="node">
<title>Node13</title>
<g id="a_Node000013"><a xlink:href="libc_2output__format_8c.html" target="_top" xlink:title=" ">
<polygon fill="white" stroke="#666666" points="1266.75,-174 1145.75,-174 1145.75,-142 1266.75,-142 1266.75,-174"/>
<text text-anchor="start" x="1153.75" y="-160.5" font-family="Helvetica,sans-Serif" font-size="10.00">E:/GitHub/PRML_Code</text>
<text text-anchor="middle" x="1206.25" y="-148.5" font-family="Helvetica,sans-Serif" font-size="10.00">/src/libc/output_format.c</text>
</a>
</g>
</g>
<!-- Node1&#45;&gt;Node13 -->
<g id="edge14_Node000001_Node000013" class="edge">
<title>Node1&#45;&gt;Node13</title>
<g id="a_edge14_Node000001_Node000013"><a xlink:title=" ">
<path fill="none" stroke="#63b8ff" d="M807.11,-225.58C888.02,-218.62 1023.09,-204.43 1137.25,-180 1144.47,-178.45 1152.03,-176.51 1159.39,-174.42"/>
<polygon fill="#63b8ff" stroke="#63b8ff" points="807.24,-222.05 797.57,-226.38 807.83,-229.03 807.24,-222.05"/>
</a>
</g>
</g>
<!-- Node14 -->
<g id="Node000014" class="node">
<title>Node14</title>
<g id="a_Node000014"><a xlink:href="signal__handler_8c.html" target="_top" xlink:title=" ">
<polygon fill="white" stroke="#666666" points="1409.25,-174 1285.25,-174 1285.25,-142 1409.25,-142 1409.25,-174"/>
<text text-anchor="start" x="1293.25" y="-160.5" font-family="Helvetica,sans-Serif" font-size="10.00">E:/GitHub/PRML_Code</text>
<text text-anchor="middle" x="1347.25" y="-148.5" font-family="Helvetica,sans-Serif" font-size="10.00">/src/libc/signal_handler.c</text>
</a>
</g>
</g>
<!-- Node1&#45;&gt;Node14 -->
<g id="edge15_Node000001_Node000014" class="edge">
<title>Node1&#45;&gt;Node14</title>
<g id="a_edge15_Node000001_Node000014"><a xlink:title=" ">
<path fill="none" stroke="#63b8ff" d="M807.57,-228.63C911.92,-224.2 1110.41,-212.03 1276.25,-180 1283.95,-178.51 1292.01,-176.54 1299.82,-174.4"/>
<polygon fill="#63b8ff" stroke="#63b8ff" points="807.6,-225.12 797.75,-229.03 807.89,-232.12 807.6,-225.12"/>
</a>
</g>
</g>
<!-- Node10&#45;&gt;Node9 -->
<g id="edge13_Node000010_Node000009" class="edge">
<title>Node10&#45;&gt;Node9</title>
<g id="a_edge13_Node000010_Node000009"><a xlink:title=" ">
<path fill="none" stroke="#63b8ff" d="M1025.83,-135.1C1010.31,-123.92 991.8,-110.59 977.77,-100.5"/>
<polygon fill="#63b8ff" stroke="#63b8ff" points="1023.65,-137.84 1033.81,-140.85 1027.74,-132.16 1023.65,-137.84"/>
</a>
</g>
</g>
<!-- Node11 -->
<g id="Node000011" class="node">
<title>Node11</title>
<g id="a_Node000011"><a xlink:href="libc_2decision__boundary_8c.html" target="_top" xlink:title=" ">
<polygon fill="white" stroke="#666666" points="1176.62,-32 1033.88,-32 1033.88,0 1176.62,0 1176.62,-32"/>
<text text-anchor="start" x="1041.88" y="-18.5" font-family="Helvetica,sans-Serif" font-size="10.00">E:/GitHub/PRML_Code</text>
<text text-anchor="middle" x="1105.25" y="-6.5" font-family="Helvetica,sans-Serif" font-size="10.00">/src/libc/decision_boundary.c</text>
</a>
</g>
</g>
<!-- Node10&#45;&gt;Node11 -->
<g id="edge10_Node000010_Node000011" class="edge">
<title>Node10&#45;&gt;Node11</title>
<g id="a_edge10_Node000010_Node000011"><a xlink:title=" ">
<path fill="none" stroke="#63b8ff" d="M1059.64,-130.39C1062.49,-112.35 1067.38,-88.22 1075.25,-68 1080.17,-55.36 1087.99,-42.2 1094.41,-32.41"/>
<polygon fill="#63b8ff" stroke="#63b8ff" points="1056.18,-129.87 1058.21,-140.27 1063.11,-130.88 1056.18,-129.87"/>
</a>
</g>
</g>
<!-- Node12 -->
<g id="Node000012" class="node">
<title>Node12</title>
<g id="a_Node000012"><a xlink:href="libc_2decision__boundary_8h.html" target="_top" xlink:title="The decision boundary header file to calculate the intersection of two normal distributions.">
<polygon fill="white" stroke="#666666" points="1226.62,-100 1083.88,-100 1083.88,-68 1226.62,-68 1226.62,-100"/>
<text text-anchor="start" x="1091.88" y="-86.5" font-family="Helvetica,sans-Serif" font-size="10.00">E:/GitHub/PRML_Code</text>
<text text-anchor="middle" x="1155.25" y="-74.5" font-family="Helvetica,sans-Serif" font-size="10.00">/src/libc/decision_boundary.h</text>
</a>
</g>
</g>
<!-- Node10&#45;&gt;Node12 -->
<g id="edge11_Node000010_Node000012" class="edge">
<title>Node10&#45;&gt;Node12</title>
<g id="a_edge11_Node000010_Node000012"><a xlink:title=" ">
<path fill="none" stroke="#63b8ff" d="M1086.36,-135.1C1101.73,-123.92 1120.06,-110.59 1133.94,-100.5"/>
<polygon fill="#63b8ff" stroke="#63b8ff" points="1084.5,-132.13 1078.47,-140.84 1088.62,-137.79 1084.5,-132.13"/>
</a>
</g>
</g>
<!-- Node12&#45;&gt;Node11 -->
<g id="edge12_Node000012_Node000011" class="edge">
<title>Node12&#45;&gt;Node11</title>
<g id="a_edge12_Node000012_Node000011"><a xlink:title=" ">
<path fill="none" stroke="#63b8ff" d="M1136.76,-58.59C1130.06,-49.75 1122.71,-40.04 1116.78,-32.22"/>
<polygon fill="#63b8ff" stroke="#63b8ff" points="1133.91,-60.63 1142.74,-66.49 1139.49,-56.4 1133.91,-60.63"/>
</a>
</g>
</g>
</g>
</svg>
