<?xml version="1.0" encoding="UTF-8" standalone="no"?>
<!DOCTYPE svg PUBLIC "-//W3C//DTD SVG 1.1//EN"
 "http://www.w3.org/Graphics/SVG/1.1/DTD/svg11.dtd">
<!-- Generated by graphviz version 9.0.0 (20230911.1827)
 -->
<!-- Title: E:/GitHub/PRML_Code/src/hw2/lib/output_csv.h Pages: 1 -->
<svg width="237pt" height="208pt"
 viewBox="0.00 0.00 237.12 208.00" xmlns="http://www.w3.org/2000/svg" xmlns:xlink="http://www.w3.org/1999/xlink">
<g id="graph0" class="graph" transform="scale(1 1) rotate(0) translate(4 204)">
<title>E:/GitHub/PRML_Code/src/hw2/lib/output_csv.h</title>
<!-- Node1 -->
<g id="Node000001" class="node">
<title>Node1</title>
<g id="a_Node000001"><a xlink:title="Output csv functions.">
<polygon fill="#999999" stroke="#666666" points="157.12,-200 33.88,-200 33.88,-168 157.12,-168 157.12,-200"/>
<text text-anchor="start" x="41.88" y="-186.5" font-family="Helvetica,sans-Serif" font-size="10.00">E:/GitHub/PRML_Code</text>
<text text-anchor="middle" x="95.5" y="-174.5" font-family="Helvetica,sans-Serif" font-size="10.00">/src/hw2/lib/output_csv.h</text>
</a>
</g>
</g>
<!-- Node2 -->
<g id="Node000002" class="node">
<title>Node2</title>
<g id="a_Node000002"><a xlink:href="hw2_2lib_2data__proc_8h.html" target="_top" xlink:title="Data processing functions for hw2.">
<polygon fill="white" stroke="#666666" points="67,-132 0,-132 0,-112 67,-112 67,-132"/>
<text text-anchor="middle" x="33.5" y="-118.5" font-family="Helvetica,sans-Serif" font-size="10.00">data_proc.h</text>
</a>
</g>
</g>
<!-- Node1&#45;&gt;Node2 -->
<g id="edge1_Node000001_Node000002" class="edge">
<title>Node1&#45;&gt;Node2</title>
<g id="a_edge1_Node000001_Node000002"><a xlink:title=" ">
<path fill="none" stroke="#63b8ff" d="M79.53,-167.55C70.92,-159.22 60.27,-148.91 51.38,-140.3"/>
<polygon fill="#63b8ff" stroke="#63b8ff" points="53.93,-137.9 44.31,-133.46 49.06,-142.93 53.93,-137.9"/>
</a>
</g>
</g>
<!-- Node3 -->
<g id="Node000003" class="node">
<title>Node3</title>
<g id="a_Node000003"><a xlink:href="hw2_2lib_2normal__distribution_8h.html" target="_top" xlink:title="Normal distribution functions.">
<polygon fill="white" stroke="#666666" points="188.5,-76 82.5,-76 82.5,-56 188.5,-56 188.5,-76"/>
<text text-anchor="middle" x="135.5" y="-62.5" font-family="Helvetica,sans-Serif" font-size="10.00">normal_distribution.h</text>
</a>
</g>
</g>
<!-- Node1&#45;&gt;Node3 -->
<g id="edge2_Node000001_Node000003" class="edge">
<title>Node1&#45;&gt;Node3</title>
<g id="a_edge2_Node000001_Node000003"><a xlink:title=" ">
<path fill="none" stroke="#63b8ff" d="M98.82,-167.53C102.13,-152.98 107.69,-130.71 114.5,-112 117.59,-103.51 121.67,-94.43 125.41,-86.66"/>
<polygon fill="#63b8ff" stroke="#63b8ff" points="128.5,-88.32 129.82,-77.8 122.23,-85.2 128.5,-88.32"/>
</a>
</g>
</g>
<!-- Node5 -->
<g id="Node000005" class="node">
<title>Node5</title>
<g id="a_Node000005"><a xlink:href="hw2_2lib_2decision__boundary_8h.html" target="_top" xlink:title="Decision boundary functions.">
<polygon fill="white" stroke="#666666" points="229.12,-132 123.88,-132 123.88,-112 229.12,-112 229.12,-132"/>
<text text-anchor="middle" x="176.5" y="-118.5" font-family="Helvetica,sans-Serif" font-size="10.00">decision_boundary.h</text>
</a>
</g>
</g>
<!-- Node1&#45;&gt;Node5 -->
<g id="edge4_Node000001_Node000005" class="edge">
<title>Node1&#45;&gt;Node5</title>
<g id="a_edge4_Node000001_Node000005"><a xlink:title=" ">
<path fill="none" stroke="#63b8ff" d="M116.36,-167.55C128.08,-158.87 142.69,-148.04 154.58,-139.24"/>
<polygon fill="#63b8ff" stroke="#63b8ff" points="156.63,-142.07 162.58,-133.31 152.46,-136.45 156.63,-142.07"/>
</a>
</g>
</g>
<!-- Node4 -->
<g id="Node000004" class="node">
<title>Node4</title>
<g id="a_Node000004"><a xlink:href="hw2_2lib_2output__format_8h.html" target="_top" xlink:title="Output format struct for color printing (charactors)">
<polygon fill="white" stroke="#666666" points="177.25,-20 93.75,-20 93.75,0 177.25,0 177.25,-20"/>
<text text-anchor="middle" x="135.5" y="-6.5" font-family="Helvetica,sans-Serif" font-size="10.00">output_format.h</text>
</a>
</g>
</g>
<!-- Node3&#45;&gt;Node4 -->
<g id="edge3_Node000003_Node000004" class="edge">
<title>Node3&#45;&gt;Node4</title>
<g id="a_edge3_Node000003_Node000004"><a xlink:title=" ">
<path fill="none" stroke="#63b8ff" d="M135.5,-55.59C135.5,-49.01 135.5,-39.96 135.5,-31.73"/>
<polygon fill="#63b8ff" stroke="#63b8ff" points="139,-31.81 135.5,-21.81 132,-31.81 139,-31.81"/>
</a>
</g>
</g>
<!-- Node5&#45;&gt;Node3 -->
<g id="edge5_Node000005_Node000003" class="edge">
<title>Node5&#45;&gt;Node3</title>
<g id="a_edge5_Node000005_Node000003"><a xlink:title=" ">
<path fill="none" stroke="#63b8ff" d="M169.36,-111.59C163.89,-104.39 156.18,-94.23 149.49,-85.43"/>
<polygon fill="#63b8ff" stroke="#63b8ff" points="152.31,-83.35 143.48,-77.5 146.73,-87.58 152.31,-83.35"/>
</a>
</g>
</g>
</g>
</svg>
