<?xml version="1.0" encoding="UTF-8" standalone="no"?>
<!DOCTYPE svg PUBLIC "-//W3C//DTD SVG 1.1//EN"
 "http://www.w3.org/Graphics/SVG/1.1/DTD/svg11.dtd">
<!-- Generated by graphviz version 9.0.0 (20230911.1827)
 -->
<!-- Title: E:/GitHub/PRML_Code/src/hw4/lib/plot_iter.c Pages: 1 -->
<svg width="495pt" height="264pt"
 viewBox="0.00 0.00 495.29 264.00" xmlns="http://www.w3.org/2000/svg" xmlns:xlink="http://www.w3.org/1999/xlink">
<g id="graph0" class="graph" transform="scale(1 1) rotate(0) translate(4 260)">
<title>E:/GitHub/PRML_Code/src/hw4/lib/plot_iter.c</title>
<!-- Node1 -->
<g id="Node000001" class="node">
<title>Node1</title>
<g id="a_Node000001"><a xlink:title=" ">
<polygon fill="#999999" stroke="#666666" points="286.79,-256 170.29,-256 170.29,-224 286.79,-224 286.79,-256"/>
<text text-anchor="start" x="178.29" y="-242.5" font-family="Helvetica,sans-Serif" font-size="10.00">E:/GitHub/PRML_Code</text>
<text text-anchor="middle" x="228.54" y="-230.5" font-family="Helvetica,sans-Serif" font-size="10.00">/src/hw4/lib/plot_iter.c</text>
</a>
</g>
</g>
<!-- Node2 -->
<g id="Node000002" class="node">
<title>Node2</title>
<g id="a_Node000002"><a xlink:title=" ">
<polygon fill="#e0e0e0" stroke="#999999" points="80.16,-20 34.91,-20 34.91,0 80.16,0 80.16,-20"/>
<text text-anchor="middle" x="57.54" y="-6.5" font-family="Helvetica,sans-Serif" font-size="10.00">stdio.h</text>
</a>
</g>
</g>
<!-- Node1&#45;&gt;Node2 -->
<g id="edge1_Node000001_Node000002" class="edge">
<title>Node1&#45;&gt;Node2</title>
<g id="a_edge1_Node000001_Node000002"><a xlink:title=" ">
<path fill="none" stroke="#63b8ff" d="M169.94,-232.02C113.21,-221.56 31.88,-195.66 4.54,-132 -11.29,-95.17 19.21,-52.22 40.15,-28.68"/>
<polygon fill="#63b8ff" stroke="#63b8ff" points="42.57,-31.21 46.82,-21.5 37.45,-26.45 42.57,-31.21"/>
</a>
</g>
</g>
<!-- Node3 -->
<g id="Node000003" class="node">
<title>Node3</title>
<g id="a_Node000003"><a xlink:title=" ">
<polygon fill="#e0e0e0" stroke="#999999" points="287.29,-20 239.79,-20 239.79,0 287.29,0 287.29,-20"/>
<text text-anchor="middle" x="263.54" y="-6.5" font-family="Helvetica,sans-Serif" font-size="10.00">stdlib.h</text>
</a>
</g>
</g>
<!-- Node1&#45;&gt;Node3 -->
<g id="edge2_Node000001_Node000003" class="edge">
<title>Node1&#45;&gt;Node3</title>
<g id="a_edge2_Node000001_Node000003"><a xlink:title=" ">
<path fill="none" stroke="#63b8ff" d="M241.03,-223.58C262.46,-196 305.38,-135.52 320.54,-76 322.73,-67.39 324.41,-64 320.54,-56 314.6,-43.75 303.53,-33.83 292.72,-26.45"/>
<polygon fill="#63b8ff" stroke="#63b8ff" points="294.64,-23.52 284.3,-21.2 290.93,-29.46 294.64,-23.52"/>
</a>
</g>
</g>
<!-- Node4 -->
<g id="Node000004" class="node">
<title>Node4</title>
<g id="a_Node000004"><a xlink:href="plot__iter_8h.html" target="_top" xlink:title="Create a gnuplot drawing API for iter.h.">
<polygon fill="white" stroke="#666666" points="155.91,-188 97.16,-188 97.16,-168 155.91,-168 155.91,-188"/>
<text text-anchor="middle" x="126.54" y="-174.5" font-family="Helvetica,sans-Serif" font-size="10.00">plot_iter.h</text>
</a>
</g>
</g>
<!-- Node1&#45;&gt;Node4 -->
<g id="edge3_Node000001_Node000004" class="edge">
<title>Node1&#45;&gt;Node4</title>
<g id="a_edge3_Node000001_Node000004"><a xlink:title=" ">
<path fill="none" stroke="#63b8ff" d="M202.27,-223.55C186.92,-214.52 167.63,-203.17 152.36,-194.19"/>
<polygon fill="#63b8ff" stroke="#63b8ff" points="154.23,-191.23 143.83,-189.18 150.68,-197.26 154.23,-191.23"/>
</a>
</g>
</g>
<!-- Node5 -->
<g id="Node000005" class="node">
<title>Node5</title>
<g id="a_Node000005"><a xlink:href="config__read_8h.html" target="_top" xlink:title=" ">
<polygon fill="white" stroke="#666666" points="163.41,-76 89.66,-76 89.66,-56 163.41,-56 163.41,-76"/>
<text text-anchor="middle" x="126.54" y="-62.5" font-family="Helvetica,sans-Serif" font-size="10.00">config_read.h</text>
</a>
</g>
</g>
<!-- Node1&#45;&gt;Node5 -->
<g id="edge14_Node000001_Node000005" class="edge">
<title>Node1&#45;&gt;Node5</title>
<g id="a_edge14_Node000001_Node000005"><a xlink:title=" ">
<path fill="none" stroke="#63b8ff" d="M219.48,-223.74C200.83,-192.28 158.15,-120.32 137.77,-85.95"/>
<polygon fill="#63b8ff" stroke="#63b8ff" points="140.88,-84.33 132.77,-77.51 134.86,-87.9 140.88,-84.33"/>
</a>
</g>
</g>
<!-- Node8 -->
<g id="Node000008" class="node">
<title>Node8</title>
<g id="a_Node000008"><a xlink:href="iter_8h.html" target="_top" xlink:title="Iterate through points and fine the point closest to the intersection of lines Ref:">
<polygon fill="white" stroke="#666666" points="51.41,-132 13.66,-132 13.66,-112 51.41,-112 51.41,-132"/>
<text text-anchor="middle" x="32.54" y="-118.5" font-family="Helvetica,sans-Serif" font-size="10.00">iter.h</text>
</a>
</g>
</g>
<!-- Node1&#45;&gt;Node8 -->
<g id="edge15_Node000001_Node000008" class="edge">
<title>Node1&#45;&gt;Node8</title>
<g id="a_edge15_Node000001_Node000008"><a xlink:title=" ">
<path fill="none" stroke="#63b8ff" d="M169.84,-224.91C143.48,-216.81 112.91,-204.83 88.54,-188 70.59,-175.6 54.85,-156.12 44.66,-141.71"/>
<polygon fill="#63b8ff" stroke="#63b8ff" points="47.64,-139.86 39.13,-133.54 41.84,-143.79 47.64,-139.86"/>
</a>
</g>
</g>
<!-- Node9 -->
<g id="Node000009" class="node">
<title>Node9</title>
<g id="a_Node000009"><a xlink:href="libc_2output__format_8h.html" target="_top" xlink:title="Output format struct for color printing (charactors)">
<polygon fill="white" stroke="#666666" points="487.29,-188 367.79,-188 367.79,-168 487.29,-168 487.29,-188"/>
<text text-anchor="middle" x="427.54" y="-174.5" font-family="Helvetica,sans-Serif" font-size="10.00">../../libc/output_format.h</text>
</a>
</g>
</g>
<!-- Node1&#45;&gt;Node9 -->
<g id="edge16_Node000001_Node000009" class="edge">
<title>Node1&#45;&gt;Node9</title>
<g id="a_edge16_Node000001_Node000009"><a xlink:title=" ">
<path fill="none" stroke="#63b8ff" d="M279.78,-223.55C312.5,-213.68 354.4,-201.05 385.22,-191.76"/>
<polygon fill="#63b8ff" stroke="#63b8ff" points="386.03,-195.17 394.59,-188.93 384.01,-188.47 386.03,-195.17"/>
</a>
</g>
</g>
<!-- Node10 -->
<g id="Node000010" class="node">
<title>Node10</title>
<g id="a_Node000010"><a xlink:href="random_8h.html" target="_top" xlink:title="Random number generation functions. Ref:">
<polygon fill="white" stroke="#666666" points="311.79,-76 219.29,-76 219.29,-56 311.79,-56 311.79,-76"/>
<text text-anchor="middle" x="265.54" y="-62.5" font-family="Helvetica,sans-Serif" font-size="10.00">../../libc/random.h</text>
</a>
</g>
</g>
<!-- Node1&#45;&gt;Node10 -->
<g id="edge17_Node000001_Node000010" class="edge">
<title>Node1&#45;&gt;Node10</title>
<g id="a_edge17_Node000001_Node000010"><a xlink:title=" ">
<path fill="none" stroke="#63b8ff" d="M233.02,-223.91C235.94,-213.8 239.72,-200.16 242.54,-188 250.64,-153.04 258.01,-111.91 262.12,-87.73"/>
<polygon fill="#63b8ff" stroke="#63b8ff" points="265.55,-88.4 263.75,-77.96 258.65,-87.24 265.55,-88.4"/>
</a>
</g>
</g>
<!-- Node4&#45;&gt;Node2 -->
<g id="edge4_Node000004_Node000002" class="edge">
<title>Node4&#45;&gt;Node2</title>
<g id="a_edge4_Node000004_Node000002"><a xlink:title=" ">
<path fill="none" stroke="#63b8ff" d="M121.95,-167.65C113.34,-149.96 94.39,-110.3 80.54,-76 74.56,-61.2 68.57,-44.17 64.2,-31.26"/>
<polygon fill="#63b8ff" stroke="#63b8ff" points="67.52,-30.17 61.04,-21.79 60.88,-32.38 67.52,-30.17"/>
</a>
</g>
</g>
<!-- Node4&#45;&gt;Node3 -->
<g id="edge5_Node000004_Node000003" class="edge">
<title>Node4&#45;&gt;Node3</title>
<g id="a_edge5_Node000004_Node000003"><a xlink:title=" ">
<path fill="none" stroke="#63b8ff" d="M131.9,-167.6C144.23,-146.42 176.17,-93.88 210.54,-56 220,-45.57 231.85,-35.29 241.94,-27.2"/>
<polygon fill="#63b8ff" stroke="#63b8ff" points="244.02,-30.02 249.75,-21.11 239.72,-24.5 244.02,-30.02"/>
</a>
</g>
</g>
<!-- Node4&#45;&gt;Node5 -->
<g id="edge6_Node000004_Node000005" class="edge">
<title>Node4&#45;&gt;Node5</title>
<g id="a_edge6_Node000004_Node000005"><a xlink:title=" ">
<path fill="none" stroke="#63b8ff" d="M126.54,-167.62C126.54,-150.01 126.54,-111.59 126.54,-87.65"/>
<polygon fill="#63b8ff" stroke="#63b8ff" points="130.04,-87.87 126.54,-77.87 123.04,-87.87 130.04,-87.87"/>
</a>
</g>
</g>
<!-- Node4&#45;&gt;Node8 -->
<g id="edge11_Node000004_Node000008" class="edge">
<title>Node4&#45;&gt;Node8</title>
<g id="a_edge11_Node000004_Node000008"><a xlink:title=" ">
<path fill="none" stroke="#63b8ff" d="M110.16,-167.59C95.96,-159.44 75.15,-147.48 58.66,-138"/>
<polygon fill="#63b8ff" stroke="#63b8ff" points="60.76,-135.18 50.35,-133.23 57.28,-141.25 60.76,-135.18"/>
</a>
</g>
</g>
<!-- Node5&#45;&gt;Node2 -->
<g id="edge7_Node000005_Node000002" class="edge">
<title>Node5&#45;&gt;Node2</title>
<g id="a_edge7_Node000005_Node000002"><a xlink:title=" ">
<path fill="none" stroke="#63b8ff" d="M114.52,-55.59C104.52,-47.77 90.07,-36.46 78.23,-27.19"/>
<polygon fill="#63b8ff" stroke="#63b8ff" points="80.64,-24.64 70.61,-21.23 76.33,-30.15 80.64,-24.64"/>
</a>
</g>
</g>
<!-- Node5&#45;&gt;Node3 -->
<g id="edge8_Node000005_Node000003" class="edge">
<title>Node5&#45;&gt;Node3</title>
<g id="a_edge8_Node000005_Node000003"><a xlink:title=" ">
<path fill="none" stroke="#63b8ff" d="M150.4,-55.59C172.07,-47.05 204.3,-34.35 228.83,-24.68"/>
<polygon fill="#63b8ff" stroke="#63b8ff" points="230.06,-27.96 238.08,-21.03 227.49,-21.45 230.06,-27.96"/>
</a>
</g>
</g>
<!-- Node6 -->
<g id="Node000006" class="node">
<title>Node6</title>
<g id="a_Node000006"><a xlink:title=" ">
<polygon fill="#e0e0e0" stroke="#999999" points="154.41,-20 98.66,-20 98.66,0 154.41,0 154.41,-20"/>
<text text-anchor="middle" x="126.54" y="-6.5" font-family="Helvetica,sans-Serif" font-size="10.00">stdbool.h</text>
</a>
</g>
</g>
<!-- Node5&#45;&gt;Node6 -->
<g id="edge9_Node000005_Node000006" class="edge">
<title>Node5&#45;&gt;Node6</title>
<g id="a_edge9_Node000005_Node000006"><a xlink:title=" ">
<path fill="none" stroke="#63b8ff" d="M126.54,-55.59C126.54,-49.01 126.54,-39.96 126.54,-31.73"/>
<polygon fill="#63b8ff" stroke="#63b8ff" points="130.04,-31.81 126.54,-21.81 123.04,-31.81 130.04,-31.81"/>
</a>
</g>
</g>
<!-- Node7 -->
<g id="Node000007" class="node">
<title>Node7</title>
<g id="a_Node000007"><a xlink:title=" ">
<polygon fill="#e0e0e0" stroke="#999999" points="220.66,-20 172.41,-20 172.41,0 220.66,0 220.66,-20"/>
<text text-anchor="middle" x="196.54" y="-6.5" font-family="Helvetica,sans-Serif" font-size="10.00">string.h</text>
</a>
</g>
</g>
<!-- Node5&#45;&gt;Node7 -->
<g id="edge10_Node000005_Node000007" class="edge">
<title>Node5&#45;&gt;Node7</title>
<g id="a_edge10_Node000005_Node000007"><a xlink:title=" ">
<path fill="none" stroke="#63b8ff" d="M138.73,-55.59C148.87,-47.77 163.53,-36.46 175.55,-27.19"/>
<polygon fill="#63b8ff" stroke="#63b8ff" points="177.5,-30.1 183.28,-21.22 173.23,-24.56 177.5,-30.1"/>
</a>
</g>
</g>
<!-- Node8&#45;&gt;Node2 -->
<g id="edge12_Node000008_Node000002" class="edge">
<title>Node8&#45;&gt;Node2</title>
<g id="a_edge12_Node000008_Node000002"><a xlink:title=" ">
<path fill="none" stroke="#63b8ff" d="M34.67,-111.62C38.69,-93.92 47.48,-55.24 52.92,-31.32"/>
<polygon fill="#63b8ff" stroke="#63b8ff" points="56.27,-32.36 55.07,-21.83 49.45,-30.81 56.27,-32.36"/>
</a>
</g>
</g>
<!-- Node8&#45;&gt;Node5 -->
<g id="edge13_Node000008_Node000005" class="edge">
<title>Node8&#45;&gt;Node5</title>
<g id="a_edge13_Node000008_Node000005"><a xlink:title=" ">
<path fill="none" stroke="#63b8ff" d="M48.91,-111.59C63.11,-103.44 83.92,-91.48 100.42,-82"/>
<polygon fill="#63b8ff" stroke="#63b8ff" points="101.79,-85.25 108.72,-77.23 98.31,-79.18 101.79,-85.25"/>
</a>
</g>
</g>
<!-- Node10&#45;&gt;Node2 -->
<g id="edge18_Node000010_Node000002" class="edge">
<title>Node10&#45;&gt;Node2</title>
<g id="a_edge18_Node000010_Node000002"><a xlink:title=" ">
<path fill="none" stroke="#63b8ff" d="M227.36,-55.52C193.96,-47.16 143.88,-34.48 91.45,-20.47"/>
<polygon fill="#63b8ff" stroke="#63b8ff" points="92.62,-17.16 82.05,-17.95 90.8,-23.92 92.62,-17.16"/>
</a>
</g>
</g>
<!-- Node10&#45;&gt;Node3 -->
<g id="edge19_Node000010_Node000003" class="edge">
<title>Node10&#45;&gt;Node3</title>
<g id="a_edge19_Node000010_Node000003"><a xlink:title=" ">
<path fill="none" stroke="#63b8ff" d="M265.19,-55.59C264.94,-49.01 264.61,-39.96 264.3,-31.73"/>
<polygon fill="#63b8ff" stroke="#63b8ff" points="267.8,-31.67 263.94,-21.81 260.81,-31.93 267.8,-31.67"/>
</a>
</g>
</g>
</g>
</svg>
