<?xml version="1.0" encoding="UTF-8" standalone="no"?>
<!DOCTYPE svg PUBLIC "-//W3C//DTD SVG 1.1//EN"
 "http://www.w3.org/Graphics/SVG/1.1/DTD/svg11.dtd">
<!-- Generated by graphviz version 9.0.0 (20230911.1827)
 -->
<!-- Title: E:/GitHub/PRML_Code/src/libc/random.h Pages: 1 -->
<svg width="125pt" height="96pt"
 viewBox="0.00 0.00 124.50 96.00" xmlns="http://www.w3.org/2000/svg" xmlns:xlink="http://www.w3.org/1999/xlink">
<g id="graph0" class="graph" transform="scale(1 1) rotate(0) translate(4 92)">
<title>E:/GitHub/PRML_Code/src/libc/random.h</title>
<!-- Node1 -->
<g id="Node000001" class="node">
<title>Node1</title>
<g id="a_Node000001"><a xlink:title="Random number generation functions. Ref:">
<polygon fill="#999999" stroke="#666666" points="116.5,-88 0,-88 0,-56 116.5,-56 116.5,-88"/>
<text text-anchor="start" x="8" y="-74.5" font-family="Helvetica,sans-Serif" font-size="10.00">E:/GitHub/PRML_Code</text>
<text text-anchor="middle" x="58.25" y="-62.5" font-family="Helvetica,sans-Serif" font-size="10.00">/src/libc/random.h</text>
</a>
</g>
</g>
<!-- Node2 -->
<g id="Node000002" class="node">
<title>Node2</title>
<g id="a_Node000002"><a xlink:title=" ">
<polygon fill="#e0e0e0" stroke="#999999" points="48.88,-20 3.62,-20 3.62,0 48.88,0 48.88,-20"/>
<text text-anchor="middle" x="26.25" y="-6.5" font-family="Helvetica,sans-Serif" font-size="10.00">stdio.h</text>
</a>
</g>
</g>
<!-- Node1&#45;&gt;Node2 -->
<g id="edge1_Node000001_Node000002" class="edge">
<title>Node1&#45;&gt;Node2</title>
<g id="a_edge1_Node000001_Node000002"><a xlink:title=" ">
<path fill="none" stroke="#63b8ff" d="M50.01,-55.55C45.94,-47.91 40.98,-38.61 36.64,-30.49"/>
<polygon fill="#63b8ff" stroke="#63b8ff" points="39.77,-28.92 31.98,-21.74 33.6,-32.21 39.77,-28.92"/>
</a>
</g>
</g>
<!-- Node3 -->
<g id="Node000003" class="node">
<title>Node3</title>
<g id="a_Node000003"><a xlink:title=" ">
<polygon fill="#e0e0e0" stroke="#999999" points="114,-20 66.5,-20 66.5,0 114,0 114,-20"/>
<text text-anchor="middle" x="90.25" y="-6.5" font-family="Helvetica,sans-Serif" font-size="10.00">stdlib.h</text>
</a>
</g>
</g>
<!-- Node1&#45;&gt;Node3 -->
<g id="edge2_Node000001_Node000003" class="edge">
<title>Node1&#45;&gt;Node3</title>
<g id="a_edge2_Node000001_Node000003"><a xlink:title=" ">
<path fill="none" stroke="#63b8ff" d="M66.49,-55.55C70.56,-47.91 75.52,-38.61 79.86,-30.49"/>
<polygon fill="#63b8ff" stroke="#63b8ff" points="82.9,-32.21 84.52,-21.74 76.73,-28.92 82.9,-32.21"/>
</a>
</g>
</g>
</g>
</svg>
