<?xml version="1.0" encoding="UTF-8" standalone="no"?>
<!DOCTYPE svg PUBLIC "-//W3C//DTD SVG 1.1//EN"
 "http://www.w3.org/Graphics/SVG/1.1/DTD/svg11.dtd">
<!-- Generated by graphviz version 9.0.0 (20230911.1827)
 -->
<!-- Title: E:/GitHub/PRML_Code/src/hw3/lib/read_csv.h Pages: 1 -->
<svg width="277pt" height="96pt"
 viewBox="0.00 0.00 277.12 96.00" xmlns="http://www.w3.org/2000/svg" xmlns:xlink="http://www.w3.org/1999/xlink">
<g id="graph0" class="graph" transform="scale(1 1) rotate(0) translate(4 92)">
<title>E:/GitHub/PRML_Code/src/hw3/lib/read_csv.h</title>
<!-- Node1 -->
<g id="Node000001" class="node">
<title>Node1</title>
<g id="a_Node000001"><a xlink:title="Read csv file related utilities.">
<polygon fill="#999999" stroke="#666666" points="179.88,-88 63.38,-88 63.38,-56 179.88,-56 179.88,-88"/>
<text text-anchor="start" x="71.38" y="-74.5" font-family="Helvetica,sans-Serif" font-size="10.00">E:/GitHub/PRML_Code</text>
<text text-anchor="middle" x="121.62" y="-62.5" font-family="Helvetica,sans-Serif" font-size="10.00">/src/hw3/lib/read_csv.h</text>
</a>
</g>
</g>
<!-- Node2 -->
<g id="Node000002" class="node">
<title>Node2</title>
<g id="a_Node000002"><a xlink:title=" ">
<polygon fill="#e0e0e0" stroke="#999999" points="45.25,-20 0,-20 0,0 45.25,0 45.25,-20"/>
<text text-anchor="middle" x="22.62" y="-6.5" font-family="Helvetica,sans-Serif" font-size="10.00">stdio.h</text>
</a>
</g>
</g>
<!-- Node1&#45;&gt;Node2 -->
<g id="edge1_Node000001_Node000002" class="edge">
<title>Node1&#45;&gt;Node2</title>
<g id="a_edge1_Node000001_Node000002"><a xlink:title=" ">
<path fill="none" stroke="#63b8ff" d="M96.13,-55.55C81.23,-46.52 62.51,-35.17 47.69,-26.19"/>
<polygon fill="#63b8ff" stroke="#63b8ff" points="49.81,-23.38 39.44,-21.19 46.18,-29.37 49.81,-23.38"/>
</a>
</g>
</g>
<!-- Node3 -->
<g id="Node000003" class="node">
<title>Node3</title>
<g id="a_Node000003"><a xlink:title=" ">
<polygon fill="#e0e0e0" stroke="#999999" points="110.38,-20 62.88,-20 62.88,0 110.38,0 110.38,-20"/>
<text text-anchor="middle" x="86.62" y="-6.5" font-family="Helvetica,sans-Serif" font-size="10.00">stdlib.h</text>
</a>
</g>
</g>
<!-- Node1&#45;&gt;Node3 -->
<g id="edge2_Node000001_Node000003" class="edge">
<title>Node1&#45;&gt;Node3</title>
<g id="a_edge2_Node000001_Node000003"><a xlink:title=" ">
<path fill="none" stroke="#63b8ff" d="M112.61,-55.55C108.11,-47.82 102.61,-38.4 97.83,-30.21"/>
<polygon fill="#63b8ff" stroke="#63b8ff" points="100.94,-28.59 92.88,-21.72 94.89,-32.12 100.94,-28.59"/>
</a>
</g>
</g>
<!-- Node4 -->
<g id="Node000004" class="node">
<title>Node4</title>
<g id="a_Node000004"><a xlink:title=" ">
<polygon fill="#e0e0e0" stroke="#999999" points="184.5,-20 128.75,-20 128.75,0 184.5,0 184.5,-20"/>
<text text-anchor="middle" x="156.62" y="-6.5" font-family="Helvetica,sans-Serif" font-size="10.00">stdbool.h</text>
</a>
</g>
</g>
<!-- Node1&#45;&gt;Node4 -->
<g id="edge3_Node000001_Node000004" class="edge">
<title>Node1&#45;&gt;Node4</title>
<g id="a_edge3_Node000001_Node000004"><a xlink:title=" ">
<path fill="none" stroke="#63b8ff" d="M130.64,-55.55C135.14,-47.82 140.64,-38.4 145.42,-30.21"/>
<polygon fill="#63b8ff" stroke="#63b8ff" points="148.36,-32.12 150.37,-21.72 142.31,-28.59 148.36,-32.12"/>
</a>
</g>
</g>
<!-- Node5 -->
<g id="Node000005" class="node">
<title>Node5</title>
<g id="a_Node000005"><a xlink:href="hw3_2lib_2data__proc_8h.html" target="_top" xlink:title="Data processing functions.">
<polygon fill="white" stroke="#666666" points="269.12,-20 202.12,-20 202.12,0 269.12,0 269.12,-20"/>
<text text-anchor="middle" x="235.62" y="-6.5" font-family="Helvetica,sans-Serif" font-size="10.00">data_proc.h</text>
</a>
</g>
</g>
<!-- Node1&#45;&gt;Node5 -->
<g id="edge4_Node000001_Node000005" class="edge">
<title>Node1&#45;&gt;Node5</title>
<g id="a_edge4_Node000001_Node000005"><a xlink:title=" ">
<path fill="none" stroke="#63b8ff" d="M150.98,-55.55C168.47,-46.35 190.53,-34.74 207.74,-25.68"/>
<polygon fill="#63b8ff" stroke="#63b8ff" points="209.19,-28.87 216.41,-21.11 205.93,-22.67 209.19,-28.87"/>
</a>
</g>
</g>
</g>
</svg>
