<?xml version="1.0" encoding="UTF-8" standalone="no"?>
<!DOCTYPE svg PUBLIC "-//W3C//DTD SVG 1.1//EN"
 "http://www.w3.org/Graphics/SVG/1.1/DTD/svg11.dtd">
<!-- Generated by graphviz version 9.0.0 (20230911.1827)
 -->
<!-- Title: E:/GitHub/PRML_Code/src/hw3/lib/read_csv.c Pages: 1 -->
<svg width="360pt" height="152pt"
 viewBox="0.00 0.00 360.38 152.00" xmlns="http://www.w3.org/2000/svg" xmlns:xlink="http://www.w3.org/1999/xlink">
<g id="graph0" class="graph" transform="scale(1 1) rotate(0) translate(4 148)">
<title>E:/GitHub/PRML_Code/src/hw3/lib/read_csv.c</title>
<!-- Node1 -->
<g id="Node000001" class="node">
<title>Node1</title>
<g id="a_Node000001"><a xlink:title=" ">
<polygon fill="#999999" stroke="#666666" points="203.88,-144 87.38,-144 87.38,-112 203.88,-112 203.88,-144"/>
<text text-anchor="start" x="95.38" y="-130.5" font-family="Helvetica,sans-Serif" font-size="10.00">E:/GitHub/PRML_Code</text>
<text text-anchor="middle" x="145.62" y="-118.5" font-family="Helvetica,sans-Serif" font-size="10.00">/src/hw3/lib/read_csv.c</text>
</a>
</g>
</g>
<!-- Node2 -->
<g id="Node000002" class="node">
<title>Node2</title>
<g id="a_Node000002"><a xlink:title=" ">
<polygon fill="#e0e0e0" stroke="#999999" points="45.25,-20 0,-20 0,0 45.25,0 45.25,-20"/>
<text text-anchor="middle" x="22.62" y="-6.5" font-family="Helvetica,sans-Serif" font-size="10.00">stdio.h</text>
</a>
</g>
</g>
<!-- Node1&#45;&gt;Node2 -->
<g id="edge1_Node000001_Node000002" class="edge">
<title>Node1&#45;&gt;Node2</title>
<g id="a_edge1_Node000001_Node000002"><a xlink:title=" ">
<path fill="none" stroke="#63b8ff" d="M129.29,-111.6C106.35,-89.96 64.7,-50.68 40.8,-28.14"/>
<polygon fill="#63b8ff" stroke="#63b8ff" points="43.36,-25.75 33.69,-21.43 38.56,-30.84 43.36,-25.75"/>
</a>
</g>
</g>
<!-- Node3 -->
<g id="Node000003" class="node">
<title>Node3</title>
<g id="a_Node000003"><a xlink:title=" ">
<polygon fill="#e0e0e0" stroke="#999999" points="110.38,-20 62.88,-20 62.88,0 110.38,0 110.38,-20"/>
<text text-anchor="middle" x="86.62" y="-6.5" font-family="Helvetica,sans-Serif" font-size="10.00">stdlib.h</text>
</a>
</g>
</g>
<!-- Node1&#45;&gt;Node3 -->
<g id="edge2_Node000001_Node000003" class="edge">
<title>Node1&#45;&gt;Node3</title>
<g id="a_edge2_Node000001_Node000003"><a xlink:title=" ">
<path fill="none" stroke="#63b8ff" d="M130.95,-111.55C122.52,-101.96 112.31,-89.01 105.62,-76 98.38,-61.89 93.49,-44.61 90.49,-31.41"/>
<polygon fill="#63b8ff" stroke="#63b8ff" points="93.94,-30.81 88.48,-21.72 87.09,-32.23 93.94,-30.81"/>
</a>
</g>
</g>
<!-- Node4 -->
<g id="Node000004" class="node">
<title>Node4</title>
<g id="a_Node000004"><a xlink:href="read__csv_8h.html" target="_top" xlink:title="Read csv file related utilities.">
<polygon fill="white" stroke="#666666" points="176.88,-76 114.38,-76 114.38,-56 176.88,-56 176.88,-76"/>
<text text-anchor="middle" x="145.62" y="-62.5" font-family="Helvetica,sans-Serif" font-size="10.00">read_csv.h</text>
</a>
</g>
</g>
<!-- Node1&#45;&gt;Node4 -->
<g id="edge3_Node000001_Node000004" class="edge">
<title>Node1&#45;&gt;Node4</title>
<g id="a_edge3_Node000001_Node000004"><a xlink:title=" ">
<path fill="none" stroke="#63b8ff" d="M145.62,-111.55C145.62,-104.34 145.62,-95.66 145.62,-87.88"/>
<polygon fill="#63b8ff" stroke="#63b8ff" points="149.13,-87.92 145.63,-77.92 142.13,-87.92 149.13,-87.92"/>
</a>
</g>
</g>
<!-- Node6 -->
<g id="Node000006" class="node">
<title>Node6</title>
<g id="a_Node000006"><a xlink:href="hw3_2lib_2data__proc_8h.html" target="_top" xlink:title="Data processing functions.">
<polygon fill="white" stroke="#666666" points="269.12,-20 202.12,-20 202.12,0 269.12,0 269.12,-20"/>
<text text-anchor="middle" x="235.62" y="-6.5" font-family="Helvetica,sans-Serif" font-size="10.00">data_proc.h</text>
</a>
</g>
</g>
<!-- Node1&#45;&gt;Node6 -->
<g id="edge8_Node000001_Node000006" class="edge">
<title>Node1&#45;&gt;Node6</title>
<g id="a_edge8_Node000001_Node000006"><a xlink:title=" ">
<path fill="none" stroke="#63b8ff" d="M157.56,-111.85C165.53,-101.72 176.24,-88.09 185.62,-76 197.87,-60.23 211.71,-42.23 221.72,-29.18"/>
<polygon fill="#63b8ff" stroke="#63b8ff" points="224.31,-31.55 227.61,-21.48 218.75,-27.29 224.31,-31.55"/>
</a>
</g>
</g>
<!-- Node7 -->
<g id="Node000007" class="node">
<title>Node7</title>
<g id="a_Node000007"><a xlink:href="libc_2output__format_8h.html" target="_top" xlink:title="Output format struct for color printing (charactors)">
<polygon fill="white" stroke="#666666" points="352.38,-76 232.88,-76 232.88,-56 352.38,-56 352.38,-76"/>
<text text-anchor="middle" x="292.62" y="-62.5" font-family="Helvetica,sans-Serif" font-size="10.00">../../libc/output_format.h</text>
</a>
</g>
</g>
<!-- Node1&#45;&gt;Node7 -->
<g id="edge9_Node000001_Node000007" class="edge">
<title>Node1&#45;&gt;Node7</title>
<g id="a_edge9_Node000001_Node000007"><a xlink:title=" ">
<path fill="none" stroke="#63b8ff" d="M183.48,-111.55C206.87,-102 236.63,-89.86 259.15,-80.66"/>
<polygon fill="#63b8ff" stroke="#63b8ff" points="260.24,-84 268.17,-76.98 257.59,-77.52 260.24,-84"/>
</a>
</g>
</g>
<!-- Node4&#45;&gt;Node2 -->
<g id="edge4_Node000004_Node000002" class="edge">
<title>Node4&#45;&gt;Node2</title>
<g id="a_edge4_Node000004_Node000002"><a xlink:title=" ">
<path fill="none" stroke="#63b8ff" d="M124.2,-55.59C105,-47.17 76.58,-34.69 54.68,-25.07"/>
<polygon fill="#63b8ff" stroke="#63b8ff" points="56.17,-21.9 45.6,-21.09 53.35,-28.31 56.17,-21.9"/>
</a>
</g>
</g>
<!-- Node4&#45;&gt;Node3 -->
<g id="edge5_Node000004_Node000003" class="edge">
<title>Node4&#45;&gt;Node3</title>
<g id="a_edge5_Node000004_Node000003"><a xlink:title=" ">
<path fill="none" stroke="#63b8ff" d="M135.35,-55.59C127.06,-48.01 115.18,-37.13 105.22,-28.02"/>
<polygon fill="#63b8ff" stroke="#63b8ff" points="107.64,-25.49 97.9,-21.32 102.91,-30.65 107.64,-25.49"/>
</a>
</g>
</g>
<!-- Node5 -->
<g id="Node000005" class="node">
<title>Node5</title>
<g id="a_Node000005"><a xlink:title=" ">
<polygon fill="#e0e0e0" stroke="#999999" points="184.5,-20 128.75,-20 128.75,0 184.5,0 184.5,-20"/>
<text text-anchor="middle" x="156.62" y="-6.5" font-family="Helvetica,sans-Serif" font-size="10.00">stdbool.h</text>
</a>
</g>
</g>
<!-- Node4&#45;&gt;Node5 -->
<g id="edge6_Node000004_Node000005" class="edge">
<title>Node4&#45;&gt;Node5</title>
<g id="a_edge6_Node000004_Node000005"><a xlink:title=" ">
<path fill="none" stroke="#63b8ff" d="M147.54,-55.59C148.9,-48.93 150.77,-39.75 152.46,-31.44"/>
<polygon fill="#63b8ff" stroke="#63b8ff" points="155.86,-32.28 154.43,-21.78 149,-30.88 155.86,-32.28"/>
</a>
</g>
</g>
<!-- Node4&#45;&gt;Node6 -->
<g id="edge7_Node000004_Node000006" class="edge">
<title>Node4&#45;&gt;Node6</title>
<g id="a_edge7_Node000004_Node000006"><a xlink:title=" ">
<path fill="none" stroke="#63b8ff" d="M161.3,-55.59C174.77,-47.51 194.44,-35.71 210.17,-26.27"/>
<polygon fill="#63b8ff" stroke="#63b8ff" points="211.75,-29.4 218.53,-21.26 208.15,-23.4 211.75,-29.4"/>
</a>
</g>
</g>
</g>
</svg>
